<svg xmlns="http://www.w3.org/2000/svg" width="210" height="126" fill="none" viewBox="0 0 210 126"><mask id="mask0_85_5190" style="mask-type:luminance" width="210" height="126" x="0" y="0" maskUnits="userSpaceOnUse"><path fill="#fff" d="M0 -6.10352e-05H209.837V125.231H0V-6.10352e-05Z"/></mask><g mask="url(#mask0_85_5190)"><path fill="#B2DEFF" d="M-148 104.266L-90.491 71.0408V137.491L-148 104.266ZM-148.719 229.638L-90.4949 195.994V207.282L-148.719 240.925V229.638ZM-90.4988 192.658L-148.719 226.297V215.846L-90.4949 182.207L-90.4988 192.658ZM-148.719 202.058L-90.4949 168.415V178.87L-148.719 212.505V202.058ZM-148.719 188.266L-90.4949 154.623V165.078L-148.719 198.718V188.266ZM-148.719 173.639C-129.308 162.441 -109.902 151.208 -90.4949 139.995V151.287L-148.719 184.926V173.639ZM-119.609 17.2376C-129.801 23.1137 -139.984 29.0055 -150.168 34.8933V71.0408L-88.3308 35.3114L-119.609 17.2376ZM-119.609 51.7168L-148 35.3114L-119.609 18.9059L-91.2176 35.3114L-119.609 51.7168ZM-148.719 36.5616L-121.05 52.549L-148.719 68.5365V36.5616ZM89.9706 133.103L148.199 99.4603V109.912L89.9706 143.555V133.103ZM89.9706 119.312L148.199 85.6686V96.1237L89.9706 129.763V119.312ZM89.9706 105.516L148.199 71.8769V82.3321L89.9706 115.971V105.516ZM79.482 97.792L137.71 64.145L146.757 69.3686L88.5252 103.016L79.482 97.792ZM67.5481 90.8962L125.776 57.2491L134.819 62.4767L76.5913 96.1198L67.5481 90.8962ZM31.0159 69.7906L89.2479 36.1475L99.0177 41.7892L40.7857 75.4323L31.0159 69.7906ZM88.5252 144.809L65.0207 158.39L55.2548 152.744L88.5252 133.522V144.809ZM79.1226 166.536L88.5252 161.101V171.966L79.1226 166.536ZM88.5252 158.597L76.9546 165.281L67.1887 159.64L88.5252 147.309V158.597ZM-29.3723 159.847L28.8518 126.208V138.327L-29.3723 171.97V159.847ZM-29.3723 146.059L28.8518 112.416V124.539L-29.3723 158.179V146.059ZM-29.3723 132.267L28.8518 98.6242V110.748L-29.3723 144.387V132.267ZM63.9504 159.425L5.7067 193.076L-4.78185 187.016L53.4618 153.361L63.9504 159.425ZM19.0859 200.804L77.3218 167.157L87.8064 173.22L29.5745 206.864L19.0859 200.804ZM75.8803 166.321L17.6406 199.972L7.15205 193.912L65.3957 160.257L75.8803 166.321ZM89.9706 160.683L148.199 127.044V138.331L89.9706 171.966V160.683ZM148.199 123.703L89.9706 157.342V146.891L148.199 113.252V123.703ZM55.6142 84.0003L113.842 50.3533L122.889 55.5809L64.6574 89.224L55.6142 84.0003ZM110.952 48.685L52.7235 82.3281L43.6725 77.1006L101.904 43.4575L110.952 48.685ZM43.317 145.852L88.5252 119.73V131.017L53.0868 151.494L43.317 145.852ZM88.5252 117.225L41.1529 144.598L31.3831 138.952L88.5252 105.934V117.225ZM30.3011 98.2062L53.8095 84.6216L63.5753 90.2672L30.3011 109.493V98.2062ZM39.7115 76.4794L30.3011 81.914V71.0408L39.7115 76.4794ZM30.3011 84.4145L41.8717 77.7296L51.6415 83.3713L30.3011 95.7018V84.4145ZM75.5132 97.163L30.3011 123.285V111.998L65.7434 91.5174L75.5132 97.163ZM30.3011 125.786L77.6773 98.4132L87.4431 104.055L30.3011 137.073V125.786ZM-16.7197 180.12L41.524 146.469L52.0165 152.529L-6.22719 186.18L-16.7197 180.12ZM40.0787 145.637L-18.1611 179.284L-28.6535 173.224L29.5784 139.577L40.0787 145.637ZM-29.3723 118.48L28.8518 84.8364V96.9559L-29.3723 130.599V118.48ZM28.8518 83.1642L-29.3723 116.807V104.68L28.8518 71.0408V83.1642ZM28.133 69.7906L-30.0989 103.434L-88.3308 69.7906L-30.0989 36.1475L28.133 69.7906ZM178.035 224.519C178.035 236.287 178.055 248.059 178.035 259.831L209.313 277.901C209.325 254.084 209.317 230.267 209.317 206.449L178.035 224.519ZM180.199 259.413L207.872 243.425V275.4L180.199 259.413ZM207.872 241.757L179.477 258.166V225.352L207.872 208.946V241.757ZM178.035 85.778V122.758L210.036 104.266L178.035 85.778ZM179.481 88.2785L207.153 104.266L179.481 120.253V88.2785ZM29.5745 -6.10352e-05C19.1445 6.01281 8.7224 12.0491 -1.70364 18.0737C8.7224 24.0983 19.1562 30.1112 29.5745 36.1475C39.9966 30.1112 50.4305 24.0983 60.8526 18.0737L29.5745 -6.10352e-05ZM29.5745 1.67213L57.9698 18.0737L29.5745 34.4792L1.18315 18.0737L29.5745 1.67213ZM30.2972 208.114L88.5252 174.471V241.757L30.2972 275.4V208.114ZM-29.3762 309.879L-29.3801 241.757L-88.3269 207.696L-30.095 174.053C-10.4304 185.379 9.19507 196.776 28.8518 208.114V276.236L-29.3762 309.879ZM-30.8216 256.807V268.09L-89.0457 234.447V223.164L-30.8216 256.807ZM-89.0457 208.95L-30.8216 242.593V254.302L-89.0457 220.659V208.95ZM-30.8216 281.882L-89.0457 248.239V236.955L-30.8216 270.595V281.882ZM-30.8216 295.674L-89.0457 262.03V250.743L-30.8216 284.386V295.674ZM-89.0457 264.535L-30.8177 298.178V309.879L-89.0457 276.236V264.535ZM99.7403 180.116V247.403L89.9666 241.757L89.9706 174.471L99.7403 180.116ZM111.678 187.012V254.302L102.623 249.067L102.627 181.785L111.678 187.012ZM123.612 193.908V261.194L114.561 255.967V188.677L123.612 193.908ZM135.546 200.804V268.09L126.495 262.863L126.499 195.576L135.546 200.804ZM148.199 275.4L138.429 269.758L138.433 202.472L148.199 208.114V275.4ZM79.1187 304.445L137.347 270.802L147.476 276.654L89.2479 310.297L79.1187 304.445ZM135.179 269.547L76.9546 303.191L67.1848 297.549L125.413 263.906L135.179 269.547ZM99.3731 248.86L41.149 282.503L31.0198 276.654L89.244 243.007L99.3731 248.86ZM55.2509 290.653L113.479 257.01L123.249 262.656L65.0207 296.295L55.2509 290.653ZM111.311 255.76L53.0868 289.403L43.3131 283.753L101.541 250.114L111.311 255.76ZM120.526 328.367L148.199 312.38V344.355L120.526 328.367ZM117.639 328.367L149.644 346.859V309.879L117.639 328.367ZM-88.3308 345.605L-30.8177 312.38L-30.8216 378.83L-88.3308 345.605ZM77.314 386.144L19.0859 352.501L29.5745 346.441L87.8064 380.084L77.314 386.144ZM41.5084 406.831L-16.7236 373.188L-6.23109 367.129L51.9969 400.772L41.5084 406.831ZM-18.165 374.024L40.063 407.664L29.5745 413.727L-28.6574 380.084L-18.165 374.024ZM65.3762 393.044L7.14424 359.397L17.6406 353.337L75.8686 386.98L65.3762 393.044ZM5.70279 360.233L63.9308 393.876L53.4423 399.94L-4.78966 366.292L5.70279 360.233ZM-89.0496 71.0408L-30.8216 104.68V172.806L-89.0457 206.446C-89.0457 161.304 -89.0496 116.178 -89.0496 71.0408ZM-31.5403 311.134L-91.2137 345.609C-50.9588 368.879 -10.7039 392.153 29.5745 415.392C49.95 403.636 70.3177 391.86 90.6893 380.084C70.3216 368.309 49.9344 356.56 29.5745 344.777L-29.3801 378.834C-29.3801 356.404 -29.3918 333.978 -29.3762 311.548C-9.71556 300.213 9.92946 288.848 29.5745 277.486L89.2479 311.966C109.401 300.37 129.518 288.707 149.648 277.068V208.11L210.032 173.22L149.648 138.331V69.3765C129.515 57.7414 109.397 46.0751 89.244 34.4792L29.5745 68.9545L-30.095 34.4792C-70.3929 57.6867 -110.624 81.0076 -150.887 104.266L-91.2137 138.745L-149.442 172.388L-209.838 137.495C-209.838 161.312 -209.853 185.133 -209.838 208.95C-189.947 197.459 -170.063 185.957 -150.168 174.471V243.429C-130.277 231.939 -110.378 220.452 -90.491 208.95V277.068C-70.8499 288.43 -51.2049 299.799 -31.5403 311.134ZM90.6893 173.22L148.921 139.577L207.153 173.22L148.921 206.864C129.511 195.651 110.1 184.434 90.6893 173.22ZM-208.396 139.992L-150.887 173.22L-208.396 206.446V139.992Z"/></g></svg>