<svg width="239" height="126" viewBox="0 0 239 126" fill="none" xmlns="http://www.w3.org/2000/svg">
<mask id="mask0_85_5195" style="mask-type:luminance" maskUnits="userSpaceOnUse" x="0" y="0" width="239" height="126">
<path d="M0.25293 0H238.591V125.231H0.25293V0Z" fill="white"/>
</mask>
<g mask="url(#mask0_85_5195)">
<path d="M62.0976 104.266L119.603 71.0409V137.491L62.0976 104.266ZM61.3749 229.638L119.599 195.994V207.282L61.3749 240.925V229.638ZM119.599 192.658L61.3749 226.297V215.846L119.599 182.207V192.658ZM61.3749 202.058L119.599 168.415V178.87L61.3749 212.505V202.058ZM61.3749 188.266L119.599 154.623V165.078L61.3749 198.718V188.266ZM61.3749 173.639C80.7855 162.441 100.192 151.209 119.599 139.995V151.287L61.3749 184.926V173.639ZM90.485 17.2377C80.2933 23.1138 70.1095 29.0055 59.9256 34.8934V71.0409L121.767 35.3114L90.485 17.2377ZM90.485 51.7169L62.0937 35.3114L90.485 18.906L118.88 35.3114L90.485 51.7169ZM61.3749 36.5617L89.0436 52.5491L61.3749 68.5365V36.5617ZM300.068 133.104L358.293 99.4604V109.912L300.068 143.555V133.104ZM300.068 119.312L358.293 85.6687V96.1238L300.068 129.763V119.312ZM300.068 105.516L358.293 71.877V82.3321L300.068 115.971V105.516ZM289.576 97.7921L347.808 64.1451L356.851 69.3687L298.623 103.016L289.576 97.7921ZM277.642 90.8962L335.874 57.2492L344.917 62.4768L286.689 96.1199L277.642 90.8962ZM241.114 69.7907L299.346 36.1475L309.112 41.7892L250.88 75.4324L241.114 69.7907ZM298.623 144.809L275.115 158.39L265.349 152.744L298.623 133.522V144.809ZM289.217 166.536L298.623 161.101V171.966L289.217 166.536ZM298.623 158.597L287.049 165.282L277.283 159.64L298.623 147.309V158.597ZM180.726 159.847L238.946 126.208V138.327L180.726 171.97V159.847ZM180.726 146.059L238.946 112.416V124.539L180.726 158.179V146.059ZM180.726 132.267L238.946 98.6243V110.748L180.726 144.387V132.267ZM274.044 159.425L215.805 193.076L205.312 187.016L263.56 153.361L274.044 159.425ZM229.184 200.804L287.42 167.157L297.9 173.221L239.668 206.864L229.184 200.804ZM285.974 166.321L227.738 199.972L217.25 193.912L275.49 160.257L285.974 166.321ZM300.068 160.683L358.293 127.044V138.331L300.068 171.966V160.683ZM358.293 123.703L300.068 157.343V146.891L358.293 113.252V123.703ZM265.708 84.0004L323.94 50.3534L332.983 55.5809L274.755 89.2241L265.708 84.0004ZM321.049 48.6851L262.821 82.3282L253.77 77.1006L312.002 43.4575L321.049 48.6851ZM253.415 145.852L298.623 119.73V131.017L263.181 151.494L253.415 145.852ZM298.623 117.225L251.247 144.598L241.477 138.952L298.623 105.934V117.225ZM240.395 98.2062L263.903 84.6216L273.673 90.2672L240.395 109.494V98.2062ZM249.805 76.4794L240.395 81.9141V71.0409L249.805 76.4794ZM240.395 84.4145L251.97 77.7297L261.739 83.3714L240.395 95.7019V84.4145ZM285.607 97.1631L240.395 123.285V111.998L275.841 91.5175L285.607 97.1631ZM240.395 125.786L287.771 98.4133L297.541 104.055L240.395 137.073V125.786ZM193.378 180.12L251.618 146.469L262.114 152.529L203.871 186.18L193.378 180.12ZM250.177 145.637L191.937 179.284L181.44 173.224L239.672 139.577L250.177 145.637ZM180.726 118.48L238.946 84.8365V96.956L180.726 130.599V118.48ZM238.946 83.1643L180.726 116.807V104.68L238.946 71.0409V83.1643ZM238.231 69.7907L179.999 103.434L121.767 69.7907L179.999 36.1475L238.231 69.7907ZM388.133 224.519C388.133 236.287 388.149 248.059 388.129 259.831L419.407 277.901C419.423 254.084 419.411 230.267 419.411 206.45L388.133 224.519ZM390.293 259.413L417.966 243.425V275.4L390.293 259.413ZM417.966 241.757L389.571 258.166L389.575 225.352L417.97 208.946L417.966 241.757ZM388.129 85.7781V122.758L420.134 104.266L388.129 85.7781ZM389.578 88.2786L417.247 104.266L389.578 120.253V88.2786ZM239.672 0C229.238 6.01287 218.816 12.0492 208.39 18.0738C218.816 24.0983 229.25 30.1112 239.672 36.1475C250.091 30.1112 260.524 24.0983 270.95 18.0738L239.672 0ZM239.672 1.67219L268.064 18.0738L239.672 34.4792L211.277 18.0738L239.672 1.67219ZM240.395 208.114L298.623 174.471V241.757L240.395 275.4V208.114ZM180.718 309.879V241.757L121.767 207.696L179.999 174.053C199.667 185.379 219.289 196.776 238.946 208.114V276.236L180.718 309.879ZM179.276 256.807V268.09L121.048 234.447V223.164L179.276 256.807ZM121.048 208.95L179.276 242.593V254.302L121.048 220.659V208.95ZM179.276 281.882L121.048 248.239V236.955L179.276 270.595V281.882ZM179.276 295.674L121.048 262.03V250.743L179.276 284.386V295.674ZM121.048 264.535L179.276 298.178V309.879L121.048 276.236V264.535ZM309.838 180.116L309.834 247.403L300.061 241.757L300.064 174.471L309.838 180.116ZM321.776 187.012V254.302L312.721 249.067V181.785L321.776 187.012ZM333.71 193.908V261.194L324.655 255.967L324.659 188.677L333.71 193.908ZM345.64 200.804V268.09L336.593 262.863V195.576L345.64 200.804ZM358.293 275.4L348.523 269.759L348.527 202.472L358.293 208.114V275.4ZM289.217 304.445L347.445 270.802L357.574 276.654L299.342 310.297L289.217 304.445ZM345.277 269.548L287.049 303.191L277.283 297.549L335.511 263.906L345.277 269.548ZM309.471 248.86L251.243 282.503L241.118 276.654L299.342 243.007L309.471 248.86ZM265.349 290.653L323.577 257.01L333.343 262.656L275.115 296.295L265.349 290.653ZM321.409 255.76L263.181 289.403L253.411 283.753L311.639 250.114L321.409 255.76ZM330.624 328.367L358.293 312.38V344.355L330.624 328.367ZM327.737 328.367L359.742 346.859V309.879L327.737 328.367ZM121.767 345.605L179.276 312.38V378.83L121.767 345.605ZM287.408 386.144L229.18 352.501L239.672 346.441L297.9 380.084L287.408 386.144ZM251.606 406.832L193.37 373.188L203.863 367.129L262.095 400.772L251.606 406.832ZM191.929 374.025L250.161 407.664L239.668 413.727L181.437 380.084L191.929 374.025ZM275.474 393.044L217.242 359.397L227.735 353.337L285.966 386.98L275.474 393.044ZM215.797 360.233L274.029 393.876L263.54 399.94L205.308 366.293L215.797 360.233ZM121.048 71.0409L179.272 104.68V172.806L121.048 206.446C121.048 161.304 121.048 116.178 121.048 71.0409ZM178.554 311.134L118.88 345.609C159.139 368.879 199.394 392.153 239.668 415.392C260.044 403.636 280.416 391.86 300.783 380.084C280.416 368.309 260.032 356.56 239.672 344.777L180.718 378.834C180.718 356.404 180.706 333.978 180.718 311.548C200.378 300.214 220.027 288.848 239.672 277.487L299.342 311.966C319.495 300.37 339.616 288.707 359.742 277.068V208.11L420.13 173.221L359.742 138.331V69.3765C339.608 57.7415 319.495 46.0752 299.342 34.4792L239.668 68.9546L179.999 34.4792C139.705 57.6868 99.4735 81.0076 59.2108 104.266L118.88 138.745L60.6522 172.388L0.256172 137.495C0.256172 161.312 0.244453 185.133 0.260078 208.95C20.1473 197.46 40.0306 185.957 59.9256 174.471V243.429C79.8168 231.939 99.7157 220.452 119.603 208.95V277.068C139.244 288.43 158.893 299.799 178.554 311.134ZM300.783 173.221L359.019 139.577L417.247 173.221L359.015 206.864C339.605 195.651 320.194 184.434 300.783 173.221ZM1.69761 139.992L59.2108 173.221L1.70152 206.446L1.69761 139.992Z" fill="#B2DEFF"/>
</g>
</svg>
