<svg width="309" height="265" viewBox="0 0 309 265" fill="none" xmlns="http://www.w3.org/2000/svg">
<mask id="mask0_85_5198" style="mask-type:luminance" maskUnits="userSpaceOnUse" x="0" y="-1" width="309" height="193">
<path d="M308.044 191.513L0.0402467 191.343L0.145774 -9.27915e-05L308.149 0.169773L308.044 191.513Z" fill="white"/>
</mask>
<g mask="url(#mask0_85_5198)">
<path d="M-90.2909 346.15L-26.3433 383.157L-26.3025 309.214L-90.2909 346.15ZM-91.0142 206.645L-26.2702 244.115L-26.2633 231.556L-91.0073 194.086L-91.0142 206.645ZM-26.2758 247.831L-91.0163 210.36L-91.0227 221.99L-26.2787 259.46L-26.2758 247.831ZM-91.0312 237.335L-26.2871 274.805L-26.2807 263.172L-91.0248 225.705L-91.0312 237.335ZM-91.0396 252.68L-26.2956 290.15L-26.2892 278.52L-91.0332 241.05L-91.0396 252.68ZM-91.0486 268.958C-69.4649 281.429 -47.8847 293.94 -26.3046 306.429L-26.2976 293.862L-91.0417 256.395L-91.0486 268.958ZM-58.7658 443.004C-70.0959 436.461 -81.4223 429.901 -92.7452 423.34L-92.723 383.12L-23.9607 422.915L-58.7658 443.004ZM-58.7447 404.64L-90.3368 422.878L-58.7648 441.148L-27.1727 422.913L-58.7447 404.64ZM-91.1327 421.485L-60.3448 403.713L-91.1131 385.907L-91.1327 421.485ZM174.427 314.21L239.171 351.677L239.178 340.047L174.434 302.58L174.427 314.21ZM174.419 329.555L239.163 367.021L239.169 355.392L174.425 317.925L174.419 329.555ZM174.41 344.903L239.154 382.374L239.161 370.737L174.417 333.27L174.41 344.903ZM162.735 353.494L227.486 390.968L237.549 385.162L172.801 347.688L162.735 353.494ZM149.455 361.161L214.206 398.634L224.269 392.825L159.522 355.351L149.455 361.161ZM108.813 384.621L173.564 422.094L184.431 415.822L119.68 378.349L108.813 384.621ZM172.827 301.183L146.69 286.057L135.82 292.332L172.82 313.742L172.827 301.183ZM162.378 277.002L172.837 283.052L172.843 270.963L162.378 277.002ZM172.835 285.838L159.966 278.393L149.099 284.665L172.828 298.397L172.835 285.838ZM41.6951 284.376L106.439 321.843L106.447 308.357L41.7025 270.887L41.6951 284.376ZM41.6866 299.721L106.431 337.188L106.438 323.702L41.6941 286.232L41.6866 299.721ZM41.6782 315.066L106.422 352.533L106.43 339.047L41.6856 301.577L41.6782 315.066ZM145.499 284.904L80.7337 247.423L69.0625 254.161L133.828 291.642L145.499 284.904ZM95.6214 238.831L160.376 276.308L172.04 269.566L107.289 232.096L95.6214 238.831ZM158.772 277.237L94.0131 239.76L82.342 246.494L147.104 283.975L158.772 277.237ZM174.444 283.52L239.188 320.987L239.195 308.427L174.451 270.964L174.444 283.52ZM239.186 324.702L174.442 287.235L174.436 298.865L239.18 336.332L239.186 324.702ZM136.179 368.824L200.927 406.298L210.993 400.488L146.242 363.018L136.179 368.824ZM197.714 408.155L132.966 370.682L122.896 376.491L187.648 413.965L197.714 408.155ZM122.54 299.996L172.811 329.087L172.818 316.528L133.407 293.724L122.54 299.996ZM172.81 331.873L120.131 301.387L109.261 307.663L172.803 344.436L172.81 331.873ZM108.03 353.001L134.174 368.13L145.04 361.858L108.037 340.445L108.03 353.001ZM118.485 377.185L108.02 371.131L108.013 383.231L118.485 377.185ZM108.021 368.349L120.89 375.797L131.761 369.522L108.028 355.79L108.021 368.349ZM158.32 354.191L108.045 325.096L108.038 337.656L147.453 360.467L158.32 354.191ZM108.047 322.314L160.729 352.803L171.599 346.528L108.054 309.751L108.047 322.314ZM55.7831 261.828L120.545 299.305L132.22 292.567L67.4578 255.09L55.7831 261.828ZM118.937 300.231L54.1784 262.753L42.5036 269.491L107.251 306.965L118.937 300.231ZM41.6697 330.408L106.414 367.878L106.421 354.392L41.6771 316.922L41.6697 330.408ZM106.413 369.737L41.6687 332.267L41.6612 345.76L106.405 383.23L106.413 369.737ZM105.604 384.619L40.853 347.149L-23.9395 384.547L40.8117 422.021L105.604 384.619ZM272.438 212.542C272.445 199.444 272.474 186.346 272.456 173.248L307.261 153.163C307.261 179.66 307.236 206.165 307.221 232.666L272.438 212.542ZM274.864 173.716L305.636 191.523L305.655 155.944L274.864 173.716ZM305.635 193.378L274.059 175.105L274.043 211.617L305.618 229.887L305.635 193.378ZM272.349 366.921L272.372 325.772L307.959 346.37L272.349 366.921ZM273.962 364.14L304.75 346.368L273.982 328.562L273.962 364.14ZM107.166 462.278C95.5665 455.58 83.9746 448.858 72.3826 442.147C83.9855 435.452 95.592 428.764 107.188 422.058C118.773 428.776 130.375 435.477 141.967 442.185L107.166 462.278ZM107.167 460.418L138.759 442.183L107.187 423.91L75.5947 442.148L107.167 460.418ZM108.097 230.704L172.845 268.174L172.886 193.305L108.139 155.835L108.097 230.704ZM41.78 117.431L41.7382 193.233L-23.8513 231.098L40.8999 268.568C62.781 255.977 84.6155 243.308 106.489 230.703L106.531 154.901L41.78 117.431ZM40.1432 176.487L40.1501 163.928L-24.6352 201.326L-24.6421 213.886L40.1432 176.487ZM-24.6509 229.701L40.1345 192.302L40.1417 179.273L-24.6437 216.675L-24.6509 229.701ZM40.1586 148.586L-24.6267 185.981L-24.6337 198.541L40.1517 161.142L40.1586 148.586ZM40.1671 133.238L-24.6183 170.636L-24.6252 183.196L40.1601 145.797L40.1671 133.238ZM-24.6167 167.851L40.1722 130.452L40.1794 117.43L-24.6096 154.829L-24.6167 167.851ZM185.323 261.899L185.361 187.031L174.487 193.306L174.449 268.175L185.323 261.899ZM198.603 254.236L198.644 179.36L188.57 185.177L188.533 260.049L198.603 254.236ZM211.886 246.569L211.927 171.697L201.853 177.51L201.812 252.382L211.886 246.569ZM225.162 238.906L225.203 164.03L215.133 169.843L215.092 244.715L225.162 238.906ZM239.279 155.907L228.409 162.179L228.371 237.052L239.238 230.776L239.279 155.907ZM162.459 123.545L227.207 161.016L238.48 154.511L173.729 117.04L162.459 123.545ZM224.795 162.407L160.051 124.937L149.184 131.212L213.931 168.683L224.795 162.407ZM184.956 185.408L120.212 147.938L108.943 154.439L173.687 191.913L184.956 185.408ZM135.904 138.876L200.652 176.35L211.519 170.07L146.771 132.604L135.904 138.876ZM198.239 177.737L133.492 140.267L122.621 146.546L187.369 184.013L198.239 177.737ZM208.534 96.9514L239.302 114.754L239.322 79.179L208.534 96.9514ZM205.322 96.9496L240.935 76.3909L240.912 117.54L205.322 96.9496ZM-23.7703 77.6412L40.1809 114.648L40.2181 40.705L-23.7703 77.6412ZM160.503 32.634L95.7109 70.0364L107.378 76.7838L172.167 39.385L160.503 32.634ZM120.687 9.59285L55.8944 46.9916L67.5617 53.7426L132.351 16.3439L120.687 9.59285ZM54.2907 46.0646L119.083 8.66588L107.416 1.91124L42.6234 39.3136L54.2907 46.0646ZM147.229 24.9524L82.4364 62.3512L94.1072 69.1058L158.896 31.7035L147.229 24.9524ZM80.8326 61.4242L145.622 24.0219L133.958 17.2708L69.1654 54.6732L80.8326 61.4242ZM-24.7391 383.158L40.0499 345.759L40.0917 269.957L-24.6524 232.487C-24.6801 282.717 -24.7114 332.93 -24.7391 383.158ZM39.3762 116.037L-26.9787 77.6358C17.8139 51.7661 62.6029 25.8928 107.417 0.0590705C130.073 13.1552 152.726 26.2728 175.376 39.3868C152.712 52.4759 130.03 65.5362 107.377 78.636L41.8223 40.7059C41.8085 65.6598 41.7804 90.6173 41.781 115.575C63.6446 128.2 85.4903 140.854 107.336 153.512L173.73 115.185C196.139 128.097 218.512 141.086 240.892 154.052L240.849 230.781L307.997 269.641L240.807 308.428L240.764 385.156C218.363 398.088 195.982 411.058 173.559 423.946L107.204 385.549L40.8143 423.873C-3.99287 398.03 -48.7281 372.057 -93.5029 346.148L-27.1057 307.817L-91.8533 270.347L-159.055 309.137C-159.04 282.633 -159.04 256.132 -159.007 229.627C-136.893 242.425 -114.781 255.237 -92.6595 268.028L-92.6172 191.299C-70.4989 204.097 -48.3734 216.888 -26.2587 229.7L-26.2169 153.905C-4.36445 141.275 17.4951 128.634 39.3762 116.037ZM175.249 269.568L240 307.038L304.792 269.64L240.041 232.169C218.444 244.634 196.846 257.103 175.249 269.568ZM-157.449 306.36L-93.4606 269.42L-157.408 232.413L-157.449 306.36Z" fill="#B2DEFF"/>
</g>
<mask id="mask1_85_5198" style="mask-type:luminance" maskUnits="userSpaceOnUse" x="260" y="164" width="31" height="28">
<path d="M290.354 191.503L260.761 191.487L260.775 164.839L290.369 164.855L290.354 191.503Z" fill="white"/>
</mask>
<g mask="url(#mask1_85_5198)">
<path fill-rule="evenodd" clip-rule="evenodd" d="M290.333 231.329L290.37 164.866L261.578 181.462L261.559 214.697L290.333 231.329Z" fill="#425DC3"/>
<path fill-rule="evenodd" clip-rule="evenodd" d="M290.352 198.094L290.37 164.866L261.578 181.462L290.352 198.094Z" fill="#3E55C1"/>
</g>
<mask id="mask2_85_5198" style="mask-type:luminance" maskUnits="userSpaceOnUse" x="0" y="130" width="291" height="62">
<path d="M290.354 191.503L0.0403046 191.343L0.0737521 130.696L290.388 130.856L290.354 191.503Z" fill="white"/>
</mask>
<g mask="url(#mask2_85_5198)">
<path fill-rule="evenodd" clip-rule="evenodd" d="M232.691 364.229L175.107 397.432L117.556 364.165L59.9688 397.368L-55.1326 330.835L2.45833 297.636L-55.0959 264.373L-55.0593 197.903L2.49498 231.17L2.53164 164.707L60.1154 131.504L117.666 164.771L175.253 131.568L232.8 164.834L232.764 231.297L290.315 264.563L232.727 297.763L232.691 364.229Z" fill="#394DBE"/>
</g>
<path fill-rule="evenodd" clip-rule="evenodd" d="M221.248 237.938L221.284 171.472L232.801 164.834L232.764 231.297L221.248 237.938Z" fill="#4A6DC8"/>
<path fill-rule="evenodd" clip-rule="evenodd" d="M209.73 244.576L209.767 178.113L221.283 171.472L221.247 237.938L209.73 244.576Z" fill="#537DCD"/>
<path fill-rule="evenodd" clip-rule="evenodd" d="M198.214 251.221L198.251 184.751L209.768 178.113L209.731 244.576L198.214 251.221Z" fill="#5C8CD1"/>
<path fill-rule="evenodd" clip-rule="evenodd" d="M186.697 257.859L186.734 191.393L198.25 184.751L198.214 251.221L186.697 257.859Z" fill="#649CD6"/>
<path fill-rule="evenodd" clip-rule="evenodd" d="M175.18 264.5L175.217 198.03L186.734 191.392L186.697 257.858L175.18 264.5Z" fill="#6DACDB"/>
<path fill-rule="evenodd" clip-rule="evenodd" d="M175.181 264.5L175.217 198.03L117.667 164.771L117.63 231.233L175.181 264.5Z" fill="#649CD6"/>
<path fill-rule="evenodd" clip-rule="evenodd" d="M186.734 191.393L129.183 158.126L117.667 164.771L175.217 198.03L186.734 191.393Z" fill="#5C8CD1"/>
<path fill-rule="evenodd" clip-rule="evenodd" d="M198.25 184.751L140.699 151.488L129.182 158.126L186.733 191.392L198.25 184.751Z" fill="#537DCD"/>
<path fill-rule="evenodd" clip-rule="evenodd" d="M209.767 178.113L152.217 144.847L140.7 151.488L198.251 184.751L209.767 178.113Z" fill="#4A6DC8"/>
<path fill-rule="evenodd" clip-rule="evenodd" d="M221.284 171.472L163.737 138.205L152.217 144.847L209.767 178.113L221.284 171.472Z" fill="#425DC3"/>
<path fill-rule="evenodd" clip-rule="evenodd" d="M163.738 138.205L221.285 171.472L232.802 164.834L175.254 131.568L163.738 138.205Z" fill="#3E55C1"/>
<path fill-rule="evenodd" clip-rule="evenodd" d="M2.50245 217.878L60.0862 184.675L60.0789 197.967L2.49512 231.17L2.50245 217.878Z" fill="#4A6DC8"/>
<path fill-rule="evenodd" clip-rule="evenodd" d="M2.50929 204.586L60.093 171.383L60.0857 184.675L2.50196 217.878L2.50929 204.586Z" fill="#537DCD"/>
<path fill-rule="evenodd" clip-rule="evenodd" d="M2.5171 191.291L60.1009 158.088L60.0935 171.383L2.50977 204.586L2.5171 191.291Z" fill="#5C8CD1"/>
<path fill-rule="evenodd" clip-rule="evenodd" d="M2.52394 177.999L60.1077 144.796L60.1004 158.088L2.51661 191.291L2.52394 177.999Z" fill="#649CD6"/>
<path fill-rule="evenodd" clip-rule="evenodd" d="M60.1082 144.796L2.52442 177.999L2.53175 164.707L60.1155 131.504L60.1082 144.796Z" fill="#6DACDB"/>
<path fill-rule="evenodd" clip-rule="evenodd" d="M117.63 231.233L117.666 164.771L60.1156 131.504L60.079 197.967L2.49523 231.17L60.0423 264.436L117.63 231.233Z" fill="#425DC3"/>
<path fill-rule="evenodd" clip-rule="evenodd" d="M60.1152 131.504L60.1519 65.0381L2.56814 98.2376L60.1152 131.504Z" fill="#3E55C1"/>
<mask id="mask3_85_5198" style="mask-type:luminance" maskUnits="userSpaceOnUse" x="59" y="31" width="117" height="68">
<path d="M175.369 98.4227L59.9799 98.359L60.0166 31.8032L175.406 31.8669L175.369 98.4227Z" fill="white"/>
</mask>
<g mask="url(#mask3_85_5198)">
<path fill-rule="evenodd" clip-rule="evenodd" d="M60.1528 65.0382L117.74 31.8351L175.291 65.1017L117.703 98.3011L60.1528 65.0382Z" fill="#3E55C1"/>
</g>
<path fill-rule="evenodd" clip-rule="evenodd" d="M94.6843 84.9968L152.272 51.7937L163.781 58.4442L106.194 91.6472L94.6843 84.9968Z" fill="#425DC3"/>
<path fill-rule="evenodd" clip-rule="evenodd" d="M83.1709 78.3426L140.758 45.1395L152.271 51.7935L94.6839 84.9966L83.1709 78.3426Z" fill="#4A6DC8"/>
<path fill-rule="evenodd" clip-rule="evenodd" d="M71.6618 71.6885L129.249 38.489L140.759 45.1394L83.1712 78.3425L71.6618 71.6885Z" fill="#537DCD"/>
<mask id="mask4_85_5198" style="mask-type:luminance" maskUnits="userSpaceOnUse" x="59" y="31" width="71" height="41">
<path d="M129.23 71.9573L59.9941 71.9191L60.0162 31.8033L129.253 31.8415L129.23 71.9573Z" fill="white"/>
</mask>
<g mask="url(#mask4_85_5198)">
<path fill-rule="evenodd" clip-rule="evenodd" d="M129.249 38.4891L71.6615 71.6886L60.152 65.0382L117.739 31.8351L129.249 38.4891Z" fill="#5C8CD1"/>
</g>
<path fill-rule="evenodd" clip-rule="evenodd" d="M232.819 131.599L232.838 98.3646L204.046 114.964L232.819 131.599Z" fill="#425DC3"/>
</svg>
