<svg xmlns="http://www.w3.org/2000/svg" width="308" height="274" fill="none" viewBox="0 0 308 274"><mask id="mask0_489_2" style="mask-type:luminance" width="315" height="201" x="2" y="73" maskUnits="userSpaceOnUse"><path fill="#fff" d="M2.2998 82.7208L310.151 73.0236L316.175 264.272L8.32408 273.969L2.2998 82.7208Z"/></mask><g mask="url(#mask0_489_2)"><path fill="#B2DEFF" d="M395.476 -84.5975L330.376 -119.537L332.704 -45.6304L395.476 -84.5975ZM400.668 54.8125L334.757 19.4357L335.153 31.989L401.064 67.3658L400.668 54.8125ZM334.644 15.7223L400.551 51.0993L400.185 39.4752L334.274 4.09831L334.644 15.7223ZM399.702 24.1379L333.791 -11.239L334.157 0.38865L400.068 35.7619L399.702 24.1379ZM399.219 8.80052L333.308 -26.5764L333.674 -14.9523L399.585 20.4246L399.219 8.80052ZM398.706 -7.46962C376.734 -19.2427 354.764 -31.0554 332.795 -42.8465L333.191 -30.286L399.102 5.08726L398.706 -7.46962ZM360.865 -180.392C372.398 -174.215 383.929 -168.021 395.456 -161.827L396.723 -121.627L326.721 -159.198L360.865 -180.392ZM362.073 -142.047L393.064 -161.288L360.923 -178.537L329.931 -159.299L362.073 -142.047ZM393.904 -159.921L363.701 -141.171L395.024 -124.36L393.904 -159.921ZM131.917 -44.1934L66.0061 -79.5667L66.3722 -67.9426L132.283 -32.5693L131.917 -44.1934ZM131.434 -59.5307L65.523 -94.904L65.8891 -83.2799L131.8 -47.9066L131.434 -59.5307ZM130.951 -74.8717L65.0396 -110.249L65.406 -98.6173L131.317 -63.244L130.951 -74.8717ZM142.345 -83.8316L76.4269 -119.212L66.5552 -113.087L132.47 -77.7063L142.345 -83.8316ZM155.372 -91.92L89.4539 -127.3L79.5824 -121.172L145.497 -85.7912L155.372 -91.92ZM195.242 -116.67L129.324 -152.05L118.664 -145.433L184.582 -110.053L195.242 -116.67ZM133.934 -31.2243L160.542 -16.9433L171.206 -23.5639L133.539 -43.7776L133.934 -31.2243ZM145.152 -7.39063L134.505 -13.1029L134.886 -1.01961L145.152 -7.39063ZM134.417 -15.887L147.518 -8.85859L158.179 -15.4755L134.022 -28.4403L134.417 -15.887ZM265.537 -18.6274L199.626 -54.0007L200.05 -40.5218L265.962 -5.14487L265.537 -18.6274ZM265.054 -33.9647L199.143 -69.338L199.567 -55.8591L265.479 -20.4822L265.054 -33.9647ZM264.571 -49.3021L198.66 -84.6754L199.084 -71.1964L264.995 -35.8196L264.571 -49.3021ZM161.769 -15.8292L227.702 19.5578L239.152 12.4492L173.218 -22.9378L161.769 -15.8292ZM213.097 28.6224L147.175 -6.76126L135.733 0.350691L201.652 35.7273L213.097 28.6224ZM148.749 -7.74098L214.675 27.6426L226.124 20.5376L160.195 -14.8495L148.749 -7.74098ZM132.883 -13.5187L66.9723 -48.892L67.3678 -36.3387L133.279 -0.968987L132.883 -13.5187ZM66.8554 -52.6052L132.766 -17.2319L132.4 -28.856L66.4892 -64.2293L66.8554 -52.6052ZM168.396 -100.005L102.481 -135.385L92.6059 -129.256L158.524 -93.8796L168.396 -100.005ZM105.633 -137.345L171.548 -101.964L181.427 -108.093L115.508 -143.474L105.633 -137.345ZM184.233 -31.6487L133.056 -59.115L133.451 -46.5617L173.573 -25.0319L184.233 -31.6487ZM132.968 -61.899L186.596 -33.1166L197.26 -39.7372L132.573 -74.4559L132.968 -61.899ZM197.038 -85.0911L170.423 -99.3755L159.762 -92.7586L197.433 -72.5414L197.038 -85.0911ZM185.813 -108.928L196.467 -103.213L196.086 -115.307L185.813 -108.928ZM196.555 -100.432L183.454 -107.464L172.79 -100.843L196.95 -87.8788L196.555 -100.432ZM146.735 -84.6702L197.916 -57.2005L197.521 -69.7538L157.396 -91.2907L146.735 -84.6702ZM198.004 -54.42L144.372 -83.2059L133.708 -76.5853L198.4 -41.8632L198.004 -54.42ZM252.179 4.36077L186.249 -31.0227L174.796 -23.914L240.726 11.4695L252.179 4.36077ZM187.827 -31.999L253.753 3.38464L265.206 -3.72407L199.291 -39.1044L187.827 -31.999ZM264.088 -64.6358L198.177 -100.013L198.601 -86.5338L264.512 -51.1569L264.088 -64.6358ZM198.118 -101.871L264.029 -66.4942L263.604 -79.9803L197.693 -115.357L198.118 -101.871ZM198.449 -116.771L264.368 -81.3942L327.929 -120.849L262.01 -156.23L198.449 -116.771ZM37.2138 60.562C37.6262 73.6534 38.017 86.7456 38.4545 99.8362L4.31066 121.026C3.46207 94.5425 2.63836 68.0507 1.804 41.5628L37.2138 60.562ZM36.0329 99.4456L4.70634 82.6342L5.82651 118.195L36.0329 99.4456ZM4.64792 80.7794L36.7927 98.0319L35.6395 61.5381L3.49489 44.2892L4.64792 80.7794ZM32.3569 -93.7408L33.6524 -52.6116L-2.57577 -72.059L32.3569 -93.7408ZM30.8339 -90.9096L0.631082 -72.16L31.954 -55.3485L30.8339 -90.9096ZM194.401 -194.34C206.209 -188.018 218.01 -181.67 229.811 -175.334C218.428 -168.27 207.042 -161.214 195.667 -154.14C183.873 -160.484 172.062 -166.81 160.261 -173.143L194.401 -194.34ZM194.459 -192.481L163.468 -173.244L195.609 -155.991L226.6 -175.232L194.459 -192.481ZM200.888 37.1448L134.974 1.76803L137.331 76.5999L203.245 111.977L200.888 37.1448ZM270.8 148.236L268.414 72.4708L332.757 32.5241L266.838 -2.85253C245.372 10.4325 223.954 23.795 202.495 37.0942L204.882 112.859L270.8 148.236ZM270.544 89.1569L270.94 101.71L334.494 62.2552L334.098 49.7019L270.544 89.1569ZM333.6 33.8945L270.046 73.3495L270.457 86.3728L334.011 46.9142L333.6 33.8945ZM271.423 117.044L334.977 77.5925L334.581 65.0392L271.027 104.494L271.423 117.044ZM271.906 132.385L335.46 92.9299L335.065 80.3765L271.511 119.832L271.906 132.385ZM335.548 95.7139L271.99 135.169L272.4 148.185L335.958 108.73L335.548 95.7139ZM122.703 8.43923L125.063 83.271L135.731 76.6503L133.37 1.81853L122.703 8.43923ZM109.675 16.5241L112.033 91.3631L121.915 85.2269L119.554 10.3915L109.675 16.5241ZM96.6448 24.6126L99.0021 99.4481L108.884 93.3154L106.527 18.4799L96.6448 24.6126ZM83.6213 32.6973L85.9787 107.536L95.8573 101.404L93.5 26.5683L83.6213 32.6973ZM72.1697 116.106L82.8338 109.489L80.4729 34.6532L69.8125 41.2736L72.1697 116.106ZM149.987 145.99L84.072 110.613L73.0136 117.476L138.932 152.853L149.987 145.99ZM86.4387 109.145L152.35 144.522L163.01 137.902L97.0955 102.525L86.4387 109.145ZM125.52 84.8798L191.431 120.257L202.486 113.398L136.575 78.0171L125.52 84.8798ZM176.037 129.817L110.122 94.4363L99.4623 101.06L165.377 136.434L176.037 129.817ZM112.489 92.972L178.404 128.349L189.068 121.725L123.153 86.3514L112.489 92.972ZM104.788 174.046L73.4654 157.238L74.5854 192.796L104.788 174.046ZM107.999 173.945L73.0626 195.634L71.7671 154.505L107.999 173.945ZM337.592 185.905L272.488 150.966L274.819 224.872L337.592 185.905ZM154.854 236.792L218.415 197.333L206.538 190.963L142.98 230.418L154.854 236.792ZM195.388 258.546L258.95 219.091L247.072 212.717L183.515 252.172L195.388 258.546ZM260.582 219.966L197.021 259.421L208.899 265.798L272.46 226.339L260.582 219.966ZM168.368 244.044L231.929 204.589L220.048 198.212L156.491 237.671L168.368 244.044ZM233.562 205.464L170.004 244.923L181.878 251.297L245.439 211.838L233.562 205.464ZM328.773 -119.486L265.215 -80.0311L267.602 -4.2664L333.513 31.1105C331.931 -19.0955 330.354 -69.2837 328.773 -119.486ZM273.247 149.552L340.799 185.807C296.858 213.099 252.921 240.393 208.957 267.649C185.893 255.286 162.831 242.901 139.773 230.519C162.006 216.711 184.258 202.93 206.48 189.112L273.216 224.922C272.43 199.981 271.659 175.035 270.859 150.09C248.602 138.172 226.362 126.224 204.122 114.273L138.99 154.707C116.179 142.519 93.4016 130.254 70.6175 118.011L68.2018 41.3208L-0.156465 4.63118L65.7572 -36.288L63.3414 -112.978C85.3173 -126.621 107.27 -140.302 129.269 -153.901L196.82 -117.65L261.949 -158.081C307.561 -133.686 353.105 -109.159 398.687 -84.6987L333.551 -44.2601L399.466 -8.88337L465.39 -49.8064C466.225 -23.315 467.074 3.17242 467.89 29.6644C445.377 17.5816 422.867 5.48429 400.346 -6.59114L402.762 70.0991C380.245 58.0164 357.721 45.9411 335.207 33.8439L337.594 109.601C316.157 122.925 294.714 136.26 273.247 149.552ZM132.526 0.451706L66.608 -34.9249L3.04681 4.53028L68.9652 39.9069C90.1523 26.7564 111.339 13.6023 132.526 0.451706ZM463.875 -46.9791L401.102 -8.00836L466.203 26.9308L463.875 -46.9791Z"/></g><mask id="mask1_489_2" style="mask-type:luminance" width="32" height="28" x="19" y="81" maskUnits="userSpaceOnUse"><path fill="#fff" d="M19.9805 82.1638L49.5596 81.2321L50.3986 107.867L20.8195 108.799L19.9805 82.1638Z"/></mask><g mask="url(#mask1_489_2)"><path fill="#425DC3" fill-rule="evenodd" d="M18.7266 42.3585L20.8191 108.788L49.0645 91.2781L48.0181 58.0597L18.7266 42.3585Z" clip-rule="evenodd"/><path fill="#3E55C1" fill-rule="evenodd" d="M19.7725 75.5769L20.8186 108.788L49.064 91.2781L19.7725 75.5769Z" clip-rule="evenodd"/></g><mask id="mask2_489_2" style="mask-type:luminance" width="294" height="70" x="19" y="73" maskUnits="userSpaceOnUse"><path fill="#fff" d="M19.9805 82.1638L310.151 73.0236L312.06 133.641L21.8899 142.781L19.9805 82.1638Z"/></mask><g mask="url(#mask2_489_2)"><path fill="#394DBE" fill-rule="evenodd" d="M72.082 -92.3202L128.572 -127.351L187.159 -95.9451L243.653 -130.976L360.827 -68.1643L304.329 -33.1369L362.92 -1.73479L365.012 64.7019L306.422 33.2962L308.514 99.7257L252.024 134.756L193.437 103.351L136.943 138.381L78.3597 106.976L76.2672 40.546L17.6804 9.14015L74.1746 -25.8871L72.082 -92.3202Z" clip-rule="evenodd"/></g><path fill="#4A6DC8" fill-rule="evenodd" d="M87.565 33.5393L89.6576 99.9724L78.3594 106.976L76.2669 40.5461L87.565 33.5393Z" clip-rule="evenodd"/><path fill="#537DCD" fill-rule="evenodd" d="M98.8638 26.5358L100.956 92.9653L89.6583 99.9722L87.5656 33.5391L98.8638 26.5358Z" clip-rule="evenodd"/><path fill="#5C8CD1" fill-rule="evenodd" d="M110.162 19.5255L112.254 85.9622L100.956 92.9655L98.8637 26.536L110.162 19.5255Z" clip-rule="evenodd"/><path fill="#649CD6" fill-rule="evenodd" d="M121.461 12.522L123.553 78.9551L112.255 85.962L110.162 19.5253L121.461 12.522Z" clip-rule="evenodd"/><path fill="#6DACDB" fill-rule="evenodd" d="M132.757 5.51539L134.85 71.9521L123.552 78.9554L121.459 12.5223L132.757 5.51539Z" clip-rule="evenodd"/><path fill="#649CD6" fill-rule="evenodd" d="M132.758 5.51538L134.851 71.9521L193.437 103.351L191.345 36.9212L132.758 5.51538Z" clip-rule="evenodd"/><path fill="#5C8CD1" fill-rule="evenodd" d="M123.552 78.9552L182.139 110.361L193.437 103.351L134.85 71.9519L123.552 78.9552Z" clip-rule="evenodd"/><path fill="#537DCD" fill-rule="evenodd" d="M112.254 85.9622L170.841 117.364L182.139 110.361L123.552 78.9554L112.254 85.9622Z" clip-rule="evenodd"/><path fill="#4A6DC8" fill-rule="evenodd" d="M100.956 92.9653L159.543 124.371L170.841 117.364L112.254 85.962L100.956 92.9653Z" clip-rule="evenodd"/><path fill="#425DC3" fill-rule="evenodd" d="M89.6585 99.9724L148.242 131.378L159.543 124.371L100.957 92.9655L89.6585 99.9724Z" clip-rule="evenodd"/><path fill="#3E55C1" fill-rule="evenodd" d="M148.241 131.378L89.6578 99.9724L78.3596 106.976L136.943 138.382L148.241 131.378Z" clip-rule="evenodd"/><path fill="#4A6DC8" fill-rule="evenodd" d="M306.841 46.5813L250.351 81.612L249.932 68.3268L306.423 33.2961L306.841 46.5813Z" clip-rule="evenodd"/><path fill="#537DCD" fill-rule="evenodd" d="M307.259 59.8667L250.769 94.8975L250.35 81.6123L306.841 46.5815L307.259 59.8667Z" clip-rule="evenodd"/><path fill="#5C8CD1" fill-rule="evenodd" d="M307.678 73.1554L251.188 108.186L250.769 94.8974L307.26 59.8667L307.678 73.1554Z" clip-rule="evenodd"/><path fill="#649CD6" fill-rule="evenodd" d="M308.096 86.4407L251.605 121.471L251.187 108.186L307.678 73.1555L308.096 86.4407Z" clip-rule="evenodd"/><path fill="#6DACDB" fill-rule="evenodd" d="M251.606 121.471L308.096 86.4406L308.515 99.7258L252.024 134.757L251.606 121.471Z" clip-rule="evenodd"/><path fill="#425DC3" fill-rule="evenodd" d="M191.344 36.9212L193.437 103.351L252.024 134.757L249.931 68.3271L306.422 33.2963L247.838 1.89037L191.344 36.9212Z" clip-rule="evenodd"/><path fill="#3E55C1" fill-rule="evenodd" d="M252.024 134.757L254.117 201.19L310.608 166.163L252.024 134.757Z" clip-rule="evenodd"/><mask id="mask3_489_2" style="mask-type:luminance" width="119" height="72" x="137" y="167" maskUnits="userSpaceOnUse"><path fill="#fff" d="M137.89 171.513L253.222 167.88L255.317 234.403L139.985 238.036L137.89 171.513Z"/></mask><g mask="url(#mask3_489_2)"><path fill="#3E55C1" fill-rule="evenodd" d="M254.116 201.19L197.622 236.22L139.036 204.815L195.53 169.787L254.116 201.19Z" clip-rule="evenodd"/></g><path fill="#425DC3" fill-rule="evenodd" d="M218.963 182.347L162.469 217.378L150.752 211.1L207.247 176.069L218.963 182.347Z" clip-rule="evenodd"/><path fill="#4A6DC8" fill-rule="evenodd" d="M230.684 188.629L174.189 223.66L162.469 217.379L218.963 182.348L230.684 188.629Z" clip-rule="evenodd"/><path fill="#537DCD" fill-rule="evenodd" d="M242.4 194.911L185.906 229.939L174.189 223.66L230.683 188.63L242.4 194.911Z" clip-rule="evenodd"/><mask id="mask4_489_2" style="mask-type:luminance" width="72" height="43" x="184" y="194" maskUnits="userSpaceOnUse"><path fill="#fff" d="M184.853 196.487L254.055 194.307L255.318 234.403L186.116 236.583L184.853 196.487Z"/></mask><g mask="url(#mask4_489_2)"><path fill="#5C8CD1" fill-rule="evenodd" d="M185.907 229.939L242.401 194.911L254.117 201.19L197.623 236.22L185.907 229.939Z" clip-rule="evenodd"/></g><path fill="#425DC3" fill-rule="evenodd" d="M79.4053 140.194L80.4516 173.412L108.697 155.899L79.4053 140.194Z" clip-rule="evenodd"/></svg>