<svg xmlns="http://www.w3.org/2000/svg" version="1.1" xmlns:xlink="http://www.w3.org/1999/xlink" xmlns:svgjs="http://svgjs.dev/svgjs" viewBox="0 0 800 800"><symbol id="SvgjsSymbol1003"><polygon points="0,12.5 25,0 50,12.5 25,25"></polygon></symbol><symbol id="SvgjsSymbol1004"><polygon points="0,12.5 25,25 25,50 0,37.5"></polygon></symbol><symbol id="SvgjsSymbol1005"><polygon points="25,25 50,12.5 50,37.5 25,50"></polygon></symbol><g shape-rendering="crispEdges"><g><use xlink:href="#SvgjsSymbol1003" x="150" y="62.5" fill="hsl(238, 100%, 51%)"></use><use xlink:href="#SvgjsSymbol1004" x="150" y="62.5" fill="#7246ff"></use><use xlink:href="#SvgjsSymbol1005" x="150" y="62.5" fill="#0000ca"></use></g><g><use xlink:href="#SvgjsSymbol1003" x="62.5" y="200" fill="hsl(238, 100%, 51%)"></use><use xlink:href="#SvgjsSymbol1004" x="62.5" y="200" fill="#7246ff"></use><use xlink:href="#SvgjsSymbol1005" x="62.5" y="200" fill="#0000ca"></use></g><g><use xlink:href="#SvgjsSymbol1003" x="650" y="87.5" fill="hsl(238, 100%, 51%)"></use><use xlink:href="#SvgjsSymbol1004" x="650" y="87.5" fill="#7246ff"></use><use xlink:href="#SvgjsSymbol1005" x="650" y="87.5" fill="#0000ca"></use></g><g><use xlink:href="#SvgjsSymbol1003" x="637.5" y="250" fill="hsl(238, 100%, 51%)"></use><use xlink:href="#SvgjsSymbol1004" x="637.5" y="250" fill="#7246ff"></use><use xlink:href="#SvgjsSymbol1005" x="637.5" y="250" fill="#0000ca"></use></g><g><use xlink:href="#SvgjsSymbol1003" x="137.5" y="475" fill="hsl(50, 100%, 50%)"></use><use xlink:href="#SvgjsSymbol1004" x="137.5" y="475" fill="#ffff52"></use><use xlink:href="#SvgjsSymbol1005" x="137.5" y="475" fill="#c7a400"></use></g><g><use xlink:href="#SvgjsSymbol1003" x="337.5" y="412.5" fill="hsl(50, 100%, 50%)"></use><use xlink:href="#SvgjsSymbol1004" x="337.5" y="412.5" fill="#ffff52"></use><use xlink:href="#SvgjsSymbol1005" x="337.5" y="412.5" fill="#c7a400"></use></g><g><use xlink:href="#SvgjsSymbol1003" x="625" y="337.5" fill="hsl(50, 100%, 50%)"></use><use xlink:href="#SvgjsSymbol1004" x="625" y="337.5" fill="#ffff52"></use><use xlink:href="#SvgjsSymbol1005" x="625" y="337.5" fill="#c7a400"></use></g><g><use xlink:href="#SvgjsSymbol1009" x="350" y="250" fill="hsl(50, 100%, 50%)"></use><use xlink:href="#SvgjsSymbol1010" x="350" y="250" fill="#ffff52"></use><use xlink:href="#SvgjsSymbol1011" x="350" y="250" fill="#c7a400"></use></g><g><use xlink:href="#SvgjsSymbol1009" x="550" y="550" fill="hsl(50, 100%, 50%)"></use><use xlink:href="#SvgjsSymbol1010" x="550" y="550" fill="#ffff52"></use><use xlink:href="#SvgjsSymbol1011" x="550" y="550" fill="#c7a400"></use></g><g><use xlink:href="#SvgjsSymbol1012" x="262.5" y="112.5" fill="hsl(229, 100%, 50%)"></use><use xlink:href="#SvgjsSymbol1013" x="262.5" y="112.5" fill="#6f5dff"></use><use xlink:href="#SvgjsSymbol1014" x="262.5" y="112.5" fill="#0000ca"></use></g><g><use xlink:href="#SvgjsSymbol1012" x="450" y="375" fill="hsl(229, 100%, 50%)"></use><use xlink:href="#SvgjsSymbol1013" x="450" y="375" fill="#6f5dff"></use><use xlink:href="#SvgjsSymbol1014" x="450" y="375" fill="#0000ca"></use></g><g><use xlink:href="#SvgjsSymbol1015" x="200" y="400" fill="hsl(229, 100%, 50%)"></use><use xlink:href="#SvgjsSymbol1016" x="200" y="400" fill="#6f5dff"></use><use xlink:href="#SvgjsSymbol1017" x="200" y="400" fill="#0000ca"></use></g><g><use xlink:href="#SvgjsSymbol1015" x="112.5" y="575" fill="hsl(229, 100%, 50%)"></use><use xlink:href="#SvgjsSymbol1016" x="112.5" y="575" fill="#6f5dff"></use><use xlink:href="#SvgjsSymbol1017" x="112.5" y="575" fill="#0000ca"></use></g><g><use xlink:href="#SvgjsSymbol1015" x="125" y="675" fill="hsl(229, 100%, 50%)"></use><use xlink:href="#SvgjsSymbol1016" x="125" y="675" fill="#6f5dff"></use><use xlink:href="#SvgjsSymbol1017" x="125" y="675" fill="#0000ca"></use></g><g><use xlink:href="#SvgjsSymbol1015" x="362.5" y="662.5" fill="hsl(229, 100%, 50%)"></use><use xlink:href="#SvgjsSymbol1016" x="362.5" y="662.5" fill="#6f5dff"></use><use xlink:href="#SvgjsSymbol1017" x="362.5" y="662.5" fill="#0000ca"></use></g><g><use xlink:href="#SvgjsSymbol1015" x="425" y="562.5" fill="hsl(59, 100%, 50%)"></use><use xlink:href="#SvgjsSymbol1016" x="425" y="562.5" fill="#ffff59"></use><use xlink:href="#SvgjsSymbol1017" x="425" y="562.5" fill="#c7c800"></use></g><g><use xlink:href="#SvgjsSymbol1030" x="600" y="693.75" fill="hsl(59, 100%, 50%)"></use><use xlink:href="#SvgjsSymbol1031" x="600" y="693.75" fill="#ffff59"></use><use xlink:href="#SvgjsSymbol1032" x="600" y="693.75" fill="#c7c800"></use></g><g><use xlink:href="#SvgjsSymbol1033" x="562.5" y="725" fill="hsl(59, 100%, 50%)"></use><use xlink:href="#SvgjsSymbol1034" x="562.5" y="725" fill="#ffff59"></use><use xlink:href="#SvgjsSymbol1035" x="562.5" y="725" fill="#c7c800"></use></g><g><use xlink:href="#SvgjsSymbol1033" x="550" y="662.5" fill="hsl(59, 100%, 50%)"></use><use xlink:href="#SvgjsSymbol1034" x="550" y="662.5" fill="#ffff59"></use><use xlink:href="#SvgjsSymbol1035" x="550" y="662.5" fill="#c7c800"></use></g><g><use xlink:href="#SvgjsSymbol1033" x="600" y="450" fill="hsl(59, 100%, 50%)"></use><use xlink:href="#SvgjsSymbol1034" x="600" y="450" fill="#ffff59"></use><use xlink:href="#SvgjsSymbol1035" x="600" y="450" fill="#c7c800"></use></g><g><use xlink:href="#SvgjsSymbol1033" x="400" y="475" fill="hsl(59, 100%, 50%)"></use><use xlink:href="#SvgjsSymbol1034" x="400" y="475" fill="#ffff59"></use><use xlink:href="#SvgjsSymbol1035" x="400" y="475" fill="#c7c800"></use></g><g><use xlink:href="#SvgjsSymbol1033" x="150" y="400" fill="hsl(59, 100%, 50%)"></use><use xlink:href="#SvgjsSymbol1034" x="150" y="400" fill="#ffff59"></use><use xlink:href="#SvgjsSymbol1035" x="150" y="400" fill="#c7c800"></use></g><g><use xlink:href="#SvgjsSymbol1033" x="175" y="362.5" fill="hsl(59, 100%, 50%)"></use><use xlink:href="#SvgjsSymbol1034" x="175" y="362.5" fill="#ffff59"></use><use xlink:href="#SvgjsSymbol1035" x="175" y="362.5" fill="#c7c800"></use></g></g><g></g><symbol id="SvgjsSymbol1006"><polygon points="0,18.75 37.5,0 75,18.75 37.5,37.5"></polygon></symbol><symbol id="SvgjsSymbol1007"><polygon points="0,18.75 37.5,37.5 37.5,75 0,56.25"></polygon></symbol><symbol id="SvgjsSymbol1008"><polygon points="37.5,37.5 75,18.75 75,56.25 37.5,75"></polygon></symbol><symbol id="SvgjsSymbol1009"><polygon points="0,25 50,0 100,25 50,50"></polygon></symbol><symbol id="SvgjsSymbol1010"><polygon points="0,25 50,50 50,100 0,75"></polygon></symbol><symbol id="SvgjsSymbol1011"><polygon points="50,50 100,25 100,75 50,100"></polygon></symbol><symbol id="SvgjsSymbol1012"><polygon points="0,37.5 75,0 150,37.5 75,75"></polygon></symbol><symbol id="SvgjsSymbol1013"><polygon points="0,37.5 75,75 75,150 0,112.5"></polygon></symbol><symbol id="SvgjsSymbol1014"><polygon points="75,75 150,37.5 150,112.5 75,150"></polygon></symbol><symbol id="SvgjsSymbol1015"><polygon points="0,12.5 25,0 50,12.5 25,25"></polygon></symbol><symbol id="SvgjsSymbol1016"><polygon points="0,12.5 25,25 25,50 0,37.5"></polygon></symbol><symbol id="SvgjsSymbol1017"><polygon points="25,25 50,12.5 50,37.5 25,50"></polygon></symbol><symbol id="SvgjsSymbol1018"><polygon points="0,18.75 37.5,0 75,18.75 37.5,37.5"></polygon></symbol><symbol id="SvgjsSymbol1019"><polygon points="0,18.75 37.5,37.5 37.5,75 0,56.25"></polygon></symbol><symbol id="SvgjsSymbol1020"><polygon points="37.5,37.5 75,18.75 75,56.25 37.5,75"></polygon></symbol><symbol id="SvgjsSymbol1021"><polygon points="0,12.5 25,0 50,12.5 25,25"></polygon></symbol><symbol id="SvgjsSymbol1022"><polygon points="0,12.5 25,25 25,50 0,37.5"></polygon></symbol><symbol id="SvgjsSymbol1023"><polygon points="25,25 50,12.5 50,37.5 25,50"></polygon></symbol><symbol id="SvgjsSymbol1024"><polygon points="0,6.25 12.5,0 25,6.25 12.5,12.5"></polygon></symbol><symbol id="SvgjsSymbol1025"><polygon points="0,6.25 12.5,12.5 12.5,25 0,18.75"></polygon></symbol><symbol id="SvgjsSymbol1026"><polygon points="12.5,12.5 25,6.25 25,18.75 12.5,25"></polygon></symbol><symbol id="SvgjsSymbol1027"><polygon points="0,12.5 25,0 50,12.5 25,25"></polygon></symbol><symbol id="SvgjsSymbol1028"><polygon points="0,12.5 25,25 25,50 0,37.5"></polygon></symbol><symbol id="SvgjsSymbol1029"><polygon points="25,25 50,12.5 50,37.5 25,50"></polygon></symbol><symbol id="SvgjsSymbol1030"><polygon points="0,18.75 37.5,0 75,18.75 37.5,37.5"></polygon></symbol><symbol id="SvgjsSymbol1031"><polygon points="0,18.75 37.5,37.5 37.5,75 0,56.25"></polygon></symbol><symbol id="SvgjsSymbol1032"><polygon points="37.5,37.5 75,18.75 75,56.25 37.5,75"></polygon></symbol><symbol id="SvgjsSymbol1033"><polygon points="0,12.5 25,0 50,12.5 25,25"></polygon></symbol><symbol id="SvgjsSymbol1034"><polygon points="0,12.5 25,25 25,50 0,37.5"></polygon></symbol><symbol id="SvgjsSymbol1035"><polygon points="25,25 50,12.5 50,37.5 25,50"></polygon></symbol></svg>