<svg xmlns="http://www.w3.org/2000/svg" version="1.1" xmlns:xlink="http://www.w3.org/1999/xlink" xmlns:svgjs="http://svgjs.dev/svgjs" viewBox="0 0 1422 800"><g shape-rendering="crispEdges"><g><use xlink:href="#SvgjsSymbol1000" x="37.5" y="37.5" fill="#0d48a1"></use><use xlink:href="#SvgjsSymbol1001" x="37.5" y="37.5" fill="#5473d3"></use><use xlink:href="#SvgjsSymbol1002" x="37.5" y="37.5" fill="#002272"></use></g><g><use xlink:href="#SvgjsSymbol1003" x="56.25" y="56.25" fill="#0d48a1"></use><use xlink:href="#SvgjsSymbol1004" x="56.25" y="56.25" fill="#5473d3"></use><use xlink:href="#SvgjsSymbol1005" x="56.25" y="56.25" fill="#002272"></use></g><g><use xlink:href="#SvgjsSymbol1003" x="93.75" y="18.75" fill="#0d48a1"></use><use xlink:href="#SvgjsSymbol1004" x="93.75" y="18.75" fill="#5473d3"></use><use xlink:href="#SvgjsSymbol1005" x="93.75" y="18.75" fill="#002272"></use></g><g><use xlink:href="#SvgjsSymbol1009" x="1237.5" y="37.5" fill="#0d48a1"></use><use xlink:href="#SvgjsSymbol1010" x="1237.5" y="37.5" fill="#5473d3"></use><use xlink:href="#SvgjsSymbol1011" x="1237.5" y="37.5" fill="#002272"></use></g><g><use xlink:href="#SvgjsSymbol1012" x="1225" y="125" fill="#ffb703"></use><use xlink:href="#SvgjsSymbol1013" x="1225" y="125" fill="#ffe94e"></use><use xlink:href="#SvgjsSymbol1014" x="1225" y="125" fill="#c78700"></use></g><g><use xlink:href="#SvgjsSymbol1012" x="1325" y="100" fill="#ffb703"></use><use xlink:href="#SvgjsSymbol1013" x="1325" y="100" fill="#ffe94e"></use><use xlink:href="#SvgjsSymbol1014" x="1325" y="100" fill="#c78700"></use></g><g><use xlink:href="#SvgjsSymbol1012" x="125" y="75" fill="#ffb703"></use><use xlink:href="#SvgjsSymbol1013" x="125" y="75" fill="#ffe94e"></use><use xlink:href="#SvgjsSymbol1014" x="125" y="75" fill="#c78700"></use></g><g><use xlink:href="#SvgjsSymbol1015" x="75" y="525" fill="#ffb703"></use><use xlink:href="#SvgjsSymbol1016" x="75" y="525" fill="#ffe94e"></use><use xlink:href="#SvgjsSymbol1017" x="75" y="525" fill="#c78700"></use></g><g><use xlink:href="#SvgjsSymbol1018" x="137.5" y="525" fill="#0d48a1"></use><use xlink:href="#SvgjsSymbol1019" x="137.5" y="525" fill="#5473d3"></use><use xlink:href="#SvgjsSymbol1020" x="137.5" y="525" fill="#002272"></use></g><g><use xlink:href="#SvgjsSymbol1018" x="187.5" y="550" fill="#0d48a1"></use><use xlink:href="#SvgjsSymbol1019" x="187.5" y="550" fill="#5473d3"></use><use xlink:href="#SvgjsSymbol1020" x="187.5" y="550" fill="#002272"></use></g><g><use xlink:href="#SvgjsSymbol1018" x="87.5" y="262.5" fill="#0d48a1"></use><use xlink:href="#SvgjsSymbol1019" x="87.5" y="262.5" fill="#5473d3"></use><use xlink:href="#SvgjsSymbol1020" x="87.5" y="262.5" fill="#002272"></use></g><g><use xlink:href="#SvgjsSymbol1027" x="75" y="550" fill="#0d48a1"></use><use xlink:href="#SvgjsSymbol1028" x="75" y="550" fill="#5473d3"></use></g><g><use xlink:href="#SvgjsSymbol1027" x="1225" y="125" fill="#0d48a1"></use><use xlink:href="#SvgjsSymbol1028" x="1225" y="125" fill="#5473d3"></use></g><g><use xlink:href="#SvgjsSymbol1030" x="1281.25" y="656.25" fill="#0d48a1"></use><use xlink:href="#SvgjsSymbol1031" x="1281.25" y="656.25" fill="#5473d3"></use><use xlink:href="#SvgjsSymbol1032" x="1281.25" y="656.25" fill="#002272"></use></g><g><use xlink:href="#SvgjsSymbol1033" x="68.75" y="718.75" fill="#0d48a1"></use><use xlink:href="#SvgjsSymbol1034" x="68.75" y="718.75" fill="#5473d3"></use><use xlink:href="#SvgjsSymbol1035" x="68.75" y="718.75" fill="#002272"></use></g><g><use xlink:href="#SvgjsSymbol1033" x="56.25" y="362.5" fill="#0d48a1"></use><use xlink:href="#SvgjsSymbol1034" x="56.25" y="362.5" fill="#5473d3"></use><use xlink:href="#SvgjsSymbol1035" x="56.25" y="362.5" fill="#002272"></use></g><g><use xlink:href="#SvgjsSymbol1033" x="1356.25" y="18.75" fill="#0d48a1"></use><use xlink:href="#SvgjsSymbol1034" x="1356.25" y="18.75" fill="#5473d3"></use><use xlink:href="#SvgjsSymbol1035" x="1356.25" y="18.75" fill="#002272"></use></g><g><use xlink:href="#SvgjsSymbol1036" x="1375" y="612.5" fill="#0d48a1"></use><use xlink:href="#SvgjsSymbol1037" x="1375" y="612.5" fill="#5473d3"></use><use xlink:href="#SvgjsSymbol1038" x="1375" y="612.5" fill="#002272"></use></g><g><use xlink:href="#SvgjsSymbol1036" x="1237.5" y="725" fill="#0d48a1"></use><use xlink:href="#SvgjsSymbol1037" x="1237.5" y="725" fill="#5473d3"></use><use xlink:href="#SvgjsSymbol1038" x="1237.5" y="725" fill="#002272"></use></g><g><use xlink:href="#SvgjsSymbol1039" x="1237.5" y="687.5" fill="#0d48a1"></use><use xlink:href="#SvgjsSymbol1040" x="1237.5" y="687.5" fill="#5473d3"></use><use xlink:href="#SvgjsSymbol1041" x="1237.5" y="687.5" fill="#002272"></use></g><g><use xlink:href="#SvgjsSymbol1039" x="1293.75" y="768.75" fill="#0d48a1"></use><use xlink:href="#SvgjsSymbol1040" x="1293.75" y="768.75" fill="#5473d3"></use><use xlink:href="#SvgjsSymbol1041" x="1293.75" y="768.75" fill="#002272"></use></g><g><use xlink:href="#SvgjsSymbol1039" x="1250" y="493.75" fill="#0d48a1"></use><use xlink:href="#SvgjsSymbol1040" x="1250" y="493.75" fill="#5473d3"></use><use xlink:href="#SvgjsSymbol1041" x="1250" y="493.75" fill="#002272"></use></g><g><use xlink:href="#SvgjsSymbol1039" x="1356.25" y="231.25" fill="#0d48a1"></use><use xlink:href="#SvgjsSymbol1040" x="1356.25" y="231.25" fill="#5473d3"></use><use xlink:href="#SvgjsSymbol1041" x="1356.25" y="231.25" fill="#002272"></use></g><g><use xlink:href="#SvgjsSymbol1039" x="31.25" y="162.5" fill="#0d48a1"></use><use xlink:href="#SvgjsSymbol1040" x="31.25" y="162.5" fill="#5473d3"></use><use xlink:href="#SvgjsSymbol1041" x="31.25" y="162.5" fill="#002272"></use></g><g><use xlink:href="#SvgjsSymbol1039" x="181.25" y="37.5" fill="#0d48a1"></use><use xlink:href="#SvgjsSymbol1040" x="181.25" y="37.5" fill="#5473d3"></use><use xlink:href="#SvgjsSymbol1041" x="181.25" y="37.5" fill="#002272"></use></g><g><use xlink:href="#SvgjsSymbol1039" x="162.5" y="625" fill="#0d48a1"></use><use xlink:href="#SvgjsSymbol1040" x="162.5" y="625" fill="#5473d3"></use><use xlink:href="#SvgjsSymbol1041" x="162.5" y="625" fill="#002272"></use></g><g><use xlink:href="#SvgjsSymbol1039" x="175" y="650" fill="#0d48a1"></use><use xlink:href="#SvgjsSymbol1040" x="175" y="650" fill="#5473d3"></use><use xlink:href="#SvgjsSymbol1041" x="175" y="650" fill="#002272"></use></g><g><use xlink:href="#SvgjsSymbol1039" x="212.5" y="737.5" fill="#0d48a1"></use><use xlink:href="#SvgjsSymbol1040" x="212.5" y="737.5" fill="#5473d3"></use><use xlink:href="#SvgjsSymbol1041" x="212.5" y="737.5" fill="#002272"></use></g><g><use xlink:href="#SvgjsSymbol1039" x="312.5" y="81.25" fill="#0d48a1"></use><use xlink:href="#SvgjsSymbol1040" x="312.5" y="81.25" fill="#5473d3"></use><use xlink:href="#SvgjsSymbol1041" x="312.5" y="81.25" fill="#002272"></use></g><g><use xlink:href="#SvgjsSymbol1042" x="1250" y="275" fill="#0d48a1"></use><use xlink:href="#SvgjsSymbol1043" x="1250" y="275" fill="#5473d3"></use><use xlink:href="#SvgjsSymbol1044" x="1250" y="275" fill="#002272"></use></g></g><symbol id="SvgjsSymbol1000"><polygon points="0,12.5 25,0 50,12.5 25,25"></polygon></symbol><symbol id="SvgjsSymbol1001"><polygon points="0,12.5 25,25 25,50 0,37.5"></polygon></symbol><symbol id="SvgjsSymbol1002"><polygon points="25,25 50,12.5 50,37.5 25,50"></polygon></symbol><g></g><symbol id="SvgjsSymbol1003"><polygon points="0,18.75 37.5,0 75,18.75 37.5,37.5"></polygon></symbol><symbol id="SvgjsSymbol1004"><polygon points="0,18.75 37.5,37.5 37.5,75 0,56.25"></polygon></symbol><symbol id="SvgjsSymbol1005"><polygon points="37.5,37.5 75,18.75 75,56.25 37.5,75"></polygon></symbol><symbol id="SvgjsSymbol1006"><polygon points="0,12.5 25,0 50,12.5 25,25"></polygon></symbol><symbol id="SvgjsSymbol1007"><polygon points="0,12.5 25,25 25,50 0,37.5"></polygon></symbol><symbol id="SvgjsSymbol1008"><polygon points="25,25 50,12.5 50,37.5 25,50"></polygon></symbol><symbol id="SvgjsSymbol1009"><polygon points="0,37.5 75,0 150,37.5 75,75"></polygon></symbol><symbol id="SvgjsSymbol1010"><polygon points="0,37.5 75,75 75,150 0,112.5"></polygon></symbol><symbol id="SvgjsSymbol1011"><polygon points="75,75 150,37.5 150,112.5 75,150"></polygon></symbol><symbol id="SvgjsSymbol1012"><polygon points="0,12.5 25,0 50,12.5 25,25"></polygon></symbol><symbol id="SvgjsSymbol1013"><polygon points="0,12.5 25,25 25,50 0,37.5"></polygon></symbol><symbol id="SvgjsSymbol1014"><polygon points="25,25 50,12.5 50,37.5 25,50"></polygon></symbol><symbol id="SvgjsSymbol1015"><polygon points="0,37.5 75,0 150,37.5 75,75"></polygon></symbol><symbol id="SvgjsSymbol1016"><polygon points="0,37.5 75,75 75,150 0,112.5"></polygon></symbol><symbol id="SvgjsSymbol1017"><polygon points="75,75 150,37.5 150,112.5 75,150"></polygon></symbol><symbol id="SvgjsSymbol1018"><polygon points="0,12.5 25,0 50,12.5 25,25"></polygon></symbol><symbol id="SvgjsSymbol1019"><polygon points="0,12.5 25,25 25,50 0,37.5"></polygon></symbol><symbol id="SvgjsSymbol1020"><polygon points="25,25 50,12.5 50,37.5 25,50"></polygon></symbol><symbol id="SvgjsSymbol1021"><polygon points="0,37.5 75,0 150,37.5 75,75"></polygon></symbol><symbol id="SvgjsSymbol1022"><polygon points="0,37.5 75,75 75,150 0,112.5"></polygon></symbol><symbol id="SvgjsSymbol1023"><polygon points="75,75 150,37.5 150,112.5 75,150"></polygon></symbol><symbol id="SvgjsSymbol1024"><polygon points="0,18.75 37.5,0 75,18.75 37.5,37.5"></polygon></symbol><symbol id="SvgjsSymbol1025"><polygon points="0,18.75 37.5,37.5 37.5,75 0,56.25"></polygon></symbol><symbol id="SvgjsSymbol1026"><polygon points="37.5,37.5 75,18.75 75,56.25 37.5,75"></polygon></symbol><symbol id="SvgjsSymbol1027"><polygon points="0,12.5 25,0 50,12.5 25,25"></polygon></symbol><symbol id="SvgjsSymbol1028"><polygon points="0,12.5 25,25 25,50 0,37.5"></polygon></symbol><symbol id="SvgjsSymbol1029"><polygon points="25,25 50,12.5 50,37.5 25,50"></polygon></symbol><symbol id="SvgjsSymbol1030"><polygon points="0,31.25 62.5,0 125,31.25 62.5,62.5"></polygon></symbol><symbol id="SvgjsSymbol1031"><polygon points="0,31.25 62.5,62.5 62.5,125 0,93.75"></polygon></symbol><symbol id="SvgjsSymbol1032"><polygon points="62.5,62.5 125,31.25 125,93.75 62.5,125"></polygon></symbol><symbol id="SvgjsSymbol1033"><polygon points="0,6.25 12.5,0 25,6.25 12.5,12.5"></polygon></symbol><symbol id="SvgjsSymbol1034"><polygon points="0,6.25 12.5,12.5 12.5,25 0,18.75"></polygon></symbol><symbol id="SvgjsSymbol1035"><polygon points="12.5,12.5 25,6.25 25,18.75 12.5,25"></polygon></symbol><symbol id="SvgjsSymbol1036"><polygon points="0,12.5 25,0 50,12.5 25,25"></polygon></symbol><symbol id="SvgjsSymbol1037"><polygon points="0,12.5 25,25 25,50 0,37.5"></polygon></symbol><symbol id="SvgjsSymbol1038"><polygon points="25,25 50,12.5 50,37.5 25,50"></polygon></symbol><symbol id="SvgjsSymbol1039"><polygon points="0,6.25 12.5,0 25,6.25 12.5,12.5"></polygon></symbol><symbol id="SvgjsSymbol1040"><polygon points="0,6.25 12.5,12.5 12.5,25 0,18.75"></polygon></symbol><symbol id="SvgjsSymbol1041"><polygon points="12.5,12.5 25,6.25 25,18.75 12.5,25"></polygon></symbol><symbol id="SvgjsSymbol1042"><polygon points="0,12.5 25,0 50,12.5 25,25"></polygon></symbol><symbol id="SvgjsSymbol1043"><polygon points="0,12.5 25,25 25,50 0,37.5"></polygon></symbol><symbol id="SvgjsSymbol1044"><polygon points="25,25 50,12.5 50,37.5 25,50"></polygon></symbol></svg>