<svg width="637" height="474" viewBox="0 0 637 474" fill="none" xmlns="http://www.w3.org/2000/svg">
<g filter="url(#filter0_dd_142_26808)">
<rect x="10.9805" y="8.5" width="615.98" height="453" rx="5" fill="#E7E9EB" shape-rendering="crispEdges"/>
<path d="M29.1405 60.5V44.756H31.1325V51.356H38.4525V44.756H40.4685V60.5H38.4525V53.084H31.1325V60.5H29.1405ZM48.0607 60.5V46.436H43.3087V44.756H54.8287V46.436H50.0767V60.5H48.0607ZM57.6639 60.5V44.756H60.0639L63.0879 53.156C63.2799 53.7 63.4639 54.252 63.6399 54.812C63.8319 55.356 64.0239 55.9 64.2159 56.444H64.3119C64.5039 55.9 64.6799 55.356 64.8399 54.812C65.0159 54.252 65.1999 53.7 65.3919 53.156L68.3679 44.756H70.7919V60.5H68.9199V51.836C68.9199 51.132 68.9519 50.356 69.0159 49.508C69.0799 48.644 69.1359 47.868 69.1839 47.18H69.0879L67.8399 50.756L64.8639 58.916H63.5439L60.5679 50.756L59.3199 47.18H59.2239C59.2719 47.868 59.3199 48.644 59.3679 49.508C59.4319 50.356 59.4639 51.132 59.4639 51.836V60.5H57.6639ZM75.1014 60.5V44.756H77.0934V58.796H83.9814V60.5H75.1014ZM91.578 60.5V44.756H100.65V46.436H93.57V51.38H99.546V53.084H93.57V58.796H100.89V60.5H91.578ZM101.66 60.5L105.476 54.404L101.948 48.836H104.084L105.644 51.404C105.82 51.708 106.004 52.028 106.196 52.364C106.388 52.7 106.588 53.028 106.796 53.348H106.892C107.068 53.028 107.244 52.7 107.42 52.364C107.596 52.028 107.772 51.708 107.948 51.404L109.364 48.836H111.428L107.9 54.62L111.692 60.5H109.556L107.852 57.788C107.644 57.436 107.436 57.084 107.228 56.732C107.02 56.38 106.804 56.036 106.58 55.7H106.484C106.276 56.036 106.076 56.38 105.884 56.732C105.692 57.068 105.5 57.42 105.308 57.788L103.724 60.5H101.66ZM116.457 60.788C115.481 60.788 114.665 60.5 114.009 59.924C113.369 59.332 113.049 58.516 113.049 57.476C113.049 56.196 113.617 55.22 114.753 54.548C115.905 53.86 117.721 53.38 120.201 53.108C120.201 52.612 120.129 52.14 119.985 51.692C119.857 51.244 119.617 50.884 119.265 50.612C118.929 50.324 118.441 50.18 117.801 50.18C117.129 50.18 116.497 50.308 115.905 50.564C115.313 50.82 114.785 51.108 114.321 51.428L113.553 50.06C114.097 49.708 114.761 49.372 115.545 49.052C116.345 48.716 117.209 48.548 118.137 48.548C119.561 48.548 120.593 48.988 121.233 49.868C121.873 50.732 122.193 51.892 122.193 53.348V60.5H120.561L120.393 59.108H120.321C119.777 59.556 119.177 59.948 118.521 60.284C117.881 60.62 117.193 60.788 116.457 60.788ZM117.033 59.204C117.593 59.204 118.121 59.068 118.617 58.796C119.113 58.524 119.641 58.14 120.201 57.644V54.404C118.265 54.644 116.905 55.004 116.121 55.484C115.353 55.964 114.969 56.58 114.969 57.332C114.969 57.988 115.169 58.468 115.569 58.772C115.969 59.06 116.457 59.204 117.033 59.204ZM125.863 60.5V48.836H127.495L127.663 50.516H127.735C128.247 49.956 128.807 49.492 129.415 49.124C130.023 48.74 130.671 48.548 131.359 48.548C132.255 48.548 132.951 48.748 133.447 49.148C133.959 49.532 134.335 50.076 134.575 50.78C135.183 50.124 135.799 49.588 136.423 49.172C137.047 48.756 137.711 48.548 138.415 48.548C139.615 48.548 140.503 48.94 141.079 49.724C141.671 50.492 141.967 51.62 141.967 53.108V60.5H139.999V53.372C139.999 52.284 139.823 51.492 139.471 50.996C139.119 50.5 138.575 50.252 137.839 50.252C136.975 50.252 135.999 50.852 134.911 52.052V60.5H132.943V53.372C132.943 52.284 132.767 51.492 132.415 50.996C132.063 50.5 131.511 50.252 130.759 50.252C129.895 50.252 128.919 50.852 127.831 52.052V60.5H125.863ZM145.761 65.42V48.836H147.393L147.561 50.18H147.633C148.161 49.732 148.737 49.348 149.361 49.028C150.001 48.708 150.665 48.548 151.353 48.548C152.857 48.548 154.001 49.092 154.785 50.18C155.569 51.252 155.961 52.692 155.961 54.5C155.961 55.812 155.721 56.94 155.241 57.884C154.777 58.828 154.161 59.548 153.393 60.044C152.641 60.54 151.817 60.788 150.921 60.788C150.377 60.788 149.833 60.668 149.289 60.428C148.761 60.188 148.225 59.86 147.681 59.444L147.729 61.484V65.42H145.761ZM150.585 59.132C151.545 59.132 152.337 58.724 152.961 57.908C153.601 57.076 153.921 55.94 153.921 54.5C153.921 53.22 153.681 52.188 153.201 51.404C152.737 50.604 151.953 50.204 150.849 50.204C150.353 50.204 149.849 50.34 149.337 50.612C148.841 50.884 148.305 51.276 147.729 51.788V57.908C148.257 58.356 148.769 58.676 149.265 58.868C149.761 59.044 150.201 59.132 150.585 59.132ZM161.161 60.788C160.425 60.788 159.889 60.564 159.553 60.116C159.233 59.652 159.073 58.996 159.073 58.148V43.412H161.041V58.292C161.041 58.596 161.097 58.82 161.209 58.964C161.321 59.092 161.449 59.156 161.593 59.156C161.657 59.156 161.713 59.156 161.761 59.156C161.825 59.14 161.913 59.124 162.025 59.108L162.289 60.596C162.161 60.66 162.009 60.708 161.833 60.74C161.657 60.772 161.433 60.788 161.161 60.788ZM169.919 60.788C168.879 60.788 167.935 60.548 167.087 60.068C166.239 59.572 165.567 58.868 165.071 57.956C164.575 57.044 164.327 55.956 164.327 54.692C164.327 53.412 164.575 52.316 165.071 51.404C165.583 50.492 166.239 49.788 167.039 49.292C167.839 48.796 168.679 48.548 169.559 48.548C171.047 48.548 172.191 49.044 172.991 50.036C173.807 51.028 174.215 52.356 174.215 54.02C174.215 54.228 174.207 54.436 174.191 54.644C174.191 54.836 174.175 55.004 174.143 55.148H166.271C166.351 56.38 166.735 57.364 167.423 58.1C168.127 58.836 169.039 59.204 170.159 59.204C170.719 59.204 171.231 59.124 171.695 58.964C172.175 58.788 172.631 58.564 173.063 58.292L173.759 59.588C173.263 59.908 172.695 60.188 172.055 60.428C171.431 60.668 170.719 60.788 169.919 60.788ZM166.247 53.732H172.487C172.487 52.548 172.231 51.652 171.719 51.044C171.223 50.42 170.519 50.108 169.607 50.108C168.791 50.108 168.055 50.428 167.399 51.068C166.759 51.692 166.375 52.58 166.247 53.732ZM178.129 52.124C177.729 52.124 177.385 51.988 177.097 51.716C176.825 51.428 176.689 51.068 176.689 50.636C176.689 50.172 176.825 49.804 177.097 49.532C177.385 49.244 177.729 49.1 178.129 49.1C178.513 49.1 178.841 49.244 179.113 49.532C179.401 49.804 179.545 50.172 179.545 50.636C179.545 51.068 179.401 51.428 179.113 51.716C178.841 51.988 178.513 52.124 178.129 52.124ZM178.129 60.788C177.729 60.788 177.385 60.652 177.097 60.38C176.825 60.092 176.689 59.732 176.689 59.3C176.689 58.836 176.825 58.468 177.097 58.196C177.385 57.908 177.729 57.764 178.129 57.764C178.513 57.764 178.841 57.908 179.113 58.196C179.401 58.468 179.545 58.836 179.545 59.3C179.545 59.732 179.401 60.092 179.113 60.38C178.841 60.652 178.513 60.788 178.129 60.788Z" fill="black"/>
<mask id="path-3-inside-1_142_26808" fill="white">
<path d="M26.9805 86.5H610.96V386.5H26.9805V86.5Z"/>
</mask>
<path d="M26.9805 86.5H610.96V386.5H26.9805V86.5Z" fill="white"/>
<path d="M44.4933 106.665V105.812L51.354 102.318V103.682L46.0913 106.217L46.1339 106.132V106.345L46.0913 106.26L51.354 108.795V110.159L44.4933 106.665ZM171.75 106.665L164.889 110.159V108.795L170.152 106.26L170.109 106.345V106.132L170.152 106.217L164.889 103.682V102.318L171.75 105.812V106.665ZM44.4933 128.665V127.812L51.354 124.318V125.682L46.0913 128.217L46.1339 128.132V128.345L46.0913 128.26L51.354 130.795V132.159L44.4933 128.665ZM92.1499 128.665L85.2892 132.159V130.795L90.5519 128.26L90.5093 128.345V128.132L90.5519 128.217L85.2892 125.682V124.318L92.1499 127.812V128.665ZM44.4933 151.665V150.812L51.354 147.318V148.682L46.0913 151.217L46.1339 151.132V151.345L46.0913 151.26L51.354 153.795V155.159L44.4933 151.665ZM88.1656 151.665L81.3048 155.159V153.795L86.5676 151.26L86.5249 151.345V151.132L86.5676 151.217L81.3048 148.682V147.318L88.1656 150.812V151.665ZM190.611 151.665V150.812L197.472 147.318V148.682L192.209 151.217L192.252 151.132V151.345L192.209 151.26L197.472 153.795V155.159L190.611 151.665ZM239.63 151.665L232.77 155.159V153.795L238.032 151.26L237.99 151.345V151.132L238.032 151.217L232.77 148.682V147.318L239.63 150.812V151.665ZM44.4933 173.665V172.812L51.354 169.318V170.682L46.0913 173.217L46.1339 173.132V173.345L46.0913 173.26L51.354 175.795V177.159L44.4933 173.665ZM97.1744 173.665L90.3136 177.159V175.795L95.5763 173.26L95.5337 173.345V173.132L95.5763 173.217L90.3136 170.682V169.318L97.1744 172.812V173.665Z" fill="#0000CD"/>
<path d="M55.6807 99.5909L55.5741 107.432H54.3383L54.2318 99.5909H55.6807ZM54.9562 110.585C54.6934 110.585 54.468 110.491 54.2797 110.303C54.0915 110.115 53.9974 109.889 53.9974 109.626C53.9974 109.364 54.0915 109.138 54.2797 108.95C54.468 108.762 54.6934 108.668 54.9562 108.668C55.219 108.668 55.4445 108.762 55.6327 108.95C55.8209 109.138 55.915 109.364 55.915 109.626C55.915 109.8 55.8706 109.96 55.7819 110.106C55.6966 110.251 55.5812 110.369 55.4356 110.457C55.2936 110.543 55.1338 110.585 54.9562 110.585ZM61.7305 110.5H58.364V99.5909H61.8796C62.9379 99.5909 63.8434 99.8093 64.5962 100.246C65.3491 100.679 65.9261 101.303 66.3274 102.116C66.7287 102.925 66.9293 103.895 66.9293 105.024C66.9293 106.161 66.7269 107.139 66.3221 107.959C65.9173 108.776 65.3278 109.404 64.5536 109.845C63.7795 110.282 62.8384 110.5 61.7305 110.5ZM59.685 109.328H61.6452C62.5472 109.328 63.2947 109.154 63.8878 108.806C64.4808 108.458 64.9229 107.963 65.2141 107.32C65.5053 106.677 65.6509 105.912 65.6509 105.024C65.6509 104.143 65.5071 103.385 65.2195 102.75C64.9318 102.11 64.5021 101.62 63.9304 101.279C63.3587 100.935 62.6467 100.763 61.7944 100.763H59.685V109.328ZM78.3498 105.045C78.3498 106.196 78.142 107.19 77.7266 108.028C77.3111 108.866 76.7411 109.513 76.0167 109.967C75.2923 110.422 74.4648 110.649 73.5344 110.649C72.604 110.649 71.7766 110.422 71.0522 109.967C70.3278 109.513 69.7578 108.866 69.3423 108.028C68.9268 107.19 68.7191 106.196 68.7191 105.045C68.7191 103.895 68.9268 102.901 69.3423 102.062C69.7578 101.224 70.3278 100.578 71.0522 100.124C71.7766 99.669 72.604 99.4418 73.5344 99.4418C74.4648 99.4418 75.2923 99.669 76.0167 100.124C76.7411 100.578 77.3111 101.224 77.7266 102.062C78.142 102.901 78.3498 103.895 78.3498 105.045ZM77.0714 105.045C77.0714 104.101 76.9134 103.304 76.5973 102.654C76.2848 102.004 75.8604 101.512 75.3242 101.178C74.7915 100.844 74.195 100.678 73.5344 100.678C72.8739 100.678 72.2756 100.844 71.7393 101.178C71.2067 101.512 70.7823 102.004 70.4663 102.654C70.1538 103.304 69.9975 104.101 69.9975 105.045C69.9975 105.99 70.1538 106.787 70.4663 107.437C70.7823 108.087 71.2067 108.579 71.7393 108.913C72.2756 109.246 72.8739 109.413 73.5344 109.413C74.195 109.413 74.7915 109.246 75.3242 108.913C75.8604 108.579 76.2848 108.087 76.5973 107.437C76.9134 106.787 77.0714 105.99 77.0714 105.045ZM89.3494 103H88.0284C87.9503 102.62 87.8136 102.286 87.6183 101.999C87.4265 101.711 87.1921 101.469 86.9151 101.274C86.6417 101.075 86.3381 100.926 86.0043 100.827C85.6705 100.727 85.3224 100.678 84.9602 100.678C84.2997 100.678 83.7013 100.844 83.1651 101.178C82.6325 101.512 82.2081 102.004 81.892 102.654C81.5795 103.304 81.4233 104.101 81.4233 105.045C81.4233 105.99 81.5795 106.787 81.892 107.437C82.2081 108.087 82.6325 108.579 83.1651 108.913C83.7013 109.246 84.2997 109.413 84.9602 109.413C85.3224 109.413 85.6705 109.364 86.0043 109.264C86.3381 109.165 86.6417 109.017 86.9151 108.822C87.1921 108.623 87.4265 108.38 87.6183 108.092C87.8136 107.801 87.9503 107.467 88.0284 107.091H89.3494C89.25 107.648 89.0689 108.147 88.8061 108.588C88.5433 109.028 88.2166 109.403 87.826 109.712C87.4354 110.017 86.9968 110.25 86.5103 110.409C86.0273 110.569 85.5107 110.649 84.9602 110.649C84.0298 110.649 83.2024 110.422 82.478 109.967C81.7536 109.513 81.1836 108.866 80.7681 108.028C80.3526 107.19 80.1449 106.196 80.1449 105.045C80.1449 103.895 80.3526 102.901 80.7681 102.062C81.1836 101.224 81.7536 100.578 82.478 100.124C83.2024 99.669 84.0298 99.4418 84.9602 99.4418C85.5107 99.4418 86.0273 99.5217 86.5103 99.6815C86.9968 99.8413 87.4354 100.076 87.826 100.385C88.2166 100.69 88.5433 101.063 88.8061 101.503C89.0689 101.94 89.25 102.439 89.3494 103ZM90.8875 100.763V99.5909H99.0693V100.763H95.6389V110.5H94.3179V100.763H90.8875ZM100.171 99.5909H101.683L104.709 104.683H104.837L107.862 99.5909H109.375L105.433 106.004V110.5H104.112V106.004L100.171 99.5909ZM111.084 110.5V99.5909H114.77C115.626 99.5909 116.325 99.7454 116.869 100.054C117.415 100.36 117.82 100.773 118.083 101.295C118.346 101.817 118.477 102.4 118.477 103.043C118.477 103.685 118.346 104.27 118.083 104.795C117.824 105.321 117.422 105.74 116.879 106.052C116.336 106.361 115.64 106.516 114.791 106.516H112.149V105.344H114.748C115.334 105.344 115.805 105.243 116.16 105.04C116.515 104.838 116.773 104.564 116.932 104.22C117.096 103.872 117.177 103.479 117.177 103.043C117.177 102.606 117.096 102.215 116.932 101.871C116.773 101.526 116.513 101.256 116.155 101.061C115.796 100.862 115.32 100.763 114.727 100.763H112.405V110.5H111.084ZM120.605 110.5V99.5909H127.189V100.763H121.926V104.449H126.848V105.621H121.926V109.328H127.274V110.5H120.605ZM55.2758 127.578V132.5H54.0187V121.591H55.2758V125.597H55.3824C55.5741 125.174 55.8618 124.838 56.2453 124.59C56.6324 124.338 57.1473 124.212 57.79 124.212C58.3476 124.212 58.8358 124.324 59.2549 124.547C59.6739 124.767 59.9988 125.107 60.2297 125.565C60.464 126.019 60.5812 126.598 60.5812 127.301V132.5H59.3241V127.386C59.3241 126.737 59.1555 126.234 58.8181 125.879C58.4843 125.52 58.0209 125.341 57.4278 125.341C57.0159 125.341 56.6466 125.428 56.3199 125.602C55.9967 125.776 55.741 126.03 55.5528 126.364C55.3682 126.697 55.2758 127.102 55.2758 127.578ZM66.4393 124.318V125.384H62.1992V124.318H66.4393ZM63.435 122.358H64.6921V130.156C64.6921 130.511 64.7436 130.778 64.8466 130.955C64.9531 131.129 65.0881 131.246 65.2514 131.307C65.4183 131.364 65.5941 131.392 65.7788 131.392C65.9173 131.392 66.0309 131.385 66.1197 131.371C66.2085 131.353 66.2795 131.339 66.3327 131.328L66.5884 132.457C66.5032 132.489 66.3842 132.521 66.2315 132.553C66.0788 132.589 65.8853 132.607 65.6509 132.607C65.2958 132.607 64.9478 132.53 64.6069 132.377C64.2695 132.225 63.989 131.992 63.7653 131.68C63.5451 131.367 63.435 130.973 63.435 130.497V122.358ZM68.3303 132.5V124.318H69.5447V125.597H69.6513C69.8217 125.16 70.0969 124.821 70.4769 124.579C70.8569 124.334 71.3132 124.212 71.8459 124.212C72.3857 124.212 72.8349 124.334 73.1935 124.579C73.5558 124.821 73.8381 125.16 74.0405 125.597H74.1257C74.3352 125.174 74.6495 124.838 75.0685 124.59C75.4876 124.338 75.9901 124.212 76.576 124.212C77.3075 124.212 77.9059 124.441 78.3711 124.899C78.8363 125.353 79.0689 126.062 79.0689 127.024V132.5H77.8118V127.024C77.8118 126.42 77.6467 125.989 77.3164 125.73C76.9862 125.471 76.5973 125.341 76.1499 125.341C75.5746 125.341 75.1289 125.515 74.8129 125.863C74.4968 126.207 74.3388 126.644 74.3388 127.173V132.5H73.0604V126.896C73.0604 126.431 72.9094 126.056 72.6076 125.772C72.3058 125.485 71.9169 125.341 71.4411 125.341C71.1143 125.341 70.8089 125.428 70.5249 125.602C70.2443 125.776 70.017 126.017 69.843 126.326C69.6726 126.632 69.5874 126.985 69.5874 127.386V132.5H68.3303ZM82.6245 121.591V132.5H81.3674V121.591H82.6245ZM57.577 147.318V148.384H53.3369V147.318H57.577ZM54.5727 145.358H55.8298V153.156C55.8298 153.511 55.8813 153.778 55.9843 153.955C56.0908 154.129 56.2258 154.246 56.3891 154.307C56.556 154.364 56.7318 154.392 56.9165 154.392C57.055 154.392 57.1686 154.385 57.2574 154.371C57.3461 154.353 57.4172 154.339 57.4704 154.328L57.7261 155.457C57.6409 155.489 57.5219 155.521 57.3692 155.553C57.2165 155.589 57.023 155.607 56.7886 155.607C56.4335 155.607 56.0855 155.53 55.7446 155.377C55.4072 155.225 55.1267 154.992 54.903 154.68C54.6828 154.367 54.5727 153.973 54.5727 153.497V145.358ZM59.468 155.5V147.318H60.7251V155.5H59.468ZM60.1072 145.955C59.8621 145.955 59.6508 145.871 59.4733 145.704C59.2993 145.537 59.2123 145.337 59.2123 145.102C59.2123 144.868 59.2993 144.667 59.4733 144.5C59.6508 144.333 59.8621 144.25 60.1072 144.25C60.3522 144.25 60.5617 144.333 60.7357 144.5C60.9133 144.667 61.002 144.868 61.002 145.102C61.002 145.337 60.9133 145.537 60.7357 145.704C60.5617 145.871 60.3522 145.955 60.1072 145.955ZM66.5858 147.318V148.384H62.3457V147.318H66.5858ZM63.5815 145.358H64.8386V153.156C64.8386 153.511 64.8901 153.778 64.9931 153.955C65.0996 154.129 65.2346 154.246 65.3979 154.307C65.5648 154.364 65.7406 154.392 65.9252 154.392C66.0637 154.392 66.1774 154.385 66.2662 154.371C66.3549 154.353 66.426 154.339 66.4792 154.328L66.7349 155.457C66.6497 155.489 66.5307 155.521 66.378 155.553C66.2253 155.589 66.0318 155.607 65.7974 155.607C65.4423 155.607 65.0943 155.53 64.7534 155.377C64.416 155.225 64.1355 154.992 63.9118 154.68C63.6916 154.367 63.5815 153.973 63.5815 153.497V145.358ZM69.9096 144.591V155.5H68.6525V144.591H69.9096ZM75.6425 155.67C74.8541 155.67 74.1741 155.496 73.6024 155.148C73.0342 154.797 72.5956 154.307 72.2867 153.678C71.9813 153.046 71.8286 152.311 71.8286 151.473C71.8286 150.635 71.9813 149.896 72.2867 149.257C72.5956 148.614 73.0253 148.114 73.5757 147.755C74.1297 147.393 74.776 147.212 75.5146 147.212C75.9408 147.212 76.3616 147.283 76.7771 147.425C77.1926 147.567 77.5708 147.798 77.9117 148.117C78.2526 148.433 78.5242 148.852 78.7267 149.374C78.9291 149.896 79.0303 150.539 79.0303 151.303V151.835H72.7235V150.749H77.7519C77.7519 150.287 77.6595 149.875 77.4749 149.513C77.2938 149.151 77.0345 148.865 76.6972 148.655C76.3634 148.446 75.9692 148.341 75.5146 148.341C75.0139 148.341 74.5807 148.465 74.2149 148.714C73.8527 148.959 73.574 149.278 73.3786 149.673C73.1833 150.067 73.0857 150.489 73.0857 150.94V151.665C73.0857 152.283 73.1922 152.806 73.4053 153.236C73.6219 153.662 73.922 153.987 74.3055 154.211C74.689 154.431 75.1347 154.541 75.6425 154.541C75.9727 154.541 76.271 154.495 76.5374 154.403C76.8073 154.307 77.0399 154.165 77.2352 153.977C77.4305 153.785 77.5814 153.547 77.6879 153.263L78.9024 153.604C78.7746 154.016 78.5597 154.378 78.2579 154.69C77.9561 154.999 77.5832 155.241 77.1393 155.415C76.6954 155.585 76.1965 155.67 75.6425 155.67ZM203.993 144.08L200.478 157.141H199.327L202.843 144.08H203.993ZM209.042 147.318V148.384H204.802V147.318H209.042ZM206.038 145.358H207.295V153.156C207.295 153.511 207.346 153.778 207.449 153.955C207.556 154.129 207.691 154.246 207.854 154.307C208.021 154.364 208.197 154.392 208.381 154.392C208.52 154.392 208.633 154.385 208.722 154.371C208.811 154.353 208.882 154.339 208.935 154.328L209.191 155.457C209.106 155.489 208.987 155.521 208.834 155.553C208.681 155.589 208.488 155.607 208.253 155.607C207.898 155.607 207.55 155.53 207.209 155.377C206.872 155.225 206.592 154.992 206.368 154.68C206.148 154.367 206.038 153.973 206.038 153.497V145.358ZM210.933 155.5V147.318H212.19V155.5H210.933ZM211.572 145.955C211.327 145.955 211.116 145.871 210.938 145.704C210.764 145.537 210.677 145.337 210.677 145.102C210.677 144.868 210.764 144.667 210.938 144.5C211.116 144.333 211.327 144.25 211.572 144.25C211.817 144.25 212.027 144.333 212.201 144.5C212.378 144.667 212.467 144.868 212.467 145.102C212.467 145.337 212.378 145.537 212.201 145.704C212.027 145.871 211.817 145.955 211.572 145.955ZM218.051 147.318V148.384H213.811V147.318H218.051ZM215.046 145.358H216.303V153.156C216.303 153.511 216.355 153.778 216.458 153.955C216.564 154.129 216.699 154.246 216.863 154.307C217.03 154.364 217.205 154.392 217.39 154.392C217.529 154.392 217.642 154.385 217.731 154.371C217.82 154.353 217.891 154.339 217.944 154.328L218.2 155.457C218.115 155.489 217.996 155.521 217.843 155.553C217.69 155.589 217.497 155.607 217.262 155.607C216.907 155.607 216.559 155.53 216.218 155.377C215.881 155.225 215.6 154.992 215.377 154.68C215.156 154.367 215.046 153.973 215.046 153.497V145.358ZM221.374 144.591V155.5H220.117V144.591H221.374ZM227.107 155.67C226.319 155.67 225.639 155.496 225.067 155.148C224.499 154.797 224.06 154.307 223.752 153.678C223.446 153.046 223.293 152.311 223.293 151.473C223.293 150.635 223.446 149.896 223.752 149.257C224.06 148.614 224.49 148.114 225.041 147.755C225.595 147.393 226.241 147.212 226.979 147.212C227.406 147.212 227.826 147.283 228.242 147.425C228.657 147.567 229.036 147.798 229.377 148.117C229.717 148.433 229.989 148.852 230.191 149.374C230.394 149.896 230.495 150.539 230.495 151.303V151.835H224.188V150.749H229.217C229.217 150.287 229.124 149.875 228.94 149.513C228.759 149.151 228.499 148.865 228.162 148.655C227.828 148.446 227.434 148.341 226.979 148.341C226.479 148.341 226.046 148.465 225.68 148.714C225.318 148.959 225.039 149.278 224.843 149.673C224.648 150.067 224.551 150.489 224.551 150.94V151.665C224.551 152.283 224.657 152.806 224.87 153.236C225.087 153.662 225.387 153.987 225.77 154.211C226.154 154.431 226.6 154.541 227.107 154.541C227.438 154.541 227.736 154.495 228.002 154.403C228.272 154.307 228.505 154.165 228.7 153.977C228.895 153.785 229.046 153.547 229.153 153.263L230.367 153.604C230.239 154.016 230.025 154.378 229.723 154.69C229.421 154.999 229.048 155.241 228.604 155.415C228.16 155.585 227.661 155.67 227.107 155.67ZM54.1892 177.5V166.591H55.4463V170.618H55.5528C55.6452 170.476 55.773 170.295 55.9363 170.075C56.1032 169.851 56.3412 169.652 56.6501 169.478C56.9626 169.3 57.3852 169.212 57.9179 169.212C58.6068 169.212 59.214 169.384 59.7396 169.728C60.2652 170.073 60.6753 170.561 60.9701 171.193C61.2648 171.825 61.4122 172.571 61.4122 173.43C61.4122 174.297 61.2648 175.048 60.9701 175.684C60.6753 176.316 60.267 176.806 59.7449 177.154C59.2229 177.498 58.621 177.67 57.9392 177.67C57.4136 177.67 56.9928 177.583 56.6768 177.409C56.3607 177.232 56.1175 177.031 55.947 176.808C55.7765 176.58 55.6452 176.392 55.5528 176.243H55.4037V177.5H54.1892ZM55.425 173.409C55.425 174.027 55.5155 174.572 55.6966 175.044C55.8778 175.513 56.1423 175.881 56.4903 176.147C56.8383 176.41 57.2645 176.541 57.7687 176.541C58.2943 176.541 58.7329 176.403 59.0844 176.126C59.4395 175.845 59.7059 175.469 59.8834 174.996C60.0645 174.521 60.1551 173.991 60.1551 173.409C60.1551 172.834 60.0663 172.315 59.8888 171.854C59.7148 171.388 59.4502 171.021 59.0951 170.751C58.7435 170.478 58.3014 170.341 57.7687 170.341C57.2574 170.341 56.8277 170.471 56.4797 170.73C56.1317 170.985 55.8689 171.344 55.6913 171.806C55.5138 172.264 55.425 172.798 55.425 173.409ZM66.659 177.67C65.9204 177.67 65.2723 177.495 64.7148 177.143C64.1608 176.792 63.7275 176.3 63.415 175.668C63.1061 175.036 62.9516 174.297 62.9516 173.452C62.9516 172.599 63.1061 171.855 63.415 171.22C63.7275 170.584 64.1608 170.091 64.7148 169.739C65.2723 169.387 65.9204 169.212 66.659 169.212C67.3976 169.212 68.0439 169.387 68.5979 169.739C69.1555 170.091 69.5887 170.584 69.8976 171.22C70.2101 171.855 70.3664 172.599 70.3664 173.452C70.3664 174.297 70.2101 175.036 69.8976 175.668C69.5887 176.3 69.1555 176.792 68.5979 177.143C68.0439 177.495 67.3976 177.67 66.659 177.67ZM66.659 176.541C67.2201 176.541 67.6817 176.397 68.0439 176.11C68.4062 175.822 68.6743 175.444 68.8483 174.975C69.0223 174.506 69.1093 173.999 69.1093 173.452C69.1093 172.905 69.0223 172.395 68.8483 171.923C68.6743 171.451 68.4062 171.069 68.0439 170.778C67.6817 170.487 67.2201 170.341 66.659 170.341C66.0979 170.341 65.6363 170.487 65.2741 170.778C64.9118 171.069 64.6437 171.451 64.4697 171.923C64.2957 172.395 64.2087 172.905 64.2087 173.452C64.2087 173.999 64.2957 174.506 64.4697 174.975C64.6437 175.444 64.9118 175.822 65.2741 176.11C65.6363 176.397 66.0979 176.541 66.659 176.541ZM75.3748 177.67C74.693 177.67 74.0911 177.498 73.5691 177.154C73.0471 176.806 72.6387 176.316 72.3439 175.684C72.0492 175.048 71.9018 174.297 71.9018 173.43C71.9018 172.571 72.0492 171.825 72.3439 171.193C72.6387 170.561 73.0488 170.073 73.5744 169.728C74.1 169.384 74.7072 169.212 75.3961 169.212C75.9288 169.212 76.3496 169.3 76.6586 169.478C76.9711 169.652 77.209 169.851 77.3723 170.075C77.5392 170.295 77.6689 170.476 77.7612 170.618H77.8677V166.591H79.1248V177.5H77.9103V176.243H77.7612C77.6689 176.392 77.5375 176.58 77.367 176.808C77.1966 177.031 76.9533 177.232 76.6373 177.409C76.3212 177.583 75.9004 177.67 75.3748 177.67ZM75.5453 176.541C76.0495 176.541 76.4757 176.41 76.8237 176.147C77.1717 175.881 77.4363 175.513 77.6174 175.044C77.7985 174.572 77.889 174.027 77.889 173.409C77.889 172.798 77.8002 172.264 77.6227 171.806C77.4451 171.344 77.1824 170.985 76.8343 170.73C76.4863 170.471 76.0566 170.341 75.5453 170.341C75.0126 170.341 74.5687 170.478 74.2136 170.751C73.862 171.021 73.5975 171.388 73.4199 171.854C73.2459 172.315 73.1589 172.834 73.1589 173.409C73.1589 173.991 73.2477 174.521 73.4252 174.996C73.6064 175.469 73.8727 175.845 74.2243 176.126C74.5794 176.403 75.0197 176.541 75.5453 176.541ZM82.4114 180.568C82.1983 180.568 82.0083 180.55 81.8414 180.515C81.6745 180.483 81.5591 180.451 81.4952 180.419L81.8148 179.311C82.1202 179.389 82.3901 179.418 82.6245 179.396C82.8588 179.375 83.0666 179.27 83.2477 179.082C83.4324 178.897 83.601 178.597 83.7537 178.182L83.9881 177.543L80.9625 169.318H82.3262L84.5847 175.838H84.6699L86.9284 169.318H88.2921L84.8191 178.693C84.6628 179.116 84.4693 179.466 84.2385 179.743C84.0076 180.023 83.7395 180.231 83.4341 180.366C83.1323 180.501 82.7914 180.568 82.4114 180.568Z" fill="#A52A2A"/>
<path d="M134.875 105.578V110.5H133.618V99.5909H134.875V103.597H134.982C135.174 103.174 135.461 102.838 135.845 102.59C136.232 102.338 136.747 102.212 137.39 102.212C137.947 102.212 138.435 102.324 138.854 102.547C139.274 102.767 139.598 103.107 139.829 103.565C140.064 104.019 140.181 104.598 140.181 105.301V110.5H138.924V105.386C138.924 104.737 138.755 104.234 138.418 103.879C138.084 103.52 137.62 103.341 137.027 103.341C136.616 103.341 136.246 103.428 135.919 103.602C135.596 103.776 135.341 104.03 135.152 104.364C134.968 104.697 134.875 105.102 134.875 105.578ZM146.039 102.318V103.384H141.799V102.318H146.039ZM143.035 100.358H144.292V108.156C144.292 108.511 144.343 108.778 144.446 108.955C144.553 109.129 144.688 109.246 144.851 109.307C145.018 109.364 145.194 109.392 145.378 109.392C145.517 109.392 145.631 109.385 145.719 109.371C145.808 109.353 145.879 109.339 145.932 109.328L146.188 110.457C146.103 110.489 145.984 110.521 145.831 110.553C145.678 110.589 145.485 110.607 145.251 110.607C144.895 110.607 144.547 110.53 144.206 110.377C143.869 110.225 143.589 109.992 143.365 109.68C143.145 109.367 143.035 108.973 143.035 108.497V100.358ZM147.93 110.5V102.318H149.144V103.597H149.251C149.421 103.16 149.697 102.821 150.077 102.579C150.456 102.334 150.913 102.212 151.445 102.212C151.985 102.212 152.434 102.334 152.793 102.579C153.155 102.821 153.438 103.16 153.64 103.597H153.725C153.935 103.174 154.249 102.838 154.668 102.59C155.087 102.338 155.59 102.212 156.176 102.212C156.907 102.212 157.506 102.441 157.971 102.899C158.436 103.353 158.669 104.062 158.669 105.024V110.5H157.411V105.024C157.411 104.42 157.246 103.989 156.916 103.73C156.586 103.471 156.197 103.341 155.749 103.341C155.174 103.341 154.729 103.515 154.412 103.863C154.096 104.207 153.938 104.644 153.938 105.173V110.5H152.66V104.896C152.66 104.431 152.509 104.056 152.207 103.772C151.905 103.485 151.517 103.341 151.041 103.341C150.714 103.341 150.409 103.428 150.124 103.602C149.844 103.776 149.617 104.017 149.443 104.326C149.272 104.632 149.187 104.985 149.187 105.386V110.5H147.93ZM162.224 99.5909V110.5H160.967V99.5909H162.224Z" fill="#FF0000"/>
<path d="M91.0007 155.5V144.591H92.3217V149.449H98.1385V144.591H99.4595V155.5H98.1385V150.621H92.3217V155.5H91.0007ZM101.508 145.763V144.591H109.689V145.763H106.259V155.5H104.938V145.763H101.508ZM111.728 144.591H113.305L117.012 153.646H117.14L120.848 144.591H122.424V155.5H121.188V147.212H121.082L117.673 155.5H116.48L113.071 147.212H112.964V155.5H111.728V144.591ZM125.073 155.5V144.591H126.394V154.328H131.465V155.5H125.073ZM137.133 145.763V144.591H145.314V145.763H141.884V155.5H140.563V145.763H137.133ZM151.226 152.155V147.318H152.483V155.5H151.226V154.115H151.141C150.949 154.531 150.65 154.884 150.246 155.175C149.841 155.463 149.329 155.607 148.712 155.607C148.2 155.607 147.746 155.495 147.348 155.271C146.95 155.044 146.638 154.703 146.41 154.248C146.183 153.79 146.07 153.213 146.07 152.517V147.318H147.327V152.432C147.327 153.028 147.494 153.504 147.827 153.859C148.165 154.214 148.594 154.392 149.116 154.392C149.429 154.392 149.747 154.312 150.07 154.152C150.397 153.993 150.67 153.748 150.89 153.417C151.114 153.087 151.226 152.666 151.226 152.155ZM158.344 147.318V148.384H154.104V147.318H158.344ZM155.339 145.358H156.596V153.156C156.596 153.511 156.648 153.778 156.751 153.955C156.857 154.129 156.992 154.246 157.156 154.307C157.323 154.364 157.498 154.392 157.683 154.392C157.822 154.392 157.935 154.385 158.024 154.371C158.113 154.353 158.184 154.339 158.237 154.328L158.493 155.457C158.407 155.489 158.289 155.521 158.136 155.553C157.983 155.589 157.79 155.607 157.555 155.607C157.2 155.607 156.852 155.53 156.511 155.377C156.174 155.225 155.893 154.992 155.67 154.68C155.449 154.367 155.339 153.973 155.339 153.497V145.358ZM163.471 155.67C162.732 155.67 162.084 155.495 161.526 155.143C160.972 154.792 160.539 154.3 160.227 153.668C159.918 153.036 159.763 152.297 159.763 151.452C159.763 150.599 159.918 149.855 160.227 149.22C160.539 148.584 160.972 148.091 161.526 147.739C162.084 147.387 162.732 147.212 163.471 147.212C164.209 147.212 164.855 147.387 165.409 147.739C165.967 148.091 166.4 148.584 166.709 149.22C167.022 149.855 167.178 150.599 167.178 151.452C167.178 152.297 167.022 153.036 166.709 153.668C166.4 154.3 165.967 154.792 165.409 155.143C164.855 155.495 164.209 155.67 163.471 155.67ZM163.471 154.541C164.032 154.541 164.493 154.397 164.855 154.11C165.218 153.822 165.486 153.444 165.66 152.975C165.834 152.506 165.921 151.999 165.921 151.452C165.921 150.905 165.834 150.395 165.66 149.923C165.486 149.451 165.218 149.069 164.855 148.778C164.493 148.487 164.032 148.341 163.471 148.341C162.909 148.341 162.448 148.487 162.086 148.778C161.723 149.069 161.455 149.451 161.281 149.923C161.107 150.395 161.02 150.905 161.02 151.452C161.02 151.999 161.107 152.506 161.281 152.975C161.455 153.444 161.723 153.822 162.086 154.11C162.448 154.397 162.909 154.541 163.471 154.541ZM169.097 155.5V147.318H170.311V148.554H170.397C170.546 148.149 170.816 147.821 171.206 147.569C171.597 147.316 172.037 147.19 172.527 147.19C172.62 147.19 172.735 147.192 172.873 147.196C173.012 147.199 173.117 147.205 173.188 147.212V148.49C173.145 148.479 173.047 148.463 172.895 148.442C172.746 148.417 172.588 148.405 172.421 148.405C172.023 148.405 171.668 148.488 171.355 148.655C171.046 148.819 170.801 149.046 170.62 149.337C170.443 149.625 170.354 149.953 170.354 150.322V155.5H169.097ZM174.678 155.5V147.318H175.935V155.5H174.678ZM175.317 145.955C175.072 145.955 174.861 145.871 174.683 145.704C174.509 145.537 174.422 145.337 174.422 145.102C174.422 144.868 174.509 144.667 174.683 144.5C174.861 144.333 175.072 144.25 175.317 144.25C175.562 144.25 175.772 144.333 175.946 144.5C176.123 144.667 176.212 144.868 176.212 145.102C176.212 145.337 176.123 145.537 175.946 145.704C175.772 145.871 175.562 145.955 175.317 145.955ZM180.645 155.692C180.127 155.692 179.656 155.594 179.234 155.399C178.811 155.2 178.475 154.914 178.227 154.541C177.978 154.165 177.854 153.71 177.854 153.178C177.854 152.709 177.946 152.329 178.131 152.038C178.316 151.743 178.562 151.512 178.871 151.345C179.18 151.178 179.521 151.054 179.894 150.972C180.271 150.887 180.649 150.82 181.029 150.77C181.526 150.706 181.929 150.658 182.238 150.626C182.55 150.591 182.778 150.532 182.92 150.45C183.065 150.369 183.138 150.227 183.138 150.024V149.982C183.138 149.456 182.994 149.048 182.707 148.756C182.422 148.465 181.991 148.32 181.412 148.32C180.812 148.32 180.342 148.451 180.001 148.714C179.66 148.977 179.42 149.257 179.282 149.555L178.088 149.129C178.301 148.632 178.585 148.245 178.941 147.968C179.299 147.687 179.69 147.492 180.112 147.382C180.539 147.268 180.958 147.212 181.37 147.212C181.632 147.212 181.934 147.244 182.275 147.308C182.62 147.368 182.952 147.494 183.271 147.686C183.594 147.877 183.862 148.167 184.076 148.554C184.289 148.941 184.395 149.46 184.395 150.109V155.5H183.138V154.392H183.074C182.989 154.57 182.847 154.76 182.648 154.962C182.449 155.164 182.185 155.337 181.854 155.479C181.524 155.621 181.121 155.692 180.645 155.692ZM180.837 154.562C181.334 154.562 181.753 154.465 182.094 154.27C182.438 154.074 182.698 153.822 182.872 153.513C183.049 153.204 183.138 152.879 183.138 152.538V151.388C183.085 151.452 182.968 151.51 182.786 151.564C182.609 151.613 182.403 151.658 182.169 151.697C181.938 151.732 181.712 151.764 181.492 151.793C181.275 151.817 181.1 151.839 180.965 151.857C180.638 151.899 180.333 151.968 180.049 152.064C179.768 152.157 179.541 152.297 179.367 152.485C179.196 152.67 179.111 152.922 179.111 153.241C179.111 153.678 179.273 154.009 179.596 154.232C179.922 154.452 180.336 154.562 180.837 154.562ZM187.947 144.591V155.5H186.69V144.591H187.947Z" fill="black"/>
<path d="M44.4933 219.165V218.312L51.354 214.818V216.182L46.0913 218.717L46.1339 218.632V218.845L46.0913 218.76L51.354 221.295V222.659L44.4933 219.165ZM76.4761 219.165L69.6153 222.659V221.295L74.8781 218.76L74.8355 218.845V218.632L74.8781 218.717L69.6153 216.182V214.818L76.4761 218.312V219.165ZM198.727 219.165V218.312L205.587 214.818V216.182L200.325 218.717L200.367 218.632V218.845L200.325 218.76L205.587 221.295V222.659L198.727 219.165ZM236.056 219.165L229.195 222.659V221.295L234.458 218.76L234.416 218.845V218.632L234.458 218.717L229.195 216.182V214.818L236.056 218.312V219.165ZM44.4933 241.165V240.312L51.354 236.818V238.182L46.0913 240.717L46.1339 240.632V240.845L46.0913 240.76L51.354 243.295V244.659L44.4933 241.165ZM70.3824 241.165L63.5216 244.659V243.295L68.7844 240.76L68.7417 240.845V240.632L68.7844 240.717L63.5216 238.182V236.818L70.3824 240.312V241.165ZM212.731 241.165V240.312L219.591 236.818V238.182L214.329 240.717L214.371 240.632V240.845L214.329 240.76L219.591 243.295V244.659L212.731 241.165ZM243.966 241.165L237.106 244.659V243.295L242.368 240.76L242.326 240.845V240.632L242.368 240.717L237.106 238.182V236.818L243.966 240.312V241.165Z" fill="#0000CD"/>
<path d="M55.2758 218.078V223H54.0187V212.091H55.2758V216.097H55.3824C55.5741 215.674 55.8618 215.338 56.2453 215.09C56.6324 214.838 57.1473 214.712 57.79 214.712C58.3476 214.712 58.8358 214.824 59.2549 215.047C59.6739 215.267 59.9988 215.607 60.2297 216.065C60.464 216.519 60.5812 217.098 60.5812 217.801V223H59.3241V217.886C59.3241 217.237 59.1555 216.734 58.8181 216.379C58.4843 216.02 58.0209 215.841 57.4278 215.841C57.0159 215.841 56.6466 215.928 56.3199 216.102C55.9967 216.276 55.741 216.53 55.5528 216.864C55.3682 217.197 55.2758 217.602 55.2758 218.078ZM66.0944 212.091V223H64.7733V213.476H64.7094L62.0461 215.244V213.902L64.7733 212.091H66.0944ZM212.109 211.58L208.593 224.641H207.442L210.958 211.58H212.109ZM214.856 218.078V223H213.599V212.091H214.856V216.097H214.962C215.154 215.674 215.442 215.338 215.825 215.09C216.212 214.838 216.727 214.712 217.37 214.712C217.928 214.712 218.416 214.824 218.835 215.047C219.254 215.267 219.579 215.607 219.81 216.065C220.044 216.519 220.161 217.098 220.161 217.801V223H218.904V217.886C218.904 217.237 218.736 216.734 218.398 216.379C218.064 216.02 217.601 215.841 217.008 215.841C216.596 215.841 216.227 215.928 215.9 216.102C215.577 216.276 215.321 216.53 215.133 216.864C214.948 217.197 214.856 217.602 214.856 218.078ZM225.674 212.091V223H224.353V213.476H224.29L221.626 215.244V213.902L224.353 212.091H225.674ZM54.0187 248.068V236.818H55.2332V238.118H55.3824C55.4747 237.976 55.6025 237.795 55.7659 237.575C55.9328 237.351 56.1707 237.152 56.4797 236.978C56.7922 236.8 57.2148 236.712 57.7474 236.712C58.4363 236.712 59.0436 236.884 59.5692 237.228C60.0947 237.573 60.5049 238.061 60.7996 238.693C61.0944 239.325 61.2417 240.071 61.2417 240.93C61.2417 241.797 61.0944 242.548 60.7996 243.184C60.5049 243.816 60.0965 244.306 59.5745 244.654C59.0525 244.998 58.4506 245.17 57.7687 245.17C57.2432 245.17 56.8224 245.083 56.5063 244.909C56.1903 244.732 55.947 244.531 55.7765 244.308C55.6061 244.08 55.4747 243.892 55.3824 243.743H55.2758V248.068H54.0187ZM55.2545 240.909C55.2545 241.527 55.3451 242.072 55.5262 242.544C55.7073 243.013 55.9719 243.381 56.3199 243.647C56.6679 243.91 57.094 244.041 57.5983 244.041C58.1238 244.041 58.5624 243.903 58.914 243.626C59.2691 243.345 59.5354 242.969 59.713 242.496C59.8941 242.021 59.9846 241.491 59.9846 240.909C59.9846 240.334 59.8959 239.815 59.7183 239.354C59.5443 238.888 59.2797 238.521 58.9246 238.251C58.5731 237.978 58.1309 237.841 57.5983 237.841C57.0869 237.841 56.6572 237.971 56.3092 238.23C55.9612 238.485 55.6984 238.844 55.5209 239.306C55.3433 239.764 55.2545 240.298 55.2545 240.909ZM226.113 233.58L222.597 246.641H221.446L224.962 233.58H226.113ZM227.603 248.068V236.818H228.817V238.118H228.966C229.059 237.976 229.187 237.795 229.35 237.575C229.517 237.351 229.755 237.152 230.064 236.978C230.376 236.8 230.799 236.712 231.331 236.712C232.02 236.712 232.628 236.884 233.153 237.228C233.679 237.573 234.089 238.061 234.384 238.693C234.678 239.325 234.826 240.071 234.826 240.93C234.826 241.797 234.678 242.548 234.384 243.184C234.089 243.816 233.68 244.306 233.158 244.654C232.636 244.998 232.035 245.17 231.353 245.17C230.827 245.17 230.406 245.083 230.09 244.909C229.774 244.732 229.531 244.531 229.361 244.308C229.19 244.08 229.059 243.892 228.966 243.743H228.86V248.068H227.603ZM228.839 240.909C228.839 241.527 228.929 242.072 229.11 242.544C229.291 243.013 229.556 243.381 229.904 243.647C230.252 243.91 230.678 244.041 231.182 244.041C231.708 244.041 232.146 243.903 232.498 243.626C232.853 243.345 233.119 242.969 233.297 242.496C233.478 242.021 233.569 241.491 233.569 240.909C233.569 240.334 233.48 239.815 233.302 239.354C233.128 238.888 232.864 238.521 232.509 238.251C232.157 237.978 231.715 237.841 231.182 237.841C230.671 237.841 230.241 237.971 229.893 238.23C229.545 238.485 229.282 238.844 229.105 239.306C228.927 239.764 228.839 240.298 228.839 240.909Z" fill="#A52A2A"/>
<path d="M78.7147 213.263V212.091H86.8965V213.263H83.4661V223H82.1451V213.263H78.7147ZM90.0219 218.078V223H88.7648V212.091H90.0219V216.097H90.1285C90.3202 215.674 90.6079 215.338 90.9914 215.09C91.3785 214.838 91.8934 214.712 92.5361 214.712C93.0937 214.712 93.5819 214.824 94.001 215.047C94.42 215.267 94.7449 215.607 94.9758 216.065C95.2101 216.519 95.3273 217.098 95.3273 217.801V223H94.0702V217.886C94.0702 217.237 93.9015 216.734 93.5642 216.379C93.2304 216.02 92.767 215.841 92.1739 215.841C91.762 215.841 91.3927 215.928 91.066 216.102C90.7428 216.276 90.4871 216.53 90.2989 216.864C90.1143 217.197 90.0219 217.602 90.0219 218.078ZM97.6271 223V214.818H98.8842V223H97.6271ZM98.2663 213.455C98.0213 213.455 97.81 213.371 97.6325 213.204C97.4585 213.037 97.3714 212.837 97.3714 212.602C97.3714 212.368 97.4585 212.167 97.6325 212C97.81 211.833 98.0213 211.75 98.2663 211.75C98.5114 211.75 98.7209 211.833 98.8949 212C99.0724 212.167 99.1612 212.368 99.1612 212.602C99.1612 212.837 99.0724 213.037 98.8949 213.204C98.7209 213.371 98.5114 213.455 98.2663 213.455ZM106.982 216.651L105.853 216.97C105.782 216.782 105.677 216.599 105.539 216.422C105.404 216.24 105.219 216.091 104.985 215.974C104.75 215.857 104.45 215.798 104.084 215.798C103.584 215.798 103.166 215.914 102.833 216.145C102.502 216.372 102.337 216.661 102.337 217.013C102.337 217.325 102.451 217.572 102.678 217.753C102.905 217.934 103.261 218.085 103.744 218.206L104.958 218.504C105.69 218.682 106.235 218.953 106.593 219.319C106.952 219.681 107.131 220.148 107.131 220.72C107.131 221.189 106.996 221.608 106.726 221.977C106.46 222.347 106.087 222.638 105.608 222.851C105.128 223.064 104.571 223.17 103.935 223.17C103.101 223.17 102.41 222.989 101.863 222.627C101.316 222.265 100.97 221.736 100.824 221.04L102.018 220.741C102.131 221.182 102.346 221.512 102.662 221.732C102.982 221.952 103.399 222.062 103.914 222.062C104.5 222.062 104.965 221.938 105.31 221.69C105.658 221.437 105.832 221.136 105.832 220.784C105.832 220.5 105.732 220.262 105.533 220.07C105.334 219.875 105.029 219.729 104.617 219.634L103.253 219.314C102.504 219.136 101.954 218.861 101.602 218.488C101.254 218.112 101.08 217.641 101.08 217.077C101.08 216.615 101.21 216.207 101.469 215.852C101.732 215.496 102.089 215.218 102.54 215.015C102.994 214.813 103.509 214.712 104.084 214.712C104.894 214.712 105.53 214.889 105.991 215.244C106.457 215.599 106.787 216.068 106.982 216.651ZM113.242 223V214.818H114.499V223H113.242ZM113.882 213.455C113.637 213.455 113.425 213.371 113.248 213.204C113.074 213.037 112.987 212.837 112.987 212.602C112.987 212.368 113.074 212.167 113.248 212C113.425 211.833 113.637 211.75 113.882 211.75C114.127 211.75 114.336 211.833 114.51 212C114.688 212.167 114.776 212.368 114.776 212.602C114.776 212.837 114.688 213.037 114.51 213.204C114.336 213.371 114.127 213.455 113.882 213.455ZM122.597 216.651L121.468 216.97C121.397 216.782 121.292 216.599 121.154 216.422C121.019 216.24 120.834 216.091 120.6 215.974C120.366 215.857 120.065 215.798 119.7 215.798C119.199 215.798 118.782 215.914 118.448 216.145C118.118 216.372 117.953 216.661 117.953 217.013C117.953 217.325 118.066 217.572 118.293 217.753C118.521 217.934 118.876 218.085 119.359 218.206L120.573 218.504C121.305 218.682 121.85 218.953 122.209 219.319C122.567 219.681 122.747 220.148 122.747 220.72C122.747 221.189 122.612 221.608 122.342 221.977C122.075 222.347 121.703 222.638 121.223 222.851C120.744 223.064 120.186 223.17 119.551 223.17C118.716 223.17 118.025 222.989 117.478 222.627C116.932 222.265 116.585 221.736 116.44 221.04L117.633 220.741C117.747 221.182 117.961 221.512 118.277 221.732C118.597 221.952 119.014 222.062 119.529 222.062C120.115 222.062 120.58 221.938 120.925 221.69C121.273 221.437 121.447 221.136 121.447 220.784C121.447 220.5 121.347 220.262 121.149 220.07C120.95 219.875 120.644 219.729 120.232 219.634L118.869 219.314C118.119 219.136 117.569 218.861 117.217 218.488C116.869 218.112 116.695 217.641 116.695 217.077C116.695 216.615 116.825 216.207 117.084 215.852C117.347 215.496 117.704 215.218 118.155 215.015C118.609 214.813 119.124 214.712 119.7 214.712C120.509 214.712 121.145 214.889 121.607 215.244C122.072 215.599 122.402 216.068 122.597 216.651ZM131.265 223.192C130.747 223.192 130.276 223.094 129.854 222.899C129.431 222.7 129.096 222.414 128.847 222.041C128.598 221.665 128.474 221.21 128.474 220.678C128.474 220.209 128.566 219.829 128.751 219.538C128.936 219.243 129.183 219.012 129.491 218.845C129.8 218.678 130.141 218.554 130.514 218.472C130.891 218.387 131.269 218.32 131.649 218.27C132.146 218.206 132.549 218.158 132.858 218.126C133.17 218.091 133.398 218.032 133.54 217.95C133.685 217.869 133.758 217.727 133.758 217.524V217.482C133.758 216.956 133.614 216.548 133.327 216.256C133.043 215.965 132.611 215.82 132.032 215.82C131.432 215.82 130.962 215.951 130.621 216.214C130.28 216.477 130.04 216.757 129.902 217.055L128.708 216.629C128.922 216.132 129.206 215.745 129.561 215.468C129.919 215.187 130.31 214.992 130.733 214.882C131.159 214.768 131.578 214.712 131.99 214.712C132.252 214.712 132.554 214.744 132.895 214.808C133.24 214.868 133.572 214.994 133.891 215.186C134.214 215.377 134.483 215.667 134.696 216.054C134.909 216.441 135.015 216.96 135.015 217.609V223H133.758V221.892H133.694C133.609 222.07 133.467 222.26 133.268 222.462C133.069 222.664 132.805 222.837 132.474 222.979C132.144 223.121 131.741 223.192 131.265 223.192ZM131.457 222.062C131.954 222.062 132.373 221.965 132.714 221.77C133.059 221.574 133.318 221.322 133.492 221.013C133.669 220.704 133.758 220.379 133.758 220.038V218.888C133.705 218.952 133.588 219.01 133.407 219.064C133.229 219.113 133.023 219.158 132.789 219.197C132.558 219.232 132.332 219.264 132.112 219.293C131.896 219.317 131.72 219.339 131.585 219.357C131.258 219.399 130.953 219.468 130.669 219.564C130.388 219.657 130.161 219.797 129.987 219.985C129.816 220.17 129.731 220.422 129.731 220.741C129.731 221.178 129.893 221.509 130.216 221.732C130.543 221.952 130.956 222.062 131.457 222.062ZM142.786 218.078V223H141.528V212.091H142.786V216.097H142.892C143.084 215.674 143.372 215.338 143.755 215.09C144.142 214.838 144.657 214.712 145.3 214.712C145.857 214.712 146.346 214.824 146.765 215.047C147.184 215.267 147.509 215.607 147.739 216.065C147.974 216.519 148.091 217.098 148.091 217.801V223H146.834V217.886C146.834 217.237 146.665 216.734 146.328 216.379C145.994 216.02 145.531 215.841 144.938 215.841C144.526 215.841 144.156 215.928 143.83 216.102C143.506 216.276 143.251 216.53 143.063 216.864C142.878 217.197 142.786 217.602 142.786 218.078ZM153.821 223.17C153.033 223.17 152.353 222.996 151.781 222.648C151.213 222.297 150.774 221.807 150.465 221.178C150.16 220.546 150.007 219.811 150.007 218.973C150.007 218.135 150.16 217.396 150.465 216.757C150.774 216.114 151.204 215.614 151.754 215.255C152.308 214.893 152.955 214.712 153.693 214.712C154.119 214.712 154.54 214.783 154.956 214.925C155.371 215.067 155.749 215.298 156.09 215.617C156.431 215.933 156.703 216.352 156.905 216.874C157.108 217.396 157.209 218.039 157.209 218.803V219.335H150.902V218.249H155.931C155.931 217.787 155.838 217.375 155.654 217.013C155.472 216.651 155.213 216.365 154.876 216.155C154.542 215.946 154.148 215.841 153.693 215.841C153.193 215.841 152.759 215.965 152.394 216.214C152.031 216.459 151.753 216.778 151.557 217.173C151.362 217.567 151.264 217.989 151.264 218.44V219.165C151.264 219.783 151.371 220.306 151.584 220.736C151.801 221.162 152.101 221.487 152.484 221.711C152.868 221.931 153.313 222.041 153.821 222.041C154.151 222.041 154.45 221.995 154.716 221.903C154.986 221.807 155.219 221.665 155.414 221.477C155.609 221.285 155.76 221.047 155.867 220.763L157.081 221.104C156.953 221.516 156.738 221.878 156.437 222.19C156.135 222.499 155.762 222.741 155.318 222.915C154.874 223.085 154.375 223.17 153.821 223.17ZM161.529 223.192C161.01 223.192 160.54 223.094 160.117 222.899C159.695 222.7 159.359 222.414 159.111 222.041C158.862 221.665 158.738 221.21 158.738 220.678C158.738 220.209 158.83 219.829 159.015 219.538C159.199 219.243 159.446 219.012 159.755 218.845C160.064 218.678 160.405 218.554 160.778 218.472C161.154 218.387 161.532 218.32 161.912 218.27C162.41 218.206 162.813 218.158 163.122 218.126C163.434 218.091 163.661 218.032 163.803 217.95C163.949 217.869 164.022 217.727 164.022 217.524V217.482C164.022 216.956 163.878 216.548 163.59 216.256C163.306 215.965 162.875 215.82 162.296 215.82C161.696 215.82 161.225 215.951 160.884 216.214C160.544 216.477 160.304 216.757 160.165 217.055L158.972 216.629C159.185 216.132 159.469 215.745 159.824 215.468C160.183 215.187 160.574 214.992 160.996 214.882C161.422 214.768 161.841 214.712 162.253 214.712C162.516 214.712 162.818 214.744 163.159 214.808C163.503 214.868 163.835 214.994 164.155 215.186C164.478 215.377 164.746 215.667 164.959 216.054C165.172 216.441 165.279 216.96 165.279 217.609V223H164.022V221.892H163.958C163.873 222.07 163.731 222.26 163.532 222.462C163.333 222.664 163.068 222.837 162.738 222.979C162.408 223.121 162.005 223.192 161.529 223.192ZM161.721 222.062C162.218 222.062 162.637 221.965 162.978 221.77C163.322 221.574 163.581 221.322 163.756 221.013C163.933 220.704 164.022 220.379 164.022 220.038V218.888C163.969 218.952 163.851 219.01 163.67 219.064C163.493 219.113 163.287 219.158 163.052 219.197C162.822 219.232 162.596 219.264 162.376 219.293C162.159 219.317 161.983 219.339 161.849 219.357C161.522 219.399 161.216 219.468 160.932 219.564C160.652 219.657 160.425 219.797 160.251 219.985C160.08 220.17 159.995 220.422 159.995 220.741C159.995 221.178 160.156 221.509 160.48 221.732C160.806 221.952 161.22 222.062 161.721 222.062ZM170.663 223.17C169.981 223.17 169.379 222.998 168.857 222.654C168.335 222.306 167.927 221.816 167.632 221.184C167.337 220.548 167.19 219.797 167.19 218.93C167.19 218.071 167.337 217.325 167.632 216.693C167.927 216.061 168.337 215.573 168.862 215.228C169.388 214.884 169.995 214.712 170.684 214.712C171.217 214.712 171.638 214.8 171.947 214.978C172.259 215.152 172.497 215.351 172.66 215.575C172.827 215.795 172.957 215.976 173.049 216.118H173.156V212.091H174.413V223H173.198V221.743H173.049C172.957 221.892 172.826 222.08 172.655 222.308C172.485 222.531 172.241 222.732 171.925 222.909C171.609 223.083 171.188 223.17 170.663 223.17ZM170.833 222.041C171.338 222.041 171.764 221.91 172.112 221.647C172.46 221.381 172.724 221.013 172.905 220.544C173.087 220.072 173.177 219.527 173.177 218.909C173.177 218.298 173.088 217.764 172.911 217.306C172.733 216.844 172.47 216.485 172.122 216.23C171.774 215.971 171.345 215.841 170.833 215.841C170.301 215.841 169.857 215.978 169.502 216.251C169.15 216.521 168.886 216.888 168.708 217.354C168.534 217.815 168.447 218.334 168.447 218.909C168.447 219.491 168.536 220.021 168.713 220.496C168.894 220.969 169.161 221.345 169.512 221.626C169.867 221.903 170.308 222.041 170.833 222.041ZM176.89 223V214.818H178.147V223H176.89ZM177.529 213.455C177.284 213.455 177.073 213.371 176.895 213.204C176.721 213.037 176.634 212.837 176.634 212.602C176.634 212.368 176.721 212.167 176.895 212C177.073 211.833 177.284 211.75 177.529 211.75C177.774 211.75 177.984 211.833 178.158 212C178.335 212.167 178.424 212.368 178.424 212.602C178.424 212.837 178.335 213.037 178.158 213.204C177.984 213.371 177.774 213.455 177.529 213.455ZM181.706 218.078V223H180.449V214.818H181.664V216.097H181.77C181.962 215.681 182.253 215.347 182.644 215.095C183.035 214.839 183.539 214.712 184.157 214.712C184.711 214.712 185.195 214.825 185.611 215.053C186.026 215.276 186.35 215.617 186.58 216.075C186.811 216.53 186.927 217.105 186.927 217.801V223H185.67V217.886C185.67 217.244 185.503 216.743 185.169 216.384C184.835 216.022 184.377 215.841 183.795 215.841C183.393 215.841 183.035 215.928 182.719 216.102C182.406 216.276 182.159 216.53 181.978 216.864C181.797 217.197 181.706 217.602 181.706 218.078ZM192.526 226.239C191.919 226.239 191.397 226.161 190.96 226.004C190.524 225.852 190.16 225.649 189.868 225.397C189.581 225.148 189.352 224.882 189.181 224.598L190.183 223.895C190.296 224.044 190.44 224.214 190.614 224.406C190.788 224.602 191.026 224.77 191.328 224.912C191.633 225.058 192.033 225.131 192.526 225.131C193.187 225.131 193.732 224.971 194.162 224.651C194.591 224.332 194.806 223.831 194.806 223.149V221.487H194.7C194.607 221.636 194.476 221.821 194.305 222.041C194.139 222.258 193.897 222.451 193.581 222.622C193.269 222.789 192.846 222.872 192.313 222.872C191.653 222.872 191.06 222.716 190.534 222.403C190.012 222.091 189.598 221.636 189.293 221.04C188.991 220.443 188.84 219.719 188.84 218.866C188.84 218.028 188.988 217.299 189.282 216.677C189.577 216.052 189.987 215.569 190.513 215.228C191.038 214.884 191.646 214.712 192.335 214.712C192.867 214.712 193.29 214.8 193.602 214.978C193.918 215.152 194.16 215.351 194.327 215.575C194.497 215.795 194.629 215.976 194.721 216.118H194.849V214.818H196.063V223.234C196.063 223.938 195.903 224.509 195.584 224.95C195.268 225.393 194.842 225.718 194.305 225.924C193.773 226.134 193.18 226.239 192.526 226.239ZM192.484 221.743C192.988 221.743 193.414 221.627 193.762 221.397C194.11 221.166 194.375 220.834 194.556 220.401C194.737 219.967 194.828 219.449 194.828 218.845C194.828 218.256 194.739 217.735 194.561 217.284C194.384 216.833 194.121 216.48 193.773 216.224C193.425 215.969 192.995 215.841 192.484 215.841C191.951 215.841 191.507 215.976 191.152 216.246C190.801 216.516 190.536 216.878 190.358 217.332C190.184 217.787 190.097 218.291 190.097 218.845C190.097 219.413 190.186 219.916 190.364 220.353C190.545 220.786 190.811 221.127 191.163 221.375C191.518 221.62 191.958 221.743 192.484 221.743ZM72.6209 235.263V234.091H80.8027V235.263H77.3723V245H76.0513V235.263H72.6209ZM83.9282 240.078V245H82.6711V234.091H83.9282V238.097H84.0347C84.2265 237.674 84.5141 237.338 84.8976 237.09C85.2847 236.838 85.7996 236.712 86.4424 236.712C86.9999 236.712 87.4882 236.824 87.9072 237.047C88.3263 237.267 88.6512 237.607 88.882 238.065C89.1164 238.519 89.2336 239.098 89.2336 239.801V245H87.9765V239.886C87.9765 239.237 87.8078 238.734 87.4704 238.379C87.1366 238.02 86.6732 237.841 86.0802 237.841C85.6682 237.841 85.2989 237.928 84.9722 238.102C84.6491 238.276 84.3934 238.53 84.2052 238.864C84.0205 239.197 83.9282 239.602 83.9282 240.078ZM91.5334 245V236.818H92.7905V245H91.5334ZM92.1726 235.455C91.9276 235.455 91.7163 235.371 91.5387 235.204C91.3647 235.037 91.2777 234.837 91.2777 234.602C91.2777 234.368 91.3647 234.167 91.5387 234C91.7163 233.833 91.9276 233.75 92.1726 233.75C92.4176 233.75 92.6271 233.833 92.8011 234C92.9787 234.167 93.0675 234.368 93.0675 234.602C93.0675 234.837 92.9787 235.037 92.8011 235.204C92.6271 235.371 92.4176 235.455 92.1726 235.455ZM100.888 238.651L99.7591 238.97C99.6881 238.782 99.5834 238.599 99.4449 238.422C99.3099 238.24 99.1253 238.091 98.8909 237.974C98.6565 237.857 98.3564 237.798 97.9907 237.798C97.49 237.798 97.0727 237.914 96.7389 238.145C96.4086 238.372 96.2435 238.661 96.2435 239.013C96.2435 239.325 96.3572 239.572 96.5844 239.753C96.8117 239.934 97.1668 240.085 97.6498 240.206L98.8643 240.504C99.5958 240.682 100.141 240.953 100.5 241.319C100.858 241.681 101.038 242.148 101.038 242.72C101.038 243.189 100.903 243.608 100.633 243.977C100.366 244.347 99.9935 244.638 99.5141 244.851C99.0347 245.064 98.4772 245.17 97.8415 245.17C97.007 245.17 96.3163 244.989 95.7694 244.627C95.2226 244.265 94.8763 243.736 94.7307 243.04L95.9239 242.741C96.0376 243.182 96.2524 243.512 96.5684 243.732C96.8881 243.952 97.3053 244.062 97.8202 244.062C98.4062 244.062 98.8714 243.938 99.2158 243.69C99.5638 243.437 99.7378 243.136 99.7378 242.784C99.7378 242.5 99.6384 242.262 99.4395 242.07C99.2407 241.875 98.9353 241.729 98.5233 241.634L97.1597 241.314C96.4104 241.136 95.86 240.861 95.5084 240.488C95.1604 240.112 94.9864 239.641 94.9864 239.077C94.9864 238.615 95.116 238.207 95.3753 237.852C95.6381 237.496 95.9949 237.218 96.4459 237.015C96.9005 236.813 97.4154 236.712 97.9907 236.712C98.8003 236.712 99.436 236.889 99.8976 237.244C100.363 237.599 100.693 238.068 100.888 238.651ZM107.149 245V236.818H108.406V245H107.149ZM107.788 235.455C107.543 235.455 107.331 235.371 107.154 235.204C106.98 235.037 106.893 234.837 106.893 234.602C106.893 234.368 106.98 234.167 107.154 234C107.331 233.833 107.543 233.75 107.788 233.75C108.033 233.75 108.242 233.833 108.416 234C108.594 234.167 108.683 234.368 108.683 234.602C108.683 234.837 108.594 235.037 108.416 235.204C108.242 235.371 108.033 235.455 107.788 235.455ZM116.504 238.651L115.374 238.97C115.303 238.782 115.199 238.599 115.06 238.422C114.925 238.24 114.741 238.091 114.506 237.974C114.272 237.857 113.972 237.798 113.606 237.798C113.105 237.798 112.688 237.914 112.354 238.145C112.024 238.372 111.859 238.661 111.859 239.013C111.859 239.325 111.972 239.572 112.2 239.753C112.427 239.934 112.782 240.085 113.265 240.206L114.479 240.504C115.211 240.682 115.756 240.953 116.115 241.319C116.473 241.681 116.653 242.148 116.653 242.72C116.653 243.189 116.518 243.608 116.248 243.977C115.982 244.347 115.609 244.638 115.129 244.851C114.65 245.064 114.092 245.17 113.457 245.17C112.622 245.17 111.932 244.989 111.385 244.627C110.838 244.265 110.492 243.736 110.346 243.04L111.539 242.741C111.653 243.182 111.868 243.512 112.184 243.732C112.503 243.952 112.921 244.062 113.435 244.062C114.021 244.062 114.487 243.938 114.831 243.69C115.179 243.437 115.353 243.136 115.353 242.784C115.353 242.5 115.254 242.262 115.055 242.07C114.856 241.875 114.551 241.729 114.139 241.634L112.775 241.314C112.026 241.136 111.475 240.861 111.124 240.488C110.776 240.112 110.602 239.641 110.602 239.077C110.602 238.615 110.731 238.207 110.991 237.852C111.253 237.496 111.61 237.218 112.061 237.015C112.516 236.813 113.031 236.712 113.606 236.712C114.416 236.712 115.051 236.889 115.513 237.244C115.978 237.599 116.308 238.068 116.504 238.651ZM125.172 245.192C124.653 245.192 124.183 245.094 123.76 244.899C123.337 244.7 123.002 244.414 122.753 244.041C122.505 243.665 122.38 243.21 122.38 242.678C122.38 242.209 122.473 241.829 122.657 241.538C122.842 241.243 123.089 241.012 123.398 240.845C123.707 240.678 124.048 240.554 124.42 240.472C124.797 240.387 125.175 240.32 125.555 240.27C126.052 240.206 126.455 240.158 126.764 240.126C127.077 240.091 127.304 240.032 127.446 239.95C127.592 239.869 127.664 239.727 127.664 239.524V239.482C127.664 238.956 127.521 238.548 127.233 238.256C126.949 237.965 126.517 237.82 125.939 237.82C125.338 237.82 124.868 237.951 124.527 238.214C124.186 238.477 123.946 238.757 123.808 239.055L122.615 238.629C122.828 238.132 123.112 237.745 123.467 237.468C123.826 237.187 124.216 236.992 124.639 236.882C125.065 236.768 125.484 236.712 125.896 236.712C126.159 236.712 126.461 236.744 126.801 236.808C127.146 236.868 127.478 236.994 127.798 237.186C128.121 237.377 128.389 237.667 128.602 238.054C128.815 238.441 128.922 238.96 128.922 239.609V245H127.664V243.892H127.6C127.515 244.07 127.373 244.26 127.174 244.462C126.975 244.664 126.711 244.837 126.381 244.979C126.05 245.121 125.647 245.192 125.172 245.192ZM125.363 244.062C125.86 244.062 126.279 243.965 126.62 243.77C126.965 243.574 127.224 243.322 127.398 243.013C127.576 242.704 127.664 242.379 127.664 242.038V240.888C127.611 240.952 127.494 241.01 127.313 241.064C127.135 241.113 126.929 241.158 126.695 241.197C126.464 241.232 126.239 241.264 126.018 241.293C125.802 241.317 125.626 241.339 125.491 241.357C125.164 241.399 124.859 241.468 124.575 241.564C124.294 241.657 124.067 241.797 123.893 241.985C123.723 242.17 123.637 242.422 123.637 242.741C123.637 243.178 123.799 243.509 124.122 243.732C124.449 243.952 124.863 244.062 125.363 244.062ZM135.435 248.068V236.818H136.649V238.118H136.798C136.891 237.976 137.019 237.795 137.182 237.575C137.349 237.351 137.587 237.152 137.896 236.978C138.208 236.8 138.631 236.712 139.163 236.712C139.852 236.712 140.46 236.884 140.985 237.228C141.511 237.573 141.921 238.061 142.216 238.693C142.51 239.325 142.658 240.071 142.658 240.93C142.658 241.797 142.51 242.548 142.216 243.184C141.921 243.816 141.513 244.306 140.991 244.654C140.468 244.998 139.867 245.17 139.185 245.17C138.659 245.17 138.238 245.083 137.922 244.909C137.606 244.732 137.363 244.531 137.193 244.308C137.022 244.08 136.891 243.892 136.798 243.743H136.692V248.068H135.435ZM136.671 240.909C136.671 241.527 136.761 242.072 136.942 242.544C137.123 243.013 137.388 243.381 137.736 243.647C138.084 243.91 138.51 244.041 139.014 244.041C139.54 244.041 139.978 243.903 140.33 243.626C140.685 243.345 140.951 242.969 141.129 242.496C141.31 242.021 141.401 241.491 141.401 240.909C141.401 240.334 141.312 239.815 141.134 239.354C140.96 238.888 140.696 238.521 140.341 238.251C139.989 237.978 139.547 237.841 139.014 237.841C138.503 237.841 138.073 237.971 137.725 238.23C137.377 238.485 137.114 238.844 136.937 239.306C136.759 239.764 136.671 240.298 136.671 240.909ZM146.983 245.192C146.465 245.192 145.994 245.094 145.571 244.899C145.149 244.7 144.813 244.414 144.565 244.041C144.316 243.665 144.192 243.21 144.192 242.678C144.192 242.209 144.284 241.829 144.469 241.538C144.653 241.243 144.9 241.012 145.209 240.845C145.518 240.678 145.859 240.554 146.232 240.472C146.608 240.387 146.987 240.32 147.367 240.27C147.864 240.206 148.267 240.158 148.576 240.126C148.888 240.091 149.116 240.032 149.258 239.95C149.403 239.869 149.476 239.727 149.476 239.524V239.482C149.476 238.956 149.332 238.548 149.044 238.256C148.76 237.965 148.329 237.82 147.75 237.82C147.15 237.82 146.679 237.951 146.339 238.214C145.998 238.477 145.758 238.757 145.619 239.055L144.426 238.629C144.639 238.132 144.923 237.745 145.278 237.468C145.637 237.187 146.028 236.992 146.45 236.882C146.877 236.768 147.296 236.712 147.707 236.712C147.97 236.712 148.272 236.744 148.613 236.808C148.957 236.868 149.29 236.994 149.609 237.186C149.932 237.377 150.2 237.667 150.413 238.054C150.627 238.441 150.733 238.96 150.733 239.609V245H149.476V243.892H149.412C149.327 244.07 149.185 244.26 148.986 244.462C148.787 244.664 148.522 244.837 148.192 244.979C147.862 245.121 147.459 245.192 146.983 245.192ZM147.175 244.062C147.672 244.062 148.091 243.965 148.432 243.77C148.776 243.574 149.036 243.322 149.21 243.013C149.387 242.704 149.476 242.379 149.476 242.038V240.888C149.423 240.952 149.305 241.01 149.124 241.064C148.947 241.113 148.741 241.158 148.506 241.197C148.276 241.232 148.05 241.264 147.83 241.293C147.613 241.317 147.438 241.339 147.303 241.357C146.976 241.399 146.671 241.468 146.386 241.564C146.106 241.657 145.879 241.797 145.705 241.985C145.534 242.17 145.449 242.422 145.449 242.741C145.449 243.178 145.611 243.509 145.934 243.732C146.26 243.952 146.674 244.062 147.175 244.062ZM153.028 245V236.818H154.242V238.054H154.327C154.476 237.649 154.746 237.321 155.137 237.069C155.528 236.816 155.968 236.69 156.458 236.69C156.55 236.69 156.666 236.692 156.804 236.696C156.943 236.699 157.047 236.705 157.118 236.712V237.99C157.076 237.979 156.978 237.963 156.825 237.942C156.676 237.917 156.518 237.905 156.351 237.905C155.954 237.905 155.599 237.988 155.286 238.155C154.977 238.319 154.732 238.546 154.551 238.837C154.373 239.125 154.285 239.453 154.285 239.822V245H153.028ZM161.016 245.192C160.498 245.192 160.027 245.094 159.605 244.899C159.182 244.7 158.847 244.414 158.598 244.041C158.349 243.665 158.225 243.21 158.225 242.678C158.225 242.209 158.317 241.829 158.502 241.538C158.687 241.243 158.934 241.012 159.242 240.845C159.551 240.678 159.892 240.554 160.265 240.472C160.642 240.387 161.02 240.32 161.4 240.27C161.897 240.206 162.3 240.158 162.609 240.126C162.921 240.091 163.149 240.032 163.291 239.95C163.436 239.869 163.509 239.727 163.509 239.524V239.482C163.509 238.956 163.365 238.548 163.078 238.256C162.794 237.965 162.362 237.82 161.783 237.82C161.183 237.82 160.713 237.951 160.372 238.214C160.031 238.477 159.791 238.757 159.653 239.055L158.459 238.629C158.672 238.132 158.957 237.745 159.312 237.468C159.67 237.187 160.061 236.992 160.484 236.882C160.91 236.768 161.329 236.712 161.741 236.712C162.003 236.712 162.305 236.744 162.646 236.808C162.991 236.868 163.323 236.994 163.642 237.186C163.965 237.377 164.234 237.667 164.447 238.054C164.66 238.441 164.766 238.96 164.766 239.609V245H163.509V243.892H163.445C163.36 244.07 163.218 244.26 163.019 244.462C162.82 244.664 162.556 244.837 162.225 244.979C161.895 245.121 161.492 245.192 161.016 245.192ZM161.208 244.062C161.705 244.062 162.124 243.965 162.465 243.77C162.81 243.574 163.069 243.322 163.243 243.013C163.42 242.704 163.509 242.379 163.509 242.038V240.888C163.456 240.952 163.339 241.01 163.158 241.064C162.98 241.113 162.774 241.158 162.54 241.197C162.309 241.232 162.083 241.264 161.863 241.293C161.647 241.317 161.471 241.339 161.336 241.357C161.009 241.399 160.704 241.468 160.42 241.564C160.139 241.657 159.912 241.797 159.738 241.985C159.567 242.17 159.482 242.422 159.482 242.741C159.482 243.178 159.644 243.509 159.967 243.732C160.294 243.952 160.707 244.062 161.208 244.062ZM170.363 248.239C169.756 248.239 169.234 248.161 168.797 248.004C168.36 247.852 167.996 247.649 167.705 247.397C167.418 247.148 167.189 246.882 167.018 246.598L168.02 245.895C168.133 246.044 168.277 246.214 168.451 246.406C168.625 246.602 168.863 246.77 169.165 246.912C169.47 247.058 169.87 247.131 170.363 247.131C171.024 247.131 171.569 246.971 171.999 246.651C172.428 246.332 172.643 245.831 172.643 245.149V243.487H172.537C172.444 243.636 172.313 243.821 172.142 244.041C171.975 244.258 171.734 244.451 171.418 244.622C171.105 244.789 170.683 244.872 170.15 244.872C169.49 244.872 168.897 244.716 168.371 244.403C167.849 244.091 167.435 243.636 167.13 243.04C166.828 242.443 166.677 241.719 166.677 240.866C166.677 240.028 166.825 239.299 167.119 238.677C167.414 238.052 167.824 237.569 168.35 237.228C168.875 236.884 169.483 236.712 170.172 236.712C170.704 236.712 171.127 236.8 171.439 236.978C171.755 237.152 171.997 237.351 172.164 237.575C172.334 237.795 172.466 237.976 172.558 238.118H172.686V236.818H173.9V245.234C173.9 245.938 173.74 246.509 173.421 246.95C173.105 247.393 172.679 247.718 172.142 247.924C171.61 248.134 171.017 248.239 170.363 248.239ZM170.321 243.743C170.825 243.743 171.251 243.627 171.599 243.397C171.947 243.166 172.212 242.834 172.393 242.401C172.574 241.967 172.664 241.449 172.664 240.845C172.664 240.256 172.576 239.735 172.398 239.284C172.221 238.833 171.958 238.48 171.61 238.224C171.262 237.969 170.832 237.841 170.321 237.841C169.788 237.841 169.344 237.976 168.989 238.246C168.637 238.516 168.373 238.878 168.195 239.332C168.021 239.787 167.934 240.291 167.934 240.845C167.934 241.413 168.023 241.916 168.201 242.353C168.382 242.786 168.648 243.127 169 243.375C169.355 243.62 169.795 243.743 170.321 243.743ZM176.201 245V236.818H177.416V238.054H177.501C177.65 237.649 177.92 237.321 178.311 237.069C178.701 236.816 179.142 236.69 179.632 236.69C179.724 236.69 179.839 236.692 179.978 236.696C180.116 236.699 180.221 236.705 180.292 236.712V237.99C180.25 237.979 180.152 237.963 179.999 237.942C179.85 237.917 179.692 237.905 179.525 237.905C179.127 237.905 178.772 237.988 178.46 238.155C178.151 238.319 177.906 238.546 177.725 238.837C177.547 239.125 177.458 239.453 177.458 239.822V245H176.201ZM184.19 245.192C183.672 245.192 183.201 245.094 182.778 244.899C182.356 244.7 182.02 244.414 181.772 244.041C181.523 243.665 181.399 243.21 181.399 242.678C181.399 242.209 181.491 241.829 181.676 241.538C181.861 241.243 182.107 241.012 182.416 240.845C182.725 240.678 183.066 240.554 183.439 240.472C183.815 240.387 184.194 240.32 184.574 240.27C185.071 240.206 185.474 240.158 185.783 240.126C186.095 240.091 186.323 240.032 186.465 239.95C186.61 239.869 186.683 239.727 186.683 239.524V239.482C186.683 238.956 186.539 238.548 186.252 238.256C185.967 237.965 185.536 237.82 184.957 237.82C184.357 237.82 183.886 237.951 183.546 238.214C183.205 238.477 182.965 238.757 182.826 239.055L181.633 238.629C181.846 238.132 182.13 237.745 182.486 237.468C182.844 237.187 183.235 236.992 183.657 236.882C184.084 236.768 184.503 236.712 184.915 236.712C185.177 236.712 185.479 236.744 185.82 236.808C186.165 236.868 186.497 236.994 186.816 237.186C187.139 237.377 187.407 237.667 187.62 238.054C187.834 238.441 187.94 238.96 187.94 239.609V245H186.683V243.892H186.619C186.534 244.07 186.392 244.26 186.193 244.462C185.994 244.664 185.729 244.837 185.399 244.979C185.069 245.121 184.666 245.192 184.19 245.192ZM184.382 244.062C184.879 244.062 185.298 243.965 185.639 243.77C185.983 243.574 186.243 243.322 186.417 243.013C186.594 242.704 186.683 242.379 186.683 242.038V240.888C186.63 240.952 186.513 241.01 186.331 241.064C186.154 241.113 185.948 241.158 185.714 241.197C185.483 241.232 185.257 241.264 185.037 241.293C184.82 241.317 184.645 241.339 184.51 241.357C184.183 241.399 183.878 241.468 183.593 241.564C183.313 241.657 183.086 241.797 182.912 241.985C182.741 242.17 182.656 242.422 182.656 242.741C182.656 243.178 182.818 243.509 183.141 243.732C183.467 243.952 183.881 244.062 184.382 244.062ZM190.235 248.068V236.818H191.449V238.118H191.598C191.691 237.976 191.818 237.795 191.982 237.575C192.149 237.351 192.387 237.152 192.695 236.978C193.008 236.8 193.431 236.712 193.963 236.712C194.652 236.712 195.259 236.884 195.785 237.228C196.311 237.573 196.721 238.061 197.015 238.693C197.31 239.325 197.458 240.071 197.458 240.93C197.458 241.797 197.31 242.548 197.015 243.184C196.721 243.816 196.312 244.306 195.79 244.654C195.268 244.998 194.666 245.17 193.985 245.17C193.459 245.17 193.038 245.083 192.722 244.909C192.406 244.732 192.163 244.531 191.992 244.308C191.822 244.08 191.691 243.892 191.598 243.743H191.492V248.068H190.235ZM191.47 240.909C191.47 241.527 191.561 242.072 191.742 242.544C191.923 243.013 192.188 243.381 192.536 243.647C192.884 243.91 193.31 244.041 193.814 244.041C194.34 244.041 194.778 243.903 195.13 243.626C195.485 243.345 195.751 242.969 195.929 242.496C196.11 242.021 196.2 241.491 196.2 240.909C196.2 240.334 196.112 239.815 195.934 239.354C195.76 238.888 195.496 238.521 195.14 238.251C194.789 237.978 194.347 237.841 193.814 237.841C193.303 237.841 192.873 237.971 192.525 238.23C192.177 238.485 191.914 238.844 191.737 239.306C191.559 239.764 191.47 240.298 191.47 240.909ZM200.632 240.078V245H199.375V234.091H200.632V238.097H200.739C200.931 237.674 201.218 237.338 201.602 237.09C201.989 236.838 202.504 236.712 203.146 236.712C203.704 236.712 204.192 236.824 204.611 237.047C205.03 237.267 205.355 237.607 205.586 238.065C205.82 238.519 205.938 239.098 205.938 239.801V245H204.681V239.886C204.681 239.237 204.512 238.734 204.175 238.379C203.841 238.02 203.377 237.841 202.784 237.841C202.372 237.841 202.003 237.928 201.676 238.102C201.353 238.276 201.097 238.53 200.909 238.864C200.725 239.197 200.632 239.602 200.632 240.078ZM209.154 245.085C208.891 245.085 208.665 244.991 208.477 244.803C208.289 244.615 208.195 244.389 208.195 244.126C208.195 243.864 208.289 243.638 208.477 243.45C208.665 243.262 208.891 243.168 209.154 243.168C209.416 243.168 209.642 243.262 209.83 243.45C210.018 243.638 210.112 243.864 210.112 244.126C210.112 244.3 210.068 244.46 209.979 244.606C209.894 244.751 209.779 244.869 209.633 244.957C209.491 245.043 209.331 245.085 209.154 245.085Z" fill="black"/>
<path d="M44.4933 286.665V285.812L51.354 282.318V283.682L46.0913 286.217L46.1339 286.132V286.345L46.0913 286.26L51.354 288.795V290.159L44.4933 286.665ZM102.521 286.665L95.6602 290.159V288.795L100.923 286.26L100.88 286.345V286.132L100.923 286.217L95.6602 283.682V282.318L102.521 285.812V286.665ZM44.4933 308.665V307.812L51.354 304.318V305.682L46.0913 308.217L46.1339 308.132V308.345L46.0913 308.26L51.354 310.795V312.159L44.4933 308.665ZM97.4966 308.665L90.6358 312.159V310.795L95.8986 308.26L95.856 308.345V308.132L95.8986 308.217L90.6358 305.682V304.318L97.4966 307.812V308.665Z" fill="#0000CD"/>
<path d="M57.8753 279.08L54.3596 292.141H53.2091L56.7247 279.08H57.8753ZM59.5359 290.5V279.591H60.793V283.618H60.8995C60.9918 283.476 61.1197 283.295 61.283 283.075C61.4499 282.851 61.6879 282.652 61.9968 282.478C62.3093 282.3 62.7319 282.212 63.2646 282.212C63.9535 282.212 64.5607 282.384 65.0863 282.728C65.6119 283.073 66.022 283.561 66.3168 284.193C66.6115 284.825 66.7589 285.571 66.7589 286.43C66.7589 287.297 66.6115 288.048 66.3168 288.684C66.022 289.316 65.6136 289.806 65.0916 290.154C64.5696 290.498 63.9677 290.67 63.2859 290.67C62.7603 290.67 62.3395 290.583 62.0234 290.409C61.7074 290.232 61.4641 290.031 61.2937 289.808C61.1232 289.58 60.9918 289.392 60.8995 289.243H60.7504V290.5H59.5359ZM60.7717 286.409C60.7717 287.027 60.8622 287.572 61.0433 288.044C61.2244 288.513 61.489 288.881 61.837 289.147C62.185 289.41 62.6112 289.541 63.1154 289.541C63.641 289.541 64.0795 289.403 64.4311 289.126C64.7862 288.845 65.0526 288.469 65.2301 287.996C65.4112 287.521 65.5018 286.991 65.5018 286.409C65.5018 285.834 65.413 285.315 65.2354 284.854C65.0614 284.388 64.7969 284.021 64.4418 283.751C64.0902 283.478 63.6481 283.341 63.1154 283.341C62.604 283.341 62.1744 283.471 61.8263 283.73C61.4783 283.985 61.2156 284.344 61.038 284.806C60.8604 285.264 60.7717 285.798 60.7717 286.409ZM72.0057 290.67C71.267 290.67 70.619 290.495 70.0614 290.143C69.5075 289.792 69.0742 289.3 68.7617 288.668C68.4528 288.036 68.2983 287.297 68.2983 286.452C68.2983 285.599 68.4528 284.855 68.7617 284.22C69.0742 283.584 69.5075 283.091 70.0614 282.739C70.619 282.387 71.267 282.212 72.0057 282.212C72.7443 282.212 73.3906 282.387 73.9446 282.739C74.5021 283.091 74.9354 283.584 75.2443 284.22C75.5568 284.855 75.7131 285.599 75.7131 286.452C75.7131 287.297 75.5568 288.036 75.2443 288.668C74.9354 289.3 74.5021 289.792 73.9446 290.143C73.3906 290.495 72.7443 290.67 72.0057 290.67ZM72.0057 289.541C72.5668 289.541 73.0284 289.397 73.3906 289.11C73.7528 288.822 74.021 288.444 74.195 287.975C74.369 287.506 74.456 286.999 74.456 286.452C74.456 285.905 74.369 285.395 74.195 284.923C74.021 284.451 73.7528 284.069 73.3906 283.778C73.0284 283.487 72.5668 283.341 72.0057 283.341C71.4446 283.341 70.983 283.487 70.6207 283.778C70.2585 284.069 69.9904 284.451 69.8164 284.923C69.6424 285.395 69.5554 285.905 69.5554 286.452C69.5554 286.999 69.6424 287.506 69.8164 287.975C69.9904 288.444 70.2585 288.822 70.6207 289.11C70.983 289.397 71.4446 289.541 72.0057 289.541ZM80.7215 290.67C80.0397 290.67 79.4378 290.498 78.9157 290.154C78.3937 289.806 77.9854 289.316 77.6906 288.684C77.3959 288.048 77.2485 287.297 77.2485 286.43C77.2485 285.571 77.3959 284.825 77.6906 284.193C77.9854 283.561 78.3955 283.073 78.9211 282.728C79.4466 282.384 80.0539 282.212 80.7428 282.212C81.2755 282.212 81.6963 282.3 82.0052 282.478C82.3177 282.652 82.5557 282.851 82.719 283.075C82.8859 283.295 83.0155 283.476 83.1079 283.618H83.2144V279.591H84.4715V290.5H83.257V289.243H83.1079C83.0155 289.392 82.8841 289.58 82.7137 289.808C82.5432 290.031 82.3 290.232 81.9839 290.409C81.6679 290.583 81.2471 290.67 80.7215 290.67ZM80.892 289.541C81.3962 289.541 81.8224 289.41 82.1704 289.147C82.5184 288.881 82.7829 288.513 82.964 288.044C83.1452 287.572 83.2357 287.027 83.2357 286.409C83.2357 285.798 83.1469 285.264 82.9694 284.806C82.7918 284.344 82.529 283.985 82.181 283.73C81.833 283.471 81.4033 283.341 80.892 283.341C80.3593 283.341 79.9154 283.478 79.5603 283.751C79.2087 284.021 78.9442 284.388 78.7666 284.854C78.5926 285.315 78.5056 285.834 78.5056 286.409C78.5056 286.991 78.5944 287.521 78.7719 287.996C78.953 288.469 79.2194 288.845 79.5709 289.126C79.926 289.403 80.3664 289.541 80.892 289.541ZM87.7581 293.568C87.545 293.568 87.355 293.55 87.1881 293.515C87.0212 293.483 86.9058 293.451 86.8419 293.419L87.1615 292.311C87.4669 292.389 87.7368 292.418 87.9711 292.396C88.2055 292.375 88.4133 292.27 88.5944 292.082C88.779 291.897 88.9477 291.597 89.1004 291.182L89.3348 290.543L86.3092 282.318H87.6729L89.9314 288.838H90.0166L92.2751 282.318H93.6388L90.1657 291.693C90.0095 292.116 89.816 292.466 89.5851 292.743C89.3543 293.023 89.0862 293.231 88.7808 293.366C88.479 293.501 88.1381 293.568 87.7581 293.568ZM57.8753 301.08L54.3596 314.141H53.2091L56.7247 301.08H57.8753ZM60.6225 307.578V312.5H59.3654V301.591H60.6225V305.597H60.729C60.9208 305.174 61.2085 304.838 61.592 304.59C61.979 304.338 62.494 304.212 63.1367 304.212C63.6942 304.212 64.1825 304.324 64.6016 304.547C65.0206 304.767 65.3455 305.107 65.5763 305.565C65.8107 306.019 65.9279 306.598 65.9279 307.301V312.5H64.6708V307.386C64.6708 306.737 64.5021 306.234 64.1648 305.879C63.831 305.52 63.3675 305.341 62.7745 305.341C62.3626 305.341 61.9933 305.428 61.6665 305.602C61.3434 305.776 61.0877 306.03 60.8995 306.364C60.7148 306.697 60.6225 307.102 60.6225 307.578ZM71.786 304.318V305.384H67.5459V304.318H71.786ZM68.7817 302.358H70.0388V310.156C70.0388 310.511 70.0903 310.778 70.1933 310.955C70.2998 311.129 70.4347 311.246 70.5981 311.307C70.765 311.364 70.9408 311.392 71.1254 311.392C71.2639 311.392 71.3776 311.385 71.4664 311.371C71.5551 311.353 71.6262 311.339 71.6794 311.328L71.9351 312.457C71.8499 312.489 71.7309 312.521 71.5782 312.553C71.4255 312.589 71.232 312.607 70.9976 312.607C70.6425 312.607 70.2945 312.53 69.9536 312.377C69.6162 312.225 69.3357 311.992 69.1119 311.68C68.8918 311.367 68.7817 310.973 68.7817 310.497V302.358ZM73.6769 312.5V304.318H74.8914V305.597H74.998C75.1684 305.16 75.4436 304.821 75.8236 304.579C76.2036 304.334 76.6599 304.212 77.1926 304.212C77.7323 304.212 78.1816 304.334 78.5402 304.579C78.9024 304.821 79.1847 305.16 79.3872 305.597H79.4724C79.6819 305.174 79.9962 304.838 80.4152 304.59C80.8343 304.338 81.3367 304.212 81.9227 304.212C82.6542 304.212 83.2526 304.441 83.7178 304.899C84.183 305.353 84.4156 306.062 84.4156 307.024V312.5H83.1585V307.024C83.1585 306.42 82.9933 305.989 82.6631 305.73C82.3328 305.471 81.944 305.341 81.4965 305.341C80.9213 305.341 80.4756 305.515 80.1595 305.863C79.8435 306.207 79.6855 306.644 79.6855 307.173V312.5H78.407V306.896C78.407 306.431 78.2561 306.056 77.9543 305.772C77.6524 305.485 77.2636 305.341 76.7877 305.341C76.461 305.341 76.1556 305.428 75.8715 305.602C75.591 305.776 75.3637 306.017 75.1897 306.326C75.0193 306.632 74.934 306.985 74.934 307.386V312.5H73.6769ZM87.9711 301.591V312.5H86.714V301.591H87.9711Z" fill="#A52A2A"/>
<path d="M30.9805 386.5V86.5H22.9805V386.5H30.9805Z" fill="#0D47A1" mask="url(#path-3-inside-1_142_26808)"/>
<rect x="26.9805" y="402.5" width="200" height="43" rx="21.5" fill="#0D47A1"/>
<path d="M80.3904 430.5V419.952H76.8264V418.692H85.4664V419.952H81.9024V430.5H80.3904ZM86.6226 430.5V421.752H87.8466L87.9726 423.336H88.0266C88.3266 422.784 88.6926 422.346 89.1246 422.022C89.5566 421.698 90.0186 421.536 90.5106 421.536C90.8586 421.536 91.1706 421.596 91.4466 421.716L91.1586 423.012C91.0146 422.964 90.8826 422.928 90.7626 422.904C90.6426 422.88 90.4926 422.868 90.3126 422.868C89.9406 422.868 89.5506 423.018 89.1426 423.318C88.7466 423.618 88.3986 424.14 88.0986 424.884V430.5H86.6226ZM93.4639 434.262C93.2719 434.262 93.0859 434.244 92.9059 434.208C92.7379 434.172 92.5819 434.13 92.4379 434.082L92.7259 432.912C92.8219 432.936 92.9299 432.96 93.0499 432.984C93.1699 433.02 93.2839 433.038 93.3919 433.038C93.8839 433.038 94.2919 432.858 94.6159 432.498C94.9399 432.15 95.1919 431.706 95.3719 431.166L95.5699 430.518L92.0599 421.752H93.5899L95.3719 426.594C95.5039 426.966 95.6419 427.368 95.7859 427.8C95.9419 428.232 96.0859 428.652 96.2179 429.06H96.2899C96.4219 428.664 96.5479 428.25 96.6679 427.818C96.7879 427.386 96.9079 426.978 97.0279 426.594L98.5939 421.752H100.034L96.7399 431.22C96.5359 431.796 96.2899 432.312 96.0019 432.768C95.7259 433.224 95.3779 433.584 94.9579 433.848C94.5499 434.124 94.0519 434.262 93.4639 434.262ZM105.326 430.5V421.752H106.802V430.5H105.326ZM106.082 419.952C105.794 419.952 105.554 419.868 105.362 419.7C105.182 419.52 105.092 419.28 105.092 418.98C105.092 418.692 105.182 418.458 105.362 418.278C105.554 418.098 105.794 418.008 106.082 418.008C106.37 418.008 106.604 418.098 106.784 418.278C106.976 418.458 107.072 418.692 107.072 418.98C107.072 419.28 106.976 419.52 106.784 419.7C106.604 419.868 106.37 419.952 106.082 419.952ZM112.509 430.716C111.573 430.716 110.919 430.446 110.547 429.906C110.187 429.366 110.007 428.664 110.007 427.8V422.958H108.711V421.842L110.079 421.752L110.259 419.304H111.501V421.752H113.859V422.958H111.501V427.818C111.501 428.358 111.597 428.778 111.789 429.078C111.993 429.366 112.347 429.51 112.851 429.51C113.007 429.51 113.175 429.486 113.355 429.438C113.535 429.378 113.697 429.324 113.841 429.276L114.129 430.392C113.889 430.476 113.625 430.548 113.337 430.608C113.061 430.68 112.785 430.716 112.509 430.716ZM121.493 430.5V425.928L117.947 418.692H119.549L121.079 422.022C121.271 422.454 121.457 422.88 121.637 423.3C121.829 423.72 122.021 424.152 122.213 424.596H122.285C122.489 424.152 122.693 423.72 122.897 423.3C123.101 422.88 123.293 422.454 123.473 422.022L124.985 418.692H126.551L123.005 425.928V430.5H121.493ZM130.665 430.716C129.957 430.716 129.291 430.536 128.667 430.176C128.055 429.816 127.557 429.294 127.173 428.61C126.801 427.926 126.615 427.104 126.615 426.144C126.615 425.16 126.801 424.326 127.173 423.642C127.557 422.958 128.055 422.436 128.667 422.076C129.291 421.716 129.957 421.536 130.665 421.536C131.385 421.536 132.051 421.716 132.663 422.076C133.275 422.436 133.767 422.958 134.139 423.642C134.523 424.326 134.715 425.16 134.715 426.144C134.715 427.104 134.523 427.926 134.139 428.61C133.767 429.294 133.275 429.816 132.663 430.176C132.051 430.536 131.385 430.716 130.665 430.716ZM130.665 429.492C131.421 429.492 132.027 429.186 132.483 428.574C132.951 427.95 133.185 427.14 133.185 426.144C133.185 425.136 132.951 424.32 132.483 423.696C132.027 423.072 131.421 422.76 130.665 422.76C129.921 422.76 129.315 423.072 128.847 423.696C128.379 424.32 128.145 425.136 128.145 426.144C128.145 427.14 128.379 427.95 128.847 428.574C129.315 429.186 129.921 429.492 130.665 429.492ZM139.575 430.716C138.651 430.716 137.973 430.428 137.541 429.852C137.109 429.264 136.893 428.412 136.893 427.296V421.752H138.387V427.098C138.387 427.914 138.513 428.508 138.765 428.88C139.029 429.252 139.449 429.438 140.025 429.438C140.481 429.438 140.883 429.324 141.231 429.096C141.591 428.856 141.975 428.478 142.383 427.962V421.752H143.859V430.5H142.635L142.509 429.132H142.455C142.047 429.612 141.615 429.996 141.159 430.284C140.703 430.572 140.175 430.716 139.575 430.716ZM146.81 430.5V421.752H148.034L148.16 423.336H148.214C148.514 422.784 148.88 422.346 149.312 422.022C149.744 421.698 150.206 421.536 150.698 421.536C151.046 421.536 151.358 421.596 151.634 421.716L151.346 423.012C151.202 422.964 151.07 422.928 150.95 422.904C150.83 422.88 150.68 422.868 150.5 422.868C150.128 422.868 149.738 423.018 149.33 423.318C148.934 423.618 148.586 424.14 148.286 424.884V430.5H146.81ZM155.266 430.716C154.642 430.716 154.048 430.602 153.484 430.374C152.92 430.134 152.428 429.846 152.008 429.51L152.746 428.52C153.13 428.82 153.526 429.072 153.934 429.276C154.342 429.468 154.804 429.564 155.32 429.564C155.896 429.564 156.328 429.432 156.616 429.168C156.904 428.892 157.048 428.568 157.048 428.196C157.048 427.896 156.946 427.644 156.742 427.44C156.55 427.236 156.298 427.068 155.986 426.936C155.686 426.792 155.374 426.66 155.05 426.54C154.642 426.384 154.24 426.21 153.844 426.018C153.448 425.814 153.124 425.556 152.872 425.244C152.62 424.92 152.494 424.512 152.494 424.02C152.494 423.312 152.758 422.724 153.286 422.256C153.826 421.776 154.57 421.536 155.518 421.536C156.058 421.536 156.562 421.632 157.03 421.824C157.498 422.016 157.9 422.25 158.236 422.526L157.516 423.462C157.216 423.234 156.904 423.048 156.58 422.904C156.256 422.76 155.902 422.688 155.518 422.688C154.966 422.688 154.558 422.814 154.294 423.066C154.042 423.318 153.916 423.612 153.916 423.948C153.916 424.224 154.006 424.452 154.186 424.632C154.366 424.8 154.6 424.95 154.888 425.082C155.176 425.202 155.482 425.328 155.806 425.46C156.226 425.616 156.64 425.796 157.048 426C157.456 426.192 157.792 426.456 158.056 426.792C158.332 427.116 158.47 427.554 158.47 428.106C158.47 428.574 158.344 429.006 158.092 429.402C157.852 429.798 157.492 430.116 157.012 430.356C156.544 430.596 155.962 430.716 155.266 430.716ZM164.067 430.716C163.287 430.716 162.579 430.536 161.943 430.176C161.307 429.804 160.803 429.276 160.431 428.592C160.059 427.908 159.873 427.092 159.873 426.144C159.873 425.184 160.059 424.362 160.431 423.678C160.815 422.994 161.307 422.466 161.907 422.094C162.507 421.722 163.137 421.536 163.797 421.536C164.913 421.536 165.771 421.908 166.371 422.652C166.983 423.396 167.289 424.392 167.289 425.64C167.289 425.796 167.283 425.952 167.271 426.108C167.271 426.252 167.259 426.378 167.235 426.486H161.331C161.391 427.41 161.679 428.148 162.195 428.7C162.723 429.252 163.407 429.528 164.247 429.528C164.667 429.528 165.051 429.468 165.399 429.348C165.759 429.216 166.101 429.048 166.425 428.844L166.947 429.816C166.575 430.056 166.149 430.266 165.669 430.446C165.201 430.626 164.667 430.716 164.067 430.716ZM161.313 425.424H165.993C165.993 424.536 165.801 423.864 165.417 423.408C165.045 422.94 164.517 422.706 163.833 422.706C163.221 422.706 162.669 422.946 162.177 423.426C161.697 423.894 161.409 424.56 161.313 425.424ZM171.017 430.716C170.465 430.716 170.063 430.548 169.811 430.212C169.571 429.864 169.451 429.372 169.451 428.736V417.684H170.927V428.844C170.927 429.072 170.969 429.24 171.053 429.348C171.137 429.444 171.233 429.492 171.341 429.492C171.389 429.492 171.431 429.492 171.467 429.492C171.515 429.48 171.581 429.468 171.665 429.456L171.863 430.572C171.767 430.62 171.653 430.656 171.521 430.68C171.389 430.704 171.221 430.716 171.017 430.716ZM174.291 430.5V422.958H173.103V421.842L174.291 421.752V420.366C174.291 419.478 174.495 418.776 174.903 418.26C175.323 417.732 175.971 417.468 176.847 417.468C177.123 417.468 177.387 417.498 177.639 417.558C177.891 417.606 178.113 417.672 178.305 417.756L177.981 418.89C177.657 418.746 177.327 418.674 176.991 418.674C176.175 418.674 175.767 419.238 175.767 420.366V421.752H177.621V422.958H175.767V430.5H174.291Z" fill="white"/>
</g>
<defs>
<filter id="filter0_dd_142_26808" x="0.980469" y="0.5" width="635.98" height="473" filterUnits="userSpaceOnUse" color-interpolation-filters="sRGB">
<feFlood flood-opacity="0" result="BackgroundImageFix"/>
<feColorMatrix in="SourceAlpha" type="matrix" values="0 0 0 0 0 0 0 0 0 0 0 0 0 0 0 0 0 0 127 0" result="hardAlpha"/>
<feOffset dy="2"/>
<feGaussianBlur stdDeviation="5"/>
<feComposite in2="hardAlpha" operator="out"/>
<feColorMatrix type="matrix" values="0 0 0 0 0 0 0 0 0 0 0 0 0 0 0 0 0 0 0.12 0"/>
<feBlend mode="normal" in2="BackgroundImageFix" result="effect1_dropShadow_142_26808"/>
<feColorMatrix in="SourceAlpha" type="matrix" values="0 0 0 0 0 0 0 0 0 0 0 0 0 0 0 0 0 0 127 0" result="hardAlpha"/>
<feOffset dy="2"/>
<feGaussianBlur stdDeviation="2.5"/>
<feComposite in2="hardAlpha" operator="out"/>
<feColorMatrix type="matrix" values="0 0 0 0 0 0 0 0 0 0 0 0 0 0 0 0 0 0 0.16 0"/>
<feBlend mode="normal" in2="effect1_dropShadow_142_26808" result="effect2_dropShadow_142_26808"/>
<feBlend mode="normal" in="SourceGraphic" in2="effect2_dropShadow_142_26808" result="shape"/>
</filter>
</defs>
</svg>
