<svg width="637" height="384" viewBox="0 0 637 384" fill="none" xmlns="http://www.w3.org/2000/svg">
<g filter="url(#filter0_dd_142_26882)">
<rect x="10.9805" y="8.68994" width="615.98" height="363" rx="5" fill="#E7E9EB" shape-rendering="crispEdges"/>
<path d="M33.5085 60.9779C32.4045 60.9779 31.3805 60.7699 30.4365 60.3539C29.4925 59.9219 28.6765 59.3539 27.9885 58.6499L29.1885 57.2579C29.7485 57.8499 30.4045 58.3299 31.1565 58.6979C31.9245 59.0499 32.7165 59.2259 33.5325 59.2259C34.5725 59.2259 35.3805 58.9939 35.9565 58.5299C36.5325 58.0499 36.8205 57.4259 36.8205 56.6579C36.8205 56.1139 36.7005 55.6819 36.4605 55.3619C36.2365 55.0419 35.9245 54.7699 35.5245 54.5459C35.1405 54.3219 34.7005 54.0979 34.2045 53.8739L31.9485 52.8899C31.4525 52.6819 30.9565 52.4099 30.4605 52.0739C29.9805 51.7379 29.5725 51.3059 29.2365 50.7779C28.9165 50.2499 28.7565 49.6019 28.7565 48.8339C28.7565 48.0339 28.9645 47.3219 29.3805 46.6979C29.8125 46.0579 30.4045 45.5619 31.1565 45.2099C31.9085 44.8419 32.7565 44.6579 33.7005 44.6579C34.6445 44.6579 35.5165 44.8419 36.3165 45.2099C37.1165 45.5619 37.7965 46.0259 38.3565 46.6019L37.2765 47.8979C36.7965 47.4339 36.2605 47.0739 35.6685 46.8179C35.0925 46.5459 34.4365 46.4099 33.7005 46.4099C32.8205 46.4099 32.1085 46.6179 31.5645 47.0339C31.0365 47.4499 30.7725 48.0099 30.7725 48.7139C30.7725 49.2099 30.9005 49.6259 31.1565 49.9619C31.4285 50.2819 31.7645 50.5459 32.1645 50.7539C32.5645 50.9619 32.9725 51.1539 33.3885 51.3299L35.6205 52.2899C36.2285 52.5459 36.7725 52.8579 37.2525 53.2259C37.7485 53.5779 38.1405 54.0179 38.4285 54.5459C38.7165 55.0579 38.8605 55.7059 38.8605 56.4899C38.8605 57.3219 38.6445 58.0819 38.2125 58.7699C37.7805 59.4419 37.1645 59.9779 36.3645 60.3779C35.5645 60.7779 34.6125 60.9779 33.5085 60.9779ZM47.7688 59.3219C48.7128 59.3219 49.5288 59.0579 50.2168 58.5299C50.9208 57.9859 51.4648 57.2259 51.8488 56.2499C52.2328 55.2579 52.4248 54.0899 52.4248 52.7459C52.4248 50.7939 52.0008 49.2499 51.1528 48.1139C50.3048 46.9779 49.1768 46.4099 47.7688 46.4099C46.3608 46.4099 45.2328 46.9779 44.3848 48.1139C43.5368 49.2499 43.1128 50.7939 43.1128 52.7459C43.1128 54.0899 43.3048 55.2579 43.6888 56.2499C44.0728 57.2259 44.6168 57.9859 45.3208 58.5299C46.0248 59.0579 46.8408 59.3219 47.7688 59.3219ZM52.5928 64.6499C51.1368 64.6499 49.9208 64.2899 48.9448 63.5699C47.9688 62.8659 47.2488 61.9779 46.7848 60.9059C45.6488 60.7459 44.6488 60.3139 43.7848 59.6099C42.9208 58.9059 42.2488 57.9699 41.7688 56.8019C41.2888 55.6339 41.0488 54.2819 41.0488 52.7459C41.0488 51.0659 41.3288 49.6259 41.8888 48.4259C42.4648 47.2099 43.2568 46.2819 44.2648 45.6419C45.2888 44.9859 46.4568 44.6579 47.7688 44.6579C49.0968 44.6579 50.2648 44.9859 51.2728 45.6419C52.2808 46.2819 53.0728 47.2099 53.6488 48.4259C54.2248 49.6259 54.5128 51.0659 54.5128 52.7459C54.5128 54.2499 54.2808 55.5779 53.8168 56.7299C53.3528 57.8819 52.7048 58.8179 51.8728 59.5379C51.0408 60.2419 50.0648 60.6899 48.9448 60.8819C49.3128 61.5699 49.8328 62.0899 50.5048 62.4419C51.1928 62.7939 51.9608 62.9699 52.8088 62.9699C53.1608 62.9699 53.4728 62.9459 53.7448 62.8979C54.0168 62.8659 54.2568 62.8179 54.4648 62.7539L54.8488 64.2899C54.6088 64.3859 54.2888 64.4659 53.8888 64.5299C53.4888 64.6099 53.0568 64.6499 52.5928 64.6499ZM57.8983 60.6899V44.9459H59.8903V58.9859H66.7783V60.6899H57.8983ZM74.3748 60.6899V44.9459H83.4468V46.6259H76.3668V51.5699H82.3428V53.2739H76.3668V58.9859H83.6868V60.6899H74.3748ZM84.4571 60.6899L88.2731 54.5939L84.7451 49.0259H86.8811L88.4411 51.5939C88.6171 51.8979 88.8011 52.2179 88.9931 52.5539C89.1851 52.8899 89.3851 53.2179 89.5931 53.5379H89.6891C89.8651 53.2179 90.0411 52.8899 90.2171 52.5539C90.3931 52.2179 90.5691 51.8979 90.7451 51.5939L92.1611 49.0259H94.2251L90.6971 54.8099L94.4891 60.6899H92.3531L90.6491 57.9779C90.4411 57.6259 90.2331 57.2739 90.0251 56.9219C89.8171 56.5699 89.6011 56.2259 89.3771 55.8899H89.2811C89.0731 56.2259 88.8731 56.5699 88.6811 56.9219C88.4891 57.2579 88.2971 57.6099 88.1051 57.9779L86.5211 60.6899H84.4571ZM99.2537 60.9779C98.2777 60.9779 97.4617 60.6899 96.8057 60.1139C96.1657 59.5219 95.8457 58.7059 95.8457 57.6659C95.8457 56.3859 96.4137 55.4099 97.5497 54.7379C98.7017 54.0499 100.518 53.5699 102.998 53.2979C102.998 52.8019 102.926 52.3299 102.782 51.8819C102.654 51.4339 102.414 51.0739 102.062 50.8019C101.726 50.5139 101.238 50.3699 100.598 50.3699C99.9257 50.3699 99.2937 50.4979 98.7017 50.7539C98.1097 51.0099 97.5817 51.2979 97.1177 51.6179L96.3497 50.2499C96.8937 49.8979 97.5577 49.5619 98.3417 49.2419C99.1417 48.9059 100.006 48.7379 100.934 48.7379C102.358 48.7379 103.39 49.1779 104.03 50.0579C104.67 50.9219 104.99 52.0819 104.99 53.5379V60.6899H103.358L103.19 59.2979H103.118C102.574 59.7459 101.974 60.1379 101.318 60.4739C100.678 60.8099 99.9897 60.9779 99.2537 60.9779ZM99.8297 59.3939C100.39 59.3939 100.918 59.2579 101.414 58.9859C101.91 58.7139 102.438 58.3299 102.998 57.8339V54.5939C101.062 54.8339 99.7017 55.1939 98.9177 55.6739C98.1497 56.1539 97.7657 56.7699 97.7657 57.5219C97.7657 58.1779 97.9657 58.6579 98.3657 58.9619C98.7657 59.2499 99.2537 59.3939 99.8297 59.3939ZM108.659 60.6899V49.0259H110.291L110.459 50.7059H110.531C111.043 50.1459 111.603 49.6819 112.211 49.3139C112.819 48.9299 113.467 48.7379 114.155 48.7379C115.051 48.7379 115.747 48.9379 116.243 49.3379C116.755 49.7219 117.131 50.2659 117.371 50.9699C117.979 50.3139 118.595 49.7779 119.219 49.3619C119.843 48.9459 120.507 48.7379 121.211 48.7379C122.411 48.7379 123.299 49.1299 123.875 49.9139C124.467 50.6819 124.763 51.8099 124.763 53.2979V60.6899H122.795V53.5619C122.795 52.4739 122.619 51.6819 122.267 51.1859C121.915 50.6899 121.371 50.4419 120.635 50.4419C119.771 50.4419 118.795 51.0419 117.707 52.2419V60.6899H115.739V53.5619C115.739 52.4739 115.563 51.6819 115.211 51.1859C114.859 50.6899 114.307 50.4419 113.555 50.4419C112.691 50.4419 111.715 51.0419 110.627 52.2419V60.6899H108.659ZM128.558 65.6099V49.0259H130.19L130.358 50.3699H130.43C130.958 49.9219 131.534 49.5379 132.158 49.2179C132.798 48.8979 133.462 48.7379 134.15 48.7379C135.654 48.7379 136.798 49.2819 137.582 50.3699C138.366 51.4419 138.758 52.8819 138.758 54.6899C138.758 56.0019 138.518 57.1299 138.038 58.0739C137.574 59.0179 136.958 59.7379 136.19 60.2339C135.438 60.7299 134.614 60.9779 133.718 60.9779C133.174 60.9779 132.63 60.8579 132.086 60.6179C131.558 60.3779 131.022 60.0499 130.478 59.6339L130.526 61.6739V65.6099H128.558ZM133.382 59.3219C134.342 59.3219 135.134 58.9139 135.758 58.0979C136.398 57.2659 136.718 56.1299 136.718 54.6899C136.718 53.4099 136.478 52.3779 135.998 51.5939C135.534 50.7939 134.75 50.3939 133.646 50.3939C133.15 50.3939 132.646 50.5299 132.134 50.8019C131.638 51.0739 131.102 51.4659 130.526 51.9779V58.0979C131.054 58.5459 131.566 58.8659 132.062 59.0579C132.558 59.2339 132.998 59.3219 133.382 59.3219ZM143.958 60.9779C143.222 60.9779 142.686 60.7539 142.35 60.3059C142.03 59.8419 141.87 59.1859 141.87 58.3379V43.6019H143.838V58.4819C143.838 58.7859 143.894 59.0099 144.006 59.1539C144.118 59.2819 144.246 59.3459 144.39 59.3459C144.454 59.3459 144.51 59.3459 144.558 59.3459C144.622 59.3299 144.71 59.3139 144.822 59.2979L145.086 60.7859C144.958 60.8499 144.806 60.8979 144.63 60.9299C144.454 60.9619 144.23 60.9779 143.958 60.9779ZM152.716 60.9779C151.676 60.9779 150.732 60.7379 149.884 60.2579C149.036 59.7619 148.364 59.0579 147.868 58.1459C147.372 57.2339 147.124 56.1459 147.124 54.8819C147.124 53.6019 147.372 52.5059 147.868 51.5939C148.38 50.6819 149.036 49.9779 149.836 49.4819C150.636 48.9859 151.476 48.7379 152.356 48.7379C153.844 48.7379 154.988 49.2339 155.788 50.2259C156.604 51.2179 157.012 52.5459 157.012 54.2099C157.012 54.4179 157.004 54.6259 156.988 54.8339C156.988 55.0259 156.972 55.1939 156.94 55.3379H149.068C149.148 56.5699 149.532 57.5539 150.22 58.2899C150.924 59.0259 151.836 59.3939 152.956 59.3939C153.516 59.3939 154.028 59.3139 154.492 59.1539C154.972 58.9779 155.428 58.7539 155.86 58.4819L156.556 59.7779C156.06 60.0979 155.492 60.3779 154.852 60.6179C154.228 60.8579 153.516 60.9779 152.716 60.9779ZM149.044 53.9219H155.284C155.284 52.7379 155.028 51.8419 154.516 51.2339C154.02 50.6099 153.316 50.2979 152.404 50.2979C151.588 50.2979 150.852 50.6179 150.196 51.2579C149.556 51.8819 149.172 52.7699 149.044 53.9219ZM160.926 52.3139C160.526 52.3139 160.182 52.1779 159.894 51.9059C159.622 51.6179 159.486 51.2579 159.486 50.8259C159.486 50.3619 159.622 49.9939 159.894 49.7219C160.182 49.4339 160.526 49.2899 160.926 49.2899C161.31 49.2899 161.638 49.4339 161.91 49.7219C162.198 49.9939 162.342 50.3619 162.342 50.8259C162.342 51.2579 162.198 51.6179 161.91 51.9059C161.638 52.1779 161.31 52.3139 160.926 52.3139ZM160.926 60.9779C160.526 60.9779 160.182 60.8419 159.894 60.5699C159.622 60.2819 159.486 59.9219 159.486 59.4899C159.486 59.0259 159.622 58.6579 159.894 58.3859C160.182 58.0979 160.526 57.9539 160.926 57.9539C161.31 57.9539 161.638 58.0979 161.91 58.3859C162.198 58.6579 162.342 59.0259 162.342 59.4899C162.342 59.9219 162.198 60.2819 161.91 60.5699C161.638 60.8419 161.31 60.9779 160.926 60.9779Z" fill="black"/>
<mask id="path-3-inside-1_142_26882" fill="white">
<path d="M26.9805 86.6899H610.96V296.69H26.9805V86.6899Z"/>
</mask>
<path d="M26.9805 86.6899H610.96V296.69H26.9805V86.6899Z" fill="white"/>
<path d="M50.2674 102.508C50.2035 101.968 49.9442 101.549 49.4897 101.251C49.0352 100.953 48.4776 100.804 47.8171 100.804C47.3342 100.804 46.9116 100.882 46.5494 101.038C46.1907 101.194 45.9102 101.409 45.7077 101.682C45.5089 101.956 45.4094 102.267 45.4094 102.615C45.4094 102.906 45.4787 103.156 45.6172 103.366C45.7592 103.572 45.9403 103.744 46.1605 103.882C46.3807 104.017 46.6115 104.129 46.853 104.218C47.0945 104.303 47.3164 104.372 47.5188 104.426L48.6268 104.724C48.9109 104.799 49.2269 104.902 49.5749 105.033C49.9265 105.164 50.2621 105.344 50.5817 105.571C50.9048 105.795 51.1712 106.082 51.3807 106.434C51.5902 106.785 51.695 107.217 51.695 107.728C51.695 108.318 51.5405 108.85 51.2315 109.326C50.9261 109.802 50.4787 110.18 49.8892 110.461C49.3033 110.741 48.5913 110.882 47.7532 110.882C46.9719 110.882 46.2955 110.756 45.7237 110.504C45.1555 110.251 44.7081 109.9 44.3814 109.449C44.0582 108.998 43.8754 108.474 43.8327 107.877H45.1964C45.2319 108.289 45.3704 108.63 45.6119 108.9C45.8569 109.167 46.1658 109.365 46.5387 109.497C46.9151 109.625 47.32 109.689 47.7532 109.689C48.2575 109.689 48.7102 109.607 49.1115 109.443C49.5128 109.277 49.8306 109.046 50.065 108.751C50.2994 108.453 50.4165 108.105 50.4165 107.707C50.4165 107.345 50.3153 107.05 50.1129 106.823C49.9105 106.595 49.6442 106.411 49.3139 106.269C48.9837 106.127 48.6268 106.002 48.2433 105.896L46.9009 105.512C46.0487 105.267 45.3739 104.918 44.8768 104.463C44.3796 104.008 44.131 103.414 44.131 102.679C44.131 102.068 44.2962 101.535 44.6264 101.081C44.9602 100.622 45.4077 100.267 45.9688 100.015C46.5334 99.7595 47.1637 99.6317 47.8597 99.6317C48.5629 99.6317 49.1879 99.7578 49.7347 100.01C50.2816 100.258 50.7148 100.599 51.0344 101.033C51.3576 101.466 51.5281 101.958 51.5458 102.508H50.2674ZM53.8669 110.69V99.7809H60.4507V100.953H55.1879V104.639H60.1098V105.811H55.1879V109.518H60.536V110.69H53.8669ZM62.8318 110.69V99.7809H64.1528V109.518H69.2238V110.69H62.8318ZM71.2693 110.69V99.7809H77.8531V100.953H72.5903V104.639H77.5122V105.811H72.5903V109.518H77.9383V110.69H71.2693ZM89.0125 103.19H87.6915C87.6134 102.81 87.4767 102.476 87.2813 102.189C87.0896 101.901 86.8552 101.659 86.5782 101.464C86.3048 101.265 86.0012 101.116 85.6673 101.017C85.3335 100.917 84.9855 100.867 84.6233 100.867C83.9628 100.867 83.3644 101.034 82.8282 101.368C82.2955 101.702 81.8712 102.194 81.5551 102.844C81.2426 103.494 81.0864 104.291 81.0864 105.235C81.0864 106.18 81.2426 106.977 81.5551 107.627C81.8712 108.277 82.2955 108.769 82.8282 109.103C83.3644 109.436 83.9628 109.603 84.6233 109.603C84.9855 109.603 85.3335 109.554 85.6673 109.454C86.0012 109.355 86.3048 109.207 86.5782 109.012C86.8552 108.813 87.0896 108.57 87.2813 108.282C87.4767 107.991 87.6134 107.657 87.6915 107.281H89.0125C88.9131 107.838 88.732 108.337 88.4692 108.778C88.2064 109.218 87.8797 109.593 87.4891 109.902C87.0985 110.207 86.6599 110.44 86.1734 110.599C85.6904 110.759 85.1737 110.839 84.6233 110.839C83.6929 110.839 82.8655 110.612 82.1411 110.157C81.4166 109.703 80.8467 109.056 80.4312 108.218C80.0157 107.38 79.808 106.386 79.808 105.235C79.808 104.085 80.0157 103.091 80.4312 102.252C80.8467 101.414 81.4166 100.768 82.1411 100.314C82.8655 99.859 83.6929 99.6317 84.6233 99.6317C85.1737 99.6317 85.6904 99.7116 86.1734 99.8714C86.6599 100.031 87.0985 100.266 87.4891 100.575C87.8797 100.88 88.2064 101.253 88.4692 101.693C88.732 102.13 88.9131 102.629 89.0125 103.19ZM90.5506 100.953V99.7809H98.7324V100.953H95.302V110.69H93.981V100.953H90.5506ZM116.709 110.69V99.7809H123.25V100.953H118.03V104.639H122.76V105.811H118.03V110.69H116.709ZM125.512 110.69V99.7809H129.199C130.051 99.7809 130.75 99.9264 131.297 100.218C131.844 100.505 132.249 100.901 132.512 101.405C132.775 101.91 132.906 102.483 132.906 103.126C132.906 103.769 132.775 104.339 132.512 104.836C132.249 105.333 131.846 105.724 131.303 106.008C130.759 106.288 130.065 106.429 129.22 106.429H126.237V105.235H129.177C129.76 105.235 130.228 105.15 130.583 104.98C130.942 104.809 131.201 104.568 131.361 104.255C131.525 103.939 131.606 103.563 131.606 103.126C131.606 102.689 131.525 102.307 131.361 101.981C131.198 101.654 130.937 101.402 130.578 101.224C130.219 101.043 129.745 100.953 129.156 100.953H126.833V110.69H125.512ZM130.647 105.789L133.332 110.69H131.798L129.156 105.789H130.647ZM144.312 105.235C144.312 106.386 144.104 107.38 143.688 108.218C143.273 109.056 142.703 109.703 141.979 110.157C141.254 110.612 140.427 110.839 139.496 110.839C138.566 110.839 137.739 110.612 137.014 110.157C136.29 109.703 135.72 109.056 135.304 108.218C134.889 107.38 134.681 106.386 134.681 105.235C134.681 104.085 134.889 103.091 135.304 102.252C135.72 101.414 136.29 100.768 137.014 100.314C137.739 99.859 138.566 99.6317 139.496 99.6317C140.427 99.6317 141.254 99.859 141.979 100.314C142.703 100.768 143.273 101.414 143.688 102.252C144.104 103.091 144.312 104.085 144.312 105.235ZM143.033 105.235C143.033 104.291 142.875 103.494 142.559 102.844C142.247 102.194 141.822 101.702 141.286 101.368C140.753 101.034 140.157 100.867 139.496 100.867C138.836 100.867 138.237 101.034 137.701 101.368C137.169 101.702 136.744 102.194 136.428 102.844C136.116 103.494 135.959 104.291 135.959 105.235C135.959 106.18 136.116 106.977 136.428 107.627C136.744 108.277 137.169 108.769 137.701 109.103C138.237 109.436 138.836 109.603 139.496 109.603C140.157 109.603 140.753 109.436 141.286 109.103C141.822 108.769 142.247 108.277 142.559 107.627C142.875 106.977 143.033 106.18 143.033 105.235ZM146.533 99.7809H148.11L151.817 108.836H151.945L155.652 99.7809H157.229V110.69H155.993V102.402H155.887L152.478 110.69H151.284L147.875 102.402H147.769V110.69H146.533V99.7809ZM46.283 132.69L43.3001 121.781H44.6424L46.9222 130.666H47.0288L49.3512 121.781H50.8427L53.1651 130.666H53.2717L55.5515 121.781H56.8938L53.9109 132.69H52.5472L50.1396 123.997H50.0543L47.6467 132.69H46.283ZM58.5398 132.69V121.781H59.8608V126.639H65.6776V121.781H66.9986V132.69H65.6776V127.811H59.8608V132.69H58.5398ZM69.6433 132.69V121.781H76.2271V122.953H70.9643V126.639H75.8862V127.811H70.9643V131.518H76.3123V132.69H69.6433ZM78.6081 132.69V121.781H82.2942C83.1465 121.781 83.8461 121.926 84.3929 122.218C84.9398 122.505 85.3446 122.901 85.6074 123.405C85.8702 123.91 86.0016 124.483 86.0016 125.126C86.0016 125.769 85.8702 126.339 85.6074 126.836C85.3446 127.333 84.9416 127.724 84.3983 128.008C83.8549 128.288 83.1607 128.429 82.3155 128.429H79.3326V127.235H82.2729C82.8553 127.235 83.324 127.15 83.6792 126.98C84.0378 126.809 84.2971 126.568 84.4569 126.255C84.6202 125.939 84.7019 125.563 84.7019 125.126C84.7019 124.689 84.6202 124.307 84.4569 123.981C84.2935 123.654 84.0325 123.402 83.6738 123.224C83.3152 123.043 82.8411 122.953 82.2516 122.953H79.9292V132.69H78.6081ZM83.7431 127.789L86.4277 132.69H84.8936L82.2516 127.789H83.7431ZM88.2029 132.69V121.781H94.7867V122.953H89.5239V126.639H94.4458V127.811H89.5239V131.518H94.8719V132.69H88.2029Z" fill="#0000CD"/>
<path d="M106.908 105.917L106.993 103.573L105.011 104.831L104.5 103.936L106.588 102.849L104.5 101.762L105.011 100.867L106.993 102.125L106.908 99.7809H107.93L107.845 102.125L109.827 100.867L110.338 101.762L108.25 102.849L110.338 103.936L109.827 104.831L107.845 103.573L107.93 105.917H106.908ZM172.875 103.19H171.554C171.476 102.81 171.339 102.476 171.144 102.189C170.952 101.901 170.718 101.659 170.441 101.464C170.167 101.265 169.863 101.116 169.53 101.017C169.196 100.917 168.848 100.867 168.486 100.867C167.825 100.867 167.227 101.034 166.691 101.368C166.158 101.702 165.733 102.194 165.417 102.844C165.105 103.494 164.949 104.291 164.949 105.235C164.949 106.18 165.105 106.977 165.417 107.627C165.733 108.277 166.158 108.769 166.691 109.103C167.227 109.436 167.825 109.603 168.486 109.603C168.848 109.603 169.196 109.554 169.53 109.454C169.863 109.355 170.167 109.207 170.441 109.012C170.718 108.813 170.952 108.57 171.144 108.282C171.339 107.991 171.476 107.657 171.554 107.281H172.875C172.775 107.838 172.594 108.337 172.331 108.778C172.069 109.218 171.742 109.593 171.351 109.902C170.961 110.207 170.522 110.44 170.036 110.599C169.553 110.759 169.036 110.839 168.486 110.839C167.555 110.839 166.728 110.612 166.003 110.157C165.279 109.703 164.709 109.056 164.294 108.218C163.878 107.38 163.67 106.386 163.67 105.235C163.67 104.085 163.878 103.091 164.294 102.252C164.709 101.414 165.279 100.768 166.003 100.314C166.728 99.859 167.555 99.6317 168.486 99.6317C169.036 99.6317 169.553 99.7116 170.036 99.8714C170.522 100.031 170.961 100.266 171.351 100.575C171.742 100.88 172.069 101.253 172.331 101.693C172.594 102.13 172.775 102.629 172.875 103.19ZM179.995 107.345V102.508H181.252V110.69H179.995V109.305H179.91C179.718 109.72 179.42 110.074 179.015 110.365C178.61 110.653 178.099 110.796 177.481 110.796C176.97 110.796 176.515 110.685 176.117 110.461C175.72 110.234 175.407 109.893 175.18 109.438C174.953 108.98 174.839 108.403 174.839 107.707V102.508H176.096V107.622C176.096 108.218 176.263 108.694 176.597 109.049C176.934 109.404 177.364 109.582 177.886 109.582C178.198 109.582 178.516 109.502 178.839 109.342C179.166 109.182 179.44 108.937 179.66 108.607C179.883 108.277 179.995 107.856 179.995 107.345ZM189.35 104.341L188.221 104.66C188.15 104.472 188.045 104.289 187.907 104.111C187.772 103.93 187.587 103.781 187.353 103.664C187.118 103.547 186.818 103.488 186.453 103.488C185.952 103.488 185.535 103.604 185.201 103.834C184.871 104.062 184.705 104.351 184.705 104.703C184.705 105.015 184.819 105.262 185.046 105.443C185.274 105.624 185.629 105.775 186.112 105.896L187.326 106.194C188.058 106.372 188.603 106.643 188.961 107.009C189.32 107.371 189.499 107.838 189.499 108.41C189.499 108.879 189.365 109.298 189.095 109.667C188.828 110.037 188.455 110.328 187.976 110.541C187.497 110.754 186.939 110.86 186.303 110.86C185.469 110.86 184.778 110.679 184.231 110.317C183.684 109.955 183.338 109.426 183.193 108.73L184.386 108.431C184.499 108.872 184.714 109.202 185.03 109.422C185.35 109.642 185.767 109.752 186.282 109.752C186.868 109.752 187.333 109.628 187.678 109.38C188.026 109.127 188.2 108.826 188.2 108.474C188.2 108.19 188.1 107.952 187.901 107.76C187.703 107.565 187.397 107.419 186.985 107.323L185.622 107.004C184.872 106.826 184.322 106.551 183.97 106.178C183.622 105.802 183.448 105.331 183.448 104.767C183.448 104.305 183.578 103.897 183.837 103.542C184.1 103.186 184.457 102.908 184.908 102.705C185.362 102.503 185.877 102.402 186.453 102.402C187.262 102.402 187.898 102.579 188.36 102.934C188.825 103.289 189.155 103.758 189.35 104.341ZM194.95 102.508V103.573H190.71V102.508H194.95ZM191.946 100.548H193.203V108.346C193.203 108.701 193.254 108.968 193.357 109.145C193.464 109.319 193.599 109.436 193.762 109.497C193.929 109.554 194.105 109.582 194.29 109.582C194.428 109.582 194.542 109.575 194.63 109.561C194.719 109.543 194.79 109.529 194.843 109.518L195.099 110.647C195.014 110.679 194.895 110.711 194.742 110.743C194.59 110.779 194.396 110.796 194.162 110.796C193.807 110.796 193.459 110.72 193.118 110.567C192.78 110.415 192.5 110.182 192.276 109.87C192.056 109.557 191.946 109.163 191.946 108.687V100.548ZM200.077 110.86C199.338 110.86 198.69 110.685 198.133 110.333C197.579 109.981 197.146 109.49 196.833 108.858C196.524 108.225 196.37 107.487 196.37 106.642C196.37 105.789 196.524 105.045 196.833 104.41C197.146 103.774 197.579 103.28 198.133 102.929C198.69 102.577 199.338 102.402 200.077 102.402C200.816 102.402 201.462 102.577 202.016 102.929C202.573 103.28 203.007 103.774 203.316 104.41C203.628 105.045 203.784 105.789 203.784 106.642C203.784 107.487 203.628 108.225 203.316 108.858C203.007 109.49 202.573 109.981 202.016 110.333C201.462 110.685 200.816 110.86 200.077 110.86ZM200.077 109.731C200.638 109.731 201.1 109.587 201.462 109.3C201.824 109.012 202.092 108.634 202.266 108.165C202.44 107.696 202.527 107.189 202.527 106.642C202.527 106.095 202.44 105.585 202.266 105.113C202.092 104.641 201.824 104.259 201.462 103.968C201.1 103.676 200.638 103.531 200.077 103.531C199.516 103.531 199.054 103.676 198.692 103.968C198.33 104.259 198.062 104.641 197.888 105.113C197.714 105.585 197.627 106.095 197.627 106.642C197.627 107.189 197.714 107.696 197.888 108.165C198.062 108.634 198.33 109.012 198.692 109.3C199.054 109.587 199.516 109.731 200.077 109.731ZM205.703 110.69V102.508H206.918V103.787H207.024C207.195 103.35 207.47 103.011 207.85 102.769C208.23 102.524 208.686 102.402 209.219 102.402C209.759 102.402 210.208 102.524 210.567 102.769C210.929 103.011 211.211 103.35 211.414 103.787H211.499C211.708 103.364 212.023 103.028 212.442 102.78C212.861 102.528 213.363 102.402 213.949 102.402C214.681 102.402 215.279 102.631 215.744 103.089C216.209 103.543 216.442 104.252 216.442 105.214V110.69H215.185V105.214C215.185 104.61 215.02 104.179 214.689 103.92C214.359 103.66 213.97 103.531 213.523 103.531C212.948 103.531 212.502 103.705 212.186 104.053C211.87 104.397 211.712 104.834 211.712 105.363V110.69H210.433V105.086C210.433 104.621 210.282 104.246 209.981 103.962C209.679 103.675 209.29 103.531 208.814 103.531C208.487 103.531 208.182 103.618 207.898 103.792C207.617 103.966 207.39 104.207 207.216 104.516C207.046 104.822 206.96 105.175 206.96 105.576V110.69H205.703ZM222.171 110.86C221.382 110.86 220.702 110.686 220.131 110.338C219.562 109.987 219.124 109.497 218.815 108.868C218.51 108.236 218.357 107.501 218.357 106.663C218.357 105.825 218.51 105.086 218.815 104.447C219.124 103.804 219.554 103.304 220.104 102.945C220.658 102.583 221.304 102.402 222.043 102.402C222.469 102.402 222.89 102.473 223.305 102.615C223.721 102.757 224.099 102.988 224.44 103.307C224.781 103.623 225.053 104.042 225.255 104.564C225.457 105.086 225.559 105.729 225.559 106.492V107.025H219.252V105.939H224.28C224.28 105.477 224.188 105.065 224.003 104.703C223.822 104.341 223.563 104.055 223.225 103.845C222.892 103.636 222.498 103.531 222.043 103.531C221.542 103.531 221.109 103.655 220.743 103.904C220.381 104.149 220.102 104.468 219.907 104.863C219.712 105.257 219.614 105.679 219.614 106.13V106.855C219.614 107.473 219.721 107.996 219.934 108.426C220.15 108.852 220.45 109.177 220.834 109.401C221.217 109.621 221.663 109.731 222.171 109.731C222.501 109.731 222.799 109.685 223.066 109.593C223.336 109.497 223.568 109.355 223.763 109.167C223.959 108.975 224.11 108.737 224.216 108.453L225.431 108.794C225.303 109.206 225.088 109.568 224.786 109.88C224.484 110.189 224.112 110.431 223.668 110.605C223.224 110.775 222.725 110.86 222.171 110.86ZM227.471 110.69V102.508H228.685V103.744H228.771C228.92 103.339 229.19 103.011 229.58 102.758C229.971 102.506 230.411 102.38 230.901 102.38C230.994 102.38 231.109 102.382 231.248 102.386C231.386 102.389 231.491 102.394 231.562 102.402V103.68C231.519 103.669 231.422 103.653 231.269 103.632C231.12 103.607 230.962 103.595 230.795 103.595C230.397 103.595 230.042 103.678 229.729 103.845C229.42 104.008 229.175 104.236 228.994 104.527C228.817 104.815 228.728 105.143 228.728 105.512V110.69H227.471ZM238.847 104.341L237.718 104.66C237.647 104.472 237.542 104.289 237.404 104.111C237.269 103.93 237.084 103.781 236.85 103.664C236.616 103.547 236.315 103.488 235.95 103.488C235.449 103.488 235.032 103.604 234.698 103.834C234.368 104.062 234.203 104.351 234.203 104.703C234.203 105.015 234.316 105.262 234.543 105.443C234.771 105.624 235.126 105.775 235.609 105.896L236.823 106.194C237.555 106.372 238.1 106.643 238.459 107.009C238.817 107.371 238.997 107.838 238.997 108.41C238.997 108.879 238.862 109.298 238.592 109.667C238.325 110.037 237.953 110.328 237.473 110.541C236.994 110.754 236.436 110.86 235.801 110.86C234.966 110.86 234.275 110.679 233.728 110.317C233.182 109.955 232.835 109.426 232.69 108.73L233.883 108.431C233.997 108.872 234.211 109.202 234.527 109.422C234.847 109.642 235.264 109.752 235.779 109.752C236.365 109.752 236.83 109.628 237.175 109.38C237.523 109.127 237.697 108.826 237.697 108.474C237.697 108.19 237.597 107.952 237.399 107.76C237.2 107.565 236.894 107.419 236.482 107.323L235.119 107.004C234.369 106.826 233.819 106.551 233.467 106.178C233.119 105.802 232.945 105.331 232.945 104.767C232.945 104.305 233.075 103.897 233.334 103.542C233.597 103.186 233.954 102.908 234.405 102.705C234.859 102.503 235.374 102.402 235.95 102.402C236.759 102.402 237.395 102.579 237.857 102.934C238.322 103.289 238.652 103.758 238.847 104.341ZM110.165 125.19H108.844C108.766 124.81 108.629 124.476 108.434 124.189C108.242 123.901 108.008 123.659 107.731 123.464C107.457 123.265 107.153 123.116 106.82 123.017C106.486 122.917 106.138 122.867 105.776 122.867C105.115 122.867 104.517 123.034 103.981 123.368C103.448 123.702 103.024 124.194 102.707 124.844C102.395 125.494 102.239 126.291 102.239 127.235C102.239 128.18 102.395 128.977 102.707 129.627C103.024 130.277 103.448 130.769 103.981 131.103C104.517 131.436 105.115 131.603 105.776 131.603C106.138 131.603 106.486 131.554 106.82 131.454C107.153 131.355 107.457 131.207 107.731 131.012C108.008 130.813 108.242 130.57 108.434 130.282C108.629 129.991 108.766 129.657 108.844 129.281H110.165C110.065 129.838 109.884 130.337 109.622 130.778C109.359 131.218 109.032 131.593 108.641 131.902C108.251 132.207 107.812 132.44 107.326 132.599C106.843 132.759 106.326 132.839 105.776 132.839C104.845 132.839 104.018 132.612 103.293 132.157C102.569 131.703 101.999 131.056 101.584 130.218C101.168 129.38 100.96 128.386 100.96 127.235C100.96 126.085 101.168 125.091 101.584 124.252C101.999 123.414 102.569 122.768 103.293 122.314C104.018 121.859 104.845 121.632 105.776 121.632C106.326 121.632 106.843 121.712 107.326 121.871C107.812 122.031 108.251 122.266 108.641 122.575C109.032 122.88 109.359 123.253 109.622 123.693C109.884 124.13 110.065 124.629 110.165 125.19ZM115.453 132.86C114.714 132.86 114.066 132.685 113.509 132.333C112.955 131.981 112.521 131.49 112.209 130.858C111.9 130.225 111.746 129.487 111.746 128.642C111.746 127.789 111.9 127.045 112.209 126.41C112.521 125.774 112.955 125.28 113.509 124.929C114.066 124.577 114.714 124.402 115.453 124.402C116.192 124.402 116.838 124.577 117.392 124.929C117.949 125.28 118.383 125.774 118.692 126.41C119.004 127.045 119.16 127.789 119.16 128.642C119.16 129.487 119.004 130.225 118.692 130.858C118.383 131.49 117.949 131.981 117.392 132.333C116.838 132.685 116.192 132.86 115.453 132.86ZM115.453 131.731C116.014 131.731 116.476 131.587 116.838 131.3C117.2 131.012 117.468 130.634 117.642 130.165C117.816 129.696 117.903 129.189 117.903 128.642C117.903 128.095 117.816 127.585 117.642 127.113C117.468 126.641 117.2 126.259 116.838 125.968C116.476 125.676 116.014 125.531 115.453 125.531C114.892 125.531 114.43 125.676 114.068 125.968C113.706 126.259 113.438 126.641 113.264 127.113C113.09 127.585 113.003 128.095 113.003 128.642C113.003 129.189 113.09 129.696 113.264 130.165C113.438 130.634 113.706 131.012 114.068 131.3C114.43 131.587 114.892 131.731 115.453 131.731ZM126.236 129.345V124.508H127.493V132.69H126.236V131.305H126.15C125.959 131.72 125.66 132.074 125.255 132.365C124.851 132.653 124.339 132.796 123.721 132.796C123.21 132.796 122.755 132.685 122.358 132.461C121.96 132.234 121.647 131.893 121.42 131.438C121.193 130.98 121.079 130.403 121.079 129.707V124.508H122.336V129.622C122.336 130.218 122.503 130.694 122.837 131.049C123.174 131.404 123.604 131.582 124.126 131.582C124.439 131.582 124.756 131.502 125.08 131.342C125.406 131.182 125.68 130.937 125.9 130.607C126.124 130.277 126.236 129.856 126.236 129.345ZM131.052 127.768V132.69H129.795V124.508H131.01V125.787H131.116C131.308 125.371 131.599 125.037 131.99 124.785C132.38 124.529 132.885 124.402 133.502 124.402C134.056 124.402 134.541 124.515 134.957 124.742C135.372 124.966 135.695 125.307 135.926 125.765C136.157 126.22 136.272 126.795 136.272 127.491V132.69H135.015V127.576C135.015 126.934 134.848 126.433 134.515 126.074C134.181 125.712 133.723 125.531 133.14 125.531C132.739 125.531 132.38 125.618 132.064 125.792C131.752 125.966 131.505 126.22 131.324 126.554C131.143 126.887 131.052 127.292 131.052 127.768ZM142.128 124.508V125.573H137.888V124.508H142.128ZM139.123 122.548H140.381V130.346C140.381 130.701 140.432 130.968 140.535 131.145C140.642 131.319 140.777 131.436 140.94 131.497C141.107 131.554 141.283 131.582 141.467 131.582C141.606 131.582 141.719 131.575 141.808 131.561C141.897 131.543 141.968 131.529 142.021 131.518L142.277 132.647C142.192 132.679 142.073 132.711 141.92 132.743C141.767 132.779 141.574 132.796 141.339 132.796C140.984 132.796 140.636 132.72 140.295 132.567C139.958 132.415 139.677 132.182 139.454 131.87C139.234 131.557 139.123 131.163 139.123 130.687V122.548ZM144.019 132.69V124.508H145.233V125.744H145.318C145.468 125.339 145.737 125.011 146.128 124.758C146.519 124.506 146.959 124.38 147.449 124.38C147.541 124.38 147.657 124.382 147.795 124.386C147.934 124.389 148.039 124.394 148.11 124.402V125.68C148.067 125.669 147.969 125.653 147.817 125.632C147.668 125.607 147.509 125.595 147.343 125.595C146.945 125.595 146.59 125.678 146.277 125.845C145.968 126.008 145.723 126.236 145.542 126.527C145.365 126.815 145.276 127.143 145.276 127.512V132.69H144.019ZM150.658 135.758C150.445 135.758 150.255 135.74 150.089 135.705C149.922 135.673 149.806 135.641 149.742 135.609L150.062 134.501C150.367 134.579 150.637 134.608 150.872 134.586C151.106 134.565 151.314 134.46 151.495 134.272C151.679 134.087 151.848 133.787 152.001 133.372L152.235 132.733L149.21 124.508H150.573L152.832 131.028H152.917L155.176 124.508H156.539L153.066 133.883C152.91 134.306 152.716 134.655 152.486 134.932C152.255 135.213 151.987 135.421 151.681 135.556C151.379 135.691 151.038 135.758 150.658 135.758ZM158.109 127.427V126.277H164.672V127.427H158.109ZM158.109 130.581V129.43H164.672V130.581H158.109ZM226.856 131.198L226.77 131.774C226.71 132.179 226.618 132.612 226.493 133.073C226.373 133.535 226.247 133.97 226.115 134.379C225.984 134.787 225.876 135.112 225.79 135.353H224.831C224.878 135.126 224.938 134.826 225.013 134.453C225.087 134.08 225.162 133.663 225.236 133.201C225.314 132.743 225.378 132.274 225.428 131.795L225.492 131.198H226.856ZM226.089 126.703C225.826 126.703 225.6 126.609 225.412 126.42C225.224 126.232 225.13 126.007 225.13 125.744C225.13 125.481 225.224 125.256 225.412 125.067C225.6 124.879 225.826 124.785 226.089 124.785C226.351 124.785 226.577 124.879 226.765 125.067C226.953 125.256 227.047 125.481 227.047 125.744C227.047 125.918 227.003 126.078 226.914 126.223C226.829 126.369 226.714 126.486 226.568 126.575C226.426 126.66 226.266 126.703 226.089 126.703Z" fill="black"/>
<path d="M168.572 121.781V125.531H167.4V121.781H168.572ZM170.981 121.781H172.558L176.265 130.836H176.393L180.1 121.781H181.677V132.69H180.441V124.402H180.335L176.926 132.69H175.733L172.324 124.402H172.217V132.69H170.981V121.781ZM187.586 132.86C186.797 132.86 186.117 132.686 185.546 132.338C184.978 131.987 184.539 131.497 184.23 130.868C183.925 130.236 183.772 129.501 183.772 128.663C183.772 127.825 183.925 127.086 184.23 126.447C184.539 125.804 184.969 125.304 185.519 124.945C186.073 124.583 186.719 124.402 187.458 124.402C187.884 124.402 188.305 124.473 188.72 124.615C189.136 124.757 189.514 124.988 189.855 125.307C190.196 125.623 190.468 126.042 190.67 126.564C190.872 127.086 190.974 127.729 190.974 128.492V129.025H184.667V127.939H189.695C189.695 127.477 189.603 127.065 189.418 126.703C189.237 126.341 188.978 126.055 188.641 125.845C188.307 125.636 187.913 125.531 187.458 125.531C186.957 125.531 186.524 125.655 186.158 125.904C185.796 126.149 185.517 126.468 185.322 126.863C185.127 127.257 185.029 127.679 185.029 128.13V128.855C185.029 129.473 185.136 129.996 185.349 130.426C185.565 130.852 185.865 131.177 186.249 131.401C186.632 131.621 187.078 131.731 187.586 131.731C187.916 131.731 188.214 131.685 188.481 131.593C188.751 131.497 188.983 131.355 189.179 131.167C189.374 130.975 189.525 130.737 189.631 130.453L190.846 130.794C190.718 131.206 190.503 131.568 190.201 131.88C189.899 132.189 189.527 132.431 189.083 132.605C188.639 132.775 188.14 132.86 187.586 132.86ZM193.604 124.508L195.564 127.853L197.524 124.508H198.973L196.331 128.599L198.973 132.69H197.524L195.564 129.515L193.604 132.69H192.155L194.754 128.599L192.155 124.508H193.604ZM200.767 132.69V124.508H202.024V132.69H200.767ZM201.406 123.144C201.161 123.144 200.95 123.061 200.772 122.894C200.598 122.727 200.511 122.527 200.511 122.292C200.511 122.058 200.598 121.857 200.772 121.69C200.95 121.523 201.161 121.44 201.406 121.44C201.651 121.44 201.861 121.523 202.035 121.69C202.212 121.857 202.301 122.058 202.301 122.292C202.301 122.527 202.212 122.727 202.035 122.894C201.861 123.061 201.651 123.144 201.406 123.144ZM207.65 132.86C206.883 132.86 206.223 132.679 205.669 132.317C205.115 131.955 204.689 131.456 204.39 130.82C204.092 130.185 203.943 129.458 203.943 128.642C203.943 127.811 204.096 127.077 204.401 126.442C204.71 125.803 205.14 125.304 205.69 124.945C206.244 124.583 206.89 124.402 207.629 124.402C208.204 124.402 208.723 124.508 209.184 124.721C209.646 124.934 210.024 125.233 210.319 125.616C210.614 126 210.797 126.447 210.868 126.958H209.61C209.515 126.586 209.301 126.255 208.971 125.968C208.645 125.676 208.204 125.531 207.65 125.531C207.16 125.531 206.73 125.659 206.361 125.914C205.995 126.167 205.71 126.523 205.504 126.985C205.301 127.443 205.2 127.981 205.2 128.599C205.2 129.231 205.299 129.782 205.498 130.25C205.701 130.719 205.985 131.083 206.35 131.342C206.72 131.602 207.153 131.731 207.65 131.731C207.977 131.731 208.273 131.674 208.54 131.561C208.806 131.447 209.032 131.284 209.216 131.071C209.401 130.858 209.532 130.602 209.61 130.304H210.868C210.797 130.787 210.621 131.222 210.34 131.609C210.063 131.992 209.696 132.298 209.238 132.525C208.783 132.749 208.254 132.86 207.65 132.86ZM216.029 132.86C215.29 132.86 214.642 132.685 214.085 132.333C213.531 131.981 213.098 131.49 212.785 130.858C212.476 130.225 212.322 129.487 212.322 128.642C212.322 127.789 212.476 127.045 212.785 126.41C213.098 125.774 213.531 125.28 214.085 124.929C214.642 124.577 215.29 124.402 216.029 124.402C216.768 124.402 217.414 124.577 217.968 124.929C218.526 125.28 218.959 125.774 219.268 126.41C219.58 127.045 219.737 127.789 219.737 128.642C219.737 129.487 219.58 130.225 219.268 130.858C218.959 131.49 218.526 131.981 217.968 132.333C217.414 132.685 216.768 132.86 216.029 132.86ZM216.029 131.731C216.59 131.731 217.052 131.587 217.414 131.3C217.776 131.012 218.044 130.634 218.218 130.165C218.392 129.696 218.479 129.189 218.479 128.642C218.479 128.095 218.392 127.585 218.218 127.113C218.044 126.641 217.776 126.259 217.414 125.968C217.052 125.676 216.59 125.531 216.029 125.531C215.468 125.531 215.006 125.676 214.644 125.968C214.282 126.259 214.014 126.641 213.84 127.113C213.666 127.585 213.579 128.095 213.579 128.642C213.579 129.189 213.666 129.696 213.84 130.165C214.014 130.634 214.282 131.012 214.644 131.3C215.006 131.587 215.468 131.731 216.029 131.731ZM222.742 121.781V125.531H221.57V121.781H222.742Z" fill="#A52A2A"/>
<path d="M30.9805 296.69V86.6899H22.9805V296.69H30.9805Z" fill="#0D47A1" mask="url(#path-3-inside-1_142_26882)"/>
<rect x="26.9805" y="312.69" width="200" height="43" rx="21.5" fill="#0D47A1"/>
<path d="M80.3904 340.69V330.142H76.8264V328.882H85.4664V330.142H81.9024V340.69H80.3904ZM86.6226 340.69V331.942H87.8466L87.9726 333.526H88.0266C88.3266 332.974 88.6926 332.536 89.1246 332.212C89.5566 331.888 90.0186 331.726 90.5106 331.726C90.8586 331.726 91.1706 331.786 91.4466 331.906L91.1586 333.202C91.0146 333.154 90.8826 333.118 90.7626 333.094C90.6426 333.07 90.4926 333.058 90.3126 333.058C89.9406 333.058 89.5506 333.208 89.1426 333.508C88.7466 333.808 88.3986 334.33 88.0986 335.074V340.69H86.6226ZM93.4639 344.452C93.2719 344.452 93.0859 344.434 92.9059 344.398C92.7379 344.362 92.5819 344.32 92.4379 344.272L92.7259 343.102C92.8219 343.126 92.9299 343.15 93.0499 343.174C93.1699 343.21 93.2839 343.228 93.3919 343.228C93.8839 343.228 94.2919 343.048 94.6159 342.688C94.9399 342.34 95.1919 341.896 95.3719 341.356L95.5699 340.708L92.0599 331.942H93.5899L95.3719 336.784C95.5039 337.156 95.6419 337.558 95.7859 337.99C95.9419 338.422 96.0859 338.842 96.2179 339.25H96.2899C96.4219 338.854 96.5479 338.44 96.6679 338.008C96.7879 337.576 96.9079 337.168 97.0279 336.784L98.5939 331.942H100.034L96.7399 341.41C96.5359 341.986 96.2899 342.502 96.0019 342.958C95.7259 343.414 95.3779 343.774 94.9579 344.038C94.5499 344.314 94.0519 344.452 93.4639 344.452ZM105.326 340.69V331.942H106.802V340.69H105.326ZM106.082 330.142C105.794 330.142 105.554 330.058 105.362 329.89C105.182 329.71 105.092 329.47 105.092 329.17C105.092 328.882 105.182 328.648 105.362 328.468C105.554 328.288 105.794 328.198 106.082 328.198C106.37 328.198 106.604 328.288 106.784 328.468C106.976 328.648 107.072 328.882 107.072 329.17C107.072 329.47 106.976 329.71 106.784 329.89C106.604 330.058 106.37 330.142 106.082 330.142ZM112.509 340.906C111.573 340.906 110.919 340.636 110.547 340.096C110.187 339.556 110.007 338.854 110.007 337.99V333.148H108.711V332.032L110.079 331.942L110.259 329.494H111.501V331.942H113.859V333.148H111.501V338.008C111.501 338.548 111.597 338.968 111.789 339.268C111.993 339.556 112.347 339.7 112.851 339.7C113.007 339.7 113.175 339.676 113.355 339.628C113.535 339.568 113.697 339.514 113.841 339.466L114.129 340.582C113.889 340.666 113.625 340.738 113.337 340.798C113.061 340.87 112.785 340.906 112.509 340.906ZM121.493 340.69V336.118L117.947 328.882H119.549L121.079 332.212C121.271 332.644 121.457 333.07 121.637 333.49C121.829 333.91 122.021 334.342 122.213 334.786H122.285C122.489 334.342 122.693 333.91 122.897 333.49C123.101 333.07 123.293 332.644 123.473 332.212L124.985 328.882H126.551L123.005 336.118V340.69H121.493ZM130.665 340.906C129.957 340.906 129.291 340.726 128.667 340.366C128.055 340.006 127.557 339.484 127.173 338.8C126.801 338.116 126.615 337.294 126.615 336.334C126.615 335.35 126.801 334.516 127.173 333.832C127.557 333.148 128.055 332.626 128.667 332.266C129.291 331.906 129.957 331.726 130.665 331.726C131.385 331.726 132.051 331.906 132.663 332.266C133.275 332.626 133.767 333.148 134.139 333.832C134.523 334.516 134.715 335.35 134.715 336.334C134.715 337.294 134.523 338.116 134.139 338.8C133.767 339.484 133.275 340.006 132.663 340.366C132.051 340.726 131.385 340.906 130.665 340.906ZM130.665 339.682C131.421 339.682 132.027 339.376 132.483 338.764C132.951 338.14 133.185 337.33 133.185 336.334C133.185 335.326 132.951 334.51 132.483 333.886C132.027 333.262 131.421 332.95 130.665 332.95C129.921 332.95 129.315 333.262 128.847 333.886C128.379 334.51 128.145 335.326 128.145 336.334C128.145 337.33 128.379 338.14 128.847 338.764C129.315 339.376 129.921 339.682 130.665 339.682ZM139.575 340.906C138.651 340.906 137.973 340.618 137.541 340.042C137.109 339.454 136.893 338.602 136.893 337.486V331.942H138.387V337.288C138.387 338.104 138.513 338.698 138.765 339.07C139.029 339.442 139.449 339.628 140.025 339.628C140.481 339.628 140.883 339.514 141.231 339.286C141.591 339.046 141.975 338.668 142.383 338.152V331.942H143.859V340.69H142.635L142.509 339.322H142.455C142.047 339.802 141.615 340.186 141.159 340.474C140.703 340.762 140.175 340.906 139.575 340.906ZM146.81 340.69V331.942H148.034L148.16 333.526H148.214C148.514 332.974 148.88 332.536 149.312 332.212C149.744 331.888 150.206 331.726 150.698 331.726C151.046 331.726 151.358 331.786 151.634 331.906L151.346 333.202C151.202 333.154 151.07 333.118 150.95 333.094C150.83 333.07 150.68 333.058 150.5 333.058C150.128 333.058 149.738 333.208 149.33 333.508C148.934 333.808 148.586 334.33 148.286 335.074V340.69H146.81ZM155.266 340.906C154.642 340.906 154.048 340.792 153.484 340.564C152.92 340.324 152.428 340.036 152.008 339.7L152.746 338.71C153.13 339.01 153.526 339.262 153.934 339.466C154.342 339.658 154.804 339.754 155.32 339.754C155.896 339.754 156.328 339.622 156.616 339.358C156.904 339.082 157.048 338.758 157.048 338.386C157.048 338.086 156.946 337.834 156.742 337.63C156.55 337.426 156.298 337.258 155.986 337.126C155.686 336.982 155.374 336.85 155.05 336.73C154.642 336.574 154.24 336.4 153.844 336.208C153.448 336.004 153.124 335.746 152.872 335.434C152.62 335.11 152.494 334.702 152.494 334.21C152.494 333.502 152.758 332.914 153.286 332.446C153.826 331.966 154.57 331.726 155.518 331.726C156.058 331.726 156.562 331.822 157.03 332.014C157.498 332.206 157.9 332.44 158.236 332.716L157.516 333.652C157.216 333.424 156.904 333.238 156.58 333.094C156.256 332.95 155.902 332.878 155.518 332.878C154.966 332.878 154.558 333.004 154.294 333.256C154.042 333.508 153.916 333.802 153.916 334.138C153.916 334.414 154.006 334.642 154.186 334.822C154.366 334.99 154.6 335.14 154.888 335.272C155.176 335.392 155.482 335.518 155.806 335.65C156.226 335.806 156.64 335.986 157.048 336.19C157.456 336.382 157.792 336.646 158.056 336.982C158.332 337.306 158.47 337.744 158.47 338.296C158.47 338.764 158.344 339.196 158.092 339.592C157.852 339.988 157.492 340.306 157.012 340.546C156.544 340.786 155.962 340.906 155.266 340.906ZM164.067 340.906C163.287 340.906 162.579 340.726 161.943 340.366C161.307 339.994 160.803 339.466 160.431 338.782C160.059 338.098 159.873 337.282 159.873 336.334C159.873 335.374 160.059 334.552 160.431 333.868C160.815 333.184 161.307 332.656 161.907 332.284C162.507 331.912 163.137 331.726 163.797 331.726C164.913 331.726 165.771 332.098 166.371 332.842C166.983 333.586 167.289 334.582 167.289 335.83C167.289 335.986 167.283 336.142 167.271 336.298C167.271 336.442 167.259 336.568 167.235 336.676H161.331C161.391 337.6 161.679 338.338 162.195 338.89C162.723 339.442 163.407 339.718 164.247 339.718C164.667 339.718 165.051 339.658 165.399 339.538C165.759 339.406 166.101 339.238 166.425 339.034L166.947 340.006C166.575 340.246 166.149 340.456 165.669 340.636C165.201 340.816 164.667 340.906 164.067 340.906ZM161.313 335.614H165.993C165.993 334.726 165.801 334.054 165.417 333.598C165.045 333.13 164.517 332.896 163.833 332.896C163.221 332.896 162.669 333.136 162.177 333.616C161.697 334.084 161.409 334.75 161.313 335.614ZM171.017 340.906C170.465 340.906 170.063 340.738 169.811 340.402C169.571 340.054 169.451 339.562 169.451 338.926V327.874H170.927V339.034C170.927 339.262 170.969 339.43 171.053 339.538C171.137 339.634 171.233 339.682 171.341 339.682C171.389 339.682 171.431 339.682 171.467 339.682C171.515 339.67 171.581 339.658 171.665 339.646L171.863 340.762C171.767 340.81 171.653 340.846 171.521 340.87C171.389 340.894 171.221 340.906 171.017 340.906ZM174.291 340.69V333.148H173.103V332.032L174.291 331.942V330.556C174.291 329.668 174.495 328.966 174.903 328.45C175.323 327.922 175.971 327.658 176.847 327.658C177.123 327.658 177.387 327.688 177.639 327.748C177.891 327.796 178.113 327.862 178.305 327.946L177.981 329.08C177.657 328.936 177.327 328.864 176.991 328.864C176.175 328.864 175.767 329.428 175.767 330.556V331.942H177.621V333.148H175.767V340.69H174.291Z" fill="white"/>
</g>
<defs>
<filter id="filter0_dd_142_26882" x="0.980469" y="0.689941" width="635.98" height="383" filterUnits="userSpaceOnUse" color-interpolation-filters="sRGB">
<feFlood flood-opacity="0" result="BackgroundImageFix"/>
<feColorMatrix in="SourceAlpha" type="matrix" values="0 0 0 0 0 0 0 0 0 0 0 0 0 0 0 0 0 0 127 0" result="hardAlpha"/>
<feOffset dy="2"/>
<feGaussianBlur stdDeviation="5"/>
<feComposite in2="hardAlpha" operator="out"/>
<feColorMatrix type="matrix" values="0 0 0 0 0 0 0 0 0 0 0 0 0 0 0 0 0 0 0.12 0"/>
<feBlend mode="normal" in2="BackgroundImageFix" result="effect1_dropShadow_142_26882"/>
<feColorMatrix in="SourceAlpha" type="matrix" values="0 0 0 0 0 0 0 0 0 0 0 0 0 0 0 0 0 0 127 0" result="hardAlpha"/>
<feOffset dy="2"/>
<feGaussianBlur stdDeviation="2.5"/>
<feComposite in2="hardAlpha" operator="out"/>
<feColorMatrix type="matrix" values="0 0 0 0 0 0 0 0 0 0 0 0 0 0 0 0 0 0 0.16 0"/>
<feBlend mode="normal" in2="effect1_dropShadow_142_26882" result="effect2_dropShadow_142_26882"/>
<feBlend mode="normal" in="SourceGraphic" in2="effect2_dropShadow_142_26882" result="shape"/>
</filter>
</defs>
</svg>
