<svg width="637" height="384" viewBox="0 0 637 384" fill="none" xmlns="http://www.w3.org/2000/svg">
<g filter="url(#filter0_dd_142_26865)">
<rect x="10.9805" y="8.09009" width="615.98" height="363" rx="5" fill="#E7E9EB" shape-rendering="crispEdges"/>
<path d="M29.1405 60.0901V44.3461H33.6285C34.8125 44.3461 35.8445 44.4901 36.7245 44.7781C37.6045 45.0661 38.2925 45.5541 38.7885 46.2421C39.2845 46.9141 39.5325 47.8261 39.5325 48.9781C39.5325 50.6261 38.9965 51.8501 37.9245 52.6501C36.8525 53.4501 35.4525 53.8501 33.7245 53.8501H31.1325V60.0901H29.1405ZM31.1325 52.2181H33.4845C34.8605 52.2181 35.8765 51.9621 36.5325 51.4501C37.2045 50.9221 37.5405 50.0981 37.5405 48.9781C37.5405 47.8421 37.1885 47.0581 36.4845 46.6261C35.7965 46.1781 34.7645 45.9541 33.3885 45.9541H31.1325V52.2181ZM42.7342 65.1061C42.4782 65.1061 42.2302 65.0821 41.9902 65.0341C41.7662 64.9861 41.5582 64.9301 41.3662 64.8661L41.7502 63.3061C41.8782 63.3381 42.0222 63.3701 42.1822 63.4021C42.3422 63.4501 42.4942 63.4741 42.6382 63.4741C43.2942 63.4741 43.8382 63.2341 44.2702 62.7541C44.7022 62.2901 45.0382 61.6981 45.2782 60.9781L45.5422 60.1141L40.8622 48.4261H42.9022L45.2782 54.8821C45.4542 55.3781 45.6382 55.9141 45.8302 56.4901C46.0382 57.0661 46.2302 57.6261 46.4062 58.1701H46.5022C46.6782 57.6421 46.8462 57.0901 47.0062 56.5141C47.1662 55.9381 47.3262 55.3941 47.4862 54.8821L49.5742 48.4261H51.4942L47.1022 61.0501C46.8302 61.8181 46.5022 62.5061 46.1182 63.1141C45.7502 63.7221 45.2862 64.2021 44.7262 64.5541C44.1822 64.9221 43.5182 65.1061 42.7342 65.1061ZM57.4173 60.3781C56.1693 60.3781 55.2973 60.0181 54.8013 59.2981C54.3213 58.5781 54.0813 57.6421 54.0813 56.4901V50.0341H52.3533V48.5461L54.1773 48.4261L54.4173 45.1621H56.0733V48.4261H59.2173V50.0341H56.0733V56.5141C56.0733 57.2341 56.2013 57.7941 56.4573 58.1941C56.7293 58.5781 57.2013 58.7701 57.8733 58.7701C58.0813 58.7701 58.3053 58.7381 58.5453 58.6741C58.7853 58.5941 59.0013 58.5221 59.1933 58.4581L59.5773 59.9461C59.2573 60.0581 58.9053 60.1541 58.5213 60.2341C58.1533 60.3301 57.7853 60.3781 57.4173 60.3781ZM61.8547 60.0901V43.0021H63.8227V47.6581L63.7507 50.0581C64.3107 49.5301 64.8947 49.0821 65.5027 48.7141C66.1267 48.3301 66.8387 48.1381 67.6387 48.1381C68.8707 48.1381 69.7667 48.5301 70.3267 49.3141C70.9027 50.0821 71.1907 51.2101 71.1907 52.6981V60.0901H69.2227V52.9621C69.2227 51.8741 69.0467 51.0821 68.6947 50.5861C68.3427 50.0901 67.7827 49.8421 67.0147 49.8421C66.4227 49.8421 65.8867 49.9941 65.4067 50.2981C64.9427 50.6021 64.4147 51.0501 63.8227 51.6421V60.0901H61.8547ZM79.4454 60.3781C78.5014 60.3781 77.6134 60.1381 76.7814 59.6581C75.9654 59.1781 75.3014 58.4821 74.7894 57.5701C74.2934 56.6581 74.0454 55.5621 74.0454 54.2821C74.0454 52.9701 74.2934 51.8581 74.7894 50.9461C75.3014 50.0341 75.9654 49.3381 76.7814 48.8581C77.6134 48.3781 78.5014 48.1381 79.4454 48.1381C80.4054 48.1381 81.2934 48.3781 82.1094 48.8581C82.9254 49.3381 83.5814 50.0341 84.0774 50.9461C84.5894 51.8581 84.8454 52.9701 84.8454 54.2821C84.8454 55.5621 84.5894 56.6581 84.0774 57.5701C83.5814 58.4821 82.9254 59.1781 82.1094 59.6581C81.2934 60.1381 80.4054 60.3781 79.4454 60.3781ZM79.4454 58.7461C80.4534 58.7461 81.2614 58.3381 81.8694 57.5221C82.4934 56.6901 82.8054 55.6101 82.8054 54.2821C82.8054 52.9381 82.4934 51.8501 81.8694 51.0181C81.2614 50.1861 80.4534 49.7701 79.4454 49.7701C78.4534 49.7701 77.6454 50.1861 77.0214 51.0181C76.3974 51.8501 76.0854 52.9381 76.0854 54.2821C76.0854 55.6101 76.3974 56.6901 77.0214 57.5221C77.6454 58.3381 78.4534 58.7461 79.4454 58.7461ZM87.9172 60.0901V48.4261H89.5492L89.7172 50.1061H89.7892C90.3492 49.5461 90.9412 49.0821 91.5652 48.7141C92.1892 48.3301 92.9012 48.1381 93.7012 48.1381C94.9332 48.1381 95.8292 48.5301 96.3892 49.3141C96.9652 50.0821 97.2532 51.2101 97.2532 52.6981V60.0901H95.2852V52.9621C95.2852 51.8741 95.1092 51.0821 94.7572 50.5861C94.4052 50.0901 93.8452 49.8421 93.0772 49.8421C92.4852 49.8421 91.9492 49.9941 91.4692 50.2981C91.0052 50.6021 90.4772 51.0501 89.8852 51.6421V60.0901H87.9172ZM106.039 60.0901V44.3461H115.111V46.0261H108.031V50.9701H114.007V52.6741H108.031V58.3861H115.351V60.0901H106.039ZM116.121 60.0901L119.937 53.9941L116.409 48.4261H118.545L120.105 50.9941C120.281 51.2981 120.465 51.6181 120.657 51.9541C120.849 52.2901 121.049 52.6181 121.257 52.9381H121.353C121.529 52.6181 121.705 52.2901 121.881 51.9541C122.057 51.6181 122.233 51.2981 122.409 50.9941L123.825 48.4261H125.889L122.361 54.2101L126.153 60.0901H124.017L122.313 57.3781C122.105 57.0261 121.897 56.6741 121.689 56.3221C121.481 55.9701 121.265 55.6261 121.041 55.2901H120.945C120.737 55.6261 120.537 55.9701 120.345 56.3221C120.153 56.6581 119.961 57.0101 119.769 57.3781L118.185 60.0901H116.121ZM130.918 60.3781C129.942 60.3781 129.126 60.0901 128.47 59.5141C127.83 58.9221 127.51 58.1061 127.51 57.0661C127.51 55.7861 128.078 54.8101 129.214 54.1381C130.366 53.4501 132.182 52.9701 134.662 52.6981C134.662 52.2021 134.59 51.7301 134.446 51.2821C134.318 50.8341 134.078 50.4741 133.726 50.2021C133.39 49.9141 132.902 49.7701 132.262 49.7701C131.59 49.7701 130.958 49.8981 130.366 50.1541C129.774 50.4101 129.246 50.6981 128.782 51.0181L128.014 49.6501C128.558 49.2981 129.222 48.9621 130.006 48.6421C130.806 48.3061 131.67 48.1381 132.598 48.1381C134.022 48.1381 135.054 48.5781 135.694 49.4581C136.334 50.3221 136.654 51.4821 136.654 52.9381V60.0901H135.022L134.854 58.6981H134.782C134.238 59.1461 133.638 59.5381 132.982 59.8741C132.342 60.2101 131.654 60.3781 130.918 60.3781ZM131.494 58.7941C132.054 58.7941 132.582 58.6581 133.078 58.3861C133.574 58.1141 134.102 57.7301 134.662 57.2341V53.9941C132.726 54.2341 131.366 54.5941 130.582 55.0741C129.814 55.5541 129.43 56.1701 129.43 56.9221C129.43 57.5781 129.63 58.0581 130.03 58.3621C130.43 58.6501 130.918 58.7941 131.494 58.7941ZM140.323 60.0901V48.4261H141.955L142.123 50.1061H142.195C142.707 49.5461 143.267 49.0821 143.875 48.7141C144.483 48.3301 145.131 48.1381 145.819 48.1381C146.715 48.1381 147.411 48.3381 147.907 48.7381C148.419 49.1221 148.795 49.6661 149.035 50.3701C149.643 49.7141 150.259 49.1781 150.883 48.7621C151.507 48.3461 152.171 48.1381 152.875 48.1381C154.075 48.1381 154.963 48.5301 155.539 49.3141C156.131 50.0821 156.427 51.2101 156.427 52.6981V60.0901H154.459V52.9621C154.459 51.8741 154.283 51.0821 153.931 50.5861C153.579 50.0901 153.035 49.8421 152.299 49.8421C151.435 49.8421 150.459 50.4421 149.371 51.6421V60.0901H147.403V52.9621C147.403 51.8741 147.227 51.0821 146.875 50.5861C146.523 50.0901 145.971 49.8421 145.219 49.8421C144.355 49.8421 143.379 50.4421 142.291 51.6421V60.0901H140.323ZM160.222 65.0101V48.4261H161.854L162.022 49.7701H162.094C162.622 49.3221 163.198 48.9381 163.822 48.6181C164.462 48.2981 165.126 48.1381 165.814 48.1381C167.318 48.1381 168.462 48.6821 169.246 49.7701C170.03 50.8421 170.422 52.2821 170.422 54.0901C170.422 55.4021 170.182 56.5301 169.702 57.4741C169.238 58.4181 168.622 59.1381 167.854 59.6341C167.102 60.1301 166.278 60.3781 165.382 60.3781C164.838 60.3781 164.294 60.2581 163.75 60.0181C163.222 59.7781 162.686 59.4501 162.142 59.0341L162.19 61.0741V65.0101H160.222ZM165.046 58.7221C166.006 58.7221 166.798 58.3141 167.422 57.4981C168.062 56.6661 168.382 55.5301 168.382 54.0901C168.382 52.8101 168.142 51.7781 167.662 50.9941C167.198 50.1941 166.414 49.7941 165.31 49.7941C164.814 49.7941 164.31 49.9301 163.798 50.2021C163.302 50.4741 162.766 50.8661 162.19 51.3781V57.4981C162.718 57.9461 163.23 58.2661 163.726 58.4581C164.222 58.6341 164.662 58.7221 165.046 58.7221ZM175.622 60.3781C174.886 60.3781 174.35 60.1541 174.014 59.7061C173.694 59.2421 173.534 58.5861 173.534 57.7381V43.0021H175.502V57.8821C175.502 58.1861 175.558 58.4101 175.67 58.5541C175.782 58.6821 175.91 58.7461 176.054 58.7461C176.118 58.7461 176.174 58.7461 176.222 58.7461C176.286 58.7301 176.374 58.7141 176.486 58.6981L176.75 60.1861C176.622 60.2501 176.47 60.2981 176.294 60.3301C176.118 60.3621 175.894 60.3781 175.622 60.3781ZM184.38 60.3781C183.34 60.3781 182.396 60.1381 181.548 59.6581C180.7 59.1621 180.028 58.4581 179.532 57.5461C179.036 56.6341 178.788 55.5461 178.788 54.2821C178.788 53.0021 179.036 51.9061 179.532 50.9941C180.044 50.0821 180.7 49.3781 181.5 48.8821C182.3 48.3861 183.14 48.1381 184.02 48.1381C185.508 48.1381 186.652 48.6341 187.452 49.6261C188.268 50.6181 188.676 51.9461 188.676 53.6101C188.676 53.8181 188.668 54.0261 188.652 54.2341C188.652 54.4261 188.636 54.5941 188.604 54.7381H180.732C180.812 55.9701 181.196 56.9541 181.884 57.6901C182.588 58.4261 183.5 58.7941 184.62 58.7941C185.18 58.7941 185.692 58.7141 186.156 58.5541C186.636 58.3781 187.092 58.1541 187.524 57.8821L188.22 59.1781C187.724 59.4981 187.156 59.7781 186.516 60.0181C185.892 60.2581 185.18 60.3781 184.38 60.3781ZM180.708 53.3221H186.948C186.948 52.1381 186.692 51.2421 186.18 50.6341C185.684 50.0101 184.98 49.6981 184.068 49.6981C183.252 49.6981 182.516 50.0181 181.86 50.6581C181.22 51.2821 180.836 52.1701 180.708 53.3221ZM192.59 51.7141C192.19 51.7141 191.846 51.5781 191.558 51.3061C191.286 51.0181 191.15 50.6581 191.15 50.2261C191.15 49.7621 191.286 49.3941 191.558 49.1221C191.846 48.8341 192.19 48.6901 192.59 48.6901C192.974 48.6901 193.302 48.8341 193.574 49.1221C193.862 49.3941 194.006 49.7621 194.006 50.2261C194.006 50.6581 193.862 51.0181 193.574 51.3061C193.302 51.5781 192.974 51.7141 192.59 51.7141ZM192.59 60.3781C192.19 60.3781 191.846 60.2421 191.558 59.9701C191.286 59.6821 191.15 59.3221 191.15 58.8901C191.15 58.4261 191.286 58.0581 191.558 57.7861C191.846 57.4981 192.19 57.3541 192.59 57.3541C192.974 57.3541 193.302 57.4981 193.574 57.7861C193.862 58.0581 194.006 58.4261 194.006 58.8901C194.006 59.3221 193.862 59.6821 193.574 59.9701C193.302 60.2421 192.974 60.3781 192.59 60.3781Z" fill="black"/>
<mask id="path-3-inside-1_142_26865" fill="white">
<path d="M26.9805 86.0901H610.96V296.09H26.9805V86.0901Z"/>
</mask>
<path d="M26.9805 86.0901H610.96V296.09H26.9805V86.0901Z" fill="white"/>
<path d="M44.131 110.09V101.908H45.3881V110.09H44.131ZM44.7702 100.545C44.5252 100.545 44.3139 100.461 44.1364 100.294C43.9624 100.127 43.8754 99.9267 43.8754 99.6924C43.8754 99.458 43.9624 99.2573 44.1364 99.0904C44.3139 98.9235 44.5252 98.8401 44.7702 98.8401C45.0153 98.8401 45.2248 98.9235 45.3988 99.0904C45.5763 99.2573 45.6651 99.458 45.6651 99.6924C45.6651 99.9267 45.5763 100.127 45.3988 100.294C45.2248 100.461 45.0153 100.545 44.7702 100.545ZM51.3341 101.908V102.974H46.9236V101.908H51.3341ZM48.2446 110.09V100.779C48.2446 100.31 48.3547 99.9196 48.5748 99.6071C48.795 99.2946 49.0809 99.0603 49.4324 98.904C49.784 98.7478 50.1551 98.6696 50.5457 98.6696C50.8547 98.6696 51.1068 98.6945 51.3021 98.7442C51.4974 98.7939 51.643 98.8401 51.7389 98.8827L51.3767 99.9693C51.3128 99.948 51.224 99.9214 51.1104 99.8894C51.0003 99.8575 50.8547 99.8415 50.6736 99.8415C50.2581 99.8415 49.958 99.9463 49.7733 100.156C49.5922 100.365 49.5017 100.672 49.5017 101.077V110.09H48.2446Z" fill="#0000CD"/>
<path d="M77.8824 106.255L71.0216 109.749V108.386L76.2844 105.85L76.2417 105.935V105.722L76.2844 105.807L71.0216 103.272V101.908L77.8824 105.403V106.255ZM94.764 110.175C94.5012 110.175 94.2757 110.081 94.0875 109.893C93.8993 109.705 93.8052 109.479 93.8052 109.217C93.8052 108.954 93.8993 108.728 94.0875 108.54C94.2757 108.352 94.5012 108.258 94.764 108.258C95.0268 108.258 95.2523 108.352 95.4405 108.54C95.6287 108.728 95.7228 108.954 95.7228 109.217C95.7228 109.391 95.6784 109.55 95.5897 109.696C95.5044 109.842 95.389 109.959 95.2434 110.047C95.1014 110.133 94.9416 110.175 94.764 110.175ZM94.764 104.103C94.5012 104.103 94.2757 104.009 94.0875 103.821C93.8993 103.632 93.8052 103.407 93.8052 103.144C93.8052 102.881 93.8993 102.656 94.0875 102.468C94.2757 102.279 94.5012 102.185 94.764 102.185C95.0268 102.185 95.2523 102.279 95.4405 102.468C95.6287 102.656 95.7228 102.881 95.7228 103.144C95.7228 103.318 95.6784 103.478 95.5897 103.623C95.5044 103.769 95.389 103.886 95.2434 103.975C95.1014 104.06 94.9416 104.103 94.764 104.103ZM52.5685 135.158V123.908H53.783V125.208H53.9322C54.0245 125.066 54.1523 124.885 54.3157 124.665C54.4826 124.441 54.7205 124.242 55.0295 124.068C55.342 123.891 55.7646 123.802 56.2972 123.802C56.9862 123.802 57.5934 123.974 58.119 124.318C58.6445 124.663 59.0547 125.151 59.3494 125.783C59.6442 126.415 59.7915 127.161 59.7915 128.02C59.7915 128.887 59.6442 129.638 59.3494 130.274C59.0547 130.906 58.6463 131.396 58.1243 131.744C57.6023 132.088 57.0004 132.261 56.3185 132.261C55.793 132.261 55.3722 132.174 55.0561 132C54.7401 131.822 54.4968 131.621 54.3263 131.398C54.1559 131.17 54.0245 130.982 53.9322 130.833H53.8256V135.158H52.5685ZM53.8043 127.999C53.8043 128.617 53.8949 129.162 54.076 129.634C54.2571 130.103 54.5217 130.471 54.8697 130.737C55.2177 131 55.6438 131.131 56.1481 131.131C56.6737 131.131 57.1122 130.993 57.4638 130.716C57.8189 130.435 58.0852 130.059 58.2628 129.587C58.4439 129.111 58.5344 128.582 58.5344 127.999C58.5344 127.424 58.4457 126.905 58.2681 126.444C58.0941 125.979 57.8295 125.611 57.4744 125.341C57.1229 125.068 56.6808 124.931 56.1481 124.931C55.6367 124.931 55.207 125.061 54.859 125.32C54.511 125.576 54.2482 125.934 54.0707 126.396C53.8931 126.854 53.8043 127.388 53.8043 127.999ZM61.7092 132.09V123.908H62.9237V125.144H63.0089C63.158 124.739 63.4279 124.411 63.8185 124.159C64.2092 123.906 64.6495 123.78 65.1396 123.78C65.2319 123.78 65.3473 123.782 65.4858 123.786C65.6243 123.789 65.729 123.795 65.8001 123.802V125.08C65.7575 125.069 65.6598 125.054 65.5071 125.032C65.358 125.007 65.1999 124.995 65.033 124.995C64.6353 124.995 64.2802 125.078 63.9677 125.245C63.6587 125.409 63.4137 125.636 63.2326 125.927C63.055 126.215 62.9663 126.543 62.9663 126.913V132.09H61.7092ZM67.2902 132.09V123.908H68.5473V132.09H67.2902ZM67.9294 122.545C67.6844 122.545 67.4731 122.461 67.2955 122.294C67.1215 122.127 67.0345 121.927 67.0345 121.692C67.0345 121.458 67.1215 121.257 67.2955 121.09C67.4731 120.924 67.6844 120.84 67.9294 120.84C68.1744 120.84 68.384 120.924 68.558 121.09C68.7355 121.257 68.8243 121.458 68.8243 121.692C68.8243 121.927 68.7355 122.127 68.558 122.294C68.384 122.461 68.1744 122.545 67.9294 122.545ZM72.1069 127.168V132.09H70.8498V123.908H72.0643V125.187H72.1708C72.3626 124.771 72.6538 124.437 73.0444 124.185C73.435 123.93 73.9393 123.802 74.5572 123.802C75.1112 123.802 75.5959 123.915 76.0114 124.143C76.4268 124.366 76.75 124.707 76.9808 125.165C77.2116 125.62 77.3271 126.195 77.3271 126.891V132.09H76.07V126.976C76.07 126.334 75.9031 125.833 75.5692 125.474C75.2354 125.112 74.7773 124.931 74.195 124.931C73.7937 124.931 73.435 125.018 73.119 125.192C72.8065 125.366 72.5597 125.62 72.3786 125.954C72.1974 126.288 72.1069 126.692 72.1069 127.168ZM83.1824 123.908V124.974H78.9424V123.908H83.1824ZM80.1782 121.948H81.4353V129.746C81.4353 130.101 81.4868 130.368 81.5898 130.545C81.6963 130.719 81.8312 130.837 81.9946 130.897C82.1615 130.954 82.3373 130.982 82.5219 130.982C82.6604 130.982 82.7741 130.975 82.8628 130.961C82.9516 130.943 83.0226 130.929 83.0759 130.918L83.3316 132.047C83.2464 132.079 83.1274 132.111 82.9747 132.143C82.822 132.179 82.6285 132.197 82.3941 132.197C82.039 132.197 81.691 132.12 81.3501 131.968C81.0127 131.815 80.7322 131.582 80.5084 131.27C80.2883 130.957 80.1782 130.563 80.1782 130.087V121.948ZM85.5209 127.488C85.5209 126.145 85.6949 124.911 86.0429 123.786C86.3944 122.656 86.8952 121.618 87.545 120.67H88.653C88.3973 121.021 88.1576 121.454 87.9339 121.969C87.7137 122.481 87.5202 123.044 87.3532 123.658C87.1863 124.269 87.055 124.901 86.9591 125.554C86.8667 126.208 86.8206 126.852 86.8206 127.488C86.8206 128.333 86.9023 129.191 87.0656 130.061C87.229 130.931 87.4491 131.739 87.7261 132.484C88.0031 133.23 88.3121 133.837 88.653 134.306H87.545C86.8952 133.358 86.3944 132.321 86.0429 131.195C85.6949 130.066 85.5209 128.83 85.5209 127.488ZM276.24 127.488C276.24 128.83 276.064 130.066 275.712 131.195C275.364 132.321 274.865 133.358 274.215 134.306H273.107C273.363 133.954 273.601 133.521 273.821 133.006C274.045 132.495 274.24 131.934 274.407 131.323C274.574 130.709 274.704 130.075 274.796 129.421C274.892 128.764 274.94 128.12 274.94 127.488C274.94 126.643 274.858 125.785 274.695 124.915C274.531 124.045 274.311 123.237 274.034 122.491C273.757 121.746 273.448 121.138 273.107 120.67H274.215C274.865 121.618 275.364 122.656 275.712 123.786C276.064 124.911 276.24 126.145 276.24 127.488Z" fill="black"/>
<path d="M60.7024 110.239C60.0774 110.239 59.5146 110.115 59.0138 109.866C58.5131 109.618 58.1119 109.277 57.81 108.844C57.5082 108.41 57.343 107.917 57.3146 107.363H58.593C58.6428 107.856 58.8665 108.265 59.2642 108.588C59.6655 108.908 60.1449 109.067 60.7024 109.067C61.1499 109.067 61.5476 108.963 61.8956 108.753C62.2472 108.544 62.5224 108.256 62.7212 107.89C62.9237 107.521 63.0249 107.104 63.0249 106.638C63.0249 106.163 62.9201 105.738 62.7106 105.365C62.5046 104.989 62.2205 104.692 61.8583 104.476C61.4961 104.259 61.0824 104.149 60.6172 104.145C60.2834 104.142 59.9407 104.193 59.5891 104.3C59.2376 104.403 58.9482 104.536 58.7209 104.699L57.4851 104.55L58.1456 99.181H63.8132V100.353H59.2536L58.87 103.57H58.9339C59.1577 103.393 59.4382 103.245 59.7756 103.128C60.1129 103.011 60.4645 102.952 60.8303 102.952C61.4979 102.952 62.0927 103.112 62.6147 103.432C63.1403 103.748 63.5522 104.181 63.8505 104.731C64.1523 105.282 64.3033 105.91 64.3033 106.617C64.3033 107.313 64.147 107.935 63.8345 108.481C63.5256 109.025 63.0994 109.454 62.5561 109.77C62.0128 110.083 61.3949 110.239 60.7024 110.239ZM84.7445 110.09V109.131L88.3453 105.19C88.7679 104.728 89.1159 104.327 89.3894 103.986C89.6628 103.641 89.8652 103.318 89.9966 103.016C90.1316 102.711 90.199 102.391 90.199 102.057C90.199 101.674 90.1067 101.342 89.9221 101.061C89.7409 100.781 89.4924 100.564 89.1763 100.411C88.8603 100.259 88.5051 100.182 88.111 100.182C87.6919 100.182 87.3262 100.269 87.0137 100.443C86.7047 100.614 86.465 100.854 86.2946 101.163C86.1277 101.471 86.0442 101.834 86.0442 102.249H84.7871C84.7871 101.61 84.9345 101.049 85.2292 100.566C85.524 100.083 85.9252 99.7066 86.4331 99.4367C86.9444 99.1668 87.5179 99.0318 88.1536 99.0318C88.7928 99.0318 89.3592 99.1668 89.8528 99.4367C90.3464 99.7066 90.7335 100.071 91.014 100.529C91.2946 100.987 91.4348 101.496 91.4348 102.057C91.4348 102.459 91.362 102.851 91.2164 103.235C91.0744 103.615 90.8258 104.039 90.4707 104.508C90.1191 104.973 89.6309 105.541 89.0059 106.212L86.5556 108.833V108.918H91.6266V110.09H84.7445Z" fill="#FF0000"/>
<path d="M91.5946 121.181V124.931H90.4228V121.181H91.5946ZM94.3219 121.181V124.931H93.15V121.181H94.3219ZM96.7282 132.09V121.181H103.269V122.353H98.0493V126.039H102.779V127.211H98.0493V132.09H96.7282ZM105.362 132.09V123.908H106.619V132.09H105.362ZM106.001 122.545C105.756 122.545 105.544 122.461 105.367 122.294C105.193 122.127 105.106 121.927 105.106 121.692C105.106 121.458 105.193 121.257 105.367 121.09C105.544 120.924 105.756 120.84 106.001 120.84C106.246 120.84 106.455 120.924 106.629 121.09C106.807 121.257 106.896 121.458 106.896 121.692C106.896 121.927 106.807 122.127 106.629 122.294C106.455 122.461 106.246 122.545 106.001 122.545ZM115.611 123.908L112.586 132.09H111.307L108.282 123.908H109.646L111.904 130.428H111.989L114.248 123.908H115.611ZM120.408 132.261C119.62 132.261 118.94 132.087 118.368 131.739C117.8 131.387 117.361 130.897 117.052 130.268C116.747 129.636 116.594 128.901 116.594 128.063C116.594 127.225 116.747 126.486 117.052 125.847C117.361 125.204 117.791 124.704 118.341 124.345C118.895 123.983 119.542 123.802 120.28 123.802C120.706 123.802 121.127 123.873 121.543 124.015C121.958 124.157 122.336 124.388 122.677 124.707C123.018 125.023 123.29 125.442 123.492 125.964C123.695 126.486 123.796 127.129 123.796 127.893V128.425H117.489V127.339H122.517C122.517 126.877 122.425 126.465 122.241 126.103C122.059 125.741 121.8 125.455 121.463 125.245C121.129 125.036 120.735 124.931 120.28 124.931C119.78 124.931 119.346 125.055 118.981 125.304C118.618 125.549 118.34 125.868 118.144 126.263C117.949 126.657 117.851 127.079 117.851 127.53V128.255C117.851 128.873 117.958 129.397 118.171 129.826C118.388 130.252 118.688 130.577 119.071 130.801C119.455 131.021 119.9 131.131 120.408 131.131C120.738 131.131 121.037 131.085 121.303 130.993C121.573 130.897 121.805 130.755 122.001 130.567C122.196 130.375 122.347 130.137 122.454 129.853L123.668 130.194C123.54 130.606 123.325 130.968 123.024 131.28C122.722 131.589 122.349 131.831 121.905 132.005C121.461 132.175 120.962 132.261 120.408 132.261ZM129.927 132.09V123.908H131.184V132.09H129.927ZM130.566 122.545C130.321 122.545 130.11 122.461 129.932 122.294C129.758 122.127 129.671 121.927 129.671 121.692C129.671 121.458 129.758 121.257 129.932 121.09C130.11 120.924 130.321 120.84 130.566 120.84C130.811 120.84 131.021 120.924 131.195 121.09C131.372 121.257 131.461 121.458 131.461 121.692C131.461 121.927 131.372 122.127 131.195 122.294C131.021 122.461 130.811 122.545 130.566 122.545ZM139.282 125.741L138.153 126.06C138.082 125.872 137.977 125.689 137.838 125.512C137.703 125.33 137.519 125.181 137.284 125.064C137.05 124.947 136.75 124.888 136.384 124.888C135.884 124.888 135.466 125.004 135.132 125.235C134.802 125.462 134.637 125.751 134.637 126.103C134.637 126.415 134.751 126.662 134.978 126.843C135.205 127.024 135.56 127.175 136.043 127.296L137.258 127.594C137.989 127.772 138.534 128.044 138.893 128.409C139.252 128.772 139.431 129.239 139.431 129.81C139.431 130.279 139.296 130.698 139.026 131.067C138.76 131.437 138.387 131.728 137.908 131.941C137.428 132.154 136.871 132.261 136.235 132.261C135.401 132.261 134.71 132.079 134.163 131.717C133.616 131.355 133.27 130.826 133.124 130.13L134.317 129.832C134.431 130.272 134.646 130.602 134.962 130.822C135.282 131.043 135.699 131.153 136.214 131.153C136.8 131.153 137.265 131.028 137.609 130.78C137.957 130.528 138.131 130.226 138.131 129.874C138.131 129.59 138.032 129.352 137.833 129.16C137.634 128.965 137.329 128.819 136.917 128.724L135.553 128.404C134.804 128.226 134.254 127.951 133.902 127.578C133.554 127.202 133.38 126.731 133.38 126.167C133.38 125.705 133.51 125.297 133.769 124.942C134.032 124.587 134.388 124.308 134.839 124.105C135.294 123.903 135.809 123.802 136.384 123.802C137.194 123.802 137.83 123.979 138.291 124.334C138.756 124.69 139.087 125.158 139.282 125.741ZM148.845 135.329C148.237 135.329 147.715 135.251 147.279 135.094C146.842 134.942 146.478 134.739 146.187 134.487C145.899 134.239 145.67 133.972 145.5 133.688L146.501 132.985C146.615 133.134 146.758 133.305 146.932 133.496C147.106 133.692 147.344 133.86 147.646 134.002C147.952 134.148 148.351 134.221 148.845 134.221C149.505 134.221 150.05 134.061 150.48 133.741C150.91 133.422 151.125 132.921 151.125 132.239V130.577H151.018C150.926 130.726 150.794 130.911 150.624 131.131C150.457 131.348 150.215 131.541 149.899 131.712C149.587 131.879 149.164 131.962 148.632 131.962C147.971 131.962 147.378 131.806 146.853 131.493C146.331 131.181 145.917 130.726 145.611 130.13C145.31 129.533 145.159 128.809 145.159 127.957C145.159 127.118 145.306 126.389 145.601 125.767C145.896 125.142 146.306 124.659 146.831 124.318C147.357 123.974 147.964 123.802 148.653 123.802C149.186 123.802 149.608 123.891 149.921 124.068C150.237 124.242 150.478 124.441 150.645 124.665C150.816 124.885 150.947 125.066 151.039 125.208H151.167V123.908H152.382V132.324C152.382 133.028 152.222 133.599 151.902 134.04C151.586 134.484 151.16 134.808 150.624 135.014C150.091 135.224 149.498 135.329 148.845 135.329ZM148.802 130.833C149.306 130.833 149.733 130.718 150.081 130.487C150.429 130.256 150.693 129.924 150.874 129.491C151.055 129.057 151.146 128.539 151.146 127.935C151.146 127.346 151.057 126.826 150.88 126.375C150.702 125.924 150.439 125.57 150.091 125.315C149.743 125.059 149.313 124.931 148.802 124.931C148.269 124.931 147.826 125.066 147.47 125.336C147.119 125.606 146.854 125.968 146.677 126.422C146.503 126.877 146.416 127.381 146.416 127.935C146.416 128.503 146.505 129.006 146.682 129.443C146.863 129.876 147.13 130.217 147.481 130.465C147.836 130.71 148.277 130.833 148.802 130.833ZM154.683 132.09V123.908H155.897V125.144H155.983C156.132 124.739 156.402 124.411 156.792 124.159C157.183 123.906 157.623 123.78 158.113 123.78C158.206 123.78 158.321 123.782 158.459 123.786C158.598 123.789 158.703 123.795 158.774 123.802V125.08C158.731 125.069 158.633 125.054 158.481 125.032C158.332 125.007 158.174 124.995 158.007 124.995C157.609 124.995 157.254 125.078 156.941 125.245C156.632 125.409 156.387 125.636 156.206 125.927C156.029 126.215 155.94 126.543 155.94 126.913V132.09H154.683ZM163.445 132.261C162.657 132.261 161.977 132.087 161.405 131.739C160.837 131.387 160.398 130.897 160.089 130.268C159.784 129.636 159.631 128.901 159.631 128.063C159.631 127.225 159.784 126.486 160.089 125.847C160.398 125.204 160.828 124.704 161.378 124.345C161.932 123.983 162.579 123.802 163.317 123.802C163.744 123.802 164.164 123.873 164.58 124.015C164.995 124.157 165.373 124.388 165.714 124.707C166.055 125.023 166.327 125.442 166.529 125.964C166.732 126.486 166.833 127.129 166.833 127.893V128.425H160.526V127.339H165.555C165.555 126.877 165.462 126.465 165.278 126.103C165.097 125.741 164.837 125.455 164.5 125.245C164.166 125.036 163.772 124.931 163.317 124.931C162.817 124.931 162.383 125.055 162.018 125.304C161.655 125.549 161.377 125.868 161.181 126.263C160.986 126.657 160.888 127.079 160.888 127.53V128.255C160.888 128.873 160.995 129.397 161.208 129.826C161.425 130.252 161.725 130.577 162.108 130.801C162.492 131.021 162.937 131.131 163.445 131.131C163.775 131.131 164.074 131.085 164.34 130.993C164.61 130.897 164.843 130.755 165.038 130.567C165.233 130.375 165.384 130.137 165.491 129.853L166.705 130.194C166.577 130.606 166.362 130.968 166.061 131.28C165.759 131.589 165.386 131.831 164.942 132.005C164.498 132.175 163.999 132.261 163.445 132.261ZM171.153 132.282C170.634 132.282 170.164 132.184 169.741 131.989C169.319 131.79 168.983 131.504 168.735 131.131C168.486 130.755 168.362 130.3 168.362 129.768C168.362 129.299 168.454 128.919 168.639 128.628C168.823 128.333 169.07 128.102 169.379 127.935C169.688 127.768 170.029 127.644 170.402 127.562C170.778 127.477 171.157 127.41 171.536 127.36C172.034 127.296 172.437 127.248 172.746 127.216C173.058 127.181 173.285 127.122 173.427 127.04C173.573 126.959 173.646 126.817 173.646 126.614V126.572C173.646 126.046 173.502 125.638 173.214 125.346C172.93 125.055 172.499 124.91 171.92 124.91C171.32 124.91 170.849 125.041 170.508 125.304C170.168 125.567 169.928 125.847 169.789 126.145L168.596 125.719C168.809 125.222 169.093 124.835 169.448 124.558C169.807 124.278 170.198 124.082 170.62 123.972C171.046 123.859 171.465 123.802 171.877 123.802C172.14 123.802 172.442 123.834 172.783 123.898C173.127 123.958 173.459 124.084 173.779 124.276C174.102 124.468 174.37 124.757 174.583 125.144C174.796 125.531 174.903 126.05 174.903 126.699V132.09H173.646V130.982H173.582C173.497 131.16 173.355 131.35 173.156 131.552C172.957 131.755 172.692 131.927 172.362 132.069C172.032 132.211 171.629 132.282 171.153 132.282ZM171.345 131.153C171.842 131.153 172.261 131.055 172.602 130.86C172.946 130.664 173.206 130.412 173.38 130.103C173.557 129.794 173.646 129.469 173.646 129.128V127.978C173.593 128.042 173.475 128.1 173.294 128.154C173.117 128.203 172.911 128.248 172.676 128.287C172.446 128.322 172.22 128.354 172 128.383C171.783 128.408 171.608 128.429 171.473 128.447C171.146 128.489 170.84 128.558 170.556 128.654C170.276 128.747 170.049 128.887 169.875 129.075C169.704 129.26 169.619 129.512 169.619 129.832C169.619 130.268 169.78 130.599 170.104 130.822C170.43 131.043 170.844 131.153 171.345 131.153ZM180.756 123.908V124.974H176.516V123.908H180.756ZM177.751 121.948H179.009V129.746C179.009 130.101 179.06 130.368 179.163 130.545C179.27 130.719 179.404 130.837 179.568 130.897C179.735 130.954 179.911 130.982 180.095 130.982C180.234 130.982 180.347 130.975 180.436 130.961C180.525 130.943 180.596 130.929 180.649 130.918L180.905 132.047C180.82 132.079 180.701 132.111 180.548 132.143C180.395 132.179 180.202 132.197 179.967 132.197C179.612 132.197 179.264 132.12 178.923 131.968C178.586 131.815 178.305 131.582 178.082 131.27C177.862 130.957 177.751 130.563 177.751 130.087V121.948ZM185.989 132.261C185.201 132.261 184.521 132.087 183.949 131.739C183.381 131.387 182.942 130.897 182.633 130.268C182.328 129.636 182.175 128.901 182.175 128.063C182.175 127.225 182.328 126.486 182.633 125.847C182.942 125.204 183.372 124.704 183.922 124.345C184.476 123.983 185.123 123.802 185.861 123.802C186.287 123.802 186.708 123.873 187.124 124.015C187.539 124.157 187.917 124.388 188.258 124.707C188.599 125.023 188.871 125.442 189.073 125.964C189.276 126.486 189.377 127.129 189.377 127.893V128.425H183.07V127.339H188.099C188.099 126.877 188.006 126.465 187.822 126.103C187.64 125.741 187.381 125.455 187.044 125.245C186.71 125.036 186.316 124.931 185.861 124.931C185.361 124.931 184.927 125.055 184.562 125.304C184.199 125.549 183.921 125.868 183.725 126.263C183.53 126.657 183.432 127.079 183.432 127.53V128.255C183.432 128.873 183.539 129.397 183.752 129.826C183.969 130.252 184.269 130.577 184.652 130.801C185.036 131.021 185.481 131.131 185.989 131.131C186.319 131.131 186.618 131.085 186.884 130.993C187.154 130.897 187.387 130.755 187.582 130.567C187.777 130.375 187.928 130.137 188.035 129.853L189.249 130.194C189.121 130.606 188.906 130.968 188.605 131.28C188.303 131.589 187.93 131.831 187.486 132.005C187.042 132.175 186.543 132.261 185.989 132.261ZM191.289 132.09V123.908H192.504V125.144H192.589C192.738 124.739 193.008 124.411 193.399 124.159C193.789 123.906 194.23 123.78 194.72 123.78C194.812 123.78 194.927 123.782 195.066 123.786C195.204 123.789 195.309 123.795 195.38 123.802V125.08C195.338 125.069 195.24 125.054 195.087 125.032C194.938 125.007 194.78 124.995 194.613 124.995C194.215 124.995 193.86 125.078 193.548 125.245C193.239 125.409 192.994 125.636 192.813 125.927C192.635 126.215 192.546 126.543 192.546 126.913V132.09H191.289ZM204.647 123.908V124.974H200.407V123.908H204.647ZM201.643 121.948H202.9V129.746C202.9 130.101 202.952 130.368 203.055 130.545C203.161 130.719 203.296 130.837 203.459 130.897C203.626 130.954 203.802 130.982 203.987 130.982C204.125 130.982 204.239 130.975 204.328 130.961C204.416 130.943 204.487 130.929 204.541 130.918L204.796 132.047C204.711 132.079 204.592 132.111 204.44 132.143C204.287 132.179 204.093 132.197 203.859 132.197C203.504 132.197 203.156 132.12 202.815 131.968C202.478 131.815 202.197 131.582 201.973 131.27C201.753 130.957 201.643 130.563 201.643 130.087V121.948ZM207.971 127.168V132.09H206.714V121.181H207.971V125.187H208.078C208.269 124.764 208.557 124.429 208.941 124.18C209.328 123.928 209.843 123.802 210.485 123.802C211.043 123.802 211.531 123.914 211.95 124.137C212.369 124.357 212.694 124.697 212.925 125.155C213.159 125.609 213.277 126.188 213.277 126.891V132.09H212.019V126.976C212.019 126.327 211.851 125.824 211.513 125.469C211.18 125.11 210.716 124.931 210.123 124.931C209.711 124.931 209.342 125.018 209.015 125.192C208.692 125.366 208.436 125.62 208.248 125.954C208.063 126.288 207.971 126.692 207.971 127.168ZM217.984 132.282C217.466 132.282 216.995 132.184 216.572 131.989C216.15 131.79 215.814 131.504 215.566 131.131C215.317 130.755 215.193 130.3 215.193 129.768C215.193 129.299 215.285 128.919 215.47 128.628C215.654 128.333 215.901 128.102 216.21 127.935C216.519 127.768 216.86 127.644 217.233 127.562C217.609 127.477 217.988 127.41 218.368 127.36C218.865 127.296 219.268 127.248 219.577 127.216C219.889 127.181 220.116 127.122 220.259 127.04C220.404 126.959 220.477 126.817 220.477 126.614V126.572C220.477 126.046 220.333 125.638 220.045 125.346C219.761 125.055 219.33 124.91 218.751 124.91C218.151 124.91 217.68 125.041 217.339 125.304C216.999 125.567 216.759 125.847 216.62 126.145L215.427 125.719C215.64 125.222 215.924 124.835 216.279 124.558C216.638 124.278 217.029 124.082 217.451 123.972C217.877 123.859 218.297 123.802 218.708 123.802C218.971 123.802 219.273 123.834 219.614 123.898C219.958 123.958 220.29 124.084 220.61 124.276C220.933 124.468 221.201 124.757 221.414 125.144C221.627 125.531 221.734 126.05 221.734 126.699V132.09H220.477V130.982H220.413C220.328 131.16 220.186 131.35 219.987 131.552C219.788 131.755 219.523 131.927 219.193 132.069C218.863 132.211 218.46 132.282 217.984 132.282ZM218.176 131.153C218.673 131.153 219.092 131.055 219.433 130.86C219.777 130.664 220.037 130.412 220.211 130.103C220.388 129.794 220.477 129.469 220.477 129.128V127.978C220.424 128.042 220.306 128.1 220.125 128.154C219.948 128.203 219.742 128.248 219.507 128.287C219.277 128.322 219.051 128.354 218.831 128.383C218.614 128.408 218.439 128.429 218.304 128.447C217.977 128.489 217.672 128.558 217.387 128.654C217.107 128.747 216.88 128.887 216.706 129.075C216.535 129.26 216.45 129.512 216.45 129.832C216.45 130.268 216.612 130.599 216.935 130.822C217.261 131.043 217.675 131.153 218.176 131.153ZM225.286 127.168V132.09H224.028V123.908H225.243V125.187H225.35C225.541 124.771 225.832 124.437 226.223 124.185C226.614 123.93 227.118 123.802 227.736 123.802C228.29 123.802 228.775 123.915 229.19 124.143C229.606 124.366 229.929 124.707 230.16 125.165C230.39 125.62 230.506 126.195 230.506 126.891V132.09H229.249V126.976C229.249 126.334 229.082 125.833 228.748 125.474C228.414 125.112 227.956 124.931 227.374 124.931C226.972 124.931 226.614 125.018 226.298 125.192C225.985 125.366 225.738 125.62 225.557 125.954C225.376 126.288 225.286 126.692 225.286 127.168ZM240.58 123.908V124.974H236.34V123.908H240.58ZM237.576 121.948H238.833V129.746C238.833 130.101 238.884 130.368 238.987 130.545C239.094 130.719 239.229 130.837 239.392 130.897C239.559 130.954 239.735 130.982 239.919 130.982C240.058 130.982 240.172 130.975 240.26 130.961C240.349 130.943 240.42 130.929 240.473 130.918L240.729 132.047C240.644 132.079 240.525 132.111 240.372 132.143C240.219 132.179 240.026 132.197 239.792 132.197C239.436 132.197 239.088 132.12 238.748 131.968C238.41 131.815 238.13 131.582 237.906 131.27C237.686 130.957 237.576 130.563 237.576 130.087V121.948ZM244.325 132.09L241.832 123.908H243.153L244.921 130.172H245.006L246.754 123.908H248.096L249.822 130.151H249.907L251.675 123.908H252.996L250.504 132.09H249.268L247.478 125.805H247.35L245.56 132.09H244.325ZM257.704 132.261C256.965 132.261 256.317 132.085 255.76 131.733C255.206 131.382 254.772 130.89 254.46 130.258C254.151 129.626 253.997 128.887 253.997 128.042C253.997 127.19 254.151 126.446 254.46 125.81C254.772 125.174 255.206 124.681 255.76 124.329C256.317 123.978 256.965 123.802 257.704 123.802C258.443 123.802 259.089 123.978 259.643 124.329C260.2 124.681 260.634 125.174 260.943 125.81C261.255 126.446 261.411 127.19 261.411 128.042C261.411 128.887 261.255 129.626 260.943 130.258C260.634 130.89 260.2 131.382 259.643 131.733C259.089 132.085 258.443 132.261 257.704 132.261ZM257.704 131.131C258.265 131.131 258.727 130.987 259.089 130.7C259.451 130.412 259.719 130.034 259.893 129.565C260.067 129.096 260.154 128.589 260.154 128.042C260.154 127.495 260.067 126.985 259.893 126.513C259.719 126.041 259.451 125.659 259.089 125.368C258.727 125.077 258.265 124.931 257.704 124.931C257.143 124.931 256.681 125.077 256.319 125.368C255.957 125.659 255.689 126.041 255.515 126.513C255.341 126.985 255.254 127.495 255.254 128.042C255.254 128.589 255.341 129.096 255.515 129.565C255.689 130.034 255.957 130.412 256.319 130.7C256.681 130.987 257.143 131.131 257.704 131.131ZM264.992 121.181L264.886 129.022H263.65L263.543 121.181H264.992ZM264.268 132.175C264.005 132.175 263.779 132.081 263.591 131.893C263.403 131.705 263.309 131.479 263.309 131.217C263.309 130.954 263.403 130.728 263.591 130.54C263.779 130.352 264.005 130.258 264.268 130.258C264.531 130.258 264.756 130.352 264.944 130.54C265.132 130.728 265.227 130.954 265.227 131.217C265.227 131.391 265.182 131.55 265.093 131.696C265.008 131.842 264.893 131.959 264.747 132.047C264.605 132.133 264.445 132.175 264.268 132.175ZM268.592 121.181V124.931H267.42V121.181H268.592ZM271.319 121.181V124.931H270.147V121.181H271.319Z" fill="#A52A2A"/>
<path d="M30.9805 296.09V86.0901H22.9805V296.09H30.9805Z" fill="#0D47A1" mask="url(#path-3-inside-1_142_26865)"/>
<rect x="26.9805" y="312.09" width="200" height="43" rx="21.5" fill="#0D47A1"/>
<path d="M80.3904 340.09V329.542H76.8264V328.282H85.4664V329.542H81.9024V340.09H80.3904ZM86.6226 340.09V331.342H87.8466L87.9726 332.926H88.0266C88.3266 332.374 88.6926 331.936 89.1246 331.612C89.5566 331.288 90.0186 331.126 90.5106 331.126C90.8586 331.126 91.1706 331.186 91.4466 331.306L91.1586 332.602C91.0146 332.554 90.8826 332.518 90.7626 332.494C90.6426 332.47 90.4926 332.458 90.3126 332.458C89.9406 332.458 89.5506 332.608 89.1426 332.908C88.7466 333.208 88.3986 333.73 88.0986 334.474V340.09H86.6226ZM93.4639 343.852C93.2719 343.852 93.0859 343.834 92.9059 343.798C92.7379 343.762 92.5819 343.72 92.4379 343.672L92.7259 342.502C92.8219 342.526 92.9299 342.55 93.0499 342.574C93.1699 342.61 93.2839 342.628 93.3919 342.628C93.8839 342.628 94.2919 342.448 94.6159 342.088C94.9399 341.74 95.1919 341.296 95.3719 340.756L95.5699 340.108L92.0599 331.342H93.5899L95.3719 336.184C95.5039 336.556 95.6419 336.958 95.7859 337.39C95.9419 337.822 96.0859 338.242 96.2179 338.65H96.2899C96.4219 338.254 96.5479 337.84 96.6679 337.408C96.7879 336.976 96.9079 336.568 97.0279 336.184L98.5939 331.342H100.034L96.7399 340.81C96.5359 341.386 96.2899 341.902 96.0019 342.358C95.7259 342.814 95.3779 343.174 94.9579 343.438C94.5499 343.714 94.0519 343.852 93.4639 343.852ZM105.326 340.09V331.342H106.802V340.09H105.326ZM106.082 329.542C105.794 329.542 105.554 329.458 105.362 329.29C105.182 329.11 105.092 328.87 105.092 328.57C105.092 328.282 105.182 328.048 105.362 327.868C105.554 327.688 105.794 327.598 106.082 327.598C106.37 327.598 106.604 327.688 106.784 327.868C106.976 328.048 107.072 328.282 107.072 328.57C107.072 328.87 106.976 329.11 106.784 329.29C106.604 329.458 106.37 329.542 106.082 329.542ZM112.509 340.306C111.573 340.306 110.919 340.036 110.547 339.496C110.187 338.956 110.007 338.254 110.007 337.39V332.548H108.711V331.432L110.079 331.342L110.259 328.894H111.501V331.342H113.859V332.548H111.501V337.408C111.501 337.948 111.597 338.368 111.789 338.668C111.993 338.956 112.347 339.1 112.851 339.1C113.007 339.1 113.175 339.076 113.355 339.028C113.535 338.968 113.697 338.914 113.841 338.866L114.129 339.982C113.889 340.066 113.625 340.138 113.337 340.198C113.061 340.27 112.785 340.306 112.509 340.306ZM121.493 340.09V335.518L117.947 328.282H119.549L121.079 331.612C121.271 332.044 121.457 332.47 121.637 332.89C121.829 333.31 122.021 333.742 122.213 334.186H122.285C122.489 333.742 122.693 333.31 122.897 332.89C123.101 332.47 123.293 332.044 123.473 331.612L124.985 328.282H126.551L123.005 335.518V340.09H121.493ZM130.665 340.306C129.957 340.306 129.291 340.126 128.667 339.766C128.055 339.406 127.557 338.884 127.173 338.2C126.801 337.516 126.615 336.694 126.615 335.734C126.615 334.75 126.801 333.916 127.173 333.232C127.557 332.548 128.055 332.026 128.667 331.666C129.291 331.306 129.957 331.126 130.665 331.126C131.385 331.126 132.051 331.306 132.663 331.666C133.275 332.026 133.767 332.548 134.139 333.232C134.523 333.916 134.715 334.75 134.715 335.734C134.715 336.694 134.523 337.516 134.139 338.2C133.767 338.884 133.275 339.406 132.663 339.766C132.051 340.126 131.385 340.306 130.665 340.306ZM130.665 339.082C131.421 339.082 132.027 338.776 132.483 338.164C132.951 337.54 133.185 336.73 133.185 335.734C133.185 334.726 132.951 333.91 132.483 333.286C132.027 332.662 131.421 332.35 130.665 332.35C129.921 332.35 129.315 332.662 128.847 333.286C128.379 333.91 128.145 334.726 128.145 335.734C128.145 336.73 128.379 337.54 128.847 338.164C129.315 338.776 129.921 339.082 130.665 339.082ZM139.575 340.306C138.651 340.306 137.973 340.018 137.541 339.442C137.109 338.854 136.893 338.002 136.893 336.886V331.342H138.387V336.688C138.387 337.504 138.513 338.098 138.765 338.47C139.029 338.842 139.449 339.028 140.025 339.028C140.481 339.028 140.883 338.914 141.231 338.686C141.591 338.446 141.975 338.068 142.383 337.552V331.342H143.859V340.09H142.635L142.509 338.722H142.455C142.047 339.202 141.615 339.586 141.159 339.874C140.703 340.162 140.175 340.306 139.575 340.306ZM146.81 340.09V331.342H148.034L148.16 332.926H148.214C148.514 332.374 148.88 331.936 149.312 331.612C149.744 331.288 150.206 331.126 150.698 331.126C151.046 331.126 151.358 331.186 151.634 331.306L151.346 332.602C151.202 332.554 151.07 332.518 150.95 332.494C150.83 332.47 150.68 332.458 150.5 332.458C150.128 332.458 149.738 332.608 149.33 332.908C148.934 333.208 148.586 333.73 148.286 334.474V340.09H146.81ZM155.266 340.306C154.642 340.306 154.048 340.192 153.484 339.964C152.92 339.724 152.428 339.436 152.008 339.1L152.746 338.11C153.13 338.41 153.526 338.662 153.934 338.866C154.342 339.058 154.804 339.154 155.32 339.154C155.896 339.154 156.328 339.022 156.616 338.758C156.904 338.482 157.048 338.158 157.048 337.786C157.048 337.486 156.946 337.234 156.742 337.03C156.55 336.826 156.298 336.658 155.986 336.526C155.686 336.382 155.374 336.25 155.05 336.13C154.642 335.974 154.24 335.8 153.844 335.608C153.448 335.404 153.124 335.146 152.872 334.834C152.62 334.51 152.494 334.102 152.494 333.61C152.494 332.902 152.758 332.314 153.286 331.846C153.826 331.366 154.57 331.126 155.518 331.126C156.058 331.126 156.562 331.222 157.03 331.414C157.498 331.606 157.9 331.84 158.236 332.116L157.516 333.052C157.216 332.824 156.904 332.638 156.58 332.494C156.256 332.35 155.902 332.278 155.518 332.278C154.966 332.278 154.558 332.404 154.294 332.656C154.042 332.908 153.916 333.202 153.916 333.538C153.916 333.814 154.006 334.042 154.186 334.222C154.366 334.39 154.6 334.54 154.888 334.672C155.176 334.792 155.482 334.918 155.806 335.05C156.226 335.206 156.64 335.386 157.048 335.59C157.456 335.782 157.792 336.046 158.056 336.382C158.332 336.706 158.47 337.144 158.47 337.696C158.47 338.164 158.344 338.596 158.092 338.992C157.852 339.388 157.492 339.706 157.012 339.946C156.544 340.186 155.962 340.306 155.266 340.306ZM164.067 340.306C163.287 340.306 162.579 340.126 161.943 339.766C161.307 339.394 160.803 338.866 160.431 338.182C160.059 337.498 159.873 336.682 159.873 335.734C159.873 334.774 160.059 333.952 160.431 333.268C160.815 332.584 161.307 332.056 161.907 331.684C162.507 331.312 163.137 331.126 163.797 331.126C164.913 331.126 165.771 331.498 166.371 332.242C166.983 332.986 167.289 333.982 167.289 335.23C167.289 335.386 167.283 335.542 167.271 335.698C167.271 335.842 167.259 335.968 167.235 336.076H161.331C161.391 337 161.679 337.738 162.195 338.29C162.723 338.842 163.407 339.118 164.247 339.118C164.667 339.118 165.051 339.058 165.399 338.938C165.759 338.806 166.101 338.638 166.425 338.434L166.947 339.406C166.575 339.646 166.149 339.856 165.669 340.036C165.201 340.216 164.667 340.306 164.067 340.306ZM161.313 335.014H165.993C165.993 334.126 165.801 333.454 165.417 332.998C165.045 332.53 164.517 332.296 163.833 332.296C163.221 332.296 162.669 332.536 162.177 333.016C161.697 333.484 161.409 334.15 161.313 335.014ZM171.017 340.306C170.465 340.306 170.063 340.138 169.811 339.802C169.571 339.454 169.451 338.962 169.451 338.326V327.274H170.927V338.434C170.927 338.662 170.969 338.83 171.053 338.938C171.137 339.034 171.233 339.082 171.341 339.082C171.389 339.082 171.431 339.082 171.467 339.082C171.515 339.07 171.581 339.058 171.665 339.046L171.863 340.162C171.767 340.21 171.653 340.246 171.521 340.27C171.389 340.294 171.221 340.306 171.017 340.306ZM174.291 340.09V332.548H173.103V331.432L174.291 331.342V329.956C174.291 329.068 174.495 328.366 174.903 327.85C175.323 327.322 175.971 327.058 176.847 327.058C177.123 327.058 177.387 327.088 177.639 327.148C177.891 327.196 178.113 327.262 178.305 327.346L177.981 328.48C177.657 328.336 177.327 328.264 176.991 328.264C176.175 328.264 175.767 328.828 175.767 329.956V331.342H177.621V332.548H175.767V340.09H174.291Z" fill="white"/>
</g>
<defs>
<filter id="filter0_dd_142_26865" x="0.980469" y="0.0900879" width="635.98" height="383" filterUnits="userSpaceOnUse" color-interpolation-filters="sRGB">
<feFlood flood-opacity="0" result="BackgroundImageFix"/>
<feColorMatrix in="SourceAlpha" type="matrix" values="0 0 0 0 0 0 0 0 0 0 0 0 0 0 0 0 0 0 127 0" result="hardAlpha"/>
<feOffset dy="2"/>
<feGaussianBlur stdDeviation="5"/>
<feComposite in2="hardAlpha" operator="out"/>
<feColorMatrix type="matrix" values="0 0 0 0 0 0 0 0 0 0 0 0 0 0 0 0 0 0 0.12 0"/>
<feBlend mode="normal" in2="BackgroundImageFix" result="effect1_dropShadow_142_26865"/>
<feColorMatrix in="SourceAlpha" type="matrix" values="0 0 0 0 0 0 0 0 0 0 0 0 0 0 0 0 0 0 127 0" result="hardAlpha"/>
<feOffset dy="2"/>
<feGaussianBlur stdDeviation="2.5"/>
<feComposite in2="hardAlpha" operator="out"/>
<feColorMatrix type="matrix" values="0 0 0 0 0 0 0 0 0 0 0 0 0 0 0 0 0 0 0.16 0"/>
<feBlend mode="normal" in2="effect1_dropShadow_142_26865" result="effect2_dropShadow_142_26865"/>
<feBlend mode="normal" in="SourceGraphic" in2="effect2_dropShadow_142_26865" result="shape"/>
</filter>
</defs>
</svg>
