<svg width="637" height="460" viewBox="0 0 637 460" fill="none" xmlns="http://www.w3.org/2000/svg">
<g filter="url(#filter0_dd_142_26827)">
<rect x="10.9805" y="8.5" width="615.98" height="439" rx="5" fill="#E7E9EB" shape-rendering="crispEdges"/>
<path d="M35.0925 60.788C33.7805 60.788 32.6045 60.468 31.5645 59.828C30.5405 59.172 29.7245 58.236 29.1165 57.02C28.5245 55.804 28.2285 54.34 28.2285 52.628C28.2285 50.932 28.5325 49.476 29.1405 48.26C29.7485 47.044 30.5805 46.108 31.6365 45.452C32.6925 44.796 33.8845 44.468 35.2125 44.468C36.1725 44.468 37.0205 44.668 37.7565 45.068C38.4925 45.452 39.0845 45.9 39.5325 46.412L38.4525 47.708C38.0365 47.26 37.5645 46.9 37.0365 46.628C36.5085 46.356 35.9085 46.22 35.2365 46.22C34.2445 46.22 33.3725 46.484 32.6205 47.012C31.8845 47.524 31.3085 48.252 30.8925 49.196C30.4925 50.14 30.2925 51.268 30.2925 52.58C30.2925 53.892 30.4925 55.036 30.8925 56.012C31.2925 56.972 31.8525 57.716 32.5725 58.244C33.3085 58.772 34.1725 59.036 35.1645 59.036C35.9165 59.036 36.5885 58.876 37.1805 58.556C37.7725 58.236 38.3165 57.804 38.8125 57.26L39.9165 58.508C39.2925 59.228 38.5885 59.788 37.8045 60.188C37.0205 60.588 36.1165 60.788 35.0925 60.788ZM46.6335 60.788C45.5295 60.788 44.5055 60.58 43.5615 60.164C42.6175 59.732 41.8015 59.164 41.1135 58.46L42.3135 57.068C42.8735 57.66 43.5295 58.14 44.2815 58.508C45.0495 58.86 45.8415 59.036 46.6575 59.036C47.6975 59.036 48.5055 58.804 49.0815 58.34C49.6575 57.86 49.9455 57.236 49.9455 56.468C49.9455 55.924 49.8255 55.492 49.5855 55.172C49.3615 54.852 49.0495 54.58 48.6495 54.356C48.2655 54.132 47.8255 53.908 47.3295 53.684L45.0735 52.7C44.5775 52.492 44.0815 52.22 43.5855 51.884C43.1055 51.548 42.6975 51.116 42.3615 50.588C42.0415 50.06 41.8815 49.412 41.8815 48.644C41.8815 47.844 42.0895 47.132 42.5055 46.508C42.9375 45.868 43.5295 45.372 44.2815 45.02C45.0335 44.652 45.8815 44.468 46.8255 44.468C47.7695 44.468 48.6415 44.652 49.4415 45.02C50.2415 45.372 50.9215 45.836 51.4815 46.412L50.4015 47.708C49.9215 47.244 49.3855 46.884 48.7935 46.628C48.2175 46.356 47.5615 46.22 46.8255 46.22C45.9455 46.22 45.2335 46.428 44.6895 46.844C44.1615 47.26 43.8975 47.82 43.8975 48.524C43.8975 49.02 44.0255 49.436 44.2815 49.772C44.5535 50.092 44.8895 50.356 45.2895 50.564C45.6895 50.772 46.0975 50.964 46.5135 51.14L48.7455 52.1C49.3535 52.356 49.8975 52.668 50.3775 53.036C50.8735 53.388 51.2655 53.828 51.5535 54.356C51.8415 54.868 51.9855 55.516 51.9855 56.3C51.9855 57.132 51.7695 57.892 51.3375 58.58C50.9055 59.252 50.2895 59.788 49.4895 60.188C48.6895 60.588 47.7375 60.788 46.6335 60.788ZM59.1257 60.788C58.0217 60.788 56.9977 60.58 56.0537 60.164C55.1097 59.732 54.2937 59.164 53.6057 58.46L54.8057 57.068C55.3657 57.66 56.0217 58.14 56.7737 58.508C57.5417 58.86 58.3337 59.036 59.1497 59.036C60.1897 59.036 60.9977 58.804 61.5737 58.34C62.1497 57.86 62.4377 57.236 62.4377 56.468C62.4377 55.924 62.3177 55.492 62.0777 55.172C61.8537 54.852 61.5417 54.58 61.1417 54.356C60.7577 54.132 60.3177 53.908 59.8217 53.684L57.5657 52.7C57.0697 52.492 56.5737 52.22 56.0777 51.884C55.5977 51.548 55.1897 51.116 54.8537 50.588C54.5337 50.06 54.3737 49.412 54.3737 48.644C54.3737 47.844 54.5817 47.132 54.9977 46.508C55.4297 45.868 56.0217 45.372 56.7737 45.02C57.5257 44.652 58.3737 44.468 59.3177 44.468C60.2617 44.468 61.1337 44.652 61.9337 45.02C62.7337 45.372 63.4137 45.836 63.9737 46.412L62.8937 47.708C62.4137 47.244 61.8777 46.884 61.2857 46.628C60.7097 46.356 60.0537 46.22 59.3177 46.22C58.4377 46.22 57.7257 46.428 57.1817 46.844C56.6537 47.26 56.3897 47.82 56.3897 48.524C56.3897 49.02 56.5177 49.436 56.7737 49.772C57.0457 50.092 57.3817 50.356 57.7817 50.564C58.1817 50.772 58.5897 50.964 59.0057 51.14L61.2377 52.1C61.8457 52.356 62.3897 52.668 62.8697 53.036C63.3657 53.388 63.7577 53.828 64.0457 54.356C64.3337 54.868 64.4777 55.516 64.4777 56.3C64.4777 57.132 64.2617 57.892 63.8297 58.58C63.3977 59.252 62.7817 59.788 61.9817 60.188C61.1817 60.588 60.2297 60.788 59.1257 60.788ZM72.3827 60.5V44.756H81.4547V46.436H74.3747V51.38H80.3507V53.084H74.3747V58.796H81.6947V60.5H72.3827ZM82.4649 60.5L86.2809 54.404L82.7529 48.836H84.8889L86.4489 51.404C86.6249 51.708 86.8089 52.028 87.0009 52.364C87.1929 52.7 87.3929 53.028 87.6009 53.348H87.6969C87.8729 53.028 88.0489 52.7 88.2249 52.364C88.4009 52.028 88.5769 51.708 88.7529 51.404L90.1689 48.836H92.2329L88.7049 54.62L92.4969 60.5H90.3609L88.6569 57.788C88.4489 57.436 88.2409 57.084 88.0329 56.732C87.8249 56.38 87.6089 56.036 87.3849 55.7H87.2889C87.0809 56.036 86.8809 56.38 86.6889 56.732C86.4969 57.068 86.3049 57.42 86.1129 57.788L84.5289 60.5H82.4649ZM97.2615 60.788C96.2855 60.788 95.4695 60.5 94.8135 59.924C94.1735 59.332 93.8535 58.516 93.8535 57.476C93.8535 56.196 94.4215 55.22 95.5575 54.548C96.7095 53.86 98.5255 53.38 101.005 53.108C101.005 52.612 100.933 52.14 100.789 51.692C100.661 51.244 100.421 50.884 100.069 50.612C99.7335 50.324 99.2455 50.18 98.6055 50.18C97.9335 50.18 97.3015 50.308 96.7095 50.564C96.1175 50.82 95.5895 51.108 95.1255 51.428L94.3575 50.06C94.9015 49.708 95.5655 49.372 96.3495 49.052C97.1495 48.716 98.0135 48.548 98.9415 48.548C100.365 48.548 101.397 48.988 102.037 49.868C102.677 50.732 102.997 51.892 102.997 53.348V60.5H101.365L101.197 59.108H101.125C100.581 59.556 99.9815 59.948 99.3255 60.284C98.6855 60.62 97.9975 60.788 97.2615 60.788ZM97.8375 59.204C98.3975 59.204 98.9255 59.068 99.4215 58.796C99.9175 58.524 100.445 58.14 101.005 57.644V54.404C99.0695 54.644 97.7095 55.004 96.9255 55.484C96.1575 55.964 95.7735 56.58 95.7735 57.332C95.7735 57.988 95.9735 58.468 96.3735 58.772C96.7735 59.06 97.2615 59.204 97.8375 59.204ZM106.667 60.5V48.836H108.299L108.467 50.516H108.539C109.051 49.956 109.611 49.492 110.219 49.124C110.827 48.74 111.475 48.548 112.163 48.548C113.059 48.548 113.755 48.748 114.251 49.148C114.763 49.532 115.139 50.076 115.379 50.78C115.987 50.124 116.603 49.588 117.227 49.172C117.851 48.756 118.515 48.548 119.219 48.548C120.419 48.548 121.307 48.94 121.883 49.724C122.475 50.492 122.771 51.62 122.771 53.108V60.5H120.803V53.372C120.803 52.284 120.627 51.492 120.275 50.996C119.923 50.5 119.379 50.252 118.643 50.252C117.779 50.252 116.803 50.852 115.715 52.052V60.5H113.747V53.372C113.747 52.284 113.571 51.492 113.219 50.996C112.867 50.5 112.315 50.252 111.563 50.252C110.699 50.252 109.723 50.852 108.635 52.052V60.5H106.667ZM126.566 65.42V48.836H128.198L128.366 50.18H128.438C128.966 49.732 129.542 49.348 130.166 49.028C130.806 48.708 131.47 48.548 132.158 48.548C133.662 48.548 134.806 49.092 135.59 50.18C136.374 51.252 136.766 52.692 136.766 54.5C136.766 55.812 136.526 56.94 136.046 57.884C135.582 58.828 134.966 59.548 134.198 60.044C133.446 60.54 132.622 60.788 131.726 60.788C131.182 60.788 130.638 60.668 130.094 60.428C129.566 60.188 129.03 59.86 128.486 59.444L128.534 61.484V65.42H126.566ZM131.39 59.132C132.35 59.132 133.142 58.724 133.766 57.908C134.406 57.076 134.726 55.94 134.726 54.5C134.726 53.22 134.486 52.188 134.006 51.404C133.542 50.604 132.758 50.204 131.654 50.204C131.158 50.204 130.654 50.34 130.142 50.612C129.646 50.884 129.11 51.276 128.534 51.788V57.908C129.062 58.356 129.574 58.676 130.07 58.868C130.566 59.044 131.006 59.132 131.39 59.132ZM141.966 60.788C141.23 60.788 140.694 60.564 140.358 60.116C140.038 59.652 139.878 58.996 139.878 58.148V43.412H141.846V58.292C141.846 58.596 141.902 58.82 142.014 58.964C142.126 59.092 142.254 59.156 142.398 59.156C142.462 59.156 142.518 59.156 142.566 59.156C142.63 59.14 142.718 59.124 142.83 59.108L143.094 60.596C142.966 60.66 142.814 60.708 142.638 60.74C142.462 60.772 142.238 60.788 141.966 60.788ZM150.723 60.788C149.683 60.788 148.739 60.548 147.891 60.068C147.043 59.572 146.371 58.868 145.875 57.956C145.379 57.044 145.131 55.956 145.131 54.692C145.131 53.412 145.379 52.316 145.875 51.404C146.387 50.492 147.043 49.788 147.843 49.292C148.643 48.796 149.483 48.548 150.363 48.548C151.851 48.548 152.995 49.044 153.795 50.036C154.611 51.028 155.019 52.356 155.019 54.02C155.019 54.228 155.011 54.436 154.995 54.644C154.995 54.836 154.979 55.004 154.947 55.148H147.075C147.155 56.38 147.539 57.364 148.227 58.1C148.931 58.836 149.843 59.204 150.963 59.204C151.523 59.204 152.035 59.124 152.499 58.964C152.979 58.788 153.435 58.564 153.867 58.292L154.563 59.588C154.067 59.908 153.499 60.188 152.859 60.428C152.235 60.668 151.523 60.788 150.723 60.788ZM147.051 53.732H153.291C153.291 52.548 153.035 51.652 152.523 51.044C152.027 50.42 151.323 50.108 150.411 50.108C149.595 50.108 148.859 50.428 148.203 51.068C147.563 51.692 147.179 52.58 147.051 53.732ZM158.934 52.124C158.534 52.124 158.19 51.988 157.902 51.716C157.63 51.428 157.494 51.068 157.494 50.636C157.494 50.172 157.63 49.804 157.902 49.532C158.19 49.244 158.534 49.1 158.934 49.1C159.318 49.1 159.646 49.244 159.918 49.532C160.206 49.804 160.35 50.172 160.35 50.636C160.35 51.068 160.206 51.428 159.918 51.716C159.646 51.988 159.318 52.124 158.934 52.124ZM158.934 60.788C158.534 60.788 158.19 60.652 157.902 60.38C157.63 60.092 157.494 59.732 157.494 59.3C157.494 58.836 157.63 58.468 157.902 58.196C158.19 57.908 158.534 57.764 158.934 57.764C159.318 57.764 159.646 57.908 159.918 58.196C160.206 58.468 160.35 58.836 160.35 59.3C160.35 59.732 160.206 60.092 159.918 60.38C159.646 60.652 159.318 60.788 158.934 60.788Z" fill="black"/>
<mask id="path-3-inside-1_142_26827" fill="white">
<path d="M26.9805 86.5H610.96V372.5H26.9805V86.5Z"/>
</mask>
<path d="M26.9805 86.5H610.96V372.5H26.9805V86.5Z" fill="white"/>
<path d="M44.3015 110.5V99.5909H45.5586V103.618H45.6651C45.7575 103.476 45.8853 103.295 46.0487 103.075C46.2156 102.851 46.4535 102.652 46.7624 102.478C47.0749 102.3 47.4975 102.212 48.0302 102.212C48.7191 102.212 49.3263 102.384 49.8519 102.728C50.3775 103.073 50.7876 103.561 51.0824 104.193C51.3771 104.825 51.5245 105.571 51.5245 106.43C51.5245 107.297 51.3771 108.048 51.0824 108.684C50.7876 109.316 50.3793 109.806 49.8572 110.154C49.3352 110.498 48.7333 110.67 48.0515 110.67C47.5259 110.67 47.1051 110.583 46.7891 110.409C46.473 110.232 46.2298 110.031 46.0593 109.808C45.8888 109.58 45.7575 109.392 45.6651 109.243H45.516V110.5H44.3015ZM45.5373 106.409C45.5373 107.027 45.6278 107.572 45.8089 108.044C45.9901 108.513 46.2546 108.881 46.6026 109.147C46.9506 109.41 47.3768 109.541 47.881 109.541C48.4066 109.541 48.8452 109.403 49.1967 109.126C49.5518 108.845 49.8182 108.469 49.9957 107.996C50.1768 107.521 50.2674 106.991 50.2674 106.409C50.2674 105.834 50.1786 105.315 50.0011 104.854C49.8271 104.388 49.5625 104.021 49.2074 103.751C48.8558 103.478 48.4137 103.341 47.881 103.341C47.3697 103.341 46.94 103.471 46.592 103.73C46.244 103.985 45.9812 104.344 45.8036 104.806C45.6261 105.264 45.5373 105.798 45.5373 106.409ZM56.7713 110.67C56.0327 110.67 55.3846 110.495 54.8271 110.143C54.2731 109.792 53.8398 109.3 53.5273 108.668C53.2184 108.036 53.0639 107.297 53.0639 106.452C53.0639 105.599 53.2184 104.855 53.5273 104.22C53.8398 103.584 54.2731 103.091 54.8271 102.739C55.3846 102.387 56.0327 102.212 56.7713 102.212C57.5099 102.212 58.1563 102.387 58.7102 102.739C59.2678 103.091 59.701 103.584 60.0099 104.22C60.3224 104.855 60.4787 105.599 60.4787 106.452C60.4787 107.297 60.3224 108.036 60.0099 108.668C59.701 109.3 59.2678 109.792 58.7102 110.143C58.1563 110.495 57.5099 110.67 56.7713 110.67ZM56.7713 109.541C57.3324 109.541 57.794 109.397 58.1562 109.11C58.5185 108.822 58.7866 108.444 58.9606 107.975C59.1346 107.506 59.2216 106.999 59.2216 106.452C59.2216 105.905 59.1346 105.395 58.9606 104.923C58.7866 104.451 58.5185 104.069 58.1562 103.778C57.794 103.487 57.3324 103.341 56.7713 103.341C56.2102 103.341 55.7486 103.487 55.3864 103.778C55.0241 104.069 54.756 104.451 54.582 104.923C54.408 105.395 54.321 105.905 54.321 106.452C54.321 106.999 54.408 107.506 54.582 107.975C54.756 108.444 55.0241 108.822 55.3864 109.11C55.7486 109.397 56.2102 109.541 56.7713 109.541ZM65.4871 110.67C64.8053 110.67 64.2034 110.498 63.6814 110.154C63.1594 109.806 62.751 109.316 62.4562 108.684C62.1615 108.048 62.0141 107.297 62.0141 106.43C62.0141 105.571 62.1615 104.825 62.4562 104.193C62.751 103.561 63.1611 103.073 63.6867 102.728C64.2123 102.384 64.8195 102.212 65.5084 102.212C66.0411 102.212 66.4619 102.3 66.7709 102.478C67.0834 102.652 67.3213 102.851 67.4846 103.075C67.6515 103.295 67.7812 103.476 67.8735 103.618H67.98V99.5909H69.2371V110.5H68.0226V109.243H67.8735C67.7812 109.392 67.6498 109.58 67.4793 109.808C67.3089 110.031 67.0656 110.232 66.7496 110.409C66.4335 110.583 66.0127 110.67 65.4871 110.67ZM65.6576 109.541C66.1618 109.541 66.588 109.41 66.936 109.147C67.284 108.881 67.5486 108.513 67.7297 108.044C67.9108 107.572 68.0013 107.027 68.0013 106.409C68.0013 105.798 67.9126 105.264 67.735 104.806C67.5574 104.344 67.2947 103.985 66.9466 103.73C66.5986 103.471 66.1689 103.341 65.6576 103.341C65.1249 103.341 64.681 103.478 64.3259 103.751C63.9743 104.021 63.7098 104.388 63.5322 104.854C63.3582 105.315 63.2712 105.834 63.2712 106.409C63.2712 106.991 63.36 107.521 63.5376 107.996C63.7187 108.469 63.985 108.845 64.3366 109.126C64.6917 109.403 65.132 109.541 65.6576 109.541ZM72.5237 113.568C72.3106 113.568 72.1206 113.55 71.9537 113.515C71.7868 113.483 71.6714 113.451 71.6075 113.419L71.9271 112.311C72.2325 112.389 72.5024 112.418 72.7368 112.396C72.9711 112.375 73.1789 112.27 73.36 112.082C73.5447 111.897 73.7133 111.597 73.866 111.182L74.1004 110.543L71.0748 102.318H72.4385L74.697 108.838H74.7822L77.0407 102.318H78.4044L74.9314 111.693C74.7751 112.116 74.5816 112.466 74.3508 112.743C74.1199 113.023 73.8518 113.231 73.5464 113.366C73.2446 113.501 72.9037 113.568 72.5237 113.568Z" fill="#A52A2A"/>
<path d="M83.6858 105.919V105.259C84.2789 105.259 84.6926 105.134 84.9269 104.886C85.1649 104.637 85.2838 104.222 85.2838 103.639V101.935C85.2838 101.445 85.33 101.02 85.4223 100.662C85.5182 100.303 85.6727 100.006 85.8857 99.772C86.0988 99.5376 86.3829 99.3636 86.738 99.25C87.0931 99.1364 87.5317 99.0795 88.0537 99.0795V100.124C87.6418 100.124 87.3169 100.187 87.0789 100.315C86.8445 100.443 86.6776 100.642 86.5782 100.912C86.4823 101.178 86.4344 101.519 86.4344 101.935V104.065C86.4344 104.342 86.3971 104.594 86.3225 104.822C86.2515 105.049 86.1183 105.244 85.923 105.408C85.7277 105.571 85.449 105.697 85.0867 105.786C84.7281 105.875 84.2611 105.919 83.6858 105.919ZM88.0537 112.716C87.5317 112.716 87.0931 112.659 86.738 112.545C86.3829 112.432 86.0988 112.258 85.8857 112.023C85.6727 111.789 85.5182 111.493 85.4223 111.134C85.33 110.775 85.2838 110.351 85.2838 109.861V108.156C85.2838 107.574 85.1649 107.158 84.9269 106.91C84.6926 106.661 84.2789 106.537 83.6858 106.537V105.876C84.2611 105.876 84.7281 105.921 85.0867 106.01C85.449 106.098 85.7277 106.224 85.923 106.388C86.1183 106.551 86.2515 106.746 86.3225 106.974C86.3971 107.201 86.4344 107.453 86.4344 107.73V109.861C86.4344 110.276 86.4823 110.617 86.5782 110.884C86.6776 111.15 86.8445 111.347 87.0789 111.475C87.3169 111.606 87.6418 111.672 88.0537 111.672V112.716ZM83.6858 106.537V105.259H84.9429V106.537H83.6858ZM180.003 132.585C179.741 132.585 179.515 132.491 179.327 132.303C179.139 132.115 179.044 131.889 179.044 131.626C179.044 131.364 179.139 131.138 179.327 130.95C179.515 130.762 179.741 130.668 180.003 130.668C180.266 130.668 180.492 130.762 180.68 130.95C180.868 131.138 180.962 131.364 180.962 131.626C180.962 131.8 180.918 131.96 180.829 132.106C180.744 132.251 180.628 132.369 180.483 132.457C180.341 132.543 180.181 132.585 180.003 132.585ZM180.003 126.513C179.741 126.513 179.515 126.419 179.327 126.23C179.139 126.042 179.044 125.817 179.044 125.554C179.044 125.291 179.139 125.066 179.327 124.877C179.515 124.689 179.741 124.595 180.003 124.595C180.266 124.595 180.492 124.689 180.68 124.877C180.868 125.066 180.962 125.291 180.962 125.554C180.962 125.728 180.918 125.888 180.829 126.033C180.744 126.179 180.628 126.296 180.483 126.385C180.341 126.47 180.181 126.513 180.003 126.513ZM250.381 131.009L250.296 131.584C250.235 131.989 250.143 132.422 250.019 132.884C249.898 133.345 249.772 133.78 249.641 134.189C249.509 134.597 249.401 134.922 249.316 135.163H248.357C248.403 134.936 248.463 134.636 248.538 134.263C248.613 133.89 248.687 133.473 248.762 133.011C248.84 132.553 248.904 132.085 248.953 131.605L249.017 131.009H250.381ZM249.614 126.513C249.351 126.513 249.126 126.419 248.938 126.23C248.749 126.042 248.655 125.817 248.655 125.554C248.655 125.291 248.749 125.066 248.938 124.877C249.126 124.689 249.351 124.595 249.614 124.595C249.877 124.595 250.102 124.689 250.29 124.877C250.479 125.066 250.573 125.291 250.573 125.554C250.573 125.728 250.528 125.888 250.44 126.033C250.354 126.179 250.239 126.296 250.093 126.385C249.951 126.47 249.792 126.513 249.614 126.513ZM47.8597 150.876V151.537C47.2667 151.537 46.8512 151.661 46.6133 151.91C46.3789 152.158 46.2617 152.574 46.2617 153.156V154.861C46.2617 155.351 46.2138 155.775 46.1179 156.134C46.0256 156.493 45.8729 156.789 45.6598 157.023C45.4467 157.258 45.1626 157.432 44.8075 157.545C44.4524 157.659 44.0138 157.716 43.4918 157.716V156.672C43.9038 156.672 44.2269 156.606 44.4613 156.475C44.6992 156.347 44.8661 156.15 44.962 155.884C45.0614 155.617 45.1112 155.276 45.1112 154.861V152.73C45.1112 152.453 45.1467 152.201 45.2177 151.974C45.2923 151.746 45.4272 151.551 45.6225 151.388C45.8178 151.224 46.0948 151.098 46.4535 151.01C46.8157 150.921 47.2844 150.876 47.8597 150.876ZM43.4918 144.08C44.0138 144.08 44.4524 144.136 44.8075 144.25C45.1626 144.364 45.4467 144.538 45.6598 144.772C45.8729 145.006 46.0256 145.303 46.1179 145.662C46.2138 146.02 46.2617 146.445 46.2617 146.935V148.639C46.2617 149.222 46.3789 149.637 46.6133 149.886C46.8512 150.134 47.2667 150.259 47.8597 150.259V150.919C47.2844 150.919 46.8157 150.875 46.4535 150.786C46.0948 150.697 45.8178 150.571 45.6225 150.408C45.4272 150.244 45.2923 150.049 45.2177 149.822C45.1467 149.594 45.1112 149.342 45.1112 149.065V146.935C45.1112 146.519 45.0614 146.178 44.962 145.912C44.8661 145.642 44.6992 145.443 44.4613 145.315C44.2269 145.187 43.9038 145.124 43.4918 145.124V144.08ZM47.8597 150.259V151.537H46.6026V150.259H47.8597Z" fill="black"/>
<path d="M52.739 132.5V121.591H53.9961V125.618H54.1026C54.195 125.476 54.3228 125.295 54.4862 125.075C54.6531 124.851 54.891 124.652 55.1999 124.478C55.5124 124.3 55.935 124.212 56.4677 124.212C57.1566 124.212 57.7638 124.384 58.2894 124.728C58.815 125.073 59.2251 125.561 59.5199 126.193C59.8146 126.825 59.962 127.571 59.962 128.43C59.962 129.297 59.8146 130.048 59.5199 130.684C59.2251 131.316 58.8168 131.806 58.2947 132.154C57.7727 132.498 57.1708 132.67 56.489 132.67C55.9634 132.67 55.5426 132.583 55.2266 132.409C54.9105 132.232 54.6673 132.031 54.4968 131.808C54.3263 131.58 54.195 131.392 54.1026 131.243H53.9535V132.5H52.739ZM53.9748 128.409C53.9748 129.027 54.0653 129.572 54.2464 130.044C54.4276 130.513 54.6921 130.881 55.0401 131.147C55.3881 131.41 55.8143 131.541 56.3185 131.541C56.8441 131.541 57.2827 131.403 57.6342 131.126C57.9893 130.845 58.2557 130.469 58.4332 129.996C58.6143 129.521 58.7049 128.991 58.7049 128.409C58.7049 127.834 58.6161 127.315 58.4386 126.854C58.2646 126.388 58 126.021 57.6449 125.751C57.2933 125.478 56.8512 125.341 56.3185 125.341C55.8072 125.341 55.3775 125.471 55.0295 125.73C54.6815 125.985 54.4187 126.344 54.2411 126.806C54.0636 127.264 53.9748 127.798 53.9748 128.409ZM64.2926 132.692C63.7741 132.692 63.3036 132.594 62.881 132.399C62.4585 132.2 62.1229 131.914 61.8743 131.541C61.6257 131.165 61.5014 130.71 61.5014 130.178C61.5014 129.709 61.5938 129.329 61.7784 129.038C61.9631 128.743 62.2099 128.512 62.5188 128.345C62.8278 128.178 63.1687 128.054 63.5415 127.972C63.918 127.887 64.2962 127.82 64.6761 127.77C65.1733 127.706 65.5763 127.658 65.8853 127.626C66.1978 127.591 66.4251 127.532 66.5671 127.45C66.7127 127.369 66.7855 127.227 66.7855 127.024V126.982C66.7855 126.456 66.6417 126.048 66.354 125.756C66.07 125.465 65.6385 125.32 65.0597 125.32C64.4595 125.32 63.989 125.451 63.6481 125.714C63.3072 125.977 63.0675 126.257 62.929 126.555L61.7358 126.129C61.9489 125.632 62.233 125.245 62.5881 124.968C62.9467 124.687 63.3374 124.492 63.7599 124.382C64.1861 124.268 64.6051 124.212 65.017 124.212C65.2798 124.212 65.5817 124.244 65.9226 124.308C66.267 124.368 66.5991 124.494 66.9187 124.686C67.2418 124.877 67.5099 125.167 67.723 125.554C67.9361 125.941 68.0426 126.46 68.0426 127.109V132.5H66.7855V131.392H66.7216C66.6364 131.57 66.4943 131.76 66.2955 131.962C66.0966 132.164 65.832 132.337 65.5018 132.479C65.1715 132.621 64.7685 132.692 64.2926 132.692ZM64.4844 131.562C64.9815 131.562 65.4006 131.465 65.7415 131.27C66.0859 131.074 66.3452 130.822 66.5192 130.513C66.6967 130.204 66.7855 129.879 66.7855 129.538V128.388C66.7322 128.452 66.6151 128.51 66.4339 128.564C66.2564 128.613 66.0504 128.658 65.8161 128.697C65.5852 128.732 65.3597 128.764 65.1396 128.793C64.9229 128.817 64.7472 128.839 64.6122 128.857C64.2855 128.899 63.9801 128.968 63.696 129.064C63.4155 129.157 63.1882 129.297 63.0142 129.485C62.8438 129.67 62.7585 129.922 62.7585 130.241C62.7585 130.678 62.9201 131.009 63.2433 131.232C63.57 131.452 63.9837 131.562 64.4844 131.562ZM73.661 132.67C72.8939 132.67 72.2334 132.489 71.6794 132.127C71.1254 131.765 70.6993 131.266 70.401 130.63C70.1027 129.995 69.9536 129.268 69.9536 128.452C69.9536 127.621 70.1063 126.887 70.4117 126.252C70.7206 125.613 71.1503 125.114 71.7007 124.755C72.2547 124.393 72.901 124.212 73.6396 124.212C74.2149 124.212 74.7334 124.318 75.195 124.531C75.6567 124.744 76.0349 125.043 76.3296 125.426C76.6244 125.81 76.8073 126.257 76.8783 126.768H75.6212C75.5253 126.396 75.3122 126.065 74.982 125.778C74.6553 125.487 74.2149 125.341 73.661 125.341C73.1709 125.341 72.7412 125.469 72.3719 125.724C72.0061 125.977 71.7203 126.333 71.5143 126.795C71.3119 127.253 71.2107 127.791 71.2107 128.409C71.2107 129.041 71.3101 129.592 71.509 130.06C71.7114 130.529 71.9955 130.893 72.3612 131.152C72.7306 131.412 73.1638 131.541 73.661 131.541C73.9877 131.541 74.2842 131.484 74.5505 131.371C74.8169 131.257 75.0423 131.094 75.227 130.881C75.4117 130.668 75.5431 130.412 75.6212 130.114H76.8783C76.8073 130.597 76.6315 131.032 76.3509 131.419C76.074 131.802 75.7064 132.108 75.2483 132.335C74.7938 132.559 74.2646 132.67 73.661 132.67ZM79.8879 129.517L79.8666 127.962H80.1222L83.7018 124.318H85.2572L81.4433 128.175H81.3367L79.8879 129.517ZM78.716 132.5V121.591H79.9731V132.5H78.716ZM83.9149 132.5L80.7188 128.452L81.6137 127.578L85.5129 132.5H83.9149ZM89.8408 135.739C89.2336 135.739 88.7116 135.661 88.2748 135.504C87.838 135.352 87.474 135.149 87.1828 134.897C86.8952 134.648 86.6661 134.382 86.4956 134.098L87.4971 133.395C87.6107 133.544 87.7545 133.714 87.9285 133.906C88.1025 134.102 88.3405 134.27 88.6423 134.412C88.9477 134.558 89.3472 134.631 89.8408 134.631C90.5013 134.631 91.0464 134.471 91.4761 134.151C91.9058 133.832 92.1207 133.331 92.1207 132.649V130.987H92.0141C91.9218 131.136 91.7904 131.321 91.6199 131.541C91.453 131.758 91.2116 131.951 90.8955 132.122C90.583 132.289 90.1604 132.372 89.6278 132.372C88.9672 132.372 88.3742 132.216 87.8486 131.903C87.3266 131.591 86.9129 131.136 86.6075 130.54C86.3057 129.943 86.1547 129.219 86.1547 128.366C86.1547 127.528 86.3021 126.799 86.5969 126.177C86.8916 125.552 87.3018 125.069 87.8273 124.728C88.3529 124.384 88.9601 124.212 89.6491 124.212C90.1817 124.212 90.6043 124.3 90.9168 124.478C91.2329 124.652 91.4743 124.851 91.6412 125.075C91.8117 125.295 91.9431 125.476 92.0354 125.618H92.1633V124.318H93.3778V132.734C93.3778 133.438 93.218 134.009 92.8983 134.45C92.5823 134.893 92.1562 135.218 91.6199 135.424C91.0873 135.634 90.4942 135.739 89.8408 135.739ZM89.7982 131.243C90.3025 131.243 90.7286 131.127 91.0766 130.897C91.4246 130.666 91.6892 130.334 91.8703 129.901C92.0514 129.467 92.142 128.949 92.142 128.345C92.142 127.756 92.0532 127.235 91.8756 126.784C91.6981 126.333 91.4353 125.98 91.0873 125.724C90.7393 125.469 90.3096 125.341 89.7982 125.341C89.2655 125.341 88.8216 125.476 88.4665 125.746C88.115 126.016 87.8504 126.378 87.6729 126.832C87.4988 127.287 87.4118 127.791 87.4118 128.345C87.4118 128.913 87.5006 129.416 87.6782 129.853C87.8593 130.286 88.1256 130.627 88.4772 130.875C88.8323 131.12 89.2726 131.243 89.7982 131.243ZM95.6789 132.5V124.318H96.8934V125.554H96.9786C97.1278 125.149 97.3976 124.821 97.7883 124.569C98.1789 124.316 98.6192 124.19 99.1093 124.19C99.2016 124.19 99.317 124.192 99.4555 124.196C99.594 124.199 99.6988 124.205 99.7698 124.212V125.49C99.7272 125.479 99.6295 125.463 99.4768 125.442C99.3277 125.417 99.1697 125.405 99.0028 125.405C98.605 125.405 98.2499 125.488 97.9374 125.655C97.6285 125.819 97.3834 126.046 97.2023 126.337C97.0248 126.625 96.936 126.953 96.936 127.322V132.5H95.6789ZM104.335 132.67C103.596 132.67 102.948 132.495 102.391 132.143C101.837 131.792 101.403 131.3 101.091 130.668C100.782 130.036 100.627 129.297 100.627 128.452C100.627 127.599 100.782 126.855 101.091 126.22C101.403 125.584 101.837 125.091 102.391 124.739C102.948 124.387 103.596 124.212 104.335 124.212C105.073 124.212 105.72 124.387 106.274 124.739C106.831 125.091 107.264 125.584 107.573 126.22C107.886 126.855 108.042 127.599 108.042 128.452C108.042 129.297 107.886 130.036 107.573 130.668C107.264 131.3 106.831 131.792 106.274 132.143C105.72 132.495 105.073 132.67 104.335 132.67ZM104.335 131.541C104.896 131.541 105.358 131.397 105.72 131.11C106.082 130.822 106.35 130.444 106.524 129.975C106.698 129.506 106.785 128.999 106.785 128.452C106.785 127.905 106.698 127.395 106.524 126.923C106.35 126.451 106.082 126.069 105.72 125.778C105.358 125.487 104.896 125.341 104.335 125.341C103.774 125.341 103.312 125.487 102.95 125.778C102.588 126.069 102.32 126.451 102.146 126.923C101.972 127.395 101.884 127.905 101.884 128.452C101.884 128.999 101.972 129.506 102.146 129.975C102.32 130.444 102.588 130.822 102.95 131.11C103.312 131.397 103.774 131.541 104.335 131.541ZM115.117 129.155V124.318H116.374V132.5H115.117V131.115H115.032C114.84 131.531 114.542 131.884 114.137 132.175C113.732 132.463 113.221 132.607 112.603 132.607C112.092 132.607 111.637 132.495 111.24 132.271C110.842 132.044 110.529 131.703 110.302 131.248C110.075 130.79 109.961 130.213 109.961 129.517V124.318H111.218V129.432C111.218 130.028 111.385 130.504 111.719 130.859C112.056 131.214 112.486 131.392 113.008 131.392C113.32 131.392 113.638 131.312 113.961 131.152C114.288 130.993 114.562 130.748 114.782 130.417C115.006 130.087 115.117 129.666 115.117 129.155ZM119.934 127.578V132.5H118.677V124.318H119.891V125.597H119.998C120.19 125.181 120.481 124.847 120.872 124.595C121.262 124.339 121.766 124.212 122.384 124.212C122.938 124.212 123.423 124.325 123.839 124.553C124.254 124.776 124.577 125.117 124.808 125.575C125.039 126.03 125.154 126.605 125.154 127.301V132.5H123.897V127.386C123.897 126.744 123.73 126.243 123.396 125.884C123.063 125.522 122.604 125.341 122.022 125.341C121.621 125.341 121.262 125.428 120.946 125.602C120.634 125.776 120.387 126.03 120.206 126.364C120.025 126.697 119.934 127.102 119.934 127.578ZM130.541 132.67C129.859 132.67 129.257 132.498 128.735 132.154C128.213 131.806 127.805 131.316 127.51 130.684C127.215 130.048 127.068 129.297 127.068 128.43C127.068 127.571 127.215 126.825 127.51 126.193C127.805 125.561 128.215 125.073 128.74 124.728C129.266 124.384 129.873 124.212 130.562 124.212C131.095 124.212 131.516 124.3 131.825 124.478C132.137 124.652 132.375 124.851 132.538 125.075C132.705 125.295 132.835 125.476 132.927 125.618H133.034V121.591H134.291V132.5H133.076V131.243H132.927C132.835 131.392 132.703 131.58 132.533 131.808C132.363 132.031 132.119 132.232 131.803 132.409C131.487 132.583 131.066 132.67 130.541 132.67ZM130.711 131.541C131.216 131.541 131.642 131.41 131.99 131.147C132.338 130.881 132.602 130.513 132.783 130.044C132.964 129.572 133.055 129.027 133.055 128.409C133.055 127.798 132.966 127.264 132.789 126.806C132.611 126.344 132.348 125.985 132 125.73C131.652 125.471 131.223 125.341 130.711 125.341C130.179 125.341 129.735 125.478 129.38 125.751C129.028 126.021 128.763 126.388 128.586 126.854C128.412 127.315 128.325 127.834 128.325 128.409C128.325 128.991 128.414 129.521 128.591 129.996C128.772 130.469 129.039 130.845 129.39 131.126C129.745 131.403 130.186 131.541 130.711 131.541ZM141.455 127.237V128.409H136.683V127.237H141.455ZM146.991 132.67C146.224 132.67 145.563 132.489 145.009 132.127C144.456 131.765 144.029 131.266 143.731 130.63C143.433 129.995 143.284 129.268 143.284 128.452C143.284 127.621 143.436 126.887 143.742 126.252C144.051 125.613 144.48 125.114 145.031 124.755C145.585 124.393 146.231 124.212 146.97 124.212C147.545 124.212 148.063 124.318 148.525 124.531C148.987 124.744 149.365 125.043 149.66 125.426C149.954 125.81 150.137 126.257 150.208 126.768H148.951C148.855 126.396 148.642 126.065 148.312 125.778C147.985 125.487 147.545 125.341 146.991 125.341C146.501 125.341 146.071 125.469 145.702 125.724C145.336 125.977 145.05 126.333 144.844 126.795C144.642 127.253 144.541 127.791 144.541 128.409C144.541 129.041 144.64 129.592 144.839 130.06C145.041 130.529 145.326 130.893 145.691 131.152C146.061 131.412 146.494 131.541 146.991 131.541C147.318 131.541 147.614 131.484 147.881 131.371C148.147 131.257 148.372 131.094 148.557 130.881C148.742 130.668 148.873 130.412 148.951 130.114H150.208C150.137 130.597 149.962 131.032 149.681 131.419C149.404 131.802 149.036 132.108 148.578 132.335C148.124 132.559 147.595 132.67 146.991 132.67ZM155.37 132.67C154.631 132.67 153.983 132.495 153.426 132.143C152.872 131.792 152.438 131.3 152.126 130.668C151.817 130.036 151.663 129.297 151.663 128.452C151.663 127.599 151.817 126.855 152.126 126.22C152.438 125.584 152.872 125.091 153.426 124.739C153.983 124.387 154.631 124.212 155.37 124.212C156.109 124.212 156.755 124.387 157.309 124.739C157.866 125.091 158.3 125.584 158.609 126.22C158.921 126.855 159.077 127.599 159.077 128.452C159.077 129.297 158.921 130.036 158.609 130.668C158.3 131.3 157.866 131.792 157.309 132.143C156.755 132.495 156.109 132.67 155.37 132.67ZM155.37 131.541C155.931 131.541 156.393 131.397 156.755 131.11C157.117 130.822 157.385 130.444 157.559 129.975C157.733 129.506 157.82 128.999 157.82 128.452C157.82 127.905 157.733 127.395 157.559 126.923C157.385 126.451 157.117 126.069 156.755 125.778C156.393 125.487 155.931 125.341 155.37 125.341C154.809 125.341 154.347 125.487 153.985 125.778C153.623 126.069 153.355 126.451 153.181 126.923C153.007 127.395 152.92 127.905 152.92 128.452C152.92 128.999 153.007 129.506 153.181 129.975C153.355 130.444 153.623 130.822 153.985 131.11C154.347 131.397 154.809 131.541 155.37 131.541ZM162.253 121.591V132.5H160.996V121.591H162.253ZM167.88 132.67C167.141 132.67 166.493 132.495 165.935 132.143C165.381 131.792 164.948 131.3 164.636 130.668C164.327 130.036 164.172 129.297 164.172 128.452C164.172 127.599 164.327 126.855 164.636 126.22C164.948 125.584 165.381 125.091 165.935 124.739C166.493 124.387 167.141 124.212 167.88 124.212C168.618 124.212 169.265 124.387 169.819 124.739C170.376 125.091 170.809 125.584 171.118 126.22C171.431 126.855 171.587 127.599 171.587 128.452C171.587 129.297 171.431 130.036 171.118 130.668C170.809 131.3 170.376 131.792 169.819 132.143C169.265 132.495 168.618 132.67 167.88 132.67ZM167.88 131.541C168.441 131.541 168.902 131.397 169.265 131.11C169.627 130.822 169.895 130.444 170.069 129.975C170.243 129.506 170.33 128.999 170.33 128.452C170.33 127.905 170.243 127.395 170.069 126.923C169.895 126.451 169.627 126.069 169.265 125.778C168.902 125.487 168.441 125.341 167.88 125.341C167.319 125.341 166.857 125.487 166.495 125.778C166.133 126.069 165.864 126.451 165.69 126.923C165.516 127.395 165.429 127.905 165.429 128.452C165.429 128.999 165.516 129.506 165.69 129.975C165.864 130.444 166.133 130.822 166.495 131.11C166.857 131.397 167.319 131.541 167.88 131.541ZM173.506 132.5V124.318H174.721V125.554H174.806C174.955 125.149 175.225 124.821 175.615 124.569C176.006 124.316 176.446 124.19 176.936 124.19C177.029 124.19 177.144 124.192 177.283 124.196C177.421 124.199 177.526 124.205 177.597 124.212V125.49C177.554 125.479 177.457 125.463 177.304 125.442C177.155 125.417 176.997 125.405 176.83 125.405C176.432 125.405 176.077 125.488 175.765 125.655C175.456 125.819 175.211 126.046 175.029 126.337C174.852 126.625 174.763 126.953 174.763 127.322V132.5H173.506Z" fill="#FF0000"/>
<path d="M188.694 121.591V132.5H187.437V121.591H188.694ZM190.996 132.5V124.318H192.253V132.5H190.996ZM191.635 122.955C191.39 122.955 191.179 122.871 191.002 122.704C190.828 122.537 190.741 122.337 190.741 122.102C190.741 121.868 190.828 121.667 191.002 121.5C191.179 121.333 191.39 121.25 191.635 121.25C191.881 121.25 192.09 121.333 192.264 121.5C192.442 121.667 192.53 121.868 192.53 122.102C192.53 122.337 192.442 122.537 192.264 122.704C192.09 122.871 191.881 122.955 191.635 122.955ZM197.858 135.739C197.251 135.739 196.729 135.661 196.292 135.504C195.856 135.352 195.492 135.149 195.2 134.897C194.913 134.648 194.684 134.382 194.513 134.098L195.515 133.395C195.628 133.544 195.772 133.714 195.946 133.906C196.12 134.102 196.358 134.27 196.66 134.412C196.965 134.558 197.365 134.631 197.858 134.631C198.519 134.631 199.064 134.471 199.494 134.151C199.923 133.832 200.138 133.331 200.138 132.649V130.987H200.032C199.939 131.136 199.808 131.321 199.638 131.541C199.471 131.758 199.229 131.951 198.913 132.122C198.601 132.289 198.178 132.372 197.645 132.372C196.985 132.372 196.392 132.216 195.866 131.903C195.344 131.591 194.93 131.136 194.625 130.54C194.323 129.943 194.172 129.219 194.172 128.366C194.172 127.528 194.32 126.799 194.614 126.177C194.909 125.552 195.319 125.069 195.845 124.728C196.37 124.384 196.978 124.212 197.667 124.212C198.199 124.212 198.622 124.3 198.934 124.478C199.25 124.652 199.492 124.851 199.659 125.075C199.829 125.295 199.961 125.476 200.053 125.618H200.181V124.318H201.395V132.734C201.395 133.438 201.236 134.009 200.916 134.45C200.6 134.893 200.174 135.218 199.638 135.424C199.105 135.634 198.512 135.739 197.858 135.739ZM197.816 131.243C198.32 131.243 198.746 131.127 199.094 130.897C199.442 130.666 199.707 130.334 199.888 129.901C200.069 129.467 200.16 128.949 200.16 128.345C200.16 127.756 200.071 127.235 199.893 126.784C199.716 126.333 199.453 125.98 199.105 125.724C198.757 125.469 198.327 125.341 197.816 125.341C197.283 125.341 196.839 125.476 196.484 125.746C196.133 126.016 195.868 126.378 195.69 126.832C195.516 127.287 195.429 127.791 195.429 128.345C195.429 128.913 195.518 129.416 195.696 129.853C195.877 130.286 196.143 130.627 196.495 130.875C196.85 131.12 197.29 131.243 197.816 131.243ZM204.954 127.578V132.5H203.696V121.591H204.954V125.597H205.06C205.252 125.174 205.54 124.838 205.923 124.59C206.31 124.338 206.825 124.212 207.468 124.212C208.025 124.212 208.514 124.324 208.933 124.547C209.352 124.767 209.677 125.107 209.907 125.565C210.142 126.019 210.259 126.598 210.259 127.301V132.5H209.002V127.386C209.002 126.737 208.833 126.234 208.496 125.879C208.162 125.52 207.699 125.341 207.106 125.341C206.694 125.341 206.324 125.428 205.998 125.602C205.674 125.776 205.419 126.03 205.231 126.364C205.046 126.697 204.954 127.102 204.954 127.578ZM216.117 124.318V125.384H211.877V124.318H216.117ZM213.113 122.358H214.37V130.156C214.37 130.511 214.421 130.778 214.524 130.955C214.631 131.129 214.766 131.246 214.929 131.307C215.096 131.364 215.272 131.392 215.456 131.392C215.595 131.392 215.709 131.385 215.797 131.371C215.886 131.353 215.957 131.339 216.01 131.328L216.266 132.457C216.181 132.489 216.062 132.521 215.909 132.553C215.757 132.589 215.563 132.607 215.329 132.607C214.974 132.607 214.626 132.53 214.285 132.377C213.947 132.225 213.667 131.992 213.443 131.68C213.223 131.367 213.113 130.973 213.113 130.497V122.358ZM218.354 132.5V121.591H219.611V125.618H219.718C219.81 125.476 219.938 125.295 220.101 125.075C220.268 124.851 220.506 124.652 220.815 124.478C221.128 124.3 221.55 124.212 222.083 124.212C222.772 124.212 223.379 124.384 223.905 124.728C224.43 125.073 224.84 125.561 225.135 126.193C225.43 126.825 225.577 127.571 225.577 128.43C225.577 129.297 225.43 130.048 225.135 130.684C224.84 131.316 224.432 131.806 223.91 132.154C223.388 132.498 222.786 132.67 222.104 132.67C221.579 132.67 221.158 132.583 220.842 132.409C220.526 132.232 220.282 132.031 220.112 131.808C219.942 131.58 219.81 131.392 219.718 131.243H219.569V132.5H218.354ZM219.59 128.409C219.59 129.027 219.681 129.572 219.862 130.044C220.043 130.513 220.307 130.881 220.655 131.147C221.003 131.41 221.43 131.541 221.934 131.541C222.459 131.541 222.898 131.403 223.249 131.126C223.605 130.845 223.871 130.469 224.048 129.996C224.23 129.521 224.32 128.991 224.32 128.409C224.32 127.834 224.231 127.315 224.054 126.854C223.88 126.388 223.615 126.021 223.26 125.751C222.909 125.478 222.466 125.341 221.934 125.341C221.422 125.341 220.993 125.471 220.645 125.73C220.297 125.985 220.034 126.344 219.856 126.806C219.679 127.264 219.59 127.798 219.59 128.409ZM228.757 121.591V132.5H227.5V121.591H228.757ZM236.216 129.155V124.318H237.473V132.5H236.216V131.115H236.131C235.939 131.531 235.641 131.884 235.236 132.175C234.831 132.463 234.32 132.607 233.702 132.607C233.19 132.607 232.736 132.495 232.338 132.271C231.94 132.044 231.628 131.703 231.401 131.248C231.173 130.79 231.06 130.213 231.06 129.517V124.318H232.317V129.432C232.317 130.028 232.484 130.504 232.818 130.859C233.155 131.214 233.585 131.392 234.107 131.392C234.419 131.392 234.737 131.312 235.06 131.152C235.387 130.993 235.66 130.748 235.88 130.417C236.104 130.087 236.216 129.666 236.216 129.155ZM243.206 132.67C242.418 132.67 241.738 132.496 241.166 132.148C240.598 131.797 240.159 131.307 239.85 130.678C239.545 130.046 239.392 129.311 239.392 128.473C239.392 127.635 239.545 126.896 239.85 126.257C240.159 125.614 240.589 125.114 241.139 124.755C241.693 124.393 242.339 124.212 243.078 124.212C243.504 124.212 243.925 124.283 244.341 124.425C244.756 124.567 245.134 124.798 245.475 125.117C245.816 125.433 246.088 125.852 246.29 126.374C246.493 126.896 246.594 127.539 246.594 128.303V128.835H240.287V127.749H245.315C245.315 127.287 245.223 126.875 245.038 126.513C244.857 126.151 244.598 125.865 244.261 125.655C243.927 125.446 243.533 125.341 243.078 125.341C242.577 125.341 242.144 125.465 241.778 125.714C241.416 125.959 241.137 126.278 240.942 126.673C240.747 127.067 240.649 127.489 240.649 127.94V128.665C240.649 129.283 240.756 129.806 240.969 130.236C241.185 130.662 241.485 130.987 241.869 131.211C242.252 131.431 242.698 131.541 243.206 131.541C243.536 131.541 243.835 131.495 244.101 131.403C244.371 131.307 244.603 131.165 244.799 130.977C244.994 130.785 245.145 130.547 245.251 130.263L246.466 130.604C246.338 131.016 246.123 131.378 245.821 131.69C245.52 131.999 245.147 132.241 244.703 132.415C244.259 132.585 243.76 132.67 243.206 132.67Z" fill="#0000CD"/>
<path d="M45.3881 195.578V200.5H44.131V189.591H45.3881V193.597H45.4947C45.6864 193.174 45.9741 192.838 46.3576 192.59C46.7447 192.338 47.2596 192.212 47.9023 192.212C48.4599 192.212 48.9482 192.324 49.3672 192.547C49.7862 192.767 50.1112 193.107 50.342 193.565C50.5763 194.019 50.6935 194.598 50.6935 195.301V200.5H49.4364V195.386C49.4364 194.737 49.2678 194.234 48.9304 193.879C48.5966 193.52 48.1332 193.341 47.5401 193.341C47.1282 193.341 46.7589 193.428 46.4322 193.602C46.109 193.776 45.8533 194.03 45.6651 194.364C45.4805 194.697 45.3881 195.102 45.3881 195.578ZM56.2067 189.591V200.5H54.8857V190.976H54.8217L52.1584 192.744V191.402L54.8857 189.591H56.2067Z" fill="#A52A2A"/>
<path d="M62.9876 195.919V195.259C63.5806 195.259 63.9943 195.134 64.2287 194.886C64.4666 194.637 64.5856 194.222 64.5856 193.639V191.935C64.5856 191.445 64.6317 191.02 64.7241 190.662C64.82 190.303 64.9744 190.006 65.1875 189.772C65.4006 189.538 65.6847 189.364 66.0398 189.25C66.3949 189.136 66.8335 189.08 67.3555 189.08V190.124C66.9435 190.124 66.6186 190.187 66.3807 190.315C66.1463 190.443 65.9794 190.642 65.88 190.912C65.7841 191.178 65.7362 191.519 65.7362 191.935V194.065C65.7362 194.342 65.6989 194.594 65.6243 194.822C65.5533 195.049 65.4201 195.244 65.2248 195.408C65.0295 195.571 64.7507 195.697 64.3885 195.786C64.0298 195.875 63.5629 195.919 62.9876 195.919ZM67.3555 202.716C66.8335 202.716 66.3949 202.659 66.0398 202.545C65.6847 202.432 65.4006 202.258 65.1875 202.023C64.9744 201.789 64.82 201.493 64.7241 201.134C64.6317 200.775 64.5856 200.351 64.5856 199.861V198.156C64.5856 197.574 64.4666 197.158 64.2287 196.91C63.9943 196.661 63.5806 196.537 62.9876 196.537V195.876C63.5629 195.876 64.0298 195.921 64.3885 196.01C64.7507 196.098 65.0295 196.224 65.2248 196.388C65.4201 196.551 65.5533 196.746 65.6243 196.974C65.6989 197.201 65.7362 197.453 65.7362 197.73V199.861C65.7362 200.276 65.7841 200.617 65.88 200.884C65.9794 201.15 66.1463 201.347 66.3807 201.475C66.6186 201.606 66.9435 201.672 67.3555 201.672V202.716ZM62.9876 196.537V195.259H64.2447V196.537H62.9876ZM88.9047 222.585C88.6419 222.585 88.4164 222.491 88.2282 222.303C88.04 222.115 87.9458 221.889 87.9458 221.626C87.9458 221.364 88.04 221.138 88.2282 220.95C88.4164 220.762 88.6419 220.668 88.9047 220.668C89.1674 220.668 89.3929 220.762 89.5811 220.95C89.7694 221.138 89.8635 221.364 89.8635 221.626C89.8635 221.8 89.8191 221.96 89.7303 222.106C89.6451 222.251 89.5297 222.369 89.3841 222.457C89.242 222.543 89.0822 222.585 88.9047 222.585ZM88.9047 216.513C88.6419 216.513 88.4164 216.419 88.2282 216.23C88.04 216.042 87.9458 215.817 87.9458 215.554C87.9458 215.291 88.04 215.066 88.2282 214.877C88.4164 214.689 88.6419 214.595 88.9047 214.595C89.1674 214.595 89.3929 214.689 89.5811 214.877C89.7694 215.066 89.8635 215.291 89.8635 215.554C89.8635 215.728 89.8191 215.888 89.7303 216.033C89.6451 216.179 89.5297 216.296 89.3841 216.385C89.242 216.47 89.0822 216.513 88.9047 216.513ZM136.914 221.009L136.829 221.584C136.769 221.989 136.676 222.422 136.552 222.884C136.431 223.345 136.305 223.78 136.174 224.189C136.042 224.597 135.934 224.922 135.849 225.163H134.89C134.936 224.936 134.997 224.636 135.071 224.263C135.146 223.89 135.22 223.473 135.295 223.011C135.373 222.553 135.437 222.085 135.487 221.605L135.551 221.009H136.914ZM136.147 216.513C135.884 216.513 135.659 216.419 135.471 216.23C135.282 216.042 135.188 215.817 135.188 215.554C135.188 215.291 135.282 215.066 135.471 214.877C135.659 214.689 135.884 214.595 136.147 214.595C136.41 214.595 136.635 214.689 136.824 214.877C137.012 215.066 137.106 215.291 137.106 215.554C137.106 215.728 137.062 215.888 136.973 216.033C136.888 216.179 136.772 216.296 136.627 216.385C136.485 216.47 136.325 216.513 136.147 216.513ZM120.999 245.585C120.737 245.585 120.511 245.491 120.323 245.303C120.135 245.115 120.041 244.889 120.041 244.626C120.041 244.364 120.135 244.138 120.323 243.95C120.511 243.762 120.737 243.668 120.999 243.668C121.262 243.668 121.488 243.762 121.676 243.95C121.864 244.138 121.958 244.364 121.958 244.626C121.958 244.8 121.914 244.96 121.825 245.106C121.74 245.251 121.624 245.369 121.479 245.457C121.337 245.543 121.177 245.585 120.999 245.585ZM120.999 239.513C120.737 239.513 120.511 239.419 120.323 239.23C120.135 239.042 120.041 238.817 120.041 238.554C120.041 238.291 120.135 238.066 120.323 237.877C120.511 237.689 120.737 237.595 120.999 237.595C121.262 237.595 121.488 237.689 121.676 237.877C121.864 238.066 121.958 238.291 121.958 238.554C121.958 238.728 121.914 238.888 121.825 239.033C121.74 239.179 121.624 239.296 121.479 239.385C121.337 239.47 121.177 239.513 120.999 239.513ZM175.864 244.009L175.779 244.584C175.719 244.989 175.627 245.422 175.502 245.884C175.381 246.345 175.255 246.78 175.124 247.189C174.993 247.597 174.884 247.922 174.799 248.163H173.84C173.886 247.936 173.947 247.636 174.021 247.263C174.096 246.89 174.171 246.473 174.245 246.011C174.323 245.553 174.387 245.085 174.437 244.605L174.501 244.009H175.864ZM175.097 239.513C174.835 239.513 174.609 239.419 174.421 239.23C174.233 239.042 174.139 238.817 174.139 238.554C174.139 238.291 174.233 238.066 174.421 237.877C174.609 237.689 174.835 237.595 175.097 237.595C175.36 237.595 175.586 237.689 175.774 237.877C175.962 238.066 176.056 238.291 176.056 238.554C176.056 238.728 176.012 238.888 175.923 239.033C175.838 239.179 175.722 239.296 175.577 239.385C175.435 239.47 175.275 239.513 175.097 239.513ZM47.8597 262.876V263.537C47.2667 263.537 46.8512 263.661 46.6133 263.91C46.3789 264.158 46.2617 264.574 46.2617 265.156V266.861C46.2617 267.351 46.2138 267.775 46.1179 268.134C46.0256 268.493 45.8729 268.789 45.6598 269.023C45.4467 269.258 45.1626 269.432 44.8075 269.545C44.4524 269.659 44.0138 269.716 43.4918 269.716V268.672C43.9038 268.672 44.2269 268.606 44.4613 268.475C44.6992 268.347 44.8661 268.15 44.962 267.884C45.0614 267.617 45.1112 267.276 45.1112 266.861V264.73C45.1112 264.453 45.1467 264.201 45.2177 263.974C45.2923 263.746 45.4272 263.551 45.6225 263.388C45.8178 263.224 46.0948 263.098 46.4535 263.01C46.8157 262.921 47.2844 262.876 47.8597 262.876ZM43.4918 256.08C44.0138 256.08 44.4524 256.136 44.8075 256.25C45.1626 256.364 45.4467 256.538 45.6598 256.772C45.8729 257.006 46.0256 257.303 46.1179 257.662C46.2138 258.02 46.2617 258.445 46.2617 258.935V260.639C46.2617 261.222 46.3789 261.637 46.6133 261.886C46.8512 262.134 47.2667 262.259 47.8597 262.259V262.919C47.2844 262.919 46.8157 262.875 46.4535 262.786C46.0948 262.697 45.8178 262.571 45.6225 262.408C45.4272 262.244 45.2923 262.049 45.2177 261.822C45.1467 261.594 45.1112 261.342 45.1112 261.065V258.935C45.1112 258.519 45.0614 258.178 44.962 257.912C44.8661 257.642 44.6992 257.443 44.4613 257.315C44.2269 257.187 43.9038 257.124 43.4918 257.124V256.08ZM47.8597 262.259V263.537H46.6026V262.259H47.8597Z" fill="black"/>
<path d="M55.8924 222.67C55.1254 222.67 54.4648 222.489 53.9109 222.127C53.3569 221.765 52.9308 221.266 52.6325 220.63C52.3342 219.995 52.185 219.268 52.185 218.452C52.185 217.621 52.3377 216.887 52.6431 216.252C52.9521 215.613 53.3817 215.114 53.9322 214.755C54.4862 214.393 55.1325 214.212 55.8711 214.212C56.4464 214.212 56.9648 214.318 57.4265 214.531C57.8881 214.744 58.2663 215.043 58.5611 215.426C58.8558 215.81 59.0387 216.257 59.1097 216.768H57.8526C57.7567 216.396 57.5437 216.065 57.2134 215.778C56.8867 215.487 56.4464 215.341 55.8924 215.341C55.4023 215.341 54.9727 215.469 54.6033 215.724C54.2376 215.977 53.9517 216.333 53.7457 216.795C53.5433 217.253 53.4421 217.791 53.4421 218.409C53.4421 219.041 53.5415 219.592 53.7404 220.06C53.9428 220.529 54.2269 220.893 54.5927 221.152C54.962 221.412 55.3952 221.541 55.8924 221.541C56.2191 221.541 56.5156 221.484 56.782 221.371C57.0483 221.257 57.2738 221.094 57.4585 220.881C57.6431 220.668 57.7745 220.412 57.8526 220.114H59.1097C59.0387 220.597 58.8629 221.032 58.5824 221.419C58.3054 221.802 57.9379 222.108 57.4798 222.335C57.0252 222.559 56.4961 222.67 55.8924 222.67ZM64.2713 222.67C63.5327 222.67 62.8846 222.495 62.3271 222.143C61.7731 221.792 61.3398 221.3 61.0273 220.668C60.7184 220.036 60.5639 219.297 60.5639 218.452C60.5639 217.599 60.7184 216.855 61.0273 216.22C61.3398 215.584 61.7731 215.091 62.3271 214.739C62.8846 214.387 63.5327 214.212 64.2713 214.212C65.0099 214.212 65.6563 214.387 66.2102 214.739C66.7678 215.091 67.201 215.584 67.5099 216.22C67.8224 216.855 67.9787 217.599 67.9787 218.452C67.9787 219.297 67.8224 220.036 67.5099 220.668C67.201 221.3 66.7678 221.792 66.2102 222.143C65.6563 222.495 65.0099 222.67 64.2713 222.67ZM64.2713 221.541C64.8324 221.541 65.294 221.397 65.6562 221.11C66.0185 220.822 66.2866 220.444 66.4606 219.975C66.6346 219.506 66.7216 218.999 66.7216 218.452C66.7216 217.905 66.6346 217.395 66.4606 216.923C66.2866 216.451 66.0185 216.069 65.6562 215.778C65.294 215.487 64.8324 215.341 64.2713 215.341C63.7102 215.341 63.2486 215.487 62.8864 215.778C62.5241 216.069 62.256 216.451 62.082 216.923C61.908 217.395 61.821 217.905 61.821 218.452C61.821 218.999 61.908 219.506 62.082 219.975C62.256 220.444 62.5241 220.822 62.8864 221.11C63.2486 221.397 63.7102 221.541 64.2713 221.541ZM71.1547 211.591V222.5H69.8976V211.591H71.1547ZM76.7811 222.67C76.0424 222.67 75.3944 222.495 74.8368 222.143C74.2828 221.792 73.8496 221.3 73.5371 220.668C73.2282 220.036 73.0737 219.297 73.0737 218.452C73.0737 217.599 73.2282 216.855 73.5371 216.22C73.8496 215.584 74.2828 215.091 74.8368 214.739C75.3944 214.387 76.0424 214.212 76.7811 214.212C77.5197 214.212 78.166 214.387 78.72 214.739C79.2775 215.091 79.7108 215.584 80.0197 216.22C80.3322 216.855 80.4885 217.599 80.4885 218.452C80.4885 219.297 80.3322 220.036 80.0197 220.668C79.7108 221.3 79.2775 221.792 78.72 222.143C78.166 222.495 77.5197 222.67 76.7811 222.67ZM76.7811 221.541C77.3422 221.541 77.8038 221.397 78.166 221.11C78.5282 220.822 78.7963 220.444 78.9703 219.975C79.1444 219.506 79.2314 218.999 79.2314 218.452C79.2314 217.905 79.1444 217.395 78.9703 216.923C78.7963 216.451 78.5282 216.069 78.166 215.778C77.8038 215.487 77.3422 215.341 76.7811 215.341C76.22 215.341 75.7583 215.487 75.3961 215.778C75.0339 216.069 74.7658 216.451 74.5918 216.923C74.4178 217.395 74.3308 217.905 74.3308 218.452C74.3308 218.999 74.4178 219.506 74.5918 219.975C74.7658 220.444 75.0339 220.822 75.3961 221.11C75.7583 221.397 76.22 221.541 76.7811 221.541ZM82.4074 222.5V214.318H83.6219V215.554H83.7071C83.8563 215.149 84.1262 214.821 84.5168 214.569C84.9074 214.316 85.3477 214.19 85.8378 214.19C85.9301 214.19 86.0455 214.192 86.184 214.196C86.3225 214.199 86.4273 214.205 86.4983 214.212V215.49C86.4557 215.479 86.358 215.463 86.2053 215.442C86.0562 215.417 85.8982 215.405 85.7313 215.405C85.3335 215.405 84.9784 215.488 84.6659 215.655C84.357 215.819 84.1119 216.046 83.9308 216.337C83.7533 216.625 83.6645 216.953 83.6645 217.322V222.5H82.4074ZM56.1268 237.318V238.384H51.8867V237.318H56.1268ZM53.1225 235.358H54.3796V243.156C54.3796 243.511 54.4311 243.778 54.5341 243.955C54.6406 244.129 54.7756 244.246 54.9389 244.307C55.1058 244.364 55.2816 244.392 55.4663 244.392C55.6048 244.392 55.7184 244.385 55.8072 244.371C55.896 244.353 55.967 244.339 56.0202 244.328L56.2759 245.457C56.1907 245.489 56.0717 245.521 55.919 245.553C55.7663 245.589 55.5728 245.607 55.3384 245.607C54.9833 245.607 54.6353 245.53 54.2944 245.377C53.957 245.225 53.6765 244.992 53.4528 244.68C53.2326 244.367 53.1225 243.973 53.1225 243.497V235.358ZM61.3603 245.67C60.5719 245.67 59.8919 245.496 59.3201 245.148C58.752 244.797 58.3134 244.307 58.0044 243.678C57.699 243.046 57.5463 242.311 57.5463 241.473C57.5463 240.635 57.699 239.896 58.0044 239.257C58.3134 238.614 58.7431 238.114 59.2935 237.755C59.8475 237.393 60.4938 237.212 61.2324 237.212C61.6586 237.212 62.0794 237.283 62.4949 237.425C62.9103 237.567 63.2885 237.798 63.6294 238.117C63.9703 238.433 64.242 238.852 64.4444 239.374C64.6468 239.896 64.748 240.539 64.748 241.303V241.835H58.4412V240.749H63.4696C63.4696 240.287 63.3773 239.875 63.1926 239.513C63.0115 239.151 62.7523 238.865 62.415 238.655C62.0811 238.446 61.687 238.341 61.2324 238.341C60.7317 238.341 60.2985 238.465 59.9327 238.714C59.5705 238.959 59.2917 239.278 59.0964 239.673C58.9011 240.067 58.8034 240.489 58.8034 240.94V241.665C58.8034 242.283 58.91 242.806 59.123 243.236C59.3397 243.662 59.6397 243.987 60.0233 244.211C60.4068 244.431 60.8525 244.541 61.3603 244.541C61.6905 244.541 61.9888 244.495 62.2551 244.403C62.525 244.307 62.7576 244.165 62.9529 243.977C63.1483 243.785 63.2992 243.547 63.4057 243.263L64.6202 243.604C64.4924 244.016 64.2775 244.378 63.9757 244.69C63.6738 244.999 63.301 245.241 62.8571 245.415C62.4132 245.585 61.9142 245.67 61.3603 245.67ZM67.3781 237.318L69.3383 240.663L71.2986 237.318H72.7474L70.1054 241.409L72.7474 245.5H71.2986L69.3383 242.325L67.3781 245.5H65.9292L68.5287 241.409L65.9292 237.318H67.3781ZM78.0994 237.318V238.384H73.8594V237.318H78.0994ZM75.0952 235.358H76.3523V243.156C76.3523 243.511 76.4038 243.778 76.5067 243.955C76.6133 244.129 76.7482 244.246 76.9116 244.307C77.0785 244.364 77.2543 244.392 77.4389 244.392C77.5774 244.392 77.6911 244.385 77.7798 244.371C77.8686 244.353 77.9396 244.339 77.9929 244.328L78.2486 245.457C78.1634 245.489 78.0444 245.521 77.8917 245.553C77.739 245.589 77.5455 245.607 77.3111 245.607C76.956 245.607 76.608 245.53 76.267 245.377C75.9297 245.225 75.6491 244.992 75.4254 244.68C75.2053 244.367 75.0952 243.973 75.0952 243.497V235.358ZM84.3849 240.237V241.409H79.6122V240.237H84.3849ZM89.0045 245.692C88.4861 245.692 88.0155 245.594 87.593 245.399C87.1704 245.2 86.8348 244.914 86.5862 244.541C86.3376 244.165 86.2133 243.71 86.2133 243.178C86.2133 242.709 86.3057 242.329 86.4903 242.038C86.675 241.743 86.9218 241.512 87.2307 241.345C87.5397 241.178 87.8806 241.054 88.2535 240.972C88.6299 240.887 89.0081 240.82 89.3881 240.77C89.8852 240.706 90.2883 240.658 90.5972 240.626C90.9097 240.591 91.137 240.532 91.279 240.45C91.4246 240.369 91.4974 240.227 91.4974 240.024V239.982C91.4974 239.456 91.3536 239.048 91.066 238.756C90.7819 238.465 90.3504 238.32 89.7716 238.32C89.1714 238.32 88.7009 238.451 88.36 238.714C88.0191 238.977 87.7794 239.257 87.6409 239.555L86.4477 239.129C86.6608 238.632 86.9449 238.245 87.3 237.968C87.6586 237.687 88.0493 237.492 88.4719 237.382C88.898 237.268 89.317 237.212 89.729 237.212C89.9917 237.212 90.2936 237.244 90.6345 237.308C90.979 237.368 91.311 237.494 91.6306 237.686C91.9537 237.877 92.2219 238.167 92.4349 238.554C92.648 238.941 92.7545 239.46 92.7545 240.109V245.5H91.4974V244.392H91.4335C91.3483 244.57 91.2062 244.76 91.0074 244.962C90.8085 245.164 90.5439 245.337 90.2137 245.479C89.8834 245.621 89.4804 245.692 89.0045 245.692ZM89.1963 244.562C89.6934 244.562 90.1125 244.465 90.4534 244.27C90.7979 244.074 91.0571 243.822 91.2311 243.513C91.4086 243.204 91.4974 242.879 91.4974 242.538V241.388C91.4442 241.452 91.327 241.51 91.1459 241.564C90.9683 241.613 90.7623 241.658 90.528 241.697C90.2971 241.732 90.0716 241.764 89.8515 241.793C89.6349 241.817 89.4591 241.839 89.3241 241.857C88.9974 241.899 88.692 241.968 88.4079 242.064C88.1274 242.157 87.9001 242.297 87.7261 242.485C87.5557 242.67 87.4704 242.922 87.4704 243.241C87.4704 243.678 87.632 244.009 87.9552 244.232C88.2819 244.452 88.6956 244.562 89.1963 244.562ZM96.3061 234.591V245.5H95.049V234.591H96.3061ZM98.6086 245.5V237.318H99.8657V245.5H98.6086ZM99.2478 235.955C99.0028 235.955 98.7915 235.871 98.6139 235.704C98.4399 235.537 98.3529 235.337 98.3529 235.102C98.3529 234.868 98.4399 234.667 98.6139 234.5C98.7915 234.333 99.0028 234.25 99.2478 234.25C99.4928 234.25 99.7023 234.333 99.8763 234.5C100.054 234.667 100.143 234.868 100.143 235.102C100.143 235.337 100.054 235.537 99.8763 235.704C99.7023 235.871 99.4928 235.955 99.2478 235.955ZM105.471 248.739C104.863 248.739 104.341 248.661 103.905 248.504C103.468 248.352 103.104 248.149 102.813 247.897C102.525 247.648 102.296 247.382 102.126 247.098L103.127 246.395C103.241 246.544 103.384 246.714 103.558 246.906C103.732 247.102 103.97 247.27 104.272 247.412C104.578 247.558 104.977 247.631 105.471 247.631C106.131 247.631 106.676 247.471 107.106 247.151C107.536 246.832 107.751 246.331 107.751 245.649V243.987H107.644C107.552 244.136 107.42 244.321 107.25 244.541C107.083 244.758 106.841 244.951 106.525 245.122C106.213 245.289 105.79 245.372 105.258 245.372C104.597 245.372 104.004 245.216 103.479 244.903C102.956 244.591 102.543 244.136 102.237 243.54C101.936 242.943 101.785 242.219 101.785 241.366C101.785 240.528 101.932 239.799 102.227 239.177C102.521 238.552 102.932 238.069 103.457 237.728C103.983 237.384 104.59 237.212 105.279 237.212C105.812 237.212 106.234 237.3 106.547 237.478C106.863 237.652 107.104 237.851 107.271 238.075C107.442 238.295 107.573 238.476 107.665 238.618H107.793V237.318H109.008V245.734C109.008 246.438 108.848 247.009 108.528 247.45C108.212 247.893 107.786 248.218 107.25 248.424C106.717 248.634 106.124 248.739 105.471 248.739ZM105.428 244.243C105.932 244.243 106.358 244.127 106.706 243.897C107.055 243.666 107.319 243.334 107.5 242.901C107.681 242.467 107.772 241.949 107.772 241.345C107.772 240.756 107.683 240.235 107.506 239.784C107.328 239.333 107.065 238.98 106.717 238.724C106.369 238.469 105.939 238.341 105.428 238.341C104.895 238.341 104.452 238.476 104.096 238.746C103.745 239.016 103.48 239.378 103.303 239.832C103.129 240.287 103.042 240.791 103.042 241.345C103.042 241.913 103.131 242.416 103.308 242.853C103.489 243.286 103.756 243.627 104.107 243.875C104.462 244.12 104.903 244.243 105.428 244.243ZM112.566 240.578V245.5H111.309V237.318H112.523V238.597H112.63C112.822 238.181 113.113 237.847 113.503 237.595C113.894 237.339 114.398 237.212 115.016 237.212C115.57 237.212 116.055 237.325 116.47 237.553C116.886 237.776 117.209 238.117 117.44 238.575C117.671 239.03 117.786 239.605 117.786 240.301V245.5H116.529V240.386C116.529 239.744 116.362 239.243 116.028 238.884C115.694 238.522 115.236 238.341 114.654 238.341C114.253 238.341 113.894 238.428 113.578 238.602C113.265 238.776 113.019 239.03 112.838 239.364C112.656 239.697 112.566 240.102 112.566 240.578Z" fill="#FF0000"/>
<path d="M98.1918 222.5L95.6989 214.318H97.0199L98.7884 220.582H98.8736L100.621 214.318H101.963L103.689 220.561H103.774L105.543 214.318H106.864L104.371 222.5H103.135L101.345 216.214H101.217L99.4276 222.5H98.1918ZM109.783 217.578V222.5H108.526V211.591H109.783V215.597H109.889C110.081 215.174 110.369 214.838 110.752 214.59C111.139 214.338 111.654 214.212 112.297 214.212C112.854 214.212 113.343 214.324 113.762 214.547C114.181 214.767 114.506 215.107 114.737 215.565C114.971 216.019 115.088 216.598 115.088 217.301V222.5H113.831V217.386C113.831 216.737 113.662 216.234 113.325 215.879C112.991 215.52 112.528 215.341 111.935 215.341C111.523 215.341 111.153 215.428 110.827 215.602C110.504 215.776 110.248 216.03 110.06 216.364C109.875 216.697 109.783 217.102 109.783 217.578ZM117.388 222.5V214.318H118.645V222.5H117.388ZM118.027 212.955C117.782 212.955 117.571 212.871 117.393 212.704C117.219 212.537 117.132 212.337 117.132 212.102C117.132 211.868 117.219 211.667 117.393 211.5C117.571 211.333 117.782 211.25 118.027 211.25C118.272 211.25 118.482 211.333 118.656 211.5C118.833 211.667 118.922 211.868 118.922 212.102C118.922 212.337 118.833 212.537 118.656 212.704C118.482 212.871 118.272 212.955 118.027 212.955ZM124.506 214.318V215.384H120.266V214.318H124.506ZM121.501 212.358H122.759V220.156C122.759 220.511 122.81 220.778 122.913 220.955C123.02 221.129 123.154 221.246 123.318 221.307C123.485 221.364 123.661 221.392 123.845 221.392C123.984 221.392 124.097 221.385 124.186 221.371C124.275 221.353 124.346 221.339 124.399 221.328L124.655 222.457C124.57 222.489 124.451 222.521 124.298 222.553C124.145 222.589 123.952 222.607 123.717 222.607C123.362 222.607 123.014 222.53 122.673 222.377C122.336 222.225 122.055 221.992 121.832 221.68C121.612 221.367 121.501 220.973 121.501 220.497V212.358ZM129.739 222.67C128.951 222.67 128.271 222.496 127.699 222.148C127.131 221.797 126.692 221.307 126.383 220.678C126.078 220.046 125.925 219.311 125.925 218.473C125.925 217.635 126.078 216.896 126.383 216.257C126.692 215.614 127.122 215.114 127.672 214.755C128.226 214.393 128.873 214.212 129.611 214.212C130.037 214.212 130.458 214.283 130.874 214.425C131.289 214.567 131.667 214.798 132.008 215.117C132.349 215.433 132.621 215.852 132.823 216.374C133.026 216.896 133.127 217.539 133.127 218.303V218.835H126.82V217.749H131.849C131.849 217.287 131.756 216.875 131.572 216.513C131.39 216.151 131.131 215.865 130.794 215.655C130.46 215.446 130.066 215.341 129.611 215.341C129.111 215.341 128.677 215.465 128.312 215.714C127.949 215.959 127.671 216.278 127.475 216.673C127.28 217.067 127.182 217.489 127.182 217.94V218.665C127.182 219.283 127.289 219.806 127.502 220.236C127.719 220.662 128.019 220.987 128.402 221.211C128.786 221.431 129.231 221.541 129.739 221.541C130.069 221.541 130.368 221.495 130.634 221.403C130.904 221.307 131.137 221.165 131.332 220.977C131.527 220.785 131.678 220.547 131.785 220.263L132.999 220.604C132.871 221.016 132.656 221.378 132.355 221.69C132.053 221.999 131.68 222.241 131.236 222.415C130.792 222.585 130.293 222.67 129.739 222.67ZM131.757 245.67C130.99 245.67 130.329 245.489 129.775 245.127C129.221 244.765 128.795 244.266 128.497 243.63C128.198 242.995 128.049 242.268 128.049 241.452C128.049 240.621 128.202 239.887 128.507 239.252C128.816 238.613 129.246 238.114 129.796 237.755C130.35 237.393 130.997 237.212 131.735 237.212C132.311 237.212 132.829 237.318 133.291 237.531C133.752 237.744 134.131 238.043 134.425 238.426C134.72 238.81 134.903 239.257 134.974 239.768H133.717C133.621 239.396 133.408 239.065 133.078 238.778C132.751 238.487 132.311 238.341 131.757 238.341C131.267 238.341 130.837 238.469 130.468 238.724C130.102 238.977 129.816 239.333 129.61 239.795C129.408 240.253 129.306 240.791 129.306 241.409C129.306 242.041 129.406 242.592 129.605 243.06C129.807 243.529 130.091 243.893 130.457 244.152C130.826 244.412 131.259 244.541 131.757 244.541C132.083 244.541 132.38 244.484 132.646 244.371C132.913 244.257 133.138 244.094 133.323 243.881C133.507 243.668 133.639 243.412 133.717 243.114H134.974C134.903 243.597 134.727 244.032 134.447 244.419C134.17 244.802 133.802 245.108 133.344 245.335C132.889 245.559 132.36 245.67 131.757 245.67ZM140.242 245.67C139.454 245.67 138.774 245.496 138.202 245.148C137.634 244.797 137.195 244.307 136.886 243.678C136.581 243.046 136.428 242.311 136.428 241.473C136.428 240.635 136.581 239.896 136.886 239.257C137.195 238.614 137.625 238.114 138.175 237.755C138.729 237.393 139.376 237.212 140.114 237.212C140.54 237.212 140.961 237.283 141.377 237.425C141.792 237.567 142.17 237.798 142.511 238.117C142.852 238.433 143.124 238.852 143.326 239.374C143.529 239.896 143.63 240.539 143.63 241.303V241.835H137.323V240.749H142.351C142.351 240.287 142.259 239.875 142.074 239.513C141.893 239.151 141.634 238.865 141.297 238.655C140.963 238.446 140.569 238.341 140.114 238.341C139.614 238.341 139.18 238.465 138.815 238.714C138.452 238.959 138.174 239.278 137.978 239.673C137.783 240.067 137.685 240.489 137.685 240.94V241.665C137.685 242.283 137.792 242.806 138.005 243.236C138.222 243.662 138.522 243.987 138.905 244.211C139.289 244.431 139.734 244.541 140.242 244.541C140.572 244.541 140.871 244.495 141.137 244.403C141.407 244.307 141.639 244.165 141.835 243.977C142.03 243.785 142.181 243.547 142.288 243.263L143.502 243.604C143.374 244.016 143.159 244.378 142.858 244.69C142.556 244.999 142.183 245.241 141.739 245.415C141.295 245.585 140.796 245.67 140.242 245.67ZM146.799 240.578V245.5H145.542V237.318H146.757V238.597H146.863C147.055 238.181 147.346 237.847 147.737 237.595C148.127 237.339 148.632 237.212 149.25 237.212C149.804 237.212 150.288 237.325 150.704 237.553C151.119 237.776 151.442 238.117 151.673 238.575C151.904 239.03 152.019 239.605 152.019 240.301V245.5H150.762V240.386C150.762 239.744 150.595 239.243 150.262 238.884C149.928 238.522 149.47 238.341 148.887 238.341C148.486 238.341 148.127 238.428 147.811 238.602C147.499 238.776 147.252 239.03 147.071 239.364C146.89 239.697 146.799 240.102 146.799 240.578ZM157.875 237.318V238.384H153.635V237.318H157.875ZM154.871 235.358H156.128V243.156C156.128 243.511 156.179 243.778 156.282 243.955C156.389 244.129 156.524 244.246 156.687 244.307C156.854 244.364 157.03 244.392 157.214 244.392C157.353 244.392 157.466 244.385 157.555 244.371C157.644 244.353 157.715 244.339 157.768 244.328L158.024 245.457C157.939 245.489 157.82 245.521 157.667 245.553C157.514 245.589 157.321 245.607 157.086 245.607C156.731 245.607 156.383 245.53 156.042 245.377C155.705 245.225 155.425 244.992 155.201 244.68C154.981 244.367 154.871 243.973 154.871 243.497V235.358ZM163.108 245.67C162.32 245.67 161.64 245.496 161.068 245.148C160.5 244.797 160.061 244.307 159.752 243.678C159.447 243.046 159.294 242.311 159.294 241.473C159.294 240.635 159.447 239.896 159.752 239.257C160.061 238.614 160.491 238.114 161.042 237.755C161.596 237.393 162.242 237.212 162.98 237.212C163.407 237.212 163.827 237.283 164.243 237.425C164.658 237.567 165.037 237.798 165.377 238.117C165.718 238.433 165.99 238.852 166.192 239.374C166.395 239.896 166.496 240.539 166.496 241.303V241.835H160.189V240.749H165.218C165.218 240.287 165.125 239.875 164.941 239.513C164.76 239.151 164.5 238.865 164.163 238.655C163.829 238.446 163.435 238.341 162.98 238.341C162.48 238.341 162.047 238.465 161.681 238.714C161.319 238.959 161.04 239.278 160.844 239.673C160.649 240.067 160.551 240.489 160.551 240.94V241.665C160.551 242.283 160.658 242.806 160.871 243.236C161.088 243.662 161.388 243.987 161.771 244.211C162.155 244.431 162.6 244.541 163.108 244.541C163.439 244.541 163.737 244.495 164.003 244.403C164.273 244.307 164.506 244.165 164.701 243.977C164.896 243.785 165.047 243.547 165.154 243.263L166.368 243.604C166.24 244.016 166.026 244.378 165.724 244.69C165.422 244.999 165.049 245.241 164.605 245.415C164.161 245.585 163.662 245.67 163.108 245.67ZM168.408 245.5V237.318H169.623V238.554H169.708C169.857 238.149 170.127 237.821 170.518 237.569C170.908 237.316 171.349 237.19 171.839 237.19C171.931 237.19 172.047 237.192 172.185 237.196C172.324 237.199 172.428 237.205 172.499 237.212V238.49C172.457 238.479 172.359 238.463 172.206 238.442C172.057 238.417 171.899 238.405 171.732 238.405C171.335 238.405 170.979 238.488 170.667 238.655C170.358 238.819 170.113 239.046 169.932 239.337C169.754 239.625 169.665 239.953 169.665 240.322V245.5H168.408Z" fill="#0000CD"/>
<path d="M44.131 316.068V304.818H45.3455V306.118H45.4947C45.587 305.976 45.7148 305.795 45.8782 305.575C46.0451 305.351 46.283 305.152 46.592 304.978C46.9045 304.8 47.3271 304.712 47.8597 304.712C48.5487 304.712 49.1559 304.884 49.6815 305.228C50.207 305.573 50.6172 306.061 50.9119 306.693C51.2067 307.325 51.354 308.071 51.354 308.93C51.354 309.797 51.2067 310.548 50.9119 311.184C50.6172 311.816 50.2088 312.306 49.6868 312.654C49.1648 312.998 48.5629 313.17 47.881 313.17C47.3555 313.17 46.9347 313.083 46.6186 312.909C46.3026 312.732 46.0593 312.531 45.8888 312.308C45.7184 312.08 45.587 311.892 45.4947 311.743H45.3881V316.068H44.131ZM45.3668 308.909C45.3668 309.527 45.4574 310.072 45.6385 310.544C45.8196 311.013 46.0842 311.381 46.4322 311.647C46.7802 311.91 47.2063 312.041 47.7106 312.041C48.2362 312.041 48.6747 311.903 49.0263 311.626C49.3814 311.345 49.6477 310.969 49.8253 310.496C50.0064 310.021 50.0969 309.491 50.0969 308.909C50.0969 308.334 50.0082 307.815 49.8306 307.354C49.6566 306.888 49.392 306.521 49.0369 306.251C48.6854 305.978 48.2433 305.841 47.7106 305.841C47.1992 305.841 46.7695 305.971 46.4215 306.23C46.0735 306.485 45.8107 306.844 45.6332 307.306C45.4556 307.764 45.3668 308.298 45.3668 308.909Z" fill="#A52A2A"/>
<path d="M56.8938 308.419V307.759C57.4869 307.759 57.9006 307.634 58.1349 307.386C58.3729 307.137 58.4918 306.722 58.4918 306.139V304.435C58.4918 303.945 58.538 303.52 58.6303 303.162C58.7262 302.803 58.8807 302.506 59.0938 302.272C59.3068 302.038 59.5909 301.864 59.946 301.75C60.3011 301.636 60.7397 301.58 61.2617 301.58V302.624C60.8498 302.624 60.5249 302.687 60.2869 302.815C60.0526 302.943 59.8857 303.142 59.7862 303.412C59.6903 303.678 59.6424 304.019 59.6424 304.435V306.565C59.6424 306.842 59.6051 307.094 59.5305 307.322C59.4595 307.549 59.3263 307.744 59.131 307.908C58.9357 308.071 58.657 308.197 58.2947 308.286C57.9361 308.375 57.4691 308.419 56.8938 308.419ZM61.2617 315.216C60.7397 315.216 60.3011 315.159 59.946 315.045C59.5909 314.932 59.3068 314.758 59.0938 314.523C58.8807 314.289 58.7262 313.993 58.6303 313.634C58.538 313.275 58.4918 312.851 58.4918 312.361V310.656C58.4918 310.074 58.3729 309.658 58.1349 309.41C57.9006 309.161 57.4869 309.037 56.8938 309.037V308.376C57.4691 308.376 57.9361 308.421 58.2947 308.51C58.657 308.598 58.9357 308.724 59.131 308.888C59.3263 309.051 59.4595 309.246 59.5305 309.474C59.6051 309.701 59.6424 309.953 59.6424 310.23V312.361C59.6424 312.776 59.6903 313.117 59.7862 313.384C59.8857 313.65 60.0526 313.847 60.2869 313.975C60.5249 314.106 60.8498 314.172 61.2617 314.172V315.216ZM56.8938 309.037V307.759H58.1509V309.037H56.8938ZM130.462 335.085C130.199 335.085 129.974 334.991 129.786 334.803C129.598 334.615 129.503 334.389 129.503 334.126C129.503 333.864 129.598 333.638 129.786 333.45C129.974 333.262 130.199 333.168 130.462 333.168C130.725 333.168 130.951 333.262 131.139 333.45C131.327 333.638 131.421 333.864 131.421 334.126C131.421 334.3 131.377 334.46 131.288 334.606C131.203 334.751 131.087 334.869 130.942 334.957C130.8 335.043 130.64 335.085 130.462 335.085ZM130.462 329.013C130.199 329.013 129.974 328.919 129.786 328.73C129.598 328.542 129.503 328.317 129.503 328.054C129.503 327.791 129.598 327.566 129.786 327.377C129.974 327.189 130.199 327.095 130.462 327.095C130.725 327.095 130.951 327.189 131.139 327.377C131.327 327.566 131.421 327.791 131.421 328.054C131.421 328.228 131.377 328.388 131.288 328.533C131.203 328.679 131.087 328.796 130.942 328.885C130.8 328.97 130.64 329.013 130.462 329.013ZM196.885 333.509L196.8 334.084C196.739 334.489 196.647 334.922 196.523 335.384C196.402 335.845 196.276 336.28 196.145 336.689C196.013 337.097 195.905 337.422 195.82 337.663H194.861C194.907 337.436 194.967 337.136 195.042 336.763C195.116 336.39 195.191 335.973 195.266 335.511C195.344 335.053 195.408 334.585 195.457 334.105L195.521 333.509H196.885ZM196.118 329.013C195.855 329.013 195.63 328.919 195.441 328.73C195.253 328.542 195.159 328.317 195.159 328.054C195.159 327.791 195.253 327.566 195.441 327.377C195.63 327.189 195.855 327.095 196.118 327.095C196.381 327.095 196.606 327.189 196.794 327.377C196.983 327.566 197.077 327.791 197.077 328.054C197.077 328.228 197.032 328.388 196.944 328.533C196.858 328.679 196.743 328.796 196.597 328.885C196.455 328.97 196.295 329.013 196.118 329.013ZM47.8597 353.376V354.037C47.2667 354.037 46.8512 354.161 46.6133 354.41C46.3789 354.658 46.2617 355.074 46.2617 355.656V357.361C46.2617 357.851 46.2138 358.275 46.1179 358.634C46.0256 358.993 45.8729 359.289 45.6598 359.523C45.4467 359.758 45.1626 359.932 44.8075 360.045C44.4524 360.159 44.0138 360.216 43.4918 360.216V359.172C43.9038 359.172 44.2269 359.106 44.4613 358.975C44.6992 358.847 44.8661 358.65 44.962 358.384C45.0614 358.117 45.1112 357.776 45.1112 357.361V355.23C45.1112 354.953 45.1467 354.701 45.2177 354.474C45.2923 354.246 45.4272 354.051 45.6225 353.888C45.8178 353.724 46.0948 353.598 46.4535 353.51C46.8157 353.421 47.2844 353.376 47.8597 353.376ZM43.4918 346.58C44.0138 346.58 44.4524 346.636 44.8075 346.75C45.1626 346.864 45.4467 347.038 45.6598 347.272C45.8729 347.506 46.0256 347.803 46.1179 348.162C46.2138 348.52 46.2617 348.945 46.2617 349.435V351.139C46.2617 351.722 46.3789 352.137 46.6133 352.386C46.8512 352.634 47.2667 352.759 47.8597 352.759V353.419C47.2844 353.419 46.8157 353.375 46.4535 353.286C46.0948 353.197 45.8178 353.071 45.6225 352.908C45.4272 352.744 45.2923 352.549 45.2177 352.322C45.1467 352.094 45.1112 351.842 45.1112 351.565V349.435C45.1112 349.019 45.0614 348.678 44.962 348.412C44.8661 348.142 44.6992 347.943 44.4613 347.815C44.2269 347.687 43.9038 347.624 43.4918 347.624V346.58ZM47.8597 352.759V354.037H46.6026V352.759H47.8597Z" fill="black"/>
<path d="M56.212 326.818V327.884H51.8015V326.818H56.212ZM53.1225 335V325.689C53.1225 325.22 53.2326 324.83 53.4528 324.517C53.6729 324.205 53.9588 323.97 54.3104 323.814C54.6619 323.658 55.033 323.58 55.4237 323.58C55.7326 323.58 55.9847 323.604 56.18 323.654C56.3754 323.704 56.521 323.75 56.6168 323.793L56.2546 324.879C56.1907 324.858 56.1019 324.831 55.9883 324.799C55.8782 324.767 55.7326 324.751 55.5515 324.751C55.136 324.751 54.8359 324.856 54.6513 325.066C54.4702 325.275 54.3796 325.582 54.3796 325.987V335H53.1225ZM60.9608 335.17C60.2221 335.17 59.574 334.995 59.0165 334.643C58.4625 334.292 58.0293 333.8 57.7168 333.168C57.4078 332.536 57.2534 331.797 57.2534 330.952C57.2534 330.099 57.4078 329.355 57.7168 328.72C58.0293 328.084 58.4625 327.591 59.0165 327.239C59.574 326.887 60.2221 326.712 60.9608 326.712C61.6994 326.712 62.3457 326.887 62.8997 327.239C63.4572 327.591 63.8904 328.084 64.1994 328.72C64.5119 329.355 64.6681 330.099 64.6681 330.952C64.6681 331.797 64.5119 332.536 64.1994 333.168C63.8904 333.8 63.4572 334.292 62.8997 334.643C62.3457 334.995 61.6994 335.17 60.9608 335.17ZM60.9608 334.041C61.5218 334.041 61.9835 333.897 62.3457 333.61C62.7079 333.322 62.976 332.944 63.15 332.475C63.324 332.006 63.411 331.499 63.411 330.952C63.411 330.405 63.324 329.895 63.15 329.423C62.976 328.951 62.7079 328.569 62.3457 328.278C61.9835 327.987 61.5218 327.841 60.9608 327.841C60.3997 327.841 59.938 327.987 59.5758 328.278C59.2136 328.569 58.9455 328.951 58.7715 329.423C58.5975 329.895 58.5105 330.405 58.5105 330.952C58.5105 331.499 58.5975 332.006 58.7715 332.475C58.9455 332.944 59.2136 333.322 59.5758 333.61C59.938 333.897 60.3997 334.041 60.9608 334.041ZM67.8442 330.078V335H66.5871V326.818H67.8016V328.097H67.9081C68.0999 327.681 68.3911 327.347 68.7817 327.095C69.1723 326.839 69.6766 326.712 70.2945 326.712C70.8485 326.712 71.3332 326.825 71.7487 327.053C72.1642 327.276 72.4873 327.617 72.7181 328.075C72.949 328.53 73.0644 329.105 73.0644 329.801V335H71.8073V329.886C71.8073 329.244 71.6404 328.743 71.3066 328.384C70.9727 328.022 70.5146 327.841 69.9323 327.841C69.531 327.841 69.1723 327.928 68.8563 328.102C68.5438 328.276 68.297 328.53 68.1159 328.864C67.9347 329.197 67.8442 329.602 67.8442 330.078ZM78.9197 326.818V327.884H74.6797V326.818H78.9197ZM75.9155 324.858H77.1726V332.656C77.1726 333.011 77.2241 333.278 77.3271 333.455C77.4336 333.629 77.5685 333.746 77.7319 333.807C77.8988 333.864 78.0746 333.892 78.2592 333.892C78.3977 333.892 78.5114 333.885 78.6001 333.871C78.6889 333.853 78.7599 333.839 78.8132 333.828L79.0689 334.957C78.9837 334.989 78.8647 335.021 78.712 335.053C78.5593 335.089 78.3658 335.107 78.1314 335.107C77.7763 335.107 77.4283 335.03 77.0874 334.877C76.75 334.725 76.4695 334.492 76.2457 334.18C76.0256 333.867 75.9155 333.473 75.9155 332.997V324.858ZM85.2053 329.737V330.909H80.4325V329.737H85.2053ZM91.0606 326.818V327.884H86.6501V326.818H91.0606ZM87.9711 335V325.689C87.9711 325.22 88.0812 324.83 88.3014 324.517C88.5216 324.205 88.8074 323.97 89.159 323.814C89.5106 323.658 89.8817 323.58 90.2723 323.58C90.5812 323.58 90.8334 323.604 91.0287 323.654C91.224 323.704 91.3696 323.75 91.4655 323.793L91.1032 324.879C91.0393 324.858 90.9506 324.831 90.8369 324.799C90.7268 324.767 90.5812 324.751 90.4001 324.751C89.9846 324.751 89.6846 324.856 89.4999 325.066C89.3188 325.275 89.2282 325.582 89.2282 325.987V335H87.9711ZM94.9957 335.192C94.4773 335.192 94.0067 335.094 93.5842 334.899C93.1616 334.7 92.826 334.414 92.5774 334.041C92.3288 333.665 92.2045 333.21 92.2045 332.678C92.2045 332.209 92.2969 331.829 92.4815 331.538C92.6662 331.243 92.913 331.012 93.2219 330.845C93.5309 330.678 93.8718 330.554 94.2447 330.472C94.6211 330.387 94.9993 330.32 95.3793 330.27C95.8764 330.206 96.2795 330.158 96.5884 330.126C96.9009 330.091 97.1282 330.032 97.2702 329.95C97.4158 329.869 97.4886 329.727 97.4886 329.524V329.482C97.4886 328.956 97.3448 328.548 97.0572 328.256C96.7731 327.965 96.3416 327.82 95.7628 327.82C95.1626 327.82 94.6921 327.951 94.3512 328.214C94.0103 328.477 93.7706 328.757 93.6321 329.055L92.4389 328.629C92.652 328.132 92.9361 327.745 93.2912 327.468C93.6499 327.187 94.0405 326.992 94.4631 326.882C94.8892 326.768 95.3082 326.712 95.7202 326.712C95.983 326.712 96.2848 326.744 96.6257 326.808C96.9702 326.868 97.3022 326.994 97.6218 327.186C97.945 327.377 98.2131 327.667 98.4261 328.054C98.6392 328.441 98.7457 328.96 98.7457 329.609V335H97.4886V333.892H97.4247C97.3395 334.07 97.1974 334.26 96.9986 334.462C96.7997 334.664 96.5352 334.837 96.2049 334.979C95.8746 335.121 95.4716 335.192 94.9957 335.192ZM95.1875 334.062C95.6847 334.062 96.1037 333.965 96.4446 333.77C96.7891 333.574 97.0483 333.322 97.2223 333.013C97.3999 332.704 97.4886 332.379 97.4886 332.038V330.888C97.4354 330.952 97.3182 331.01 97.1371 331.064C96.9595 331.113 96.7536 331.158 96.5192 331.197C96.2884 331.232 96.0629 331.264 95.8427 331.293C95.6261 331.317 95.4503 331.339 95.3153 331.357C94.9886 331.399 94.6832 331.468 94.3991 331.564C94.1186 331.657 93.8913 331.797 93.7173 331.985C93.5469 332.17 93.4616 332.422 93.4616 332.741C93.4616 333.178 93.6232 333.509 93.9464 333.732C94.2731 333.952 94.6868 334.062 95.1875 334.062ZM101.04 335V326.818H102.255V328.097H102.361C102.532 327.66 102.807 327.321 103.187 327.079C103.567 326.834 104.023 326.712 104.556 326.712C105.096 326.712 105.545 326.834 105.903 327.079C106.266 327.321 106.548 327.66 106.75 328.097H106.836C107.045 327.674 107.359 327.338 107.778 327.09C108.198 326.838 108.7 326.712 109.286 326.712C110.017 326.712 110.616 326.941 111.081 327.399C111.546 327.853 111.779 328.562 111.779 329.524V335H110.522V329.524C110.522 328.92 110.357 328.489 110.026 328.23C109.696 327.971 109.307 327.841 108.86 327.841C108.285 327.841 107.839 328.015 107.523 328.363C107.207 328.707 107.049 329.144 107.049 329.673V335H105.77V329.396C105.77 328.931 105.619 328.556 105.318 328.272C105.016 327.985 104.627 327.841 104.151 327.841C103.824 327.841 103.519 327.928 103.235 328.102C102.954 328.276 102.727 328.517 102.553 328.826C102.383 329.132 102.297 329.485 102.297 329.886V335H101.04ZM114.077 335V326.818H115.334V335H114.077ZM114.717 325.455C114.472 325.455 114.26 325.371 114.083 325.204C113.909 325.037 113.822 324.837 113.822 324.602C113.822 324.368 113.909 324.167 114.083 324C114.26 323.833 114.472 323.75 114.717 323.75C114.962 323.75 115.171 323.833 115.345 324C115.523 324.167 115.611 324.368 115.611 324.602C115.611 324.837 115.523 325.037 115.345 325.204C115.171 325.371 114.962 325.455 114.717 325.455ZM118.894 324.091V335H117.637V324.091H118.894ZM122.006 338.068C121.793 338.068 121.603 338.05 121.436 338.015C121.269 337.983 121.154 337.951 121.09 337.919L121.41 336.811C121.715 336.889 121.985 336.918 122.219 336.896C122.454 336.875 122.661 336.77 122.842 336.582C123.027 336.397 123.196 336.097 123.348 335.682L123.583 335.043L120.557 326.818H121.921L124.179 333.338H124.265L126.523 326.818H127.887L124.414 336.193C124.258 336.616 124.064 336.966 123.833 337.243C123.602 337.523 123.334 337.731 123.029 337.866C122.727 338.001 122.386 338.068 122.006 338.068Z" fill="#FF0000"/>
<path d="M144.586 326.818L141.56 335H140.282L137.256 326.818H138.62L140.879 333.338H140.964L143.222 326.818H144.586ZM149.383 335.17C148.594 335.17 147.914 334.996 147.343 334.648C146.774 334.297 146.336 333.807 146.027 333.178C145.722 332.546 145.569 331.811 145.569 330.973C145.569 330.135 145.722 329.396 146.027 328.757C146.336 328.114 146.766 327.614 147.316 327.255C147.87 326.893 148.516 326.712 149.255 326.712C149.681 326.712 150.102 326.783 150.517 326.925C150.933 327.067 151.311 327.298 151.652 327.617C151.993 327.933 152.264 328.352 152.467 328.874C152.669 329.396 152.771 330.039 152.771 330.803V331.335H146.464V330.249H151.492C151.492 329.787 151.4 329.375 151.215 329.013C151.034 328.651 150.775 328.365 150.437 328.155C150.104 327.946 149.709 327.841 149.255 327.841C148.754 327.841 148.321 327.965 147.955 328.214C147.593 328.459 147.314 328.778 147.119 329.173C146.924 329.567 146.826 329.989 146.826 330.44V331.165C146.826 331.783 146.932 332.306 147.146 332.736C147.362 333.162 147.662 333.487 148.046 333.711C148.429 333.931 148.875 334.041 149.383 334.041C149.713 334.041 150.011 333.995 150.278 333.903C150.547 333.807 150.78 333.665 150.975 333.477C151.171 333.285 151.322 333.047 151.428 332.763L152.643 333.104C152.515 333.516 152.3 333.878 151.998 334.19C151.696 334.499 151.323 334.741 150.88 334.915C150.436 335.085 149.937 335.17 149.383 335.17ZM154.683 335V326.818H155.897V328.054H155.983C156.132 327.649 156.402 327.321 156.792 327.069C157.183 326.816 157.623 326.69 158.113 326.69C158.206 326.69 158.321 326.692 158.459 326.696C158.598 326.699 158.703 326.705 158.774 326.712V327.99C158.731 327.979 158.633 327.963 158.481 327.942C158.332 327.917 158.174 327.905 158.007 327.905C157.609 327.905 157.254 327.988 156.941 328.155C156.632 328.319 156.387 328.546 156.206 328.837C156.029 329.125 155.94 329.453 155.94 329.822V335H154.683ZM163.104 335.17C162.422 335.17 161.821 334.998 161.299 334.654C160.777 334.306 160.368 333.816 160.073 333.184C159.779 332.548 159.631 331.797 159.631 330.93C159.631 330.071 159.779 329.325 160.073 328.693C160.368 328.061 160.778 327.573 161.304 327.228C161.829 326.884 162.437 326.712 163.126 326.712C163.658 326.712 164.079 326.8 164.388 326.978C164.701 327.152 164.938 327.351 165.102 327.575C165.269 327.795 165.398 327.976 165.491 328.118H165.597V324.091H166.854V335H165.64V333.743H165.491C165.398 333.892 165.267 334.08 165.097 334.308C164.926 334.531 164.683 334.732 164.367 334.909C164.051 335.083 163.63 335.17 163.104 335.17ZM163.275 334.041C163.779 334.041 164.205 333.91 164.553 333.647C164.901 333.381 165.166 333.013 165.347 332.544C165.528 332.072 165.619 331.527 165.619 330.909C165.619 330.298 165.53 329.764 165.352 329.306C165.175 328.844 164.912 328.485 164.564 328.23C164.216 327.971 163.786 327.841 163.275 327.841C162.742 327.841 162.298 327.978 161.943 328.251C161.592 328.521 161.327 328.888 161.149 329.354C160.975 329.815 160.888 330.334 160.888 330.909C160.888 331.491 160.977 332.021 161.155 332.496C161.336 332.969 161.602 333.345 161.954 333.626C162.309 333.903 162.749 334.041 163.275 334.041ZM171.739 335.192C171.22 335.192 170.75 335.094 170.327 334.899C169.905 334.7 169.569 334.414 169.321 334.041C169.072 333.665 168.948 333.21 168.948 332.678C168.948 332.209 169.04 331.829 169.225 331.538C169.409 331.243 169.656 331.012 169.965 330.845C170.274 330.678 170.615 330.554 170.988 330.472C171.364 330.387 171.742 330.32 172.122 330.27C172.62 330.206 173.023 330.158 173.332 330.126C173.644 330.091 173.871 330.032 174.013 329.95C174.159 329.869 174.232 329.727 174.232 329.524V329.482C174.232 328.956 174.088 328.548 173.8 328.256C173.516 327.965 173.085 327.82 172.506 327.82C171.906 327.82 171.435 327.951 171.094 328.214C170.753 328.477 170.514 328.757 170.375 329.055L169.182 328.629C169.395 328.132 169.679 327.745 170.034 327.468C170.393 327.187 170.784 326.992 171.206 326.882C171.632 326.768 172.051 326.712 172.463 326.712C172.726 326.712 173.028 326.744 173.369 326.808C173.713 326.868 174.045 326.994 174.365 327.186C174.688 327.377 174.956 327.667 175.169 328.054C175.382 328.441 175.489 328.96 175.489 329.609V335H174.232V333.892H174.168C174.083 334.07 173.941 334.26 173.742 334.462C173.543 334.664 173.278 334.837 172.948 334.979C172.618 335.121 172.215 335.192 171.739 335.192ZM171.931 334.062C172.428 334.062 172.847 333.965 173.188 333.77C173.532 333.574 173.791 333.322 173.965 333.013C174.143 332.704 174.232 332.379 174.232 332.038V330.888C174.179 330.952 174.061 331.01 173.88 331.064C173.703 331.113 173.497 331.158 173.262 331.197C173.032 331.232 172.806 331.264 172.586 331.293C172.369 331.317 172.193 331.339 172.059 331.357C171.732 331.399 171.426 331.468 171.142 331.564C170.862 331.657 170.634 331.797 170.46 331.985C170.29 332.17 170.205 332.422 170.205 332.741C170.205 333.178 170.366 333.509 170.69 333.732C171.016 333.952 171.43 334.062 171.931 334.062ZM179.04 330.078V335H177.783V326.818H178.998V328.097H179.104C179.296 327.681 179.587 327.347 179.978 327.095C180.369 326.839 180.873 326.712 181.491 326.712C182.045 326.712 182.529 326.825 182.945 327.053C183.36 327.276 183.684 327.617 183.914 328.075C184.145 328.53 184.261 329.105 184.261 329.801V335H183.004V329.886C183.004 329.244 182.837 328.743 182.503 328.384C182.169 328.022 181.711 327.841 181.129 327.841C180.727 327.841 180.369 327.928 180.053 328.102C179.74 328.276 179.493 328.53 179.312 328.864C179.131 329.197 179.04 329.602 179.04 330.078ZM188.965 335.192C188.447 335.192 187.976 335.094 187.554 334.899C187.131 334.7 186.796 334.414 186.547 334.041C186.299 333.665 186.174 333.21 186.174 332.678C186.174 332.209 186.267 331.829 186.451 331.538C186.636 331.243 186.883 331.012 187.192 330.845C187.501 330.678 187.842 330.554 188.214 330.472C188.591 330.387 188.969 330.32 189.349 330.27C189.846 330.206 190.249 330.158 190.558 330.126C190.871 330.091 191.098 330.032 191.24 329.95C191.386 329.869 191.458 329.727 191.458 329.524V329.482C191.458 328.956 191.315 328.548 191.027 328.256C190.743 327.965 190.311 327.82 189.733 327.82C189.132 327.82 188.662 327.951 188.321 328.214C187.98 328.477 187.74 328.757 187.602 329.055L186.409 328.629C186.622 328.132 186.906 327.745 187.261 327.468C187.62 327.187 188.01 326.992 188.433 326.882C188.859 326.768 189.278 326.712 189.69 326.712C189.953 326.712 190.255 326.744 190.595 326.808C190.94 326.868 191.272 326.994 191.592 327.186C191.915 327.377 192.183 327.667 192.396 328.054C192.609 328.441 192.715 328.96 192.715 329.609V335H191.458V333.892H191.394C191.309 334.07 191.167 334.26 190.968 334.462C190.769 334.664 190.505 334.837 190.175 334.979C189.844 335.121 189.441 335.192 188.965 335.192ZM189.157 334.062C189.654 334.062 190.073 333.965 190.414 333.77C190.759 333.574 191.018 333.322 191.192 333.013C191.37 332.704 191.458 332.379 191.458 332.038V330.888C191.405 330.952 191.288 331.01 191.107 331.064C190.929 331.113 190.723 331.158 190.489 331.197C190.258 331.232 190.033 331.264 189.812 331.293C189.596 331.317 189.42 331.339 189.285 331.357C188.958 331.399 188.653 331.468 188.369 331.564C188.088 331.657 187.861 331.797 187.687 331.985C187.517 332.17 187.431 332.422 187.431 332.741C187.431 333.178 187.593 333.509 187.916 333.732C188.243 333.952 188.657 334.062 189.157 334.062Z" fill="#0000CD"/>
<path d="M30.9805 372.5V86.5H22.9805V372.5H30.9805Z" fill="#0D47A1" mask="url(#path-3-inside-1_142_26827)"/>
<rect x="26.9805" y="388.5" width="200" height="43" rx="21.5" fill="#0D47A1"/>
<path d="M80.3904 416.5V405.952H76.8264V404.692H85.4664V405.952H81.9024V416.5H80.3904ZM86.6226 416.5V407.752H87.8466L87.9726 409.336H88.0266C88.3266 408.784 88.6926 408.346 89.1246 408.022C89.5566 407.698 90.0186 407.536 90.5106 407.536C90.8586 407.536 91.1706 407.596 91.4466 407.716L91.1586 409.012C91.0146 408.964 90.8826 408.928 90.7626 408.904C90.6426 408.88 90.4926 408.868 90.3126 408.868C89.9406 408.868 89.5506 409.018 89.1426 409.318C88.7466 409.618 88.3986 410.14 88.0986 410.884V416.5H86.6226ZM93.4639 420.262C93.2719 420.262 93.0859 420.244 92.9059 420.208C92.7379 420.172 92.5819 420.13 92.4379 420.082L92.7259 418.912C92.8219 418.936 92.9299 418.96 93.0499 418.984C93.1699 419.02 93.2839 419.038 93.3919 419.038C93.8839 419.038 94.2919 418.858 94.6159 418.498C94.9399 418.15 95.1919 417.706 95.3719 417.166L95.5699 416.518L92.0599 407.752H93.5899L95.3719 412.594C95.5039 412.966 95.6419 413.368 95.7859 413.8C95.9419 414.232 96.0859 414.652 96.2179 415.06H96.2899C96.4219 414.664 96.5479 414.25 96.6679 413.818C96.7879 413.386 96.9079 412.978 97.0279 412.594L98.5939 407.752H100.034L96.7399 417.22C96.5359 417.796 96.2899 418.312 96.0019 418.768C95.7259 419.224 95.3779 419.584 94.9579 419.848C94.5499 420.124 94.0519 420.262 93.4639 420.262ZM105.326 416.5V407.752H106.802V416.5H105.326ZM106.082 405.952C105.794 405.952 105.554 405.868 105.362 405.7C105.182 405.52 105.092 405.28 105.092 404.98C105.092 404.692 105.182 404.458 105.362 404.278C105.554 404.098 105.794 404.008 106.082 404.008C106.37 404.008 106.604 404.098 106.784 404.278C106.976 404.458 107.072 404.692 107.072 404.98C107.072 405.28 106.976 405.52 106.784 405.7C106.604 405.868 106.37 405.952 106.082 405.952ZM112.509 416.716C111.573 416.716 110.919 416.446 110.547 415.906C110.187 415.366 110.007 414.664 110.007 413.8V408.958H108.711V407.842L110.079 407.752L110.259 405.304H111.501V407.752H113.859V408.958H111.501V413.818C111.501 414.358 111.597 414.778 111.789 415.078C111.993 415.366 112.347 415.51 112.851 415.51C113.007 415.51 113.175 415.486 113.355 415.438C113.535 415.378 113.697 415.324 113.841 415.276L114.129 416.392C113.889 416.476 113.625 416.548 113.337 416.608C113.061 416.68 112.785 416.716 112.509 416.716ZM121.493 416.5V411.928L117.947 404.692H119.549L121.079 408.022C121.271 408.454 121.457 408.88 121.637 409.3C121.829 409.72 122.021 410.152 122.213 410.596H122.285C122.489 410.152 122.693 409.72 122.897 409.3C123.101 408.88 123.293 408.454 123.473 408.022L124.985 404.692H126.551L123.005 411.928V416.5H121.493ZM130.665 416.716C129.957 416.716 129.291 416.536 128.667 416.176C128.055 415.816 127.557 415.294 127.173 414.61C126.801 413.926 126.615 413.104 126.615 412.144C126.615 411.16 126.801 410.326 127.173 409.642C127.557 408.958 128.055 408.436 128.667 408.076C129.291 407.716 129.957 407.536 130.665 407.536C131.385 407.536 132.051 407.716 132.663 408.076C133.275 408.436 133.767 408.958 134.139 409.642C134.523 410.326 134.715 411.16 134.715 412.144C134.715 413.104 134.523 413.926 134.139 414.61C133.767 415.294 133.275 415.816 132.663 416.176C132.051 416.536 131.385 416.716 130.665 416.716ZM130.665 415.492C131.421 415.492 132.027 415.186 132.483 414.574C132.951 413.95 133.185 413.14 133.185 412.144C133.185 411.136 132.951 410.32 132.483 409.696C132.027 409.072 131.421 408.76 130.665 408.76C129.921 408.76 129.315 409.072 128.847 409.696C128.379 410.32 128.145 411.136 128.145 412.144C128.145 413.14 128.379 413.95 128.847 414.574C129.315 415.186 129.921 415.492 130.665 415.492ZM139.575 416.716C138.651 416.716 137.973 416.428 137.541 415.852C137.109 415.264 136.893 414.412 136.893 413.296V407.752H138.387V413.098C138.387 413.914 138.513 414.508 138.765 414.88C139.029 415.252 139.449 415.438 140.025 415.438C140.481 415.438 140.883 415.324 141.231 415.096C141.591 414.856 141.975 414.478 142.383 413.962V407.752H143.859V416.5H142.635L142.509 415.132H142.455C142.047 415.612 141.615 415.996 141.159 416.284C140.703 416.572 140.175 416.716 139.575 416.716ZM146.81 416.5V407.752H148.034L148.16 409.336H148.214C148.514 408.784 148.88 408.346 149.312 408.022C149.744 407.698 150.206 407.536 150.698 407.536C151.046 407.536 151.358 407.596 151.634 407.716L151.346 409.012C151.202 408.964 151.07 408.928 150.95 408.904C150.83 408.88 150.68 408.868 150.5 408.868C150.128 408.868 149.738 409.018 149.33 409.318C148.934 409.618 148.586 410.14 148.286 410.884V416.5H146.81ZM155.266 416.716C154.642 416.716 154.048 416.602 153.484 416.374C152.92 416.134 152.428 415.846 152.008 415.51L152.746 414.52C153.13 414.82 153.526 415.072 153.934 415.276C154.342 415.468 154.804 415.564 155.32 415.564C155.896 415.564 156.328 415.432 156.616 415.168C156.904 414.892 157.048 414.568 157.048 414.196C157.048 413.896 156.946 413.644 156.742 413.44C156.55 413.236 156.298 413.068 155.986 412.936C155.686 412.792 155.374 412.66 155.05 412.54C154.642 412.384 154.24 412.21 153.844 412.018C153.448 411.814 153.124 411.556 152.872 411.244C152.62 410.92 152.494 410.512 152.494 410.02C152.494 409.312 152.758 408.724 153.286 408.256C153.826 407.776 154.57 407.536 155.518 407.536C156.058 407.536 156.562 407.632 157.03 407.824C157.498 408.016 157.9 408.25 158.236 408.526L157.516 409.462C157.216 409.234 156.904 409.048 156.58 408.904C156.256 408.76 155.902 408.688 155.518 408.688C154.966 408.688 154.558 408.814 154.294 409.066C154.042 409.318 153.916 409.612 153.916 409.948C153.916 410.224 154.006 410.452 154.186 410.632C154.366 410.8 154.6 410.95 154.888 411.082C155.176 411.202 155.482 411.328 155.806 411.46C156.226 411.616 156.64 411.796 157.048 412C157.456 412.192 157.792 412.456 158.056 412.792C158.332 413.116 158.47 413.554 158.47 414.106C158.47 414.574 158.344 415.006 158.092 415.402C157.852 415.798 157.492 416.116 157.012 416.356C156.544 416.596 155.962 416.716 155.266 416.716ZM164.067 416.716C163.287 416.716 162.579 416.536 161.943 416.176C161.307 415.804 160.803 415.276 160.431 414.592C160.059 413.908 159.873 413.092 159.873 412.144C159.873 411.184 160.059 410.362 160.431 409.678C160.815 408.994 161.307 408.466 161.907 408.094C162.507 407.722 163.137 407.536 163.797 407.536C164.913 407.536 165.771 407.908 166.371 408.652C166.983 409.396 167.289 410.392 167.289 411.64C167.289 411.796 167.283 411.952 167.271 412.108C167.271 412.252 167.259 412.378 167.235 412.486H161.331C161.391 413.41 161.679 414.148 162.195 414.7C162.723 415.252 163.407 415.528 164.247 415.528C164.667 415.528 165.051 415.468 165.399 415.348C165.759 415.216 166.101 415.048 166.425 414.844L166.947 415.816C166.575 416.056 166.149 416.266 165.669 416.446C165.201 416.626 164.667 416.716 164.067 416.716ZM161.313 411.424H165.993C165.993 410.536 165.801 409.864 165.417 409.408C165.045 408.94 164.517 408.706 163.833 408.706C163.221 408.706 162.669 408.946 162.177 409.426C161.697 409.894 161.409 410.56 161.313 411.424ZM171.017 416.716C170.465 416.716 170.063 416.548 169.811 416.212C169.571 415.864 169.451 415.372 169.451 414.736V403.684H170.927V414.844C170.927 415.072 170.969 415.24 171.053 415.348C171.137 415.444 171.233 415.492 171.341 415.492C171.389 415.492 171.431 415.492 171.467 415.492C171.515 415.48 171.581 415.468 171.665 415.456L171.863 416.572C171.767 416.62 171.653 416.656 171.521 416.68C171.389 416.704 171.221 416.716 171.017 416.716ZM174.291 416.5V408.958H173.103V407.842L174.291 407.752V406.366C174.291 405.478 174.495 404.776 174.903 404.26C175.323 403.732 175.971 403.468 176.847 403.468C177.123 403.468 177.387 403.498 177.639 403.558C177.891 403.606 178.113 403.672 178.305 403.756L177.981 404.89C177.657 404.746 177.327 404.674 176.991 404.674C176.175 404.674 175.767 405.238 175.767 406.366V407.752H177.621V408.958H175.767V416.5H174.291Z" fill="white"/>
</g>
<defs>
<filter id="filter0_dd_142_26827" x="0.980469" y="0.5" width="635.98" height="459" filterUnits="userSpaceOnUse" color-interpolation-filters="sRGB">
<feFlood flood-opacity="0" result="BackgroundImageFix"/>
<feColorMatrix in="SourceAlpha" type="matrix" values="0 0 0 0 0 0 0 0 0 0 0 0 0 0 0 0 0 0 127 0" result="hardAlpha"/>
<feOffset dy="2"/>
<feGaussianBlur stdDeviation="5"/>
<feComposite in2="hardAlpha" operator="out"/>
<feColorMatrix type="matrix" values="0 0 0 0 0 0 0 0 0 0 0 0 0 0 0 0 0 0 0.12 0"/>
<feBlend mode="normal" in2="BackgroundImageFix" result="effect1_dropShadow_142_26827"/>
<feColorMatrix in="SourceAlpha" type="matrix" values="0 0 0 0 0 0 0 0 0 0 0 0 0 0 0 0 0 0 127 0" result="hardAlpha"/>
<feOffset dy="2"/>
<feGaussianBlur stdDeviation="2.5"/>
<feComposite in2="hardAlpha" operator="out"/>
<feColorMatrix type="matrix" values="0 0 0 0 0 0 0 0 0 0 0 0 0 0 0 0 0 0 0.16 0"/>
<feBlend mode="normal" in2="effect1_dropShadow_142_26827" result="effect2_dropShadow_142_26827"/>
<feBlend mode="normal" in="SourceGraphic" in2="effect2_dropShadow_142_26827" result="shape"/>
</filter>
</defs>
</svg>
