<svg xmlns="http://www.w3.org/2000/svg" xmlns:xlink="http://www.w3.org/1999/xlink" width="1366" zoomAndPan="magnify" viewBox="0 0 1024.5 576" height="768" preserveAspectRatio="xMidYMid meet" version="1.0"><defs><clipPath id="6806391d28"><path d="M 327.785156 207.488281 L 573.785156 207.488281 L 573.785156 393 L 327.785156 393 Z M 327.785156 207.488281 " clip-rule="nonzero"/></clipPath><clipPath id="45ede052eb"><path d="M 327.785156 346 L 573.785156 346 L 573.785156 352 L 327.785156 352 Z M 327.785156 346 " clip-rule="nonzero"/></clipPath><clipPath id="2abab30abe"><path d="M 378 412 L 524 412 L 524 437.738281 L 378 437.738281 Z M 378 412 " clip-rule="nonzero"/></clipPath></defs><path fill="#000000" d="M 447.292969 317.75 C 446.96875 317.75 446.644531 317.695312 446.324219 317.578125 C 444.882812 317.042969 444.148438 315.441406 444.679688 314 L 470.9375 243.199219 C 471.472656 241.757812 473.070312 241.023438 474.519531 241.558594 C 475.960938 242.089844 476.695312 243.691406 476.160156 245.132812 L 449.902344 315.9375 C 449.488281 317.054688 448.425781 317.75 447.292969 317.75 Z M 447.292969 317.75 " fill-opacity="1" fill-rule="nonzero"/><path fill="#000000" d="M 384.84375 304.546875 C 375.777344 304.546875 368.402344 297.558594 368.402344 288.972656 L 368.402344 257.691406 C 368.402344 256.15625 369.652344 254.910156 371.1875 254.910156 C 372.722656 254.910156 373.96875 256.15625 373.96875 257.691406 L 373.96875 288.972656 C 373.96875 294.492188 378.84375 298.984375 384.84375 298.984375 C 390.84375 298.984375 395.71875 294.492188 395.71875 288.972656 L 395.71875 257.691406 C 395.71875 256.15625 396.96875 254.910156 398.503906 254.910156 C 400.039062 254.910156 401.285156 256.15625 401.285156 257.691406 L 401.285156 288.972656 C 401.285156 297.558594 393.910156 304.546875 384.84375 304.546875 Z M 384.84375 304.546875 " fill-opacity="1" fill-rule="nonzero"/><path fill="#000000" d="M 411.699219 304.546875 C 411.253906 304.546875 410.804688 304.441406 410.378906 304.214844 C 409.027344 303.484375 408.519531 301.800781 409.25 300.445312 L 433.171875 256.054688 C 433.898438 254.703125 435.585938 254.199219 436.9375 254.925781 C 438.292969 255.65625 438.796875 257.34375 438.070312 258.695312 L 414.148438 303.085938 C 413.652344 304.011719 412.691406 304.546875 411.699219 304.546875 Z M 411.699219 304.546875 " fill-opacity="1" fill-rule="nonzero"/><path fill="#000000" d="M 435.625 304.546875 C 434.636719 304.546875 433.675781 304.019531 433.171875 303.085938 L 409.25 258.695312 C 408.519531 257.34375 409.027344 255.65625 410.378906 254.925781 C 411.730469 254.199219 413.417969 254.703125 414.148438 256.054688 L 438.070312 300.445312 C 438.796875 301.796875 438.292969 303.484375 436.9375 304.214844 C 436.523438 304.4375 436.070312 304.546875 435.625 304.546875 Z M 435.625 304.546875 " fill-opacity="1" fill-rule="nonzero"/><path fill="#000000" d="M 498.878906 304.546875 C 489.8125 304.546875 482.4375 297.558594 482.4375 288.972656 L 482.4375 257.691406 C 482.4375 256.15625 483.683594 254.910156 485.21875 254.910156 C 486.757812 254.910156 488.003906 256.15625 488.003906 257.691406 L 488.003906 288.972656 C 488.003906 294.492188 492.878906 298.984375 498.878906 298.984375 C 504.878906 298.984375 509.753906 294.492188 509.753906 288.972656 L 509.753906 257.691406 C 509.753906 256.15625 511 254.910156 512.535156 254.910156 C 514.074219 254.910156 515.320312 256.15625 515.320312 257.691406 L 515.320312 288.972656 C 515.3125 297.558594 507.941406 304.546875 498.878906 304.546875 Z M 498.878906 304.546875 " fill-opacity="1" fill-rule="nonzero"/><path fill="#000000" d="M 530.335938 307.5625 C 528.800781 307.5625 527.554688 306.316406 527.554688 304.78125 L 527.535156 254.359375 C 527.535156 252.824219 528.78125 251.578125 530.320312 251.578125 C 531.855469 251.578125 533.101562 252.824219 533.101562 254.359375 L 533.117188 304.78125 C 533.125 306.316406 531.878906 307.558594 530.335938 307.5625 C 530.339844 307.5625 530.335938 307.5625 530.335938 307.5625 Z M 530.335938 307.5625 " fill-opacity="1" fill-rule="nonzero"/><path fill="#000000" d="M 423.921875 378.332031 C 418.84375 378.332031 414.714844 374.203125 414.714844 369.128906 C 414.714844 364.054688 418.84375 359.925781 423.921875 359.925781 C 428.996094 359.925781 433.125 364.054688 433.125 369.128906 C 433.125 374.203125 428.996094 378.332031 423.921875 378.332031 Z M 423.921875 365.492188 C 421.910156 365.492188 420.28125 367.121094 420.28125 369.128906 C 420.28125 371.136719 421.910156 372.769531 423.921875 372.769531 C 425.929688 372.769531 427.5625 371.136719 427.5625 369.128906 C 427.5625 367.121094 425.929688 365.492188 423.921875 365.492188 Z M 423.921875 365.492188 " fill-opacity="1" fill-rule="nonzero"/><path fill="#000000" d="M 450.765625 378.332031 C 445.6875 378.332031 441.558594 374.203125 441.558594 369.128906 C 441.558594 364.054688 445.6875 359.925781 450.765625 359.925781 C 455.839844 359.925781 459.96875 364.054688 459.96875 369.128906 C 459.96875 374.203125 455.839844 378.332031 450.765625 378.332031 Z M 450.765625 365.492188 C 448.753906 365.492188 447.125 367.121094 447.125 369.128906 C 447.125 371.136719 448.753906 372.769531 450.765625 372.769531 C 452.773438 372.769531 454.402344 371.136719 454.402344 369.128906 C 454.402344 367.121094 452.773438 365.492188 450.765625 365.492188 Z M 450.765625 365.492188 " fill-opacity="1" fill-rule="nonzero"/><path fill="#000000" d="M 477.605469 378.332031 C 472.53125 378.332031 468.402344 374.203125 468.402344 369.128906 C 468.402344 364.054688 472.53125 359.925781 477.605469 359.925781 C 482.683594 359.925781 486.8125 364.054688 486.8125 369.128906 C 486.8125 374.203125 482.683594 378.332031 477.605469 378.332031 Z M 477.605469 365.492188 C 475.597656 365.492188 473.96875 367.121094 473.96875 369.128906 C 473.96875 371.136719 475.597656 372.769531 477.605469 372.769531 C 479.617188 372.769531 481.246094 371.136719 481.246094 369.128906 C 481.246094 367.121094 479.617188 365.492188 477.605469 365.492188 Z M 477.605469 365.492188 " fill-opacity="1" fill-rule="nonzero"/><g clip-path="url(#6806391d28)"><path fill="#000000" d="M 556.488281 392.257812 L 345.039062 392.257812 C 335.515625 392.257812 327.765625 384.515625 327.765625 374.988281 L 327.765625 224.84375 C 327.765625 215.320312 335.511719 207.570312 345.039062 207.570312 L 556.488281 207.570312 C 566.015625 207.570312 573.765625 215.316406 573.765625 224.84375 L 573.765625 374.988281 C 573.765625 384.515625 566.015625 392.257812 556.488281 392.257812 Z M 345.039062 213.136719 C 338.582031 213.136719 333.328125 218.386719 333.328125 224.84375 L 333.328125 374.988281 C 333.328125 381.441406 338.582031 386.695312 345.039062 386.695312 L 556.488281 386.695312 C 562.945312 386.695312 568.199219 381.441406 568.199219 374.988281 L 568.199219 224.84375 C 568.199219 218.386719 562.945312 213.136719 556.488281 213.136719 Z M 345.039062 213.136719 " fill-opacity="1" fill-rule="nonzero"/></g><g clip-path="url(#45ede052eb)"><path fill="#000000" d="M 570.980469 351.5625 L 330.546875 351.5625 C 329.011719 351.5625 327.765625 350.316406 327.765625 348.78125 C 327.765625 347.246094 329.011719 346 330.546875 346 L 570.980469 346 C 572.515625 346 573.765625 347.246094 573.765625 348.78125 C 573.765625 350.316406 572.515625 351.5625 570.980469 351.5625 Z M 570.980469 351.5625 " fill-opacity="1" fill-rule="nonzero"/></g><path fill="#000000" d="M 495.226562 417.941406 C 493.691406 417.941406 492.445312 416.695312 492.445312 415.160156 L 492.445312 389.476562 C 492.445312 387.941406 493.691406 386.695312 495.226562 386.695312 C 496.765625 386.695312 498.011719 387.941406 498.011719 389.476562 L 498.011719 415.160156 C 498.011719 416.695312 496.765625 417.941406 495.226562 417.941406 Z M 407.621094 417.941406 C 406.082031 417.941406 404.835938 416.695312 404.835938 415.160156 L 404.835938 389.476562 C 404.835938 387.941406 406.082031 386.695312 407.621094 386.695312 C 409.15625 386.695312 410.402344 387.941406 410.402344 389.476562 L 410.402344 415.160156 C 410.402344 416.695312 409.15625 417.941406 407.621094 417.941406 Z M 407.621094 417.941406 " fill-opacity="1" fill-rule="nonzero"/><g clip-path="url(#2abab30abe)"><path fill="#000000" d="M 510.378906 437.703125 L 391.152344 437.703125 C 384.164062 437.703125 378.488281 432.019531 378.488281 425.042969 C 378.488281 418.058594 384.171875 412.382812 391.152344 412.382812 L 510.378906 412.382812 C 517.363281 412.382812 523.039062 418.066406 523.039062 425.042969 C 523.042969 432.019531 517.363281 437.703125 510.378906 437.703125 Z M 391.152344 417.941406 C 387.238281 417.941406 384.054688 421.125 384.054688 425.039062 C 384.054688 428.949219 387.238281 432.132812 391.152344 432.132812 L 510.378906 432.132812 C 514.289062 432.132812 517.472656 428.949219 517.472656 425.039062 C 517.472656 421.125 514.289062 417.941406 510.378906 417.941406 Z M 391.152344 417.941406 " fill-opacity="1" fill-rule="nonzero"/></g></svg>