<svg xmlns="http://www.w3.org/2000/svg" xmlns:xlink="http://www.w3.org/1999/xlink" width="1366" zoomAndPan="magnify" viewBox="0 0 1024.5 576" height="768" preserveAspectRatio="xMidYMid meet" version="1.0"><defs><clipPath id="5b582f2a21"><path d="M 343.238281 127.515625 L 568.238281 127.515625 L 568.238281 332.265625 L 343.238281 332.265625 Z M 343.238281 127.515625 " clip-rule="nonzero"/></clipPath></defs><g clip-path="url(#5b582f2a21)"><path fill="#000000" d="M 552.152344 134.636719 L 475.195312 134.636719 C 468.125 129.664062 462.273438 127.515625 455.738281 127.515625 C 448.566406 127.515625 441.667969 130.054688 436.207031 134.636719 L 359.328125 134.636719 C 350.46875 134.636719 343.261719 141.824219 343.261719 150.660156 L 343.261719 275.292969 C 343.261719 284.128906 350.46875 291.316406 359.328125 291.316406 L 428.960938 291.316406 L 428.960938 308.050781 L 404.09375 321.28125 C 402.914062 321.890625 402.179688 323.097656 402.179688 324.433594 L 402.179688 328.707031 C 402.179688 330.667969 403.78125 332.265625 405.75 332.265625 L 505.730469 332.265625 C 507.699219 332.265625 509.300781 330.667969 509.300781 328.707031 L 509.300781 324.433594 C 509.300781 323.097656 508.566406 321.890625 507.410156 321.296875 L 482.519531 308.050781 L 482.519531 291.316406 L 552.152344 291.316406 C 561.011719 291.316406 568.21875 284.128906 568.21875 275.292969 L 568.21875 150.660156 C 568.21875 141.824219 561.011719 134.636719 552.152344 134.636719 Z M 437.992188 137.773438 C 438.050781 137.726562 438.113281 137.691406 438.164062 137.632812 C 443.03125 133.410156 449.261719 131.078125 455.738281 131.078125 C 461.671875 131.078125 466.828125 133.027344 473.515625 137.796875 L 474.6875 138.882812 C 478.507812 142.710938 481.054688 147.515625 482.050781 152.765625 C 482.363281 154.445312 482.519531 156.132812 482.519531 157.785156 L 482.519531 177.367188 L 475.378906 177.367188 L 475.378906 157.785156 C 475.378906 152.554688 473.335938 147.640625 469.625 143.9375 C 465.914062 140.238281 460.984375 138.199219 455.738281 138.199219 C 444.910156 138.199219 436.101562 146.984375 436.101562 157.785156 L 436.101562 177.367188 L 428.960938 177.367188 L 428.960938 157.785156 C 428.960938 156.132812 429.117188 154.445312 429.429688 152.773438 C 430.515625 147.019531 433.558594 141.699219 437.992188 137.773438 Z M 445.199219 219.992188 C 445.910156 215.757812 449.226562 212.3125 453.445312 211.429688 C 456.683594 210.757812 459.980469 211.550781 462.496094 213.59375 C 465.011719 215.636719 466.453125 218.65625 466.453125 221.878906 C 466.453125 225.71875 464.386719 229.230469 461.097656 231.125 L 461.097656 245.023438 C 461.097656 246.988281 459.496094 248.585938 457.527344 248.585938 L 453.953125 248.585938 C 451.984375 248.585938 450.382812 246.988281 450.382812 245.023438 L 450.382812 231.125 C 446.519531 228.902344 444.414062 224.484375 445.199219 219.992188 Z M 439.671875 177.367188 L 439.671875 157.785156 C 439.671875 148.949219 446.882812 141.757812 455.738281 141.757812 C 460.027344 141.757812 464.0625 143.429688 467.101562 146.453125 C 470.136719 149.484375 471.808594 153.507812 471.808594 157.785156 L 471.808594 177.367188 Z M 359.328125 138.199219 L 432.621094 138.199219 C 429.558594 141.804688 427.363281 146.085938 426.257812 150.660156 L 346.832031 150.660156 C 346.832031 143.792969 352.4375 138.199219 359.328125 138.199219 Z M 346.832031 154.222656 L 425.625 154.222656 C 425.484375 155.414062 425.386719 156.605469 425.386719 157.785156 L 425.386719 177.511719 C 419.339844 178.378906 414.675781 183.566406 414.675781 189.832031 L 414.675781 240.449219 C 412.824219 239.519531 411.054688 238.464844 409.402344 237.28125 C 389.941406 223.273438 389.679688 195.449219 389.679688 195.171875 C 389.679688 194.1875 388.882812 193.390625 387.894531 193.390625 C 386.910156 193.394531 386.109375 194.191406 386.109375 195.171875 C 386.109375 196.351562 386.34375 223.539062 405.660156 238.90625 L 390.199219 254.453125 C 389.503906 255.152344 389.507812 256.277344 390.210938 256.96875 C 390.558594 257.316406 391.011719 257.488281 391.464844 257.488281 C 391.925781 257.488281 392.386719 257.3125 392.734375 256.960938 L 408.582031 241.023438 C 410.523438 242.308594 412.582031 243.445312 414.738281 244.417969 C 415.328125 250.738281 420.679688 255.707031 427.175781 255.707031 L 453.953125 255.707031 L 453.953125 269.949219 L 346.832031 269.949219 Z M 505.730469 324.433594 L 505.730469 328.707031 L 405.75 328.707031 L 405.75 324.4375 L 431.1875 310.902344 L 480.289062 310.902344 Z M 432.53125 307.339844 L 432.53125 291.316406 L 478.949219 291.316406 L 478.949219 307.339844 Z M 564.648438 275.292969 C 564.648438 282.164062 559.042969 287.753906 552.152344 287.753906 L 359.328125 287.753906 C 352.4375 287.753906 346.832031 282.164062 346.832031 275.292969 L 346.832031 273.511719 L 564.648438 273.511719 Z M 564.648438 269.949219 L 457.527344 269.949219 L 457.527344 255.707031 L 484.304688 255.707031 C 490.804688 255.707031 496.152344 250.738281 496.746094 244.410156 C 499.203125 243.292969 501.527344 241.976562 503.691406 240.464844 L 518.691406 256.90625 C 519.046875 257.292969 519.53125 257.488281 520.015625 257.488281 C 520.441406 257.488281 520.871094 257.335938 521.214844 257.023438 C 521.945312 256.363281 521.996094 255.234375 521.332031 254.507812 L 506.542969 238.300781 C 525.144531 222.851562 525.371094 196.324219 525.371094 195.171875 C 525.371094 194.1875 524.570312 193.390625 523.585938 193.390625 C 522.597656 193.390625 521.800781 194.1875 521.800781 195.171875 C 521.800781 195.445312 521.582031 222.511719 502.867188 236.683594 C 500.988281 238.101562 498.957031 239.359375 496.804688 240.445312 L 496.804688 189.832031 C 496.804688 183.566406 492.140625 178.378906 486.089844 177.511719 L 486.089844 157.785156 C 486.089844 156.609375 485.996094 155.417969 485.855469 154.222656 L 564.648438 154.222656 Z M 485.230469 150.660156 C 484.121094 146.078125 481.972656 141.835938 478.882812 138.199219 L 552.152344 138.199219 C 559.042969 138.199219 564.648438 143.792969 564.648438 150.660156 Z M 485.230469 150.660156 " fill-opacity="1" fill-rule="nonzero"/></g><path fill="#000000" d="M 398.609375 193.390625 C 398.609375 204.628906 402.089844 215.691406 407.925781 222.988281 C 408.277344 223.429688 408.796875 223.660156 409.320312 223.660156 C 409.710938 223.660156 410.105469 223.535156 410.433594 223.273438 C 411.203125 222.65625 411.328125 221.539062 410.714844 220.769531 C 405.371094 214.082031 402.179688 203.847656 402.179688 193.390625 C 402.179688 189.847656 402.5 186.363281 403.128906 183.035156 C 405.042969 172.753906 409.695312 164.554688 415.582031 161.097656 C 416.429688 160.601562 416.714844 159.507812 416.214844 158.660156 C 415.714844 157.8125 414.621094 157.53125 413.769531 158.03125 C 407.300781 161.828125 402.1875 170.332031 399.917969 180.929688 L 373.613281 180.929688 C 372.628906 180.929688 371.828125 181.726562 371.828125 182.710938 C 371.828125 183.695312 372.628906 184.488281 373.613281 184.488281 L 399.273438 184.488281 C 398.839844 187.382812 398.609375 190.363281 398.609375 193.390625 Z M 398.609375 193.390625 " fill-opacity="1" fill-rule="nonzero"/><path fill="#000000" d="M 495.894531 161.09375 C 498.671875 162.738281 501.265625 165.519531 503.386719 169.152344 C 507.199219 175.640625 509.300781 184.246094 509.300781 193.390625 C 509.300781 203.847656 506.109375 214.082031 500.765625 220.769531 C 500.148438 221.539062 500.277344 222.660156 501.046875 223.273438 C 501.375 223.535156 501.769531 223.660156 502.160156 223.660156 C 502.683594 223.660156 503.203125 223.429688 503.554688 222.988281 C 509.390625 215.691406 512.871094 204.628906 512.871094 193.390625 C 512.871094 184.367188 510.910156 175.804688 507.355469 169.011719 L 526.1875 159.367188 C 527.0625 158.917969 527.410156 157.84375 526.960938 156.96875 C 526.507812 156.097656 525.433594 155.75 524.554688 156.199219 L 505.578125 165.914062 C 503.316406 162.457031 500.621094 159.746094 497.710938 158.03125 C 496.863281 157.527344 495.769531 157.808594 495.265625 158.652344 C 494.765625 159.503906 495.046875 160.59375 495.894531 161.09375 Z M 495.894531 161.09375 " fill-opacity="1" fill-rule="nonzero"/></svg>