<svg xmlns="http://www.w3.org/2000/svg" xmlns:xlink="http://www.w3.org/1999/xlink" width="1366" zoomAndPan="magnify" viewBox="0 0 1024.5 576" height="768" preserveAspectRatio="xMidYMid meet" version="1.0"><defs><clipPath id="6267fe0030"><path d="M 598 211.992188 L 683 211.992188 L 683 266 L 598 266 Z M 598 211.992188 " clip-rule="nonzero"/></clipPath><clipPath id="8f99605996"><path d="M 460.113281 211.992188 L 690.363281 211.992188 L 690.363281 442.242188 L 460.113281 442.242188 Z M 460.113281 211.992188 " clip-rule="nonzero"/></clipPath></defs><g clip-path="url(#6267fe0030)"><path fill="#000000" d="M 609.773438 265.714844 L 671.175781 265.714844 C 671.929688 265.714844 672.679688 265.640625 673.421875 265.496094 C 674.160156 265.347656 674.882812 265.128906 675.578125 264.839844 C 676.277344 264.550781 676.941406 264.195312 677.570312 263.777344 C 678.199219 263.355469 678.78125 262.878906 679.316406 262.34375 C 679.847656 261.808594 680.328125 261.226562 680.746094 260.597656 C 681.167969 259.972656 681.519531 259.308594 681.808594 258.609375 C 682.097656 257.910156 682.316406 257.191406 682.464844 256.449219 C 682.613281 255.707031 682.6875 254.960938 682.6875 254.203125 L 682.6875 223.503906 C 682.6875 222.746094 682.613281 222 682.464844 221.257812 C 682.316406 220.515625 682.097656 219.796875 681.808594 219.097656 C 681.519531 218.398438 681.167969 217.734375 680.746094 217.105469 C 680.328125 216.480469 679.847656 215.898438 679.316406 215.363281 C 678.78125 214.828125 678.199219 214.351562 677.570312 213.929688 C 676.941406 213.511719 676.277344 213.15625 675.578125 212.867188 C 674.882812 212.578125 674.160156 212.359375 673.421875 212.210938 C 672.679688 212.066406 671.929688 211.992188 671.175781 211.992188 L 609.773438 211.992188 C 609.019531 211.992188 608.269531 212.066406 607.527344 212.210938 C 606.785156 212.359375 606.066406 212.578125 605.367188 212.867188 C 604.671875 213.15625 604.007812 213.511719 603.378906 213.929688 C 602.75 214.351562 602.167969 214.828125 601.632812 215.363281 C 601.097656 215.898438 600.621094 216.480469 600.203125 217.105469 C 599.78125 217.734375 599.425781 218.398438 599.136719 219.097656 C 598.847656 219.796875 598.628906 220.515625 598.484375 221.257812 C 598.335938 222 598.261719 222.746094 598.261719 223.503906 L 598.261719 254.203125 C 598.261719 254.960938 598.335938 255.707031 598.484375 256.449219 C 598.628906 257.191406 598.847656 257.910156 599.136719 258.609375 C 599.425781 259.308594 599.78125 259.972656 600.203125 260.597656 C 600.621094 261.226562 601.097656 261.808594 601.632812 262.34375 C 602.167969 262.878906 602.75 263.355469 603.378906 263.777344 C 604.007812 264.195312 604.671875 264.550781 605.367188 264.839844 C 606.066406 265.128906 606.785156 265.347656 607.527344 265.496094 C 608.269531 265.640625 609.019531 265.714844 609.773438 265.714844 Z M 605.9375 223.503906 C 605.9375 222.996094 606.035156 222.503906 606.230469 222.035156 C 606.421875 221.566406 606.699219 221.148438 607.0625 220.789062 C 607.421875 220.429688 607.835938 220.152344 608.304688 219.957031 C 608.777344 219.761719 609.265625 219.664062 609.773438 219.664062 L 671.175781 219.664062 C 671.683594 219.664062 672.171875 219.761719 672.644531 219.957031 C 673.113281 220.152344 673.527344 220.429688 673.886719 220.789062 C 674.246094 221.148438 674.523438 221.566406 674.71875 222.035156 C 674.914062 222.503906 675.011719 222.996094 675.011719 223.503906 L 675.011719 254.203125 C 675.011719 254.710938 674.914062 255.203125 674.71875 255.671875 C 674.523438 256.140625 674.246094 256.558594 673.886719 256.917969 C 673.527344 257.277344 673.113281 257.554688 672.644531 257.75 C 672.171875 257.945312 671.683594 258.039062 671.175781 258.039062 L 609.773438 258.039062 C 609.265625 258.039062 608.777344 257.945312 608.304688 257.75 C 607.835938 257.554688 607.421875 257.277344 607.0625 256.917969 C 606.699219 256.558594 606.421875 256.140625 606.230469 255.671875 C 606.035156 255.203125 605.9375 254.710938 605.9375 254.203125 Z M 605.9375 223.503906 " fill-opacity="1" fill-rule="nonzero"/></g><g clip-path="url(#8f99605996)"><path fill="#000000" d="M 678.847656 357.816406 L 667.335938 357.816406 L 667.335938 342.464844 C 667.335938 341.957031 667.238281 341.46875 667.042969 340.996094 C 666.851562 340.527344 666.574219 340.113281 666.210938 339.753906 C 665.851562 339.390625 665.4375 339.113281 664.96875 338.921875 C 664.496094 338.726562 664.007812 338.628906 663.5 338.628906 L 615.8125 338.628906 C 616.902344 334.867188 617.449219 331.03125 617.449219 327.117188 C 617.449219 323.199219 616.902344 319.363281 615.8125 315.601562 L 640.472656 315.601562 C 640.984375 315.601562 641.472656 315.507812 641.941406 315.3125 C 642.414062 315.117188 642.828125 314.839844 643.1875 314.480469 C 643.546875 314.121094 643.824219 313.703125 644.019531 313.234375 C 644.214844 312.765625 644.3125 312.273438 644.3125 311.765625 L 644.3125 288.742188 L 676.929688 288.742188 C 677.546875 288.738281 678.164062 288.6875 678.773438 288.585938 C 679.382812 288.484375 679.980469 288.335938 680.566406 288.140625 C 681.152344 287.941406 681.71875 287.699219 682.265625 287.414062 C 682.8125 287.125 683.335938 286.796875 683.828125 286.425781 C 684.324219 286.054688 684.785156 285.648438 685.214844 285.203125 C 685.644531 284.757812 686.035156 284.28125 686.386719 283.773438 C 686.738281 283.265625 687.050781 282.734375 687.316406 282.175781 C 687.585938 281.621094 687.808594 281.042969 687.984375 280.453125 L 689.726562 274.464844 C 689.8125 274.179688 689.863281 273.886719 689.875 273.589844 C 689.890625 273.292969 689.875 272.996094 689.820312 272.703125 C 689.765625 272.410156 689.679688 272.128906 689.5625 271.855469 C 689.441406 271.582031 689.292969 271.328125 689.113281 271.089844 C 688.9375 270.851562 688.730469 270.636719 688.503906 270.445312 C 688.273438 270.253906 688.027344 270.089844 687.761719 269.957031 C 687.496094 269.824219 687.214844 269.722656 686.925781 269.65625 C 686.636719 269.585938 686.34375 269.554688 686.042969 269.554688 L 648.148438 269.554688 C 647.640625 269.554688 647.152344 269.652344 646.679688 269.84375 C 646.210938 270.039062 645.796875 270.316406 645.4375 270.675781 C 645.074219 271.039062 644.796875 271.453125 644.605469 271.921875 C 644.410156 272.390625 644.3125 272.882812 644.3125 273.390625 L 636.636719 273.390625 C 636.636719 272.882812 636.539062 272.390625 636.34375 271.921875 C 636.148438 271.453125 635.871094 271.039062 635.511719 270.675781 C 635.152344 270.316406 634.738281 270.039062 634.269531 269.84375 C 633.796875 269.652344 633.308594 269.554688 632.800781 269.554688 L 594.902344 269.554688 C 594.605469 269.554688 594.3125 269.585938 594.023438 269.65625 C 593.730469 269.722656 593.453125 269.824219 593.1875 269.957031 C 592.921875 270.089844 592.671875 270.253906 592.445312 270.445312 C 592.214844 270.636719 592.011719 270.851562 591.832031 271.089844 C 591.65625 271.328125 591.507812 271.582031 591.386719 271.855469 C 591.269531 272.128906 591.179688 272.410156 591.128906 272.703125 C 591.074219 272.996094 591.054688 273.292969 591.070312 273.589844 C 591.085938 273.886719 591.136719 274.179688 591.21875 274.464844 L 592.964844 280.453125 C 593.140625 281.042969 593.363281 281.621094 593.628906 282.175781 C 593.898438 282.734375 594.207031 283.265625 594.5625 283.773438 C 594.914062 284.28125 595.304688 284.757812 595.734375 285.203125 C 596.164062 285.648438 596.625 286.054688 597.121094 286.425781 C 597.613281 286.796875 598.136719 287.125 598.683594 287.414062 C 599.230469 287.699219 599.796875 287.941406 600.382812 288.140625 C 600.96875 288.335938 601.566406 288.484375 602.175781 288.585938 C 602.785156 288.6875 603.398438 288.738281 604.019531 288.742188 L 636.636719 288.742188 L 636.636719 307.929688 L 612.789062 307.929688 C 611.914062 306.203125 610.921875 304.546875 609.816406 302.960938 C 608.710938 301.375 607.503906 299.867188 606.191406 298.449219 C 604.878906 297.027344 603.472656 295.703125 601.980469 294.476562 C 600.484375 293.246094 598.910156 292.128906 597.261719 291.117188 C 595.613281 290.105469 593.902344 289.210938 592.128906 288.4375 C 590.359375 287.660156 588.542969 287.011719 586.679688 286.484375 C 584.816406 285.960938 582.929688 285.5625 581.011719 285.300781 C 579.097656 285.035156 577.171875 284.902344 575.238281 284.902344 C 573.300781 284.902344 571.375 285.035156 569.460938 285.300781 C 567.542969 285.5625 565.65625 285.960938 563.792969 286.484375 C 561.933594 287.011719 560.113281 287.660156 558.34375 288.4375 C 556.570312 289.210938 554.859375 290.105469 553.210938 291.117188 C 551.5625 292.128906 549.988281 293.246094 548.496094 294.476562 C 547 295.703125 545.597656 297.027344 544.285156 298.449219 C 542.972656 299.867188 541.761719 301.375 540.65625 302.960938 C 539.550781 304.546875 538.558594 306.203125 537.683594 307.929688 L 486.972656 307.929688 L 486.972656 280.917969 C 496.808594 280.175781 506.160156 276.554688 506.160156 269.554688 L 506.160156 223.503906 C 506.160156 215.59375 494.226562 211.992188 483.136719 211.992188 C 472.046875 211.992188 460.113281 215.59375 460.113281 223.503906 L 460.113281 269.554688 C 460.113281 276.554688 469.464844 280.175781 479.300781 280.917969 L 479.300781 311.765625 C 479.300781 312.273438 479.398438 312.765625 479.589844 313.234375 C 479.785156 313.703125 480.0625 314.121094 480.421875 314.480469 C 480.78125 314.839844 481.199219 315.117188 481.667969 315.3125 C 482.136719 315.507812 482.628906 315.601562 483.136719 315.601562 L 534.660156 315.601562 C 533.570312 319.363281 533.023438 323.199219 533.023438 327.117188 C 533.023438 331.03125 533.570312 334.867188 534.660156 338.628906 L 502.324219 338.628906 C 501.816406 338.628906 501.324219 338.726562 500.855469 338.921875 C 500.386719 339.113281 499.96875 339.390625 499.609375 339.753906 C 499.25 340.113281 498.972656 340.527344 498.777344 340.996094 C 498.585938 341.46875 498.488281 341.957031 498.488281 342.464844 L 498.488281 365.492188 L 471.625 365.492188 C 470.867188 365.492188 470.121094 365.566406 469.378906 365.710938 C 468.636719 365.859375 467.917969 366.078125 467.21875 366.367188 C 466.519531 366.65625 465.855469 367.011719 465.226562 367.429688 C 464.601562 367.851562 464.019531 368.328125 463.484375 368.863281 C 462.949219 369.398438 462.472656 369.980469 462.050781 370.605469 C 461.632812 371.234375 461.277344 371.898438 460.988281 372.597656 C 460.699219 373.296875 460.480469 374.015625 460.332031 374.757812 C 460.183594 375.5 460.113281 376.246094 460.113281 377.003906 L 460.113281 415.378906 C 460.113281 416.132812 460.183594 416.882812 460.332031 417.625 C 460.480469 418.367188 460.699219 419.085938 460.988281 419.785156 C 461.277344 420.480469 461.632812 421.144531 462.050781 421.773438 C 462.472656 422.402344 462.949219 422.984375 463.484375 423.519531 C 464.019531 424.054688 464.601562 424.53125 465.226562 424.949219 C 465.855469 425.371094 466.519531 425.726562 467.21875 426.015625 C 467.917969 426.304688 468.636719 426.523438 469.378906 426.667969 C 470.121094 426.816406 470.867188 426.890625 471.625 426.890625 L 486.171875 426.890625 L 483.578125 437.488281 C 483.507812 437.773438 483.472656 438.058594 483.46875 438.351562 C 483.464844 438.640625 483.492188 438.929688 483.554688 439.214844 C 483.617188 439.496094 483.707031 439.769531 483.832031 440.035156 C 483.957031 440.296875 484.105469 440.542969 484.285156 440.773438 C 484.464844 441 484.667969 441.207031 484.894531 441.390625 C 485.121094 441.574219 485.367188 441.726562 485.628906 441.855469 C 485.890625 441.980469 486.164062 442.078125 486.445312 442.144531 C 486.730469 442.207031 487.015625 442.242188 487.308594 442.242188 L 517.339844 442.242188 C 517.632812 442.242188 517.917969 442.207031 518.203125 442.144531 C 518.484375 442.078125 518.757812 441.980469 519.019531 441.855469 C 519.28125 441.726562 519.527344 441.574219 519.753906 441.390625 C 519.980469 441.207031 520.183594 441 520.363281 440.773438 C 520.542969 440.542969 520.691406 440.296875 520.816406 440.035156 C 520.941406 439.769531 521.03125 439.496094 521.09375 439.214844 C 521.15625 438.929688 521.183594 438.640625 521.179688 438.351562 C 521.175781 438.058594 521.140625 437.773438 521.070312 437.488281 L 518.476562 426.890625 L 533.023438 426.890625 C 533.78125 426.890625 534.527344 426.816406 535.269531 426.667969 C 536.011719 426.523438 536.730469 426.304688 537.429688 426.015625 C 538.128906 425.726562 538.792969 425.371094 539.421875 424.949219 C 540.046875 424.53125 540.628906 424.054688 541.164062 423.519531 C 541.699219 422.984375 542.175781 422.402344 542.597656 421.773438 C 543.015625 421.144531 543.371094 420.480469 543.660156 419.785156 C 543.949219 419.085938 544.167969 418.367188 544.316406 417.625 C 544.464844 416.882812 544.535156 416.132812 544.535156 415.378906 L 544.535156 377.003906 C 544.535156 376.246094 544.464844 375.5 544.316406 374.757812 C 544.167969 374.015625 543.949219 373.296875 543.660156 372.597656 C 543.371094 371.898438 543.015625 371.234375 542.597656 370.605469 C 542.175781 369.980469 541.699219 369.398438 541.164062 368.863281 C 540.628906 368.328125 540.046875 367.851562 539.421875 367.429688 C 538.792969 367.011719 538.128906 366.65625 537.429688 366.367188 C 536.730469 366.078125 536.011719 365.859375 535.269531 365.710938 C 534.527344 365.566406 533.78125 365.492188 533.023438 365.492188 L 506.160156 365.492188 L 506.160156 346.304688 L 537.683594 346.304688 C 538.558594 348.027344 539.550781 349.683594 540.65625 351.269531 C 541.761719 352.859375 542.972656 354.363281 544.285156 355.785156 C 545.597656 357.203125 547 358.527344 548.496094 359.757812 C 549.988281 360.984375 551.5625 362.105469 553.210938 363.117188 C 554.859375 364.125 556.570312 365.019531 558.34375 365.796875 C 560.113281 366.570312 561.933594 367.222656 563.792969 367.746094 C 565.65625 368.273438 567.542969 368.667969 569.460938 368.933594 C 571.375 369.199219 573.300781 369.332031 575.238281 369.332031 C 577.171875 369.332031 579.097656 369.199219 581.011719 368.933594 C 582.929688 368.667969 584.816406 368.273438 586.679688 367.746094 C 588.542969 367.222656 590.359375 366.570312 592.128906 365.796875 C 593.902344 365.019531 595.613281 364.125 597.261719 363.117188 C 598.910156 362.105469 600.484375 360.984375 601.980469 359.757812 C 603.472656 358.527344 604.878906 357.203125 606.191406 355.785156 C 607.503906 354.363281 608.710938 352.859375 609.816406 351.269531 C 610.921875 349.683594 611.914062 348.027344 612.789062 346.304688 L 659.660156 346.304688 L 659.660156 357.816406 L 648.148438 357.816406 C 647.394531 357.816406 646.644531 357.890625 645.902344 358.035156 C 645.160156 358.183594 644.441406 358.402344 643.742188 358.691406 C 643.046875 358.980469 642.382812 359.335938 641.753906 359.757812 C 641.125 360.175781 640.542969 360.652344 640.007812 361.1875 C 639.472656 361.722656 638.996094 362.304688 638.578125 362.933594 C 638.15625 363.5625 637.800781 364.222656 637.511719 364.921875 C 637.222656 365.621094 637.003906 366.339844 636.859375 367.082031 C 636.710938 367.824219 636.636719 368.574219 636.636719 369.328125 L 636.636719 430.726562 C 636.636719 431.484375 636.710938 432.234375 636.859375 432.972656 C 637.003906 433.714844 637.222656 434.433594 637.511719 435.132812 C 637.800781 435.832031 638.15625 436.496094 638.578125 437.125 C 638.996094 437.753906 639.472656 438.335938 640.007812 438.867188 C 640.542969 439.402344 641.125 439.878906 641.753906 440.300781 C 642.382812 440.71875 643.046875 441.074219 643.742188 441.363281 C 644.441406 441.652344 645.160156 441.871094 645.902344 442.019531 C 646.644531 442.167969 647.394531 442.242188 648.148438 442.242188 L 678.847656 442.242188 C 679.605469 442.242188 680.355469 442.167969 681.09375 442.019531 C 681.835938 441.871094 682.554688 441.652344 683.253906 441.363281 C 683.953125 441.074219 684.617188 440.71875 685.246094 440.300781 C 685.875 439.878906 686.457031 439.402344 686.988281 438.867188 C 687.523438 438.335938 688 437.753906 688.421875 437.125 C 688.839844 436.496094 689.195312 435.832031 689.484375 435.132812 C 689.773438 434.433594 689.992188 433.714844 690.140625 432.972656 C 690.289062 432.234375 690.363281 431.484375 690.363281 430.726562 L 690.363281 369.328125 C 690.363281 368.574219 690.289062 367.824219 690.140625 367.082031 C 689.992188 366.339844 689.773438 365.621094 689.484375 364.921875 C 689.195312 364.222656 688.839844 363.5625 688.421875 362.933594 C 688 362.304688 687.523438 361.722656 686.988281 361.1875 C 686.457031 360.652344 685.875 360.175781 685.246094 359.757812 C 684.617188 359.335938 683.953125 358.980469 683.253906 358.691406 C 682.554688 358.402344 681.835938 358.183594 681.09375 358.035156 C 680.355469 357.890625 679.605469 357.816406 678.847656 357.816406 Z M 651.988281 277.226562 L 680.929688 277.226562 L 680.613281 278.304688 C 680.496094 278.699219 680.320312 279.070312 680.082031 279.410156 C 679.84375 279.75 679.5625 280.046875 679.230469 280.292969 C 678.898438 280.542969 678.535156 280.734375 678.140625 280.863281 C 677.75 280.996094 677.34375 281.0625 676.929688 281.066406 L 648.148438 281.066406 C 648.65625 281.066406 649.148438 280.96875 649.617188 280.773438 C 650.085938 280.578125 650.503906 280.300781 650.863281 279.941406 C 651.222656 279.582031 651.5 279.167969 651.695312 278.695312 C 651.890625 278.226562 651.988281 277.738281 651.988281 277.226562 Z M 604.019531 281.066406 C 603.601562 281.0625 603.199219 280.996094 602.804688 280.863281 C 602.414062 280.734375 602.050781 280.542969 601.71875 280.292969 C 601.386719 280.046875 601.101562 279.75 600.867188 279.410156 C 600.628906 279.070312 600.453125 278.699219 600.332031 278.304688 L 600.019531 277.226562 L 628.960938 277.226562 C 628.960938 277.738281 629.058594 278.226562 629.253906 278.695312 C 629.449219 279.167969 629.726562 279.582031 630.085938 279.941406 C 630.445312 280.300781 630.859375 280.578125 631.332031 280.773438 C 631.800781 280.96875 632.289062 281.066406 632.800781 281.066406 Z M 483.136719 219.664062 C 492.148438 219.664062 497.40625 222.25 498.390625 223.503906 C 497.40625 224.757812 492.148438 227.339844 483.136719 227.339844 C 474.125 227.339844 468.867188 224.757812 467.882812 223.503906 C 468.867188 222.25 474.125 219.664062 483.136719 219.664062 Z M 467.785156 232.347656 C 472.734375 234.210938 477.851562 235.101562 483.136719 235.015625 C 488.421875 235.09375 493.539062 234.199219 498.488281 232.328125 L 498.488281 238.671875 C 497.917969 239.839844 492.609375 242.691406 483.136719 242.691406 C 473.605469 242.691406 468.269531 239.796875 467.785156 238.851562 Z M 467.785156 247.699219 C 472.734375 249.5625 477.851562 250.453125 483.136719 250.367188 C 488.429688 250.449219 493.554688 249.550781 498.507812 247.679688 L 498.507812 254.011719 C 497.960938 255.171875 492.636719 258.039062 483.136719 258.039062 C 473.636719 258.039062 468.269531 255.148438 467.785156 254.203125 Z M 467.785156 269.554688 L 467.785156 263.03125 C 472.734375 264.898438 477.847656 265.796875 483.136719 265.714844 C 488.433594 265.800781 493.5625 264.90625 498.515625 263.03125 L 498.515625 269.339844 C 498.003906 270.496094 492.667969 273.390625 483.136719 273.390625 C 473.605469 273.390625 468.269531 270.496094 467.785156 269.554688 Z M 512.453125 434.566406 L 492.195312 434.566406 L 494.078125 426.890625 L 510.578125 426.890625 Z M 533.023438 419.214844 L 471.625 419.214844 C 471.117188 419.214844 470.625 419.117188 470.15625 418.921875 C 469.683594 418.730469 469.269531 418.453125 468.910156 418.09375 C 468.550781 417.730469 468.273438 417.316406 468.078125 416.847656 C 467.882812 416.375 467.785156 415.886719 467.785156 415.378906 L 467.785156 411.539062 L 536.863281 411.539062 L 536.863281 415.378906 C 536.863281 415.886719 536.765625 416.375 536.570312 416.847656 C 536.375 417.316406 536.097656 417.730469 535.738281 418.09375 C 535.378906 418.453125 534.960938 418.730469 534.492188 418.921875 C 534.023438 419.117188 533.53125 419.214844 533.023438 419.214844 Z M 536.863281 377.003906 L 536.863281 403.867188 L 467.785156 403.867188 L 467.785156 377.003906 C 467.785156 376.496094 467.882812 376.003906 468.078125 375.535156 C 468.273438 375.066406 468.550781 374.648438 468.910156 374.289062 C 469.269531 373.929688 469.683594 373.652344 470.15625 373.457031 C 470.625 373.261719 471.117188 373.164062 471.625 373.164062 L 533.023438 373.164062 C 533.53125 373.164062 534.023438 373.261719 534.492188 373.457031 C 534.960938 373.652344 535.378906 373.929688 535.738281 374.289062 C 536.097656 374.648438 536.375 375.066406 536.570312 375.535156 C 536.765625 376.003906 536.863281 376.496094 536.863281 377.003906 Z M 609.546875 323.277344 L 599.433594 323.277344 C 599.195312 317.785156 598.296875 312.398438 596.746094 307.121094 C 598.238281 306.242188 599.671875 305.277344 601.042969 304.222656 C 603.414062 306.878906 605.324219 309.835938 606.777344 313.089844 C 608.226562 316.34375 609.152344 319.738281 609.546875 323.277344 Z M 579.074219 293.691406 C 580.847656 294.855469 582.410156 296.257812 583.761719 297.894531 C 585.113281 299.527344 586.195312 301.324219 587.007812 303.285156 C 584.4375 304.21875 581.792969 304.839844 579.074219 305.136719 Z M 592.585938 297.296875 C 593.476562 297.820312 594.34375 298.371094 595.179688 298.972656 C 594.761719 299.265625 594.347656 299.574219 593.917969 299.851562 C 593.492188 298.972656 593.050781 298.117188 592.585938 297.296875 Z M 571.398438 293.691406 L 571.398438 305.132812 C 568.679688 304.835938 566.035156 304.214844 563.46875 303.277344 C 564.28125 301.320312 565.363281 299.523438 566.714844 297.890625 C 568.066406 296.253906 569.628906 294.855469 571.398438 293.691406 Z M 556.554688 299.871094 C 556.125 299.59375 555.710938 299.285156 555.292969 298.992188 C 556.128906 298.390625 556.996094 297.839844 557.886719 297.316406 C 557.421875 298.117188 556.980469 298.972656 556.554688 299.871094 Z M 571.398438 312.867188 L 571.398438 323.277344 L 558.734375 323.277344 C 558.957031 318.933594 559.648438 314.660156 560.804688 310.464844 C 564.230469 311.726562 567.761719 312.527344 571.398438 312.867188 Z M 571.398438 330.953125 L 571.398438 341.363281 C 567.757812 341.699219 564.21875 342.5 560.785156 343.765625 C 559.636719 339.570312 558.953125 335.300781 558.734375 330.953125 Z M 571.398438 349.097656 L 571.398438 360.539062 C 569.628906 359.375 568.066406 357.972656 566.714844 356.339844 C 565.363281 354.703125 564.28125 352.90625 563.46875 350.945312 C 566.035156 350.011719 568.679688 349.394531 571.398438 349.097656 Z M 557.886719 356.933594 C 556.996094 356.410156 556.128906 355.859375 555.292969 355.261719 C 555.710938 354.964844 556.125 354.65625 556.554688 354.382812 C 556.980469 355.261719 557.421875 356.117188 557.886719 356.933594 Z M 579.074219 360.539062 L 579.074219 349.09375 C 581.792969 349.394531 584.4375 350.015625 587.007812 350.953125 C 586.191406 352.914062 585.109375 354.707031 583.757812 356.34375 C 582.40625 357.976562 580.847656 359.375 579.074219 360.539062 Z M 593.917969 354.363281 C 594.347656 354.636719 594.761719 354.945312 595.179688 355.242188 C 594.34375 355.839844 593.476562 356.390625 592.585938 356.914062 C 593.050781 356.117188 593.492188 355.261719 593.917969 354.363281 Z M 579.074219 341.363281 L 579.074219 330.953125 L 591.757812 330.953125 C 591.535156 335.300781 590.84375 339.570312 589.6875 343.765625 C 586.253906 342.5 582.71875 341.699219 579.074219 341.363281 Z M 579.074219 323.277344 L 579.074219 312.867188 C 582.71875 312.53125 586.253906 311.730469 589.6875 310.464844 C 590.84375 314.660156 591.535156 318.933594 591.757812 323.277344 Z M 549.449219 304.222656 C 550.820312 305.277344 552.253906 306.242188 553.746094 307.121094 C 552.195312 312.398438 551.300781 317.785156 551.058594 323.277344 L 540.925781 323.277344 C 541.324219 319.738281 542.25 316.339844 543.707031 313.085938 C 545.160156 309.835938 547.074219 306.878906 549.449219 304.222656 Z M 540.925781 330.953125 L 551.058594 330.953125 C 551.300781 336.449219 552.195312 341.832031 553.746094 347.109375 C 552.253906 347.988281 550.820312 348.953125 549.449219 350.011719 C 547.074219 347.351562 545.160156 344.398438 543.707031 341.144531 C 542.25 337.890625 541.324219 334.496094 540.925781 330.953125 Z M 601.023438 350.011719 C 599.652344 348.953125 598.21875 347.988281 596.726562 347.109375 C 598.277344 341.832031 599.175781 336.449219 599.414062 330.953125 L 609.527344 330.953125 C 609.132812 334.492188 608.207031 337.890625 606.757812 341.140625 C 605.304688 344.394531 603.394531 347.351562 601.023438 350.011719 Z M 671.175781 365.492188 C 671.175781 366 671.078125 366.488281 670.882812 366.960938 C 670.6875 367.429688 670.410156 367.84375 670.050781 368.203125 C 669.691406 368.5625 669.273438 368.839844 668.804688 369.035156 C 668.335938 369.230469 667.84375 369.328125 667.335938 369.328125 L 659.660156 369.328125 C 659.152344 369.328125 658.664062 369.230469 658.191406 369.035156 C 657.722656 368.839844 657.308594 368.5625 656.949219 368.203125 C 656.589844 367.84375 656.3125 367.429688 656.117188 366.960938 C 655.921875 366.488281 655.824219 366 655.824219 365.492188 Z M 682.6875 430.726562 C 682.6875 431.238281 682.589844 431.726562 682.394531 432.195312 C 682.199219 432.667969 681.921875 433.082031 681.5625 433.441406 C 681.203125 433.800781 680.789062 434.078125 680.316406 434.273438 C 679.847656 434.46875 679.359375 434.566406 678.847656 434.566406 L 648.148438 434.566406 C 647.640625 434.566406 647.152344 434.46875 646.679688 434.273438 C 646.210938 434.078125 645.796875 433.800781 645.4375 433.441406 C 645.074219 433.082031 644.796875 432.667969 644.605469 432.195312 C 644.410156 431.726562 644.3125 431.238281 644.3125 430.726562 L 644.3125 369.328125 C 644.3125 368.820312 644.410156 368.328125 644.605469 367.859375 C 644.796875 367.390625 645.074219 366.976562 645.4375 366.613281 C 645.796875 366.253906 646.210938 365.976562 646.679688 365.78125 C 647.152344 365.589844 647.640625 365.492188 648.148438 365.492188 C 648.148438 366.246094 648.222656 366.996094 648.371094 367.738281 C 648.519531 368.476562 648.734375 369.199219 649.027344 369.894531 C 649.316406 370.59375 649.667969 371.257812 650.089844 371.886719 C 650.507812 372.515625 650.988281 373.097656 651.519531 373.632812 C 652.054688 374.164062 652.636719 374.644531 653.265625 375.0625 C 653.894531 375.484375 654.558594 375.835938 655.257812 376.128906 C 655.953125 376.417969 656.675781 376.632812 657.414062 376.78125 C 658.15625 376.929688 658.90625 377.003906 659.660156 377.003906 L 667.335938 377.003906 C 668.09375 377.003906 668.839844 376.929688 669.582031 376.78125 C 670.324219 376.632812 671.042969 376.417969 671.742188 376.128906 C 672.441406 375.835938 673.105469 375.484375 673.734375 375.0625 C 674.359375 374.644531 674.941406 374.164062 675.476562 373.632812 C 676.011719 373.097656 676.488281 372.515625 676.910156 371.886719 C 677.328125 371.257812 677.683594 370.59375 677.972656 369.894531 C 678.261719 369.199219 678.480469 368.476562 678.628906 367.738281 C 678.777344 366.996094 678.847656 366.246094 678.847656 365.492188 C 679.359375 365.492188 679.847656 365.589844 680.316406 365.78125 C 680.789062 365.976562 681.203125 366.253906 681.5625 366.613281 C 681.921875 366.976562 682.199219 367.390625 682.394531 367.859375 C 682.589844 368.328125 682.6875 368.820312 682.6875 369.328125 Z M 682.6875 430.726562 " fill-opacity="1" fill-rule="nonzero"/></g></svg>