<svg xmlns="http://www.w3.org/2000/svg" xmlns:xlink="http://www.w3.org/1999/xlink" width="1366" zoomAndPan="magnify" viewBox="0 0 1024.5 576" height="768" preserveAspectRatio="xMidYMid meet" version="1.0"><defs><clipPath id="6179cdee75"><path d="M 548 308 L 656.679688 308 L 656.679688 417 L 548 417 Z M 548 308 " clip-rule="nonzero"/></clipPath><clipPath id="aed1a155a8"><path d="M 343 354 L 610 354 L 610 467.035156 L 343 467.035156 Z M 343 354 " clip-rule="nonzero"/></clipPath><clipPath id="32a578a56d"><path d="M 313.179688 236.785156 L 384 236.785156 L 384 345 L 313.179688 345 Z M 313.179688 236.785156 " clip-rule="nonzero"/></clipPath></defs><path fill="#000000" d="M 438.601562 319.683594 C 436.996094 317.277344 433.78125 316.476562 431.105469 318.082031 L 393.613281 342.148438 C 392.003906 343.21875 391.203125 344.824219 391.203125 346.695312 C 391.203125 348.566406 392.003906 350.171875 393.613281 351.242188 L 431.105469 375.308594 C 431.90625 375.84375 432.976562 376.109375 434.050781 376.109375 C 435.925781 376.109375 437.53125 375.308594 438.601562 373.703125 C 440.207031 371.296875 439.40625 367.820312 436.996094 366.214844 L 406.464844 346.695312 L 436.996094 327.171875 C 439.40625 325.570312 440.207031 322.09375 438.601562 319.683594 Z M 438.601562 319.683594 " fill-opacity="1" fill-rule="nonzero"/><path fill="#000000" d="M 533.402344 342.148438 L 495.910156 318.082031 C 493.5 316.476562 490.019531 317.277344 488.410156 319.683594 C 486.804688 322.09375 487.609375 325.570312 490.019531 327.171875 L 520.546875 346.695312 L 490.019531 366.214844 C 487.609375 367.820312 486.804688 371.03125 488.410156 373.703125 C 489.484375 375.308594 491.089844 376.109375 492.964844 376.109375 C 494.035156 376.109375 494.839844 375.84375 495.910156 375.308594 L 533.402344 351.242188 C 535.007812 350.171875 535.8125 348.566406 535.8125 346.695312 C 535.8125 344.824219 535.007812 343.21875 533.402344 342.148438 Z M 533.402344 342.148438 " fill-opacity="1" fill-rule="nonzero"/><path fill="#000000" d="M 452.796875 381.460938 C 454.9375 381.460938 457.078125 380.121094 457.882812 377.984375 L 479.308594 319.152344 C 480.378906 316.476562 478.769531 313.265625 476.09375 312.199219 C 473.414062 311.128906 470.203125 312.730469 469.128906 315.40625 L 447.707031 374.238281 C 446.636719 376.914062 448.242188 380.121094 450.921875 381.191406 C 451.457031 381.460938 452.257812 381.460938 452.796875 381.460938 Z M 452.796875 381.460938 " fill-opacity="1" fill-rule="nonzero"/><g clip-path="url(#6179cdee75)"><path fill="#000000" d="M 646.144531 346.425781 C 645.875 345.359375 645.339844 344.554688 645.070312 343.484375 C 646.410156 341.347656 646.945312 338.941406 646.945312 336.53125 C 646.945312 333.054688 645.609375 329.847656 643.199219 327.171875 L 638.109375 322.09375 C 635.699219 319.683594 632.21875 318.347656 628.738281 318.347656 C 626.328125 318.347656 623.917969 319.152344 621.773438 320.21875 C 620.703125 319.683594 619.898438 319.417969 618.828125 319.152344 C 617.488281 313.265625 612.402344 308.988281 605.972656 308.988281 L 598.742188 308.988281 C 592.585938 308.988281 587.226562 313.265625 585.890625 319.152344 C 584.816406 319.417969 584.015625 319.953125 582.945312 320.21875 C 580.800781 318.882812 578.390625 318.347656 575.980469 318.347656 C 572.5 318.347656 569.285156 319.683594 566.609375 322.09375 L 561.519531 327.171875 C 559.109375 329.578125 557.769531 333.054688 557.769531 336.53125 C 557.769531 338.941406 558.574219 341.347656 559.644531 343.484375 C 559.109375 344.554688 558.84375 345.359375 558.574219 346.425781 C 552.683594 347.765625 548.398438 352.84375 548.398438 359.261719 L 548.398438 366.484375 C 548.398438 372.632812 552.683594 377.984375 558.574219 379.320312 C 558.84375 380.390625 559.378906 381.191406 559.644531 382.261719 C 558.304688 384.402344 557.769531 386.808594 557.769531 389.214844 C 557.769531 392.691406 559.109375 395.902344 561.519531 398.574219 L 566.609375 403.65625 C 569.019531 406.0625 572.5 407.398438 575.980469 407.398438 C 578.390625 407.398438 580.800781 406.597656 582.945312 405.527344 C 584.015625 406.0625 584.816406 406.328125 585.890625 406.597656 C 587.226562 412.480469 592.316406 416.757812 598.742188 416.757812 L 605.972656 416.757812 C 612.132812 416.757812 617.488281 412.480469 618.828125 406.597656 C 619.898438 406.328125 620.703125 405.796875 621.773438 405.527344 C 623.917969 406.863281 626.328125 407.398438 628.738281 407.398438 C 632.21875 407.398438 635.429688 406.0625 638.109375 403.65625 L 643.199219 398.574219 C 645.609375 396.167969 646.945312 392.691406 646.945312 389.214844 C 646.945312 386.808594 646.144531 384.402344 645.070312 382.261719 C 645.609375 381.191406 645.875 380.390625 646.144531 379.320312 C 652.035156 377.984375 656.320312 372.902344 656.320312 366.484375 L 656.320312 359.261719 C 656.320312 353.113281 652.035156 347.765625 646.144531 346.425781 Z M 645.609375 366.214844 C 645.609375 367.554688 644.535156 368.625 643.199219 368.625 L 637.839844 368.625 C 637.039062 373.972656 634.894531 379.054688 631.683594 383.332031 L 635.429688 387.074219 C 636.234375 387.878906 636.234375 389.480469 635.429688 390.550781 L 630.34375 395.632812 C 629.808594 396.167969 629.273438 396.433594 628.738281 396.433594 C 628.199219 396.433594 627.398438 396.167969 627.128906 395.632812 L 623.378906 391.890625 C 619.097656 394.832031 614.007812 396.96875 608.652344 398.039062 L 608.652344 403.386719 C 608.652344 404.726562 607.582031 405.796875 606.242188 405.796875 L 599.011719 405.796875 C 597.671875 405.796875 596.601562 404.726562 596.601562 403.386719 L 596.601562 398.039062 C 591.246094 397.238281 586.15625 395.097656 581.871094 391.890625 L 578.125 395.632812 C 577.585938 396.167969 577.050781 396.433594 576.515625 396.433594 C 575.980469 396.433594 575.175781 396.167969 574.910156 395.632812 L 569.820312 390.550781 C 569.019531 389.75 569.019531 388.144531 569.820312 387.074219 L 573.570312 383.332031 C 570.625 379.054688 568.484375 373.972656 567.410156 368.625 L 562.054688 368.625 C 560.714844 368.625 559.644531 367.554688 559.644531 366.214844 L 559.644531 358.996094 C 559.644531 357.660156 560.714844 356.589844 562.054688 356.589844 L 567.410156 356.589844 C 568.214844 351.242188 570.355469 346.160156 573.570312 341.882812 L 569.820312 338.136719 C 569.019531 337.335938 569.019531 335.730469 569.820312 334.660156 L 574.910156 329.578125 C 575.445312 329.046875 575.980469 328.777344 576.515625 328.777344 C 577.050781 328.777344 577.855469 329.046875 578.125 329.578125 L 581.871094 333.324219 C 586.15625 330.382812 591.246094 328.242188 596.601562 327.171875 L 596.601562 321.824219 C 596.601562 320.488281 597.671875 319.417969 599.011719 319.417969 L 606.242188 319.417969 C 607.582031 319.417969 608.652344 320.488281 608.652344 321.824219 L 608.652344 327.171875 C 614.007812 327.976562 619.097656 330.113281 623.378906 333.324219 L 627.128906 329.578125 C 627.664062 329.046875 628.199219 328.777344 628.738281 328.777344 C 629.273438 328.777344 630.074219 329.046875 630.34375 329.578125 L 635.429688 334.660156 C 636.234375 335.464844 636.234375 337.066406 635.429688 338.136719 L 631.683594 341.882812 C 634.628906 346.160156 636.769531 351.242188 637.839844 356.589844 L 643.199219 356.589844 C 644.535156 356.589844 645.609375 357.660156 645.609375 358.996094 Z M 645.609375 366.214844 " fill-opacity="1" fill-rule="nonzero"/></g><path fill="#000000" d="M 602.761719 344.019531 C 592.316406 344.019531 584.015625 352.3125 584.015625 362.738281 C 584.015625 373.167969 592.316406 381.460938 602.761719 381.460938 C 613.203125 381.460938 621.507812 373.167969 621.507812 362.738281 C 621.507812 352.3125 613.203125 344.019531 602.761719 344.019531 Z M 602.761719 370.761719 C 598.207031 370.761719 594.726562 367.285156 594.726562 362.738281 C 594.726562 358.195312 598.207031 354.71875 602.761719 354.71875 C 607.3125 354.71875 610.792969 358.195312 610.792969 362.738281 C 610.792969 367.285156 607.3125 370.761719 602.761719 370.761719 Z M 602.761719 370.761719 " fill-opacity="1" fill-rule="nonzero"/><g clip-path="url(#aed1a155a8)"><path fill="#000000" d="M 594.726562 437.617188 C 601.957031 437.617188 607.847656 433.070312 609.992188 426.652344 C 608.917969 426.921875 607.582031 426.921875 606.242188 426.921875 L 599.011719 426.921875 C 597.941406 426.921875 596.867188 426.921875 596.066406 426.652344 C 595.53125 426.652344 595.261719 426.921875 594.726562 426.921875 L 359.066406 426.921875 C 356.121094 426.921875 353.710938 424.515625 353.710938 421.574219 L 353.710938 354.183594 C 352.105469 354.449219 350.230469 354.71875 348.355469 354.71875 C 346.480469 354.71875 344.605469 354.449219 343 354.183594 L 343 421.574219 C 343 430.398438 350.230469 437.617188 359.066406 437.617188 L 455.472656 437.617188 L 455.472656 456.335938 L 439.40625 456.335938 C 436.460938 456.335938 434.050781 458.746094 434.050781 461.6875 C 434.050781 464.628906 436.460938 467.035156 439.40625 467.035156 L 514.386719 467.035156 C 517.332031 467.035156 519.742188 464.628906 519.742188 461.6875 C 519.742188 458.746094 517.332031 456.335938 514.386719 456.335938 L 498.320312 456.335938 L 498.320312 437.617188 Z M 487.609375 456.335938 L 466.183594 456.335938 L 466.183594 437.617188 L 487.609375 437.617188 Z M 487.609375 456.335938 " fill-opacity="1" fill-rule="nonzero"/></g><path fill="#000000" d="M 606.242188 298.558594 C 607.847656 298.558594 609.1875 298.828125 610.792969 299.09375 L 610.792969 271.816406 C 610.792969 262.992188 603.5625 255.773438 594.726562 255.773438 L 391.46875 255.773438 C 392.542969 259.246094 393.34375 262.722656 393.613281 266.46875 L 594.726562 266.46875 C 597.671875 266.46875 600.082031 268.875 600.082031 271.816406 L 600.082031 298.558594 Z M 606.242188 298.558594 " fill-opacity="1" fill-rule="nonzero"/><g clip-path="url(#32a578a56d)"><path fill="#000000" d="M 329.878906 301.234375 L 329.878906 325.035156 C 329.878906 335.464844 338.179688 344.019531 348.355469 344.019531 C 358.53125 344.019531 366.832031 335.464844 366.832031 325.035156 L 366.832031 301.234375 C 377.007812 294.816406 383.167969 283.316406 383.167969 270.746094 C 383.167969 256.039062 374.597656 242.933594 361.210938 237.320312 C 359.601562 236.785156 357.726562 236.785156 356.121094 237.855469 C 354.515625 238.925781 353.710938 240.527344 353.710938 242.402344 L 353.710938 269.144531 L 343 269.144531 L 343 242.402344 C 343 240.527344 342.195312 238.925781 340.589844 237.855469 C 338.980469 236.785156 337.109375 236.785156 335.5 237.320312 C 322.109375 242.667969 313.542969 255.773438 313.542969 270.746094 C 313.542969 283.316406 319.699219 294.816406 329.878906 301.234375 Z M 332.289062 252.027344 L 332.289062 268.875 C 332.289062 274.757812 337.109375 279.570312 343 279.570312 L 353.710938 279.570312 C 359.601562 279.570312 364.421875 274.757812 364.421875 268.875 L 364.421875 252.027344 C 369.511719 256.574219 372.457031 263.527344 372.457031 270.746094 C 372.457031 280.375 367.367188 288.933594 359.066406 293.210938 C 357.191406 294.011719 356.121094 295.882812 356.121094 298.023438 L 356.121094 325.035156 C 356.121094 329.578125 352.640625 333.324219 348.355469 333.324219 C 344.070312 333.324219 340.589844 329.578125 340.589844 325.035156 L 340.589844 298.023438 C 340.589844 296.152344 339.519531 294.28125 337.644531 293.210938 C 329.339844 288.933594 324.253906 280.375 324.253906 270.746094 C 324.253906 263.527344 327.199219 256.839844 332.289062 252.027344 Z M 332.289062 252.027344 " fill-opacity="1" fill-rule="nonzero"/></g></svg>